<svg width="24" height="16" viewBox="0 0 24 16" xmlns="http://www.w3.org/2000/svg"><title>flag-cc</title><g fill="none" fill-rule="evenodd"><path fill="#287E6E" d="M0 0h24v16H0z"/><ellipse fill="#EDED4A" cx="12" cy="8" rx="2.5" ry="2.5"/><ellipse fill="#287E6E" cx="12.78" cy="8" rx="2.057" ry="2.057"/><ellipse fill="#EDED4A" cx="4.119" cy="5.5" rx="2.619" ry="2.619"/><path d="M3.938 7.475h.654s.03-.06-.006-.09-.177-.037-.139-.143c.078-.218.089-.15.138-.668.05-.518.073-1.33.073-1.33h-.095s.018.253-.036.581c-.055.33-.07.358-.13.61-.06.253-.07.275-.124.422-.055.147-.06.155-.146.29-.085.137-.054.086-.101.168-.024.04-.053.03-.069.06-.016.03-.019.1-.019.1z" stroke="#7B3100" stroke-width=".5" fill="#802000"/><path d="M4.437 3.592a.888.888 0 0 1-.046.345c-.043.122-.09.244-.087.37-.068.023-.138-.147-.203-.047.049.138.162.248.24.372.013.039.125.14.06.163-.163-.056-.203-.263-.304-.388a.711.711 0 0 0-.581-.371c-.092.002-.39-.023-.312.134.114.078.255.128.368.216.084.008.236.148.227.2-.148-.059-.217-.13-.376-.194-.216-.083-.515-.033-.634.181-.022.056-.055.219.015.234.082-.128.199-.27.372-.232.136.01-.152.254-.042.205.035-.016.116-.069.172-.074.056-.006.087.036.13.042.085.011.108.047.1.068-.009.024-.036.003-.122.03-.044.014-.066.052-.116.07a.392.392 0 0 1-.195.003c-.137-.06-.361-.05-.404.123 0 .075-.067-.009-.098.024-.024.082-.03.167-.152.16-.074.077-.15.158-.244.213.055.127.274-.127.264-.02-.096.13.049.158.113.057.107-.113.24-.251.4-.137.076.072.12-.038.176-.032.035.09.078.005.118-.02.065-.009.046.08.123.025.153-.1.342-.016.491-.114.16-.073.022.058-.021.11-.07.135-.01.313-.161.397-.061.162.072.375-.064.495-.02.075.174.066.229.097.095.004-.004-.219.09-.249.127.08.121-.14.095-.208.013-.153.021-.321.098-.46.08-.171.156.069.065.136-.052.157-.127.354-.01.5.035.007.062.09.106.114.044.025.104-.006.115-.08.056-.225.028-.467.108-.686.056-.067.135-.01.17.052.112.13.191.294.327.401a.568.568 0 0 1 .291.273c0 .099.28.114.196.005-.08-.107-.027-.214.054-.284.044.01.03-.068-.003-.037-.055-.013-.059-.113.017-.065.129.041-.01-.093-.056-.097-.108-.067-.233-.145-.286-.261.14.001.287.077.432.03.115-.06.232.005.273.107.089-.015.051-.104 0-.134.065-.027.11-.083.031-.132-.042-.055.056-.148-.064-.144.004-.092-.033-.176-.133-.208-.1-.085-.395.125-.386-.066-.03-.105.12-.014.161-.066.043-.11-.205-.1-.123-.185.053-.034.305-.084.107-.12a.311.311 0 0 1-.26-.043c-.07.119-.272-.064-.236.146-.028.08-.208.285-.257.128.042-.124.255-.164.189-.33-.01-.105-.096.017-.137.01-.02-.065.062-.141.12-.157.114.088.118-.11.226-.094.08-.018-.025-.052-.047-.067.021-.058.143-.088.024-.138-.106-.079-.184.077-.27.086-.084-.094.075-.14.119-.19.002-.036-.093-.01-.064-.043.025-.044.193-.048.114-.114a.55.55 0 0 0-.386.022c-.072.023-.093.186-.155.179-.03-.072.01-.215-.09-.236zM5 5.18c.09-.015.002.138-.042.136.004-.055-.13-.05-.047-.098A.273.273 0 0 1 5 5.18z" fill="green"/><g fill="#EDED4A"><path d="M18 11.143l.165.514.505-.191-.299.45.465.275-.538.047.074.534-.372-.391-.372.391.074-.534-.538-.047.465-.276-.3-.45.506.192zM15 6.393l.165.514.505-.191-.299.45.465.275-.538.047.074.534L15 7.631l-.372.391.074-.534-.538-.047.465-.276-.3-.45.506.192zM18 3.143l.165.514.505-.191-.299.45.465.275-.538.047.074.534L18 4.381l-.372.391.074-.534-.538-.047.465-.276-.3-.45.506.192zM20.667 5.593l.165.514.505-.191-.299.45.464.275-.537.047.074.534-.372-.391-.372.391.074-.534-.538-.047.464-.276-.298-.45.504.192zM19.2 8l.13.32.346.025-.265.224.083.336-.294-.183-.294.183.083-.336-.265-.224.345-.025z"/></g></g></svg>