<svg width="24" height="16" viewBox="0 0 24 16" xmlns="http://www.w3.org/2000/svg"><title>flag-ca</title><g fill="none" fill-rule="evenodd"><path fill="#FFF" d="M5.996 0H17.99v16H5.996z"/><path fill="#FFF" d="M0 0h24v16H0z"/><path d="M0 0h5.996v16H0V0zm17.989 0h5.996v16H17.99V0zm-10.2 7.732l-.465.15L9.49 9.677c.164.461-.057.597-.198.84l2.352-.282-.06 2.234.486-.013-.106-2.216 2.355.263c-.146-.29-.276-.444-.14-.909l2.165-1.7-.38-.13c-.31-.226.135-1.087.201-1.63 0 0-1.264.41-1.347.195l-.322-.584-1.15 1.193c-.126.028-.18-.019-.209-.12l.532-2.492-.842.447c-.07.028-.14.004-.187-.074l-.81-1.533-.834 1.592c-.063.057-.126.064-.178.025l-.801-.424.48 2.473c-.038.098-.13.126-.237.073l-1.1-1.18c-.143.218-.24.573-.431.653-.19.075-.827-.15-1.254-.239.146.497.602 1.322.313 1.593z" fill="#E84550"/></g></svg>