<svg width="24" height="16" viewBox="0 0 24 16" xmlns="http://www.w3.org/2000/svg" xmlns:xlink="http://www.w3.org/1999/xlink"><title>flag-by</title><defs><path id="a" d="M0 0h24v16H0z"/><mask id="b" x="0" y="0" width="24" height="16" fill="#fff"><use xlink:href="#a"/></mask></defs><g fill="none" fill-rule="evenodd"><path fill="#C8313E" d="M0 0h24v16H0z"/><path fill="#4AA657" d="M0 10.667h24V16H0z"/><path fill="#FFF" d="M0 0h4v16H0z"/><g fill="#C8313E"><path d="M1.333 0h1v.516h.334v.516H3v.516h.333v.517h.334v.516h-.334v.516H3v.516h-.333v.516h-.334v.516H2v.516h-.333v-.516h-.334V4.13H1v-.516H.667v-.516H.333V2.58H0v-.516h.333v-.517h.334v-.516H1V.516h.333V0zm.334 1.032H2v.516h.333v.517h.334v.516h-.334v.516H2v.516h-.333v-.516h-.334V2.58H1v-.516h.333v-.517h.334v-.516zm0 1.033H2v.516h-.333v-.516zM0 .516h.333v.516H0V.516zm0 3.097h.333v.516H0v-.516zM3.667 0h.2v1.032h-.2V0zm0 3.613h.2v1.032h-.2V3.613zm-3 1.032H1v.516h.333v.516h.334v.517h-.334v.516H1v.516H.667V6.71H.333v-.516H0v-.517h.333v-.516h.334v-.516zm0 1.032H1v.517H.667v-.517zm2-1.032H3v.516h.333v.516h.334v.517h-.334v.516H3v.516h-.333V6.71h-.334v-.516H2v-.517h.333v-.516h.334v-.516zm0 1.032H3v.517h-.333v-.517zM0 7.742h.333v.516H0v-.516zm3.667-.516h.2v1.032h-.2V7.226zM0 9.29h.333v-.516h.334v-.516H1v-.516h.333v-.516h.334V6.71H2v.516h.333v.516h.334v.516H3v.516h.333v.516h.334v.516h.2v2.065h-.2v.516h-.334v.516H3v.516h-.333v.516h-.334v.517H2v1.342h-.667v-.31H1v-.516H.667v-.516H.333v-.517H0v-1.548h.333v.516h.334v.516H1v.516h.333v-.516h.334v-.516H2v-.516h.333v-.516h.334v-.516H3v-.516h-.333v-.516h-.334v-.517h-1v.517H2v.516h-.333v.516h-.334v.516H1v-.516H.667v-.516H.333v-.516H0V9.29zm0 2.065h.333v.516H0v-.516zm3.667 1.548h.2v.516h-.2v-.516zM3 13.935h.333v.517h.334v.516h.2v.826h-.2v-.31h-.334v-.516H3v-1.033zm-.667 1.549h.334v.31h-.334v-.31z"/></g><g stroke="#E6E6E6"><use mask="url(#b)" xlink:href="#a"/></g></g></svg>