<svg width="24" height="16" viewBox="0 0 24 16" xmlns="http://www.w3.org/2000/svg" xmlns:xlink="http://www.w3.org/1999/xlink"><title>flag-tm</title><defs><path id="a" d="M3 11l1 1-1 1z"/><mask id="k" x="0" y="0" width="1" height="2" fill="#fff"><use xlink:href="#a"/></mask><path id="b" d="M3 8l1 1-1 1z"/><mask id="l" x="0" y="0" width="1" height="2" fill="#fff"><use xlink:href="#b"/></mask><path id="c" d="M3 5l1 1-1 1z"/><mask id="m" x="0" y="0" width="1" height="2" fill="#fff"><use xlink:href="#c"/></mask><path id="d" d="M3 2l1 1-1 1z"/><mask id="n" x="0" y="0" width="1" height="2" fill="#fff"><use xlink:href="#d"/></mask><path id="e" d="M3 0h1L3 1z"/><mask id="o" x="0" y="0" width="1" height="1" fill="#fff"><use xlink:href="#e"/></mask><path id="f" d="M6 11l1 1-1 1z"/><mask id="p" x="0" y="0" width="1" height="2" fill="#fff"><use xlink:href="#f"/></mask><path id="g" d="M6 8l1 1-1 1z"/><mask id="q" x="0" y="0" width="1" height="2" fill="#fff"><use xlink:href="#g"/></mask><path id="h" d="M6 5l1 1-1 1z"/><mask id="r" x="0" y="0" width="1" height="2" fill="#fff"><use xlink:href="#h"/></mask><path id="i" d="M6 2l1 1-1 1z"/><mask id="s" x="0" y="0" width="1" height="2" fill="#fff"><use xlink:href="#i"/></mask><path id="j" d="M6 0h1L6 1z"/><mask id="t" x="0" y="0" width="1" height="1" fill="#fff"><use xlink:href="#j"/></mask></defs><g fill="none" fill-rule="evenodd"><path fill="#287E6E" d="M0 0h24v16H0z"/><path d="M13.02 3a2.7 2.7 0 0 1 .387.221 2.6 2.6 0 0 1 .655 3.659c-.846 1.188-2.51 1.477-3.719.645A2.679 2.679 0 0 1 10 7.244c1.156.542 2.574.2 3.333-.867A2.596 2.596 0 0 0 13.021 3zM10.336 2.664L10 2.567l.32-.187L10.3 2l.252.232.365-.15-.149.366.232.253-.38-.021-.187.32zM11.336 3.664L11 3.567l.32-.187L11.3 3l.252.232.365-.15-.149.366.232.253-.38-.021-.187.32zM9.336 5.664L9 5.567l.32-.187L9.3 5l.252.232.365-.15-.149.366.232.253-.38-.021-.187.32zM8.336 4.664L8 4.567l.32-.187L8.3 4l.252.232.365-.15-.149.366.232.253-.38-.021-.187.32zM9.836 4.164L9.5 4.067l.32-.187-.02-.38.252.232.365-.15-.149.366.232.253-.38-.021-.187.32z" fill="#FFF"/><path fill="#CA3946" d="M3 0h4v16H3z"/><path d="M4.11 13.096v.707l-.13-.219.784.432-.12-.03h.718l-.12.03.783-.432-.13.22v-.708l.13.219-.784-.432.121.031h-.719l.121-.031-.783.432.129-.219zm-.25 0l.783-.432h.72l.782.432v.707l-.783.432h-.719l-.783-.432v-.707z" fill="#FFF"/><path d="M5.595 6.639l.638.484v.675l-.638.483h-1.19l-.638-.483v-.675l.638-.484h1.19z" fill="#28AE66"/><path d="M4.471 6.844l-.27.232.069.06.05-.047.066.01.026.048-.047.048.047.048-.026.049-.066.008-.05-.045-.073.062v.02c.025.022.048.043.073.063l.05-.045.066.008.026.05-.047.047.047.047-.026.05-.066.009-.05-.047-.073.063v.022l.073.062.05-.046.066.01.026.048-.047.048.047.048-.026.049-.066.009-.05-.047-.069.059.27.231h.06l.086-.086-.055-.05.01-.069.058-.025.06.048.058-.048.058.025.011.07-.056.05.084.082.084-.083-.057-.05.01-.069.06-.025.058.048.059-.048.058.025.01.07-.055.05.083.083.084-.084-.056-.05.01-.069.06-.025.058.048.058-.048.06.025.01.07-.056.05.087.085h.058l.27-.231-.069-.059-.049.047-.065-.01-.028-.048.047-.048-.047-.048.028-.049.065-.009.05.046.072-.062v-.022l-.073-.063-.049.047-.065-.008-.028-.05.047-.048-.047-.048.028-.049.065-.008.05.045.072-.06v-.025l-.073-.06a32.2 32.2 0 0 1-.049.045l-.065-.008-.028-.05.047-.047-.047-.048.028-.049.065-.009.05.046.07-.058-.272-.233H5.47l-.087.086.056.05-.01.07-.06.026-.058-.048-.058.048-.06-.027-.01-.069.056-.05-.083-.082-.084.082.055.05-.01.07-.058.026-.06-.048-.058.048-.059-.027-.01-.069.057-.05-.084-.082-.084.082.056.05-.011.07-.058.026-.058-.048-.06.048-.058-.027-.01-.069.055-.05-.088-.086h-.058zm-.274.59v.102l.1-.053-.1-.05z" fill="#CA3745"/><path fill="#2B3541" d="M3.758 4.173v.554l.852.338h.78l.853-.338v-.554l-.852-.338H4.61z"/><path d="M4.11 1.096v.707l-.13-.219.784.432-.12-.03h.718l-.12.03.783-.432-.13.22v-.708l.13.219L5.24.883l.121.031h-.719l.121-.031-.783.432.129-.219zm-.25 0l.783-.432h.72l.782.432v.707l-.783.432h-.719l-.783-.432v-.707z" fill="#FFF"/><path d="M3.345 14.27c.02.086.085.15.101.238.032-.092.06-.169.04-.27-.016-.072-.076-.123-.082-.197-.065.06-.079.143-.06.23zm-.016.358c.054.076.13.135.214.175-.016-.068.015-.118.05-.172.04-.064.06-.127.027-.201a.456.456 0 0 1-.062.103.308.308 0 0 0-.066.163c-.043-.032-.061-.08-.084-.127a.396.396 0 0 0-.155-.16c.017.076.03.155.076.219zm.306.229a.41.41 0 0 0-.02.13c-.035-.04-.083-.07-.126-.103-.058-.048-.126-.082-.174-.144.007.09.045.165.117.22.076.058.167.09.242.15-.011-.082.018-.148.043-.224a.214.214 0 0 0-.047-.2c0 .06-.018.113-.035.17zm.17.278c.016.062.06.113.09.17-.08-.026-.151-.071-.224-.113-.087-.049-.18-.08-.26-.143a.379.379 0 0 0 .278.277c.097.03.178.015.296.064a.852.852 0 0 0-.075-.243c-.03-.053-.062-.105-.08-.164a.202.202 0 0 0-.024.152zm.297.227c.027.048.064.09.11.121-.115.008-.207-.066-.318-.07-.069-.001-.134.02-.204.014.083.057.17.108.271.121.132.018.254-.016.399-.003-.068-.05-.102-.115-.144-.186-.055-.088-.107-.15-.215-.165.043.05.068.11.1.168zm.405.194c-.2.035-.394.08-.6.082a.94.94 0 0 0 .676.013.738.738 0 0 1 .31-.064c.137.01.302.065.485.263l.072-.059c-.262-.24-.605-.294-.943-.235z" fill="#FAAE29"/><path d="M6.656 14.27c-.02.086-.086.15-.101.238-.032-.092-.06-.169-.04-.27.016-.072.075-.123.082-.197.065.06.079.143.059.23zm.016.358a.547.547 0 0 1-.214.175c.016-.068-.015-.118-.05-.172-.04-.064-.061-.127-.027-.201.016.038.037.07.062.103.036.051.06.097.066.163.043-.032.061-.08.084-.127a.396.396 0 0 1 .155-.16c-.017.076-.03.155-.076.219zm-.306.229a.41.41 0 0 1 .02.13c.035-.04.083-.07.126-.103.058-.048.126-.082.174-.144a.293.293 0 0 1-.117.22c-.076.058-.167.09-.242.15.011-.082-.018-.148-.044-.224a.214.214 0 0 1 .048-.2c-.001.06.018.113.035.17zm-.17.278c-.017.062-.06.113-.09.17.08-.026.151-.071.224-.113.087-.049.18-.08.26-.143a.379.379 0 0 1-.278.277c-.097.03-.178.015-.296.064a.852.852 0 0 1 .075-.243c.03-.053.062-.105.08-.164a.202.202 0 0 1 .024.152zm-.297.227a.377.377 0 0 1-.11.121c.115.008.207-.066.318-.07.069-.001.134.02.204.014a.628.628 0 0 1-.272.121c-.131.018-.253-.016-.398-.003.068-.05.102-.115.144-.186.055-.088.107-.15.215-.165-.044.05-.069.11-.1.168zm-.406.194c.202.035.395.08.6.082a.94.94 0 0 1-.675.013.738.738 0 0 0-.31-.064c-.137.01-.302.065-.485.263l-.072-.059c.262-.24.605-.294.942-.235z" fill="#FAAE29"/><use stroke="#FD9B3F" mask="url(#k)" stroke-width=".4" xlink:href="#a"/><use stroke="#FD9B3F" mask="url(#l)" stroke-width=".4" xlink:href="#b"/><use stroke="#FD9B3F" mask="url(#m)" stroke-width=".4" xlink:href="#c"/><use stroke="#FD9B3F" mask="url(#n)" stroke-width=".4" xlink:href="#d"/><use stroke="#FD9B3F" mask="url(#o)" stroke-width=".4" xlink:href="#e"/><use stroke="#FD9B3F" mask="url(#p)" stroke-width=".4" transform="matrix(-1 0 0 1 13 0)" xlink:href="#f"/><use stroke="#FD9B3F" mask="url(#q)" stroke-width=".4" transform="matrix(-1 0 0 1 13 0)" xlink:href="#g"/><use stroke="#FD9B3F" mask="url(#r)" stroke-width=".4" transform="matrix(-1 0 0 1 13 0)" xlink:href="#h"/><use stroke="#FD9B3F" mask="url(#s)" stroke-width=".4" transform="matrix(-1 0 0 1 13 0)" xlink:href="#i"/><use stroke="#FD9B3F" mask="url(#t)" stroke-width=".4" transform="matrix(-1 0 0 1 13 0)" xlink:href="#j"/><g><path fill="#28AE66" d="M6.057 10.874v.293h-.785L5 11.334l-.272-.167h-.785v-.293H3.67v-.266h-.276v-.356h.276v-.266h.273v-.293h.784L5 9.526l.272.167h.785v.293h.272v.266h.276v.356H6.33v.266z"/><path fill="#383739" d="M4.596 10.352v-.145h-.048l-.231-.148-.003.002-.228.146h-.048v.145h-.109v.156h.109v.145h.048l.23.148.232-.148h.048v-.145h.166v-.156z"/><path d="M4.317 10.072l.211.135h-.422l.21-.135zm.211.58l-.211.136-.211-.135h.422zM4.477 10.363v.13h-.264v-.13z" fill="#CA3745"/><g fill="#FAAE29"><path d="M4.586 10.5v.131h-.264v-.13zM4.312 10.5v.131h-.264v-.13zM4.751 10.359v.13h-.263v-.13zM4.203 10.359v.13h-.264v-.13zM4.586 10.218v.13h-.264v-.13zM4.312 10.218v.13h-.264v-.13z"/></g><g fill="#383739"><path d="M4.13 10.389v.1h-.118v-.1zM4.24 10.247v.1h-.12v-.1zM4.513 10.247v.1h-.118v-.1zM4.405 10.389v.1h-.119v-.1zM4.679 10.389v.1H4.56v-.1zM4.513 10.53v.1h-.118v-.1zM4.24 10.53v.1h-.12v-.1z"/></g><g fill="#FFF"><path d="M4.123 10.4h-.1v.1h.1zM4.232 10.26h-.1v.1h.1zM4.506 10.26h-.1v.1h.1zM4.397 10.4h-.1v.1h.1zM4.671 10.4h-.1v.1h.1zM4.506 10.542h-.1v.1h.1zM4.232 10.542h-.1v.1h.1z"/></g><g><path fill="#383739" d="M5.404 10.352v-.145h.048l.231-.148.003.002.228.146h.048v.145h.109v.156h-.109v.145h-.048l-.231.148-.231-.148h-.048v-.145h-.166v-.156z"/><path d="M5.683 10.072l-.211.135h.422l-.211-.135zm-.211.58l.211.136.211-.135h-.422zM5.523 10.363v.13h.263v-.13z" fill="#CA3745"/><g fill="#FAAE29"><path d="M5.414 10.5v.131h.264v-.13zM5.688 10.5v.131h.264v-.13zM5.249 10.359v.13h.263v-.13zM5.797 10.359v.13h.263v-.13zM5.414 10.218v.13h.264v-.13zM5.688 10.218v.13h.264v-.13z"/></g><g fill="#383739"><path d="M5.87 10.389v.1h.118v-.1zM5.76 10.247v.1h.12v-.1zM5.487 10.247v.1h.118v-.1zM5.595 10.389v.1h.119v-.1zM5.321 10.389v.1h.119v-.1zM5.487 10.53v.1h.118v-.1zM5.76 10.53v.1h.12v-.1z"/></g><g fill="#FFF"><path d="M5.877 10.4h.1v.1h-.1zM5.768 10.26h.1v.1h-.1zM5.494 10.26h.1v.1h-.1zM5.603 10.4h.1v.1h-.1zM5.329 10.4h.1v.1h-.1zM5.494 10.542h.1v.1h-.1zM5.768 10.542h.1v.1h-.1z"/></g></g><g><path fill="#383739" d="M5.28 10.11v.145H5.23L5 10.403l-.003-.001-.228-.147H4.72v-.145h-.137v-.155h.137V9.81h.048l.23-.148.232.148h.048v.145h.137v.155z"/><path d="M5 10.39l.211-.135H4.79l.211.136zm.211-.58L5 9.675l-.211.135h.422z" fill="#FAAE29"/><g fill="#CA3745"><path d="M5.269 9.951v-.13h-.264v.13zM4.995 9.951v-.13H4.73v.13zM5.406 10.092v-.13h-.264v.13zM5.132 10.092v-.13h-.264v.13zM4.858 10.092v-.13h-.264v.13zM5.269 10.234v-.131h-.264v.13zM4.995 10.234v-.131H4.73v.13z"/></g><g fill="#383739"><path d="M4.922 9.85v.1h-.118v-.1zM5.196 9.85v.1h-.118v-.1zM4.785 9.992v.1h-.118v-.1zM5.06 9.992v.1h-.12v-.1zM5.333 9.992v.1h-.118v-.1zM4.922 10.133v.1h-.118v-.1zM5.196 10.133v.1h-.118v-.1z"/></g><g fill="#FFF"><path d="M4.915 9.862h-.1v.1h.1zM5.189 9.862h-.1v.1h.1zM4.778 10.003h-.1v.1h.1zM5.052 10.003h-.1v.1h.1zM5.326 10.003h-.1v.1h.1zM4.915 10.144h-.1v.1h.1zM5.189 10.144h-.1v.1h.1z"/></g></g><g><path fill="#383739" d="M5.28 10.905v.145H5.23L5 11.198l-.003-.002-.228-.146H4.72v-.145h-.137v-.155h.137v-.145h.048l.23-.148.232.148h.048v.145h.137v.155z"/><path d="M5 11.185l.211-.135H4.79l.211.135zm.211-.58L5 10.469l-.211.136h.422z" fill="#FAAE29"/><g fill="#CA3745"><path d="M5.269 10.746v-.131h-.264v.13zM4.995 10.746v-.131H4.73v.13zM5.406 10.887v-.13h-.264v.13zM5.132 10.887v-.13h-.264v.13zM4.858 10.887v-.13h-.264v.13zM5.269 11.028v-.13h-.264v.13zM4.995 11.028v-.13H4.73v.13z"/></g><g fill="#383739"><path d="M4.922 10.645v.1h-.118v-.1zM5.196 10.645v.1h-.118v-.1zM4.785 10.787v.1h-.118v-.1zM5.06 10.787v.1h-.12v-.1zM5.333 10.787v.1h-.118v-.1zM4.922 10.928v.1h-.118v-.1zM5.196 10.928v.1h-.118v-.1z"/></g><g fill="#FFF"><path d="M4.915 10.656h-.1v.1h.1zM5.189 10.656h-.1v.1h.1zM4.778 10.798h-.1v.1h.1zM5.052 10.798h-.1v.1h.1zM5.326 10.798h-.1v.1h.1zM4.915 10.939h-.1v.1h.1zM5.189 10.939h-.1v.1h.1z"/></g></g></g></g></svg>