<svg width="24" height="16" viewBox="0 0 24 16" xmlns="http://www.w3.org/2000/svg" xmlns:xlink="http://www.w3.org/1999/xlink"><title>flag-es</title><defs><path d="M1.69 0H0v1.343h1.69s-.148.725-.845.725C.15 2.068 0 1.343 0 1.343h1.69V0z" id="a"/></defs><g fill="none" fill-rule="evenodd"><path fill="#BB333C" d="M0 0h24v16H0z"/><path fill="#EDED4A" d="M0 4h24v8H0z"/><g transform="translate(4.26 4.501)"><path d="M1.712.919c.22 0 .417.033.544.083.073.033.171.057.279.072.081.011.159.013.227.008a.89.89 0 0 1 .352.082.953.953 0 0 1 .258.163l-.052.046-.015.132-.142.163-.072.06-.168.135-.086.007-.027.075-1.09-.128-1.095.128-.026-.075-.087-.007-.168-.135-.072-.06-.142-.163-.015-.132-.052-.046a.958.958 0 0 1 .259-.163.89.89 0 0 1 .352-.082c.067.005.145.003.227-.008.107-.015.205-.039.278-.072.128-.05.313-.083.533-.083z" fill="#AD1519"/><path d="M.864.786C.928.661 1.097.568 1.3.568a.6.6 0 0 1 .3.075 1.06 1.06 0 0 0-.007.062.522.522 0 0 0-.293-.082C1.08.623.904.742.897.885a.256.256 0 0 0 .124.246l-.069.113-.046-.037a.318.318 0 0 1-.138-.25C.768.845.84.745.953.68a.328.328 0 0 0-.09.107z" fill="#C8B100"/><path d="M.069 1.051A.304.304 0 0 1 .09.988.368.368 0 0 1 .23.845c-.134.08-.223.202-.223.341 0 .08.03.157.08.222l-.006.01.046.037.087-.143a.251.251 0 0 1-.092-.193c0-.037.009-.073.024-.106.059-.126.26-.22.501-.22.06 0 .115.006.168.016C.825.792.836.775.85.759A.91.91 0 0 0 .646.739c-.262 0-.484.105-.555.25L.07 1.05zM2.585.786C2.52.661 2.352.568 2.147.568a.602.602 0 0 0-.3.075l.007.062a.521.521 0 0 1 .293-.082c.223 0 .398.119.405.262l.002.03c0 .091-.052.17-.126.216l.068.113.047-.037a.318.318 0 0 0 .138-.25c0-.112-.073-.212-.185-.278a.328.328 0 0 1 .089.107z" fill="#C8B100"/><path d="M3.367 1.23a.296.296 0 0 0-.009-.241c-.07-.146-.292-.251-.556-.251A.915.915 0 0 0 2.6.76a.34.34 0 0 1 .036.049.876.876 0 0 1 .167-.016c.241 0 .443.094.501.22a.243.243 0 0 1 .025.106.251.251 0 0 1-.093.193l.087.143.047-.037-.006-.01a.36.36 0 0 0 .08-.222c0-.14-.09-.26-.223-.341.063.04.111.089.138.144a.3.3 0 0 1 .009.24z" fill="#C8B100"/><circle fill="#005BBF" cx="1.795" cy=".519" r=".25"/><path d="M1.73.018v.084h-.137v.086h.136v.246h-.172c-.001.008-.012.014-.012.022 0 .021.007.042.02.06l.001.002h.458l.001-.001a.11.11 0 0 0 .02-.061c0-.008-.01-.014-.012-.022h-.167V.188h.136V.102h-.136V.018h-.137zM2.861 1.971c-.01.001-.052.008-.08.08-.027.07-.03.096-.007.107l-.007-.002c.013.007.02.02.02.035a.04.04 0 0 1-.028.042c-.26.078-.624.126-1.03.127-.407-.001-.771-.05-1.03-.127A.04.04 0 0 1 .67 2.19c0-.014.006-.027.018-.034H.686c.021-.01.02-.036-.008-.105-.03-.077-.074-.08-.081-.08H.595c-.019.005-.04-.002-.045-.02a.035.035 0 0 1 .023-.045c.289-.088.699-.144 1.155-.145.456 0 .868.057 1.157.145.019.006.03.027.023.045-.006.018-.027.025-.046.02zm-1.424.082z" fill="#C8B100"/></g><path fill="#D8D8D8" d="M3.166 10.037h.729v.5h-.729z"/><path fill="#0058C2" d="M3 10.368h1.061v.5H3z"/><path fill="#D8D8D8" d="M8.105 10.037h.729v.5h-.729z"/><path fill="#C9B200" d="M3.166 7.087h.729v.5h-.729zM8.105 7.087h.729v.5h-.729z"/><path fill="#0058C2" d="M7.939 10.368H9v.5H7.939z"/><path fill="#D8D8D8" d="M3.265 7.587h.53v2.62h-.53z"/><path fill="#BB333C" d="M3.155 8.151h1.25v.5h-1.25zM2.655 9.401h1.25v.5h-1.25z"/><path fill="#D8D8D8" d="M8.204 7.587h.53v2.62h-.53z"/><path fill="#BB333C" d="M8.095 9.401h1.25v.5h-1.25zM7.595 8.151h1.25v.5h-1.25z"/><path d="M7.674 6.954H4.326v3.083h3.348s-.063.925-1.674.925-1.674-.925-1.674-.925h3.348V6.954z" fill="#D8D8D8"/><use fill="#C9B200" xlink:href="#a" transform="translate(4.326 8.711)"/><path d="M7.674 8.711h-1.69v1.343h1.69s-.149.725-.845.725c-.697 0-.846-.725-.846-.725h1.691V8.71z" fill="#BB333C"/><path fill="#BB333C" d="M4.326 6.954h1.691v1.757H4.326z"/></g></svg>