<svg width="24" height="16" viewBox="0 0 24 16" xmlns="http://www.w3.org/2000/svg"><title>flag-zm</title><g fill="none" fill-rule="evenodd"><path fill="#287E6E" d="M0 0h24v16H0z"/><path fill="#FD9B3F" d="M18 8h6v8h-6z"/><path fill="#2B3541" d="M12 8h6v8h-6z"/><path fill="#E84550" d="M6 8h6v8H6z"/><g stroke="#313D49" stroke-width=".1" fill="#FAA551"><path d="M16.708 3.011s1.763-.69 1.934-.833c.077.085-.707.954-2.229 1.275 1.382-.3 2.563-1.24 2.803-1.211.07.014.055.919-3.114 1.702 2.19-.527 3.464-1.495 3.448-1.389.016.022-.217.762-2.135 1.34.536-.115 1.988-.927 1.972-.77.047.064-1.405 1.774-4.03 1.218 2.097.499 3.455-.705 3.65-.684.038.007-.389 1.054-3.029 1.119 1.266-.122.9-.008.9-.008s-.745.535-1.645.171c.706.178.784.186.8.243-.047.07-.63.178-1.189-.1.45.17.855.2.862.263-.007.022-.295.171-.551.064-.256-.106-2.617-1.438-2.617-1.438l4.023-1.012.147.05zM11.98 6.614c-.355 0-.364.289-.364.289s-.03.02-.01.16c.058-.095.088-.125.088-.125.039.006.2.051.457-.134-.233.224-.094.307-.094.307s-.055.176.123.211c-.055-.071-.022-.134-.022-.134s.25-.023.233-.303c.01.253.16.315.16.315s0 .14.162.152c-.088-.071-.069-.181-.069-.181s.211-.14.033-.378c.107-.057.195-.215.195-.215s-.146-.056-.215-.104c-.032-.062-.003-.405-.003-.405l-.087-.443-.25.69c.01-.098.016.298-.338.298z"/><path d="M13.726 5.618c.008.007.264.27.513.256.093-.07-.194-.228-.194-.263.1.085.528.42.8.299.108-.142-.195-.121-.529-.506.233.143.816.456 1.087.335.117-.114-.605-.47-.846-.748l-.621-.292-.847.634.637.285zM12.771 3.453s.287-.157 1.437-.079c.124.015.784-.206.994-.27.333-.057 1.397-.27 1.685-.47.202-.022-.055.342-.31.427-.273.114-1.259.427-1.608.385.419.007.186.32-.513.17.334.172.21.2.21.2s-.59.029-.746-.093c.396.136.233.186.233.186s-.404.035-.59-.043c.287.078.14.128.14.128s-.233.036-.427-.028c-.194-.064-.49-.513-.505-.513zM13.232 5.766l.042.696s-.023.036-.042.057c-.02.02-.539-.075-.467.288 0 .15.003.188.113.271-.03-.098-.02-.166-.02-.166s.147.08.29-.14c-.098.217-.03.294-.007.3.023.04-.039.215.156.212-.075-.066-.04-.161-.04-.161s.205-.03.134-.37c.075-.068.104-.002.104-.002s.022.202.2.16c.082.042-.012.152-.012.152s.13.003.169-.098c.039-.101.084-.283-.13-.357-.026-.071.084-.077.084-.077s.137.041.176.104c.038.062.025-.164-.143-.188-.208-.006-.22-.044-.22-.053 0-.01-.037-.506-.053-.65l-.334.022z"/><path d="M13.954 6.36c.003-.033-.354-.473-.264-.53.09.017.24.217.36.152-.037-.078-.144-.034-.266-.234-.122-.226-.14-.566-.567-.936.276.392.904.622.93.507.027-.114-.552-.546-.522-.65.115.214.696.69 1.124.65.03-.091-.35-.276-.448-.449-.274-.169-1.006-.747-1.02-.882-.267-.356-.433-.464-.51-.505-.03-.032-.038-.063-.044-.083-.165-.357.054-.473.182-.49.105-.011.136.003.212-.03-.09-.033-.18-.063-.27-.095.117.079.417.01.352.236.131-.046.41-.35-.317-.42-.236-.248-1.21-.391-1.453.695.02.016.03.028.092.07-.307-.136-1.136-.241-1.435-.286-.807-.213-1.645-.728-1.725-.664-.108.044.487.551.456.563a14.29 14.29 0 0 0-1.426-.65c-.308-.106-.618-.352-.652-.305-.113.216.495.758.608.822.114.061 1.004.44.99.444-1.34-.558-1.565-.659-1.632-.723-.118-.025-.406-.381-.486-.358-.044.04.044.603.684.856.104.07 1.37.486 1.358.519-.003.008-1.45-.548-1.507-.568-.28-.1-.622-.453-.686-.413-.061.036.158.417.44.536.148.06.715.318 1.226.482.033.01-.918-.331-1.376-.506-.207-.106-.305-.237-.336-.21-.047.03.075.592 1.545.91.039.015.517-.104.494-.089a6.593 6.593 0 0 1-.521.095 1.374 1.374 0 0 0-.303.04c-.015.038.093.24.852.197.097-.005.624-.175.58-.139a9.571 9.571 0 0 1-.77.23c-.046.006-.29.03-.3.053-.01.032.181.176.589.199.36.017 1.046-.202 1.032-.188-.014.014-.66.218-.678.23-.023.012-.26.024-.268.04-.02.042.342.352 1.41.021-.108.133-.625.224-.625.248-.002.017.114.12.295.158.09.018.215.014.328-.002.203-.038.418-.111.69-.342.032.072-.68.403-.647.435.155.131.668-.017.702-.035.033-.017.988-.51.985-.568.014.074-1.231.694-1.218.72.08.117.506-.006.526-.017l.557-.277c.015-.008-.614.337-.558.39-.027.224.982-.155 1.06-.202.04-.024-.484.211-.485.323.169.261.709.178.792.12.042-.028-.049.195-.02.175a.868.868 0 0 0 .16-.205c-.014.073-.073.188-.108.32-.034.133-.044.282-.092.44-.01.07.333-.136.283-.627.03.255-.108.734-.072.759.072.05.272-.239.292-.433.06.098.184.303.291.35-.012-.148.002-.141-.046-.288.028-.194.032-.462.038-.766.291.511.407.727.326 1.119.087.033.225-.273.214-.431.11.438.59.504.598.491z"/><path d="M9.107 3.113s-.198.137-.445.129c.062.226.572.052.572.052s-.246.25-.422.291c.106.08.55.053.625.012.075-.04.207-.198.207-.198s-.458.485-.524.48c-.009.057.48.037.581-.048.101-.084.357-.21.357-.21s-.67.428-.7.428c.25.061.752-.072 1.074-.254-.476.29-.52.343-.762.44.216.045.326.178 1.057-.113.418-.182.656-.513.656-.513-.26.32-.67.59-1.123.856-.026.049.484.247 1.136-.375M12.646 4.461s.054.19.269.335c.215.146.23.287.23.287M12.558 3.226s.062.17.242.278c.185.11.462.453.484.513.022.073.128.602.12.658"/><path d="M11.435 3.488c.014.065-.26.392.115.775-.34.38-.34.428-.34.428s.19.097.53-.17c.558.63.372.919.372.919"/><path d="M12.067 4.996s-.051-.068.04-.321c.083.091.175.11.216.148.04.037.462.093.489.352M12.662 2.77c0-.054-.106-.52-.5.063.21.026.42.275.5-.064zM15.59 3.389c.015.007.947.192 1.258.1-.396.484-1.188.156-1.188.156.388.107.404.1.528.2.039.092-.715.05-.963-.079.691.2.707.185.73.264.03.107-1.134-.029-1.235-.171.31.22.482.263.652.363-.21.085-.597.17-1.312-.292.94.783 1.786.734 1.918.876-.326.442-1.592-.263-2.174-.62-.583-.356 1.273.862 1.444.84-.085.122-.699.015-.738-.042"/></g></g></svg>