<svg width="24" height="16" viewBox="0 0 24 16" xmlns="http://www.w3.org/2000/svg" xmlns:xlink="http://www.w3.org/1999/xlink"><title>flag-fj</title><defs><path id="d" d="M0 0h24v16H0z"/><path id="e" d="M0 0h12v8H0z"/><path id="a" d="M0 .5L11.5 8h.5v-.5L.5 0H0z"/><mask id="g" x="-.5" y="-.5" width="13" height="9"><path fill="#fff" d="M-.5-.5h13v9h-13z"/><use xlink:href="#a"/></mask><path id="b" d="M0 .5L11.5 8h.5v-.5L.5 0H0z"/><mask id="h" x="-.5" y="-.5" width="13" height="9"><path fill="#fff" d="M-.5-.5h13v9h-13z"/><use xlink:href="#b"/></mask><path d="M6.857 3.265V0h-1.47v3.265H-.124v1.47h5.513V8h1.47V4.735h5.267v-1.47H6.857z" id="c"/><mask id="i" x="-.5" y="-.5" width="13.25" height="9"><path fill="#fff" d="M-.625-.5h13.25v9H-.625z"/><use xlink:href="#c"/></mask></defs><g fill="none" fill-rule="evenodd"><use fill="#64BFE7" xlink:href="#d"/><mask id="f" fill="#fff"><use xlink:href="#e"/></mask><use fill="#006DA0" xlink:href="#e"/><g mask="url(#f)"><g transform="matrix(1 0 0 -1 0 8)"><use fill="#E8525D" xlink:href="#a"/><use stroke="#FFF" mask="url(#g)" stroke-linecap="round" stroke-linejoin="round" xlink:href="#a"/></g><use fill="#E8525D" xlink:href="#b"/><use stroke="#FFF" mask="url(#h)" stroke-linecap="round" stroke-linejoin="round" xlink:href="#b"/></g><g mask="url(#f)"><use fill="#C7152A" xlink:href="#c"/><use stroke="#FFF" mask="url(#i)" xlink:href="#c"/></g><path d="M6.857 3.265V0h-1.47v3.265H-.124v1.47h5.513V8h1.47V4.735h5.267v-1.47H6.857z" fill="#E84550" mask="url(#f)"/><g transform="translate(15 5)"><path d="M0 0h6v5.373S4.5 6.806 3 6.806 0 5.373 0 5.373V0z" fill="#FFF"/><path fill="#E84550" d="M2.571 1.714h.857v5.143h-.857z"/><path fill="#E84550" d="M0 3.643h6V4.5H0zM0 0h6v1.714H0z"/><ellipse stroke="#287E6E" stroke-width=".25" cx="1.286" cy="2.786" rx=".429" ry=".429"/><circle stroke="#287E6E" stroke-width=".25" cx="4.714" cy="2.786" r=".429"/><ellipse stroke="#287E6E" stroke-width=".25" cx="4.714" cy="5.357" rx=".429" ry=".429"/><ellipse stroke="#287E6E" stroke-width=".25" cx="1.286" cy="5.357" rx=".429" ry=".429"/></g></g></svg>