<svg width="24" height="16" viewBox="0 0 24 16" xmlns="http://www.w3.org/2000/svg" xmlns:xlink="http://www.w3.org/1999/xlink"><title>flag-rw</title><defs><path id="a" d="M0 0h24v16H0z"/></defs><g fill="none" fill-rule="evenodd"><mask id="b" fill="#fff"><use xlink:href="#a"/></mask><use fill="#287E6E" xlink:href="#a"/><path fill="#EDED4A" mask="url(#b)" d="M0 7h24v6H0zM19 4l-.479.942.014-1.057-.861.612.503-.929-1.047.141.877-.588-.992-.362 1.05-.114-.711-.781.983.387-.266-1.022.69.8L19 1l.24 1.03.69-.8-.267 1.021.983-.387-.711.781 1.05.114-.992.362.877.588-1.047-.14.503.928-.861-.612.014 1.057z"/></g></svg>