<svg width="24" height="16" viewBox="0 0 24 16" xmlns="http://www.w3.org/2000/svg"><title>flag-gr</title><g fill="none" fill-rule="evenodd"><path fill="#006DA0" d="M0 0h23.985v1.777H0z"/><path fill="#FFF" d="M0 1.777h23.985v1.776H0z"/><path fill="#006DA0" d="M0 3.553h23.985V5.33H0z"/><path fill="#FFF" d="M0 5.33h23.985v1.777H0z"/><path fill="#006DA0" d="M0 7.107h23.985v1.776H0z"/><path fill="#FFF" d="M0 8.883h23.985v1.777H0z"/><path fill="#006DA0" d="M0 10.66h23.985v1.777H0z"/><path fill="#FFF" d="M0 12.437h23.985v1.776H0z"/><path d="M0 14.213h23.985v1.777H0v-1.777zM0 0h8.883v8.883H0V0z" fill="#006DA0"/><g fill="#FFF"><path d="M3.553 0H5.33v8.883H3.553z"/><path d="M0 3.553h8.883V5.33H0z"/></g></g></svg>