<svg width="24" height="16" viewBox="0 0 24 16" xmlns="http://www.w3.org/2000/svg"><title>flag-af</title><g fill="none" fill-rule="evenodd"><path fill="#287E6E" d="M0 0h24v16H0z"/><path fill="#BB333C" d="M0 0h16v16H0z"/><path fill="#2B3541" d="M0 0h8v16H0z"/><g transform="translate(8 1)"><path fill="#FFF" d="M3 6h2v2H3z"/><path d="M7.25 7a3.25 3.25 0 1 0-6.5 0 3.25 3.25 0 0 0 6.5 0zm-6 0a2.75 2.75 0 1 1 5.5 0 2.75 2.75 0 0 1-5.5 0z" fill="#FFF"/><path fill="#BB343D" d="M3.997.173l2.825 2.825-2.825 2.824-2.825-2.824z"/><circle fill="#FFF" cx="4" cy="5.673" r=".532"/><path d="M3.134 5.173v1" stroke="#FFF" stroke-width=".25" stroke-linecap="square"/><path d="M4.004 4.641v1" stroke="#FFF" stroke-width=".1" stroke-linecap="square"/><path d="M4.88 5.173v1" stroke="#FFF" stroke-width=".25" stroke-linecap="square"/><path fill="#FFF" d="M2.494 8.606l3.011-.041L5 8H3z"/><rect fill="#BB333C" x="3.5" y="6.533" width="1" height="1.5" rx=".5"/></g></g></svg>