<svg width="24" height="16" viewBox="0 0 24 16" xmlns="http://www.w3.org/2000/svg" xmlns:xlink="http://www.w3.org/1999/xlink"><title>flag-ba</title><defs><path id="a" d="M.023 0h23.954v16H.023z"/></defs><g fill="none" fill-rule="evenodd"><mask id="b" fill="#fff"><use xlink:href="#a"/></mask><g mask="url(#b)"><path fill="#006DA0" d="M.023 0h23.954v16H.023z"/><path fill="#EDED4A" d="M.023 0l23.954 16V0H.023z"/><path d="M2.265 2.346l-.856-.554-.857.554.328-.896L.023.896h1.059L1.409 0l.327.896h1.058l-.856.554M4.073 3.5l-.856.553.327-.896-.856-.554h1.058l.327-.896.327.896h1.058l-.856.554.327.896m.953 1.707l.327-.896-.856-.554h1.058l.327-.897.327.897h1.058l-.856.554.327.896-.856-.554M8.874 6.57l-.856-.554h1.058l.327-.896.327.896h1.058l-.856.554.327.897-.856-.554-.856.554m2.136.256h1.058l.327-.896.327.896h1.058l-.856.554.327.896-.856-.554-.856.554.327-.896m2.867 1.153l.327-.897.327.897h1.058l-.856.553.327.897-.856-.554-.856.554.327-.896-.856-.554m4.05.81l.326.896h1.058l-.856.554.327.897-.856-.554-.856.554.327-.897-.856-.554h1.058m2.992.81l.327.897h1.058l-.856.554.327.896-.856-.554-.856.554.327-.896-.856-.554h1.058m3.32 1.707h1.057l-.856.554.327.896-.856-.554-.856.554.327-.896-.856-.554H22.4l.327-.896" fill="#FFF"/></g></g></svg>