<svg width="24" height="16" viewBox="0 0 24 16" xmlns="http://www.w3.org/2000/svg" xmlns:xlink="http://www.w3.org/1999/xlink"><title>flag-pa</title><defs><path id="b" d="M0 0h24v16H0z"/><path id="a" d="M0 0h24v16H0z"/><mask id="d" x="0" y="0" width="24" height="16" fill="#fff"><use xlink:href="#a"/></mask></defs><g fill="none" fill-rule="evenodd"><mask id="c" fill="#fff"><use xlink:href="#b"/></mask><use fill="#FFF" xlink:href="#b"/><path fill="#E84550" mask="url(#c)" d="M18.154 13.317L16.823 14l.41-1.447L16 11.528l1.488-.059.666-1.469.665 1.47 1.489.058-1.233 1.025.41 1.447z"/><path fill="#006DA0" mask="url(#c)" d="M6.154 5.317L4.823 6l.41-1.447L4 3.528l1.488-.059L6.154 2l.665 1.47 1.489.058-1.233 1.025L7.485 6zM0 8h12v8H0z"/><path fill="#E84550" mask="url(#c)" d="M12 0h12v8H12z"/><use mask="url(#d)" xlink:href="#a" stroke="#E6E6E6"/></g></svg>