<svg width="24" height="16" viewBox="0 0 24 16" xmlns="http://www.w3.org/2000/svg"><title>flag-gp</title><g fill="none" fill-rule="evenodd"><path fill="#2B3541" d="M0 0h24v16H0z"/><path fill="#006DA0" d="M0 0h24v5.34H0z"/><path d="M6.669 8.21c.01-.01.177.045.375.122.197.077.453.15.563.157.193.008.88.335.872.414 0 .073-1.038-.244-1.401-.429-.436-.217-.447-.228-.41-.264z" fill="green"/><path d="M7.947 8.361c.084.204.38.344.777.378.269.02.146-.097-.23-.234a1.997 1.997 0 0 1-.47-.226c-.153-.12-.153-.12-.077.082zM4.203 6.834c.215.32.46.55.934.868.348.237.652.423.666.408.03-.037-1.703-1.646-1.822-1.69-.044-.016.052.17.222.414zm4.46 1.698c.16.075.366.135.47.138.122.004.09-.026-.139-.115a2.403 2.403 0 0 1-.487-.26c-.17-.14-.17-.14-.153-.017.01.07.139.179.309.254zm-1-1.447c.103.416.533 1.18.681 1.21.133.022.133.014.022-.112-.185-.215-.585-1.001-.585-1.15 0-.081-.037-.14-.081-.14-.052 0-.067.074-.037.192zm-4.453-.52c-.002.014.137.122.311.243s.377.292.445.38c.115.155.77.542.83.493.06-.042-.782-.726-1.138-.924-.424-.24-.439-.243-.448-.192zm.239.57c0 .015.156.097.348.186.193.089.422.222.504.296.14.134.852.4.904.341.051-.051-.897-.578-1.282-.711-.46-.164-.474-.164-.474-.112zm3.304.262c.281.52.57.86.688.823.06-.022-.074-.237-.362-.586-.26-.304-.482-.57-.504-.593-.022-.022.06.14.178.356zm.364-.202c0 .081.289.645.459.882.096.134.207.208.333.208.185 0 .185 0-.096-.32a9.356 9.356 0 0 1-.489-.57c-.111-.141-.207-.23-.207-.2zm-.681.239c0 .111.541.853.625.853.038 0-.053-.178-.214-.393-.358-.49-.411-.542-.411-.46zm-.512 2.044c-.489.193-.592.26-.592.363 0 .045.051.037.133-.03.067-.066.311-.155.533-.207.222-.052.489-.141.593-.193l.185-.096h-.222a3.029 3.029 0 0 0-.63.163zm-1.388-1.26c.365.332 1.587.96 2.206 1.145.167.05.44.061.593.029l.287-.057-.283-.15c-.456-.236-1.206-.736-1.475-.978-.293-.264-.283-.173.015.192.116.147.46.4.763.559.304.165.517.317.482.33-.09.032-.926-.445-1.562-.892-.69-.49-.719-.503-.462-.187.126.152.36.359.528.455.165.106.278.2.243.212-.07.025-.503-.212-1.068-.574-.158-.108-.372-.243-.465-.304-.103-.065-.011.036.198.22zm.054-.104l-.297.097.223.037c.118.03.274.015.348-.023a.869.869 0 0 1 .296-.074c.163 0 .163-.007.022-.066-.185-.082-.23-.082-.592.03zm.365.201c-.126.097-.119.104.155.06.163-.022.4-.067.519-.097.192-.052.178-.059-.156-.066-.222-.008-.43.037-.518.103zm-1.84-.78c1.222.223 3.674 1.046 3.525 1.187-.037.037-.725-.133-.822-.2-.037-.037-.4-.022-.8.03-.748.081-.874.148-.859.452.007.148.007.148.044 0 .067-.274.178-.334.6-.334.46 0 1.719.186 2.274.334.741.208.763.208.519.074-.319-.178-.8-.504-.889-.6-.163-.186-3.118-1.002-3.548-.987-.2.015-.207.015-.044.045zm.562.396a.642.642 0 0 0-.208.348c-.044.216-.044.216.074.075.311-.393.334-.408.719-.416.31-.007.355-.022.207-.066-.311-.097-.622-.075-.792.059zm3.775.458c.06.103.637.393.682.348.022-.022-.045-.081-.134-.133a1.183 1.183 0 0 1-.274-.193c-.118-.111-.34-.134-.274-.022zm.045.704c.059.104.637.393.681.349.022-.022-.044-.082-.133-.134a1.183 1.183 0 0 1-.274-.193c-.119-.11-.341-.133-.274-.022zm.398-.34c-.138.053-.277.15-.32.219-.05.081-.008.082.17-.008.14-.07.342-.127.453-.136.207-.01.207-.01.075-.093-.075-.047-.235-.043-.378.017zm-.853.531c-.422.38-.515.644-.38 1.036l.117.337-.033-.34c-.05-.468.076-.68.587-1.05.24-.17.431-.327.427-.34-.026-.078-.503.155-.718.357zM4.43 6.253c.23.437 1.163 1.446 1.681 1.832.141.103.393.207.548.23l.29.044-.215-.237c-.349-.379-.882-1.105-1.052-1.424-.186-.349-.208-.26-.052.185.06.178.296.534.526.786.23.26.378.475.34.475-.096 0-.718-.734-1.162-1.372-.482-.697-.504-.72-.37-.334.066.186.214.46.34.608.118.156.193.282.155.282-.074 0-.4-.37-.807-.905-.111-.156-.267-.356-.333-.445-.074-.096-.022.03.11.275zm2.39 2.076c0 .052.11.186.244.29.392.296 1.437.793 1.57.741.081-.03-.044-.111-.4-.245-.622-.244-1.193-.57-1.193-.682 0-.06.245-.067.852-.03.911.052 1.185-.051.356-.126-.874-.089-1.43-.066-1.43.052zm-1.956.794c-.319.074-.49.185-.49.319 0 .052.03.044.068-.015.059-.097.666-.275.725-.215.015.015-.007.126-.051.237-.045.111-.06.223-.037.245.022.03.059-.03.081-.111.089-.32.363-.416 1.022-.356.334.03.704.066.822.074.126.007.297.052.386.104.192.103.94.11.874.007-.023-.037-.163-.089-.319-.111a9.042 9.042 0 0 1-.689-.156c-.459-.119-1.926-.133-2.392-.022zm2.705.856c-.559-.1-.824-.01-1.05.338l-.193.299.248-.235c.337-.327.581-.36 1.187-.183.283.084.523.139.53.126.047-.067-.43-.3-.722-.345zm-.723-.207c-1.03.282-1.148.386-1 .853.059.178.059.17.066-.06a.693.693 0 0 1 .149-.377c.133-.134.733-.305 1.466-.423.178-.022.297-.074.274-.111-.059-.097-.296-.067-.955.118zm.875.363c-.519.23-.69.452-.682.867l.008.356.074-.333c.096-.46.281-.623.881-.816.282-.09.511-.178.511-.193 0-.082-.526-.007-.792.119zm-.099.636c-.089.119-.155.275-.155.356 0 .097.037.074.14-.096.082-.134.223-.29.312-.356.17-.119.17-.119.014-.119-.088 0-.222.09-.31.215zM19.538 14.166l-.103.174c-.231-.069-1.203-.504-2.035-.88-.838-.38-2.03-.866-2.254-1.003-.171-.105-.156-.194.054-.116.21.079 1.018.458 1.59.709.663.296 2.327.943 2.748 1.116zm-4.25-1.9c.227.13 1.436.573 2.287.923.844.347 1.83.748 2.065.809l.096-.178c-.427-.158-2.113-.747-2.786-1.02-.58-.23-1.401-.58-1.613-.652-.212-.07-.225.02-.05.118zm-.241.253c-.206-.09-.226-.001-.06.113.216.148 1.381.696 2.198 1.119.811.42 1.76.905 1.987.985l.111-.168c-.411-.195-2.04-.929-2.686-1.259-.558-.28-1.345-.701-1.55-.79zm2.457-.427c-.607-.147-1.469-.38-1.689-.42-.22-.041-.22.05-.033.123.244.096 1.503.367 2.394.595.885.226 1.917.485 2.157.513l.07-.19c-.444-.096-2.195-.445-2.9-.62zm-.378.469c-.592-.2-1.43-.507-1.646-.567-.215-.06-.223.03-.043.12.235.117 1.464.497 2.333.802.861.302 1.867.65 2.104.7l.087-.183c-.435-.135-2.149-.635-2.835-.872zm.214-.224c-.602-.168-1.455-.431-1.673-.48-.219-.048-.222.043-.037.123.24.104 1.488.42 2.371.678.876.257 1.9.552 2.138.588.017-.042.042-.103.078-.186-.441-.113-2.18-.522-2.877-.723z" fill="#287E6E"/><g fill="#EDED4A"><path d="M12.403 14.208l.24.172c.343.24.533.573.514.917l-.013.284.113-.28c.123-.292.106-.735-.04-1.063l-.085-.191.27.118c.387.163.641.45.694.79l.047.28.052-.296c.06-.312-.048-.742-.26-1.033l-.122-.17.289.06c.411.079.72.306.842.629l.104.264-.01-.301c-.007-.318-.202-.716-.469-.956l-.155-.14.295-.002c.419-.009.768.15.954.44l.157.236-.073-.292c-.072-.31-.345-.658-.656-.837l-.181-.105.287-.064c.409-.095.783-.013 1.026.231l.202.2-.132-.271c-.135-.288-.475-.572-.816-.683l-.199-.064.268-.123c.38-.178.763-.175 1.051.013l.24.153-.186-.237c-.191-.254-.583-.46-.94-.498l-.208-.022.238-.175c.334-.254.709-.33 1.03-.207l.266.1-.23-.194c-.24-.208-.667-.328-1.023-.29l-.208.021.195-.22c.274-.318.625-.472.965-.417l.281.042-.266-.141c-.278-.154-.72-.183-1.06-.072l-.2.064.146-.256c.202-.368.513-.591.857-.608l.284-.017-.29-.084c-.303-.092-.741-.029-1.052.15l-.181.106.088-.282c.122-.401.38-.685.713-.773l.274-.076-.3-.02c-.317-.028-.732.125-.999.365l-.155.14.028-.293c.036-.418.23-.75.537-.905l.252-.131-.299.042c-.314.04-.689.275-.9.566l-.123.17-.033-.294c-.052-.416.069-.78.337-.996l.22-.181-.284.103c-.3.104-.617.413-.763.741l-.085.191-.093-.28c-.138-.396-.095-.777.122-1.044l.177-.223-.255.16c-.272.164-.518.532-.593.884l-.043.205-.15-.255c-.217-.359-.254-.74-.097-1.047l.127-.255-.217.21c-.231.217-.396.628-.396.987v.21l-.199-.218c-.286-.306-.402-.671-.312-1.004l.071-.276-.169.25c-.181.261-.256.698-.182 1.05l.044.204-.24-.172c-.344-.24-.533-.573-.515-.917l.013-.284-.113.28c-.123.292-.106.735.04 1.063l.085.192-.27-.118c-.387-.163-.641-.45-.694-.79l-.047-.281-.052.297c-.06.312.048.742.26 1.032l.122.17-.288-.06c-.412-.079-.72-.306-.843-.628l-.104-.265.01.302c.007.317.202.715.469.955l.155.14-.295.003c-.419.008-.767-.15-.954-.44l-.157-.237.073.292c.072.31.346.658.656.838l.182.105-.288.063c-.408.096-.783.013-1.025-.231l-.203-.2.132.272c.135.287.475.57.816.682l.2.065-.27.122c-.379.178-.762.175-1.05-.013l-.24-.153.186.238c.191.253.583.46.94.497l.208.022-.237.176c-.334.253-.71.33-1.03.206l-.267-.1.231.194c.24.208.666.329 1.022.291l.209-.022-.196.221c-.274.317-.625.47-.965.416l-.28-.042.265.142c.278.153.72.182 1.06.071l.2-.064-.146.257c-.202.367-.513.59-.857.608l-.284.017.29.083c.303.092.742.029 1.052-.15l.182-.105-.09.281c-.12.402-.379.685-.712.773l-.274.076.3.021c.317.027.732-.126.999-.366l.155-.14-.028.293c-.035.418-.23.75-.536.905l-.253.131.299-.042c.315-.039.69-.275.9-.566l.123-.17.033.294c.052.416-.069.78-.337.997l-.219.18.283-.103c.3-.104.617-.413.763-.741l.085-.191.094.28c.137.396.094.777-.123 1.044l-.177.223.256-.16c.271-.164.517-.532.592-.884l.044-.204.149.254c.217.36.254.74.097 1.048l-.127.254.217-.21c.232-.217.396-.628.396-.987v-.21l.199.218c.287.306.402.672.313 1.004l-.072.276.169-.25c.181-.26.257-.698.182-1.049l-.043-.205M11.664.598c-.293.483-.328.87-.128 1.537.096.312.202.777.247 1.029.059.356.053.39.061.467h.32c.011-.123.02-.266.047-.461.03-.228.121-.705.219-1.037.195-.662.182-1.068-.122-1.528-.11-.17-.259-.311-.325-.311-.067 0-.218.13-.319.304zm1.44 1.367c-.416.178-.665.67-.801 1.35a2.316 2.316 0 0 0-.044.316h.212c.02-.096.033-.147.075-.284.168-.531.66-.744.639-.247a.436.436 0 0 1-.13.287c.08-.02.249-.099.386-.177.763-.46.462-1.586-.338-1.245zM11.407 3.81c.335.002.914.005 1.191.003 0-.076.002-.037.002-.099-.204-.002-.988.001-1.191.001 0 .04 0 .06-.002.095zm.099.387c-.121.13-.31.227-.31.227s.167.02.323.008a.836.836 0 0 0 .333-.076 3.31 3.31 0 0 0-.026.365c.023.239.048.3.1.416.07.097.11.098.163-.005a1.03 1.03 0 0 0 .104-.412 1.83 1.83 0 0 0-.044-.361.922.922 0 0 0 .336.073c.165.015.316.007.316.007s-.222-.111-.32-.248c-.096-.135-.076-.112-.146-.286-.085-.004-.517 0-.654 0-.075.159-.083.192-.175.292zm-.61-2.232c.415.178.664.67.8 1.35.026.127.032.172.044.316h-.212a2.388 2.388 0 0 0-.075-.285c-.168-.53-.66-.743-.639-.246a.436.436 0 0 0 .13.287 2.05 2.05 0 0 1-.386-.177c-.763-.46-.462-1.586.338-1.245zM4.264.598c-.293.483-.328.87-.128 1.537.096.312.202.777.247 1.029.059.356.053.39.061.467h.32c.011-.123.02-.266.047-.461.03-.228.121-.705.219-1.037.195-.662.182-1.068-.122-1.528-.11-.17-.259-.311-.325-.311-.067 0-.218.13-.319.304zm1.44 1.367c-.416.178-.665.67-.801 1.35a2.316 2.316 0 0 0-.044.316h.212c.02-.096.033-.147.075-.284.168-.531.66-.744.639-.247a.436.436 0 0 1-.13.287c.08-.02.249-.099.386-.177.763-.46.462-1.586-.338-1.245zM4.007 3.81c.335.002.914.005 1.191.003 0-.076.002-.037.002-.099-.204-.002-.988.001-1.191.001 0 .04 0 .06-.002.095zm.099.387c-.121.13-.31.227-.31.227s.167.02.323.008a.836.836 0 0 0 .333-.076c-.025.186-.026.365-.026.365.023.239.048.3.1.416.07.097.11.098.163-.005a1.03 1.03 0 0 0 .104-.412 1.83 1.83 0 0 0-.044-.361.922.922 0 0 0 .336.073c.165.015.316.007.316.007s-.222-.111-.32-.248c-.096-.135-.076-.112-.146-.286-.085-.004-.517 0-.654 0-.075.159-.083.192-.175.292zm-.61-2.232c.415.178.664.67.8 1.35.026.127.032.172.044.316H4.13a2.388 2.388 0 0 0-.075-.285c-.168-.53-.66-.743-.639-.246a.436.436 0 0 0 .13.287 2.05 2.05 0 0 1-.386-.177c-.763-.46-.462-1.586.338-1.245zM19.064.598c-.293.483-.328.87-.128 1.537.096.312.202.777.247 1.029.059.356.053.39.061.467h.32c.011-.123.02-.266.047-.461.03-.228.121-.705.219-1.037.195-.662.182-1.068-.122-1.528-.11-.17-.259-.311-.325-.311-.067 0-.218.13-.319.304zm1.44 1.367c-.416.178-.665.67-.801 1.35a2.316 2.316 0 0 0-.044.316h.212c.02-.096.033-.147.075-.284.168-.531.66-.744.639-.247a.436.436 0 0 1-.13.287c.08-.02.249-.099.386-.177.763-.46.462-1.586-.338-1.245zM18.807 3.81c.335.002.914.005 1.191.003 0-.076.002-.037.002-.099-.204-.002-.988.001-1.191.001 0 .04 0 .06-.002.095zm.099.387c-.121.13-.31.227-.31.227s.167.02.323.008a.836.836 0 0 0 .333-.076c-.025.186-.026.365-.026.365.023.239.048.3.1.416.07.097.11.098.163-.005a1.03 1.03 0 0 0 .104-.412 1.83 1.83 0 0 0-.044-.361.922.922 0 0 0 .336.073c.165.015.316.007.316.007s-.222-.111-.32-.248c-.096-.135-.076-.112-.146-.286-.085-.004-.517 0-.654 0-.075.159-.083.192-.175.292zm-.61-2.232c.415.178.664.67.8 1.35.026.127.032.172.044.316h-.212a2.388 2.388 0 0 0-.075-.285c-.168-.53-.66-.743-.639-.246a.436.436 0 0 0 .13.287 2.05 2.05 0 0 1-.386-.177c-.763-.46-.462-1.586.338-1.245z"/></g></g></svg>