<svg width="24" height="16" viewBox="0 0 24 16" xmlns="http://www.w3.org/2000/svg" xmlns:xlink="http://www.w3.org/1999/xlink"><title>flag-si</title><defs><path id="b" d="M0 0h24v16H0z"/><path id="a" d="M0 0h24v16H0z"/><mask id="d" x="0" y="0" width="24" height="16" fill="#fff"><use xlink:href="#a"/></mask></defs><g fill="none" fill-rule="evenodd"><mask id="c" fill="#fff"><use xlink:href="#b"/></mask><use fill="#006DA0" xlink:href="#b"/><path fill="#E84550" mask="url(#c)" d="M0 11h24v5H0z"/><path fill="#FFF" mask="url(#c)" d="M0 0h24v5H0z"/><g mask="url(#c)"><path d="M7.74 6.677l.2-3.082a5.56 5.56 0 0 0-4.94 0l.2 3.082c.09 1.385.994 2.567 2.27 2.969 1.275-.402 2.18-1.584 2.27-2.969" fill="#006DA0"/><path d="M3.617 7.095c.215 1.007.917 1.825 1.853 2.16.936-.335 1.637-1.153 1.852-2.16l-.926-1.286-.37.514-.556-1.158-.556 1.158-.37-.514-.927 1.286" fill="#FFF"/><path d="M3.7 7.416a.621.621 0 0 0 .375.3.596.596 0 0 0 .469-.064.596.596 0 0 1 .617 0 .596.596 0 0 0 .618 0 .596.596 0 0 1 .617 0c.142.085.31.108.469.064a.621.621 0 0 0 .374-.3v.186a.621.621 0 0 1-.374.3.596.596 0 0 1-.469-.064.596.596 0 0 0-.617 0 .596.596 0 0 1-.618 0 .596.596 0 0 0-.617 0 .596.596 0 0 1-.469.064.621.621 0 0 1-.375-.3v-.186z" fill="#005DA4"/><path d="M3.7 7.788a.621.621 0 0 0 .375.3.596.596 0 0 0 .469-.065.596.596 0 0 1 .617 0 .596.596 0 0 0 .618 0 .596.596 0 0 1 .617 0c.142.086.31.109.469.064a.621.621 0 0 0 .374-.3v.186a.621.621 0 0 1-.374.3.596.596 0 0 1-.469-.064.596.596 0 0 0-.617 0 .596.596 0 0 1-.618 0 .596.596 0 0 0-.617 0 .596.596 0 0 1-.469.064.621.621 0 0 1-.375-.3v-.185z" fill="#005DA4"/><path d="M5.52 4.281l.057.163.192-.038-.134.125.134.125-.192-.038-.058.163-.057-.163-.193.038.135-.125-.135-.125.193.038zM4.825 3.316l.057.164.193-.039-.135.125.135.125-.193-.038-.057.163-.058-.163-.192.038.134-.125-.134-.125.192.039zM6.214 3.316l.058.164.192-.039-.135.125.135.125-.192-.038-.058.163-.058-.163-.192.038.134-.125-.134-.125.192.039z" fill="#FD0"/><path d="M3.173 3.513l.205 3.152c.084 1.287.913 2.39 2.092 2.786 1.179-.395 2.007-1.499 2.091-2.786l.205-3.152c.058.029.115.056.174.082l-.2 3.082c-.09 1.385-.995 2.567-2.27 2.968-1.276-.4-2.18-1.583-2.27-2.968L3 3.595c.058-.026.116-.053.173-.082" fill="#ED1C24"/></g><use mask="url(#d)" xlink:href="#a" stroke="#E6E6E6"/></g></svg>