<svg width="24" height="16" viewBox="0 0 24 16" xmlns="http://www.w3.org/2000/svg"><title>flag-gq</title><g fill="none" fill-rule="evenodd"><path fill="#E84550" d="M0 0h24v16H0z"/><path fill="#FFF" d="M0 0h24v10.667H0z"/><path fill="#287E6E" d="M0 0h24v5.333H0z"/><path fill="#006DA0" d="M0 0v16l6-8z"/><path d="M10.72 6.392h2.553v2.675c0 .9-1.173.206-1.273.686-.173-.493-1.273.22-1.273-.74 0-.933-.007-2.621-.007-2.621z" stroke="#000" stroke-width=".1" fill="#FFF"/><path d="M11.97 7.57l.003-.183h.12l-.016.175c.105-.101.183-.135.183-.135l.08.066c-.3.154-.273.374-.247.754.007.14.007.32.04.493.047.22.14.407.147.547.007.086-.1.04-.1.04s-.022.022-.062.016c-.096.098-.151.02-.167-.007-.118.122-.164-.023-.171-.036l.007.027c-.114.053-.127-.054-.12-.067.246-.5.353-1.6.126-1.72l.014-.107c.077.024.15.118.164.137z" fill="#73452B"/><path d="M12.367 6.933c.04-.046.04-.046.113-.046.013-.1.18-.1.193.026.134-.026.16.054.107.134.127-.034.24 0 .207.146.226.06.14.22.04.254-.014.1-.107.133-.234.093-.16.113-.253.073-.326-.04-.18.027-.194-.013-.274-.113-.14.06-.166.06-.286-.014-.007.094-.04.067-.1.06.006.12-.04.174-.147.134.08.166-.127.24-.227.1-.093.006-.1-.02-.146-.054-.04.134-.187.114-.214.04-.186-.026-.166-.126-.013-.133.013-.107.107-.087.167-.073.006-.067.046-.054.08-.04-.02-.047-.007-.074.053-.087-.087-.113-.033-.153.053-.193-.046-.107.034-.1.094-.107-.007-.113.026-.133.146-.147-.013-.04.007-.073.074-.073-.04-.113.013-.14.133-.12.02-.165.373-.087.347.14.1.013.133.033.16.113z" fill="#009A3B"/><g fill="#FFD700"><path d="M11.913 6.017l-.146.007-.074.131-.08-.125-.146.006.066-.132-.08-.125.154-.007.066-.131.08.125.147-.006-.067.132zM11.287 6.066l-.147.036-.04.142-.107-.107-.14.035.04-.142-.1-.108.14-.035.04-.143.107.107.147-.035-.047.143zM10.68 6.19l-.133.067-.007.148-.127-.082-.133.066.013-.148-.126-.082.133-.067.013-.148.12.081.134-.065-.007.148zM12.107 6.017l.146.007.067.131.08-.125.147.006-.067-.132.08-.125-.147-.007-.073-.131-.08.125-.147-.006.067.132zM12.733 6.066l.14.036.04.142.107-.107.14.035-.04-.142.107-.108-.147-.035-.04-.143-.107.107-.14-.035.04.143zM13.333 6.19l.134.067.006.148.127-.082.133.066-.006-.148.12-.082-.134-.067-.006-.148-.127.081-.133-.065.013.148z"/></g><g stroke-width=".1" stroke="#000" fill="#FFF"><path d="M13.513 9.013l.167.24.153-.226-.106-.194zM12.453 9.713l.014.24s.066 0 .126-.02c.054-.02.1-.06.1-.06l-.006-.126-.234-.034zM11.56 9.713l-.013.234s-.06 0-.12-.014c-.054-.013-.1-.046-.1-.046l-.067-.16.3-.014zM10.487 9.013l-.174.24-.186-.306.14-.147z"/><path d="M11.32 10.193c0 .227 1.373.227 1.373 0v-.32c0 .167-1.373.134-1.373 0v.32z"/><path d="M10.093 9.453c.12.614 1.227.627 1.227.627v-.207c-.027-.08.02-.106.2-.133.073-.007.04-.113.04-.113s-.48.086-.82-.047c-.46-.187-.527-.547-.527-.547s-.033.28-.12.42zM13.913 9.453c-.113.614-1.22.627-1.22.627v-.207c.02-.08-.026-.106-.206-.133-.074-.007-.034-.113-.034-.113s.48.086.82-.047c.454-.187.507-.547.507-.547s.047.28.133.42z"/><path d="M10.18 9.22c-.307-.167-.067-.34-.04-.833.047.3.387.426.347.62-.14.006-.207-.207-.274.026l-.033.187zM13.827 9.22c.306-.173.053-.34.026-.833-.046.3-.38.426-.34.62.134.006.2-.207.267.026l.047.18v.007z"/></g></g></svg>