<svg width="24" height="16" viewBox="0 0 24 16" xmlns="http://www.w3.org/2000/svg" xmlns:xlink="http://www.w3.org/1999/xlink"><title>flag-il</title><defs><path id="a" d="M0 0h24v16H0z"/><mask id="b" x="0" y="0" width="24" height="16" fill="#fff"><use xlink:href="#a"/></mask></defs><g fill="none" fill-rule="evenodd"><path fill="#FFF" d="M23.984 15.976H0V0h23.984z"/><path d="M23.984 3.596H0V1.498h23.984v2.098zm0 10.935H0v-2.098h23.984v2.098zM8.146 5.953l3.611 5.977 3.689-5.952-7.3-.025z" fill="#006DA0"/><path fill="#FFF" d="M11.075 9.917l.687 1.108.702-1.104-1.389-.004z"/><path fill="#006DA0" d="M8.133 10.003l3.611-5.977 3.688 5.953-7.3.024z"/><path d="M11.075 5.979l.687-1.108.702 1.103-1.389.005zM9.64 8.459l-.71 1.123 1.342-.004-.632-1.118zm-.697-2.074l1.352.009-.65 1.131-.702-1.14zm4.96 2.087l.682 1.11-1.367-.016.684-1.094zm.67-2.087l-1.352.009.65 1.131.702-1.14zm-3.747-.002l-.931 1.608.944 1.57 1.73.037 1.05-1.607-.971-1.62-1.822.012z" fill="#FFF"/><use mask="url(#b)" xlink:href="#a" stroke="#E6E6E6"/></g></svg>