<svg width="24" height="16" viewBox="0 0 24 16" xmlns="http://www.w3.org/2000/svg" xmlns:xlink="http://www.w3.org/1999/xlink"><title>flag-gi</title><defs><path id="a" d="M0 0h24v16H0z"/><mask id="b" x="0" y="0" width="24" height="16" fill="#fff"><use xlink:href="#a"/></mask></defs><g fill="none" fill-rule="evenodd"><use mask="url(#b)" xlink:href="#a" stroke="#E6E6E6"/><g><path fill="#E84550" d="M0 0h24v16H0z"/><path fill="#E84550" d="M9.5 10h5v.5h-5z"/><path fill="#EDED4A" d="M11.75 12.5h.5v3h-.5z"/><path fill="#EDED4A" d="M12.25 13.5h-1.5v.5h1.5zM12.25 14.5h-1.5v.5h1.5zM13.176 12.197l.194-.134-.185-.14-1.035-.785-.182-.138-.177.141-.966.77-.175.14.187.13 1.008.701.17.118.168-.117.993-.686zm-.992.406l-1.008-.701.012.27.966-.77-.359.004 1.036.785.008-.274-.993.686h.338z"/><path fill="#FFF" d="M0 0h24v11H0z"/><path d="M16 6h1V5H7v1h1v3h8V6zM7 9h10v1H7V9zm4-6h2v2h-2V3zM8 4h2v1H8V4zm-.5-1h3v1h-3V3zm6 0h3v1h-3V3zm.5 1h2v1h-2V4zm-3.5-2h3v1h-3V2z" fill="#E84550"/><rect fill="#2B3541" x="11" y="6.75" width="2" height="3" rx="1"/><rect fill="#2B3541" x="14" y="7.5" width="1" height="2" rx=".5"/><rect fill="#2B3541" x="14.5" y="4" width="1" height="1" rx=".5"/><rect fill="#2B3541" x="8.5" y="4" width="1" height="1" rx=".5"/><rect fill="#2B3541" x="11.5" y="3.5" width="1" height="1.5" rx=".5"/><rect fill="#2B3541" x="9" y="7.5" width="1" height="2" rx=".5"/></g></g></svg>