<svg width="24" height="16" viewBox="0 0 24 16" xmlns="http://www.w3.org/2000/svg" xmlns:xlink="http://www.w3.org/1999/xlink"><title>flag-ge</title><defs><path id="a" d="M0 0h24v16H0z"/><mask id="b" x="0" y="0" width="24" height="16" fill="#fff"><use xlink:href="#a"/></mask></defs><g fill="none" fill-rule="evenodd"><path fill="#FFF" d="M.046.023h23.947v15.965H.046z"/><path fill="#E84550" d="M10.423.023v6.386H.046v3.193h10.377v6.386h3.193V9.602h10.378V6.41H13.616V.023z"/><path d="M5.731 2.627V1.552h-.955v1.075H3.701v.955h1.075v1.075h.955V3.582h1.075v-.955H5.731zM18.866 2.627V1.552h-.956v1.075h-1.074v.955h1.074v1.075h.956V3.582h1.074v-.955h-1.074zM18.866 12.18v-1.076h-.956v1.075h-1.074v.955h1.074v1.075h.956v-1.075h1.074v-.955h-1.074zM5.731 12.18v-1.076h-.955v1.075H3.701v.955h1.075v1.075h.955v-1.075h1.075v-.955H5.731z" fill="#E84550"/><g stroke="#E6E6E6"><use mask="url(#b)" xlink:href="#a"/></g></g></svg>