<svg width="24" height="16" viewBox="0 0 24 16" xmlns="http://www.w3.org/2000/svg" xmlns:xlink="http://www.w3.org/1999/xlink"><title>flag-sa</title><defs><path id="a" d="M0 0h24v16H0z"/></defs><g fill="none" fill-rule="evenodd"><mask id="b" fill="#fff"><use xlink:href="#a"/></mask><use fill="#287E6E" xlink:href="#a"/><path d="M9.31 2.39c-.018-.001-.044.009-.082.031-.084.057-.251.23-.256.43-.005.113-.026.113.047.185.054.077.107.07.215.013a.228.228 0 0 0 .104-.151c.025-.129-.135.06-.156-.082-.036-.133.067-.188.164-.316.002-.06.004-.11-.036-.11zm1.57.008c-.03.004-.068.043-.119.135-.036.097-.194.244-.08.547.093.193.131.505.089.853-.065.098-.08.132-.164.231-.12.128-.248.096-.347.048-.093-.062-.165-.094-.207-.292.007-.316.026-.832-.032-.942-.085-.17-.225-.109-.285-.057-.288.263-.43.707-.517 1.06-.08.258-.165.184-.225.08-.145-.137-.155-1.202-.33-1.027-.282.804.16 1.684.467 1.598.221.092.362-.33.452-.79.062-.13.11-.144.141-.078-.008.613.044.75.202.936a.509.509 0 0 0 .665.011l.273-.273c.061-.064.142-.068.228-.012.084.076.073.207.252.298.15.06.472.015.547-.115.1-.172.125-.231.171-.296.072-.096.194-.054.194-.023-.01.053-.083.105-.034.201.085.064.105.023.155.009.179-.086.313-.472.313-.472.008-.145-.074-.134-.127-.104-.068.042-.073.056-.141.098-.087.013-.256.07-.34-.06-.085-.155-.086-.372-.15-.529 0-.011-.115-.247-.01-.262.054.01.168.04.186-.056.056-.093-.12-.358-.24-.491-.104-.114-.248-.128-.387-.011-.098.09-.084.19-.103.285a.445.445 0 0 0 .091.388c.097.192.274.439.216.786 0 0-.103.166-.284.144-.075-.016-.198-.049-.263-.531-.05-.365.012-.876-.143-1.116-.035-.09-.065-.178-.115-.171zm-.497.039c-.047.004-.099.058-.141.164-.037.08-.081.5-.074.5-.029.124.13.177.203.017.109-.294.11-.42.117-.544-.017-.095-.058-.141-.105-.137zm1.834.033c-.048.004-.087.032-.101.103-.02.168-.01.259.019.398.021.093.156.248.223.338.317.427.623.856.918 1.3.047.33.08.652.102.973a19.6 19.6 0 0 1 .02 2.322c.131.005.342-.213.417-.533.048-.442-.018-1.344-.022-1.605-.003-.108-.01-.237-.017-.372.343.56.676 1.155 1.003 1.808.12-.057.093-.728.023-.822-.262-.564-.623-1.12-.738-1.333a10.247 10.247 0 0 0-.352-.542 8.19 8.19 0 0 0-.086-.745c-.054-.375.154.042.125-.176-.067-.374-.274-.629-.518-.972-.079-.111-.077-.134-.199.028a.715.715 0 0 0-.05.43 2.283 2.283 0 0 0-.128-.17l-.399-.338c-.055-.04-.16-.1-.24-.092zm5.435.056c-.023-.004-.049.008-.077.05a.327.327 0 0 0-.113.248c.014.198.049.4.062.597l.015.08a.77.77 0 0 0-.05-.06c-.386-.404.176-.066-.074-.378-.212-.233-.274-.307-.455-.446-.091-.059-.146-.171-.176.02a3.765 3.765 0 0 0-.013.504c0 .078.081.226.151.314.257.315.52.651.784 1.001.055.715.07 1.37.126 2.086-.008.306-.102.713-.191.752 0 0-.137.078-.228-.009-.066-.027-.33-.442-.33-.442-.136-.124-.227-.089-.323 0-.266.257-.387.738-.567 1.07-.047.074-.178.137-.324-.006-.371-.507-.154-1.228-.2-1.042-.33.372-.184.989-.11 1.121.11.218.197.357.41.465.192.142.342.053.425-.046.194-.201.197-.716.288-.818.064-.187.224-.154.302-.072.076.11.166.18.277.24.18.16.397.188.61.043.146-.082.24-.188.325-.398.092-.244.047-1.526.026-2.24.137.193.272.39.406.59.06.625.086 1.242.067 1.833-.014.118.41-.351.407-.573-.002-.194 0-.37 0-.534.206.328.405.662.593 1 .117-.061.077-.722.003-.813-.197-.33-.45-.688-.645-.964-.039-.35-.091-.761-.115-.887-.037-.197-.075-.492-.131-.726-.016-.09-.062-.382-.048-.41.023-.065.11.002.153-.073.064-.07-.222-.81-.367-1.022-.052-.095-.147-.062-.264.092-.108.101-.068.333-.027.553.107.56.203 1.131.28 1.701-.141-.209-.313-.462-.482-.705l-.021-.111c0-.01-.023-.459-.043-.566-.004-.043-.014-.056.031-.05.049.04.055.043.085.056.049.009.092-.073.062-.15l-.452-.835c-.018-.018-.038-.036-.062-.04zM3.624 2.54c-.083-.002-.175.05-.14.15-.02.055.164.24.196.341.03.073-.028.306.032.327.056.024.132-.161.161-.333.016-.093.004-.414-.214-.48a.179.179 0 0 0-.035-.005zm15.98.002c-.019.002-.042.033-.077.108-.086.14-.115.39-.08.612.205 1.391.358 2.738.39 3.972-.018.117-.024.179-.078.326-.122.156-.256.351-.382.445-.126.094-.394.184-.482.254-.279.16-.28.346-.055.352.388-.045.847-.077 1.163-.554.085-.134.184-.496.189-.718.03-1.301-.017-2.574-.212-3.514-.012-.092-.053-.302-.037-.33.025-.064.152.007.197-.067.066-.068-.328-.573-.466-.79-.028-.054-.045-.098-.07-.096zm-4.068.022c-.016.003-.04.027-.083.085-.108.354-.147.643-.105.863.278 1.453.563 2.776.518 4.16.132 0 .285-.303.35-.602.036-.413-.024-.665-.035-.907-.01-.243-.274-2.212-.328-2.396-.064-.347.257-.045.222-.247-.111-.255-.388-.626-.475-.847-.033-.059-.037-.114-.064-.11zm-9.905.027c-.034.006-.067.034-.08.08-.007.031.014.082-.013.097-.016.016-.076.005-.074-.079 0-.027-.02-.055-.032-.072-.012-.008-.02-.01-.041-.01-.027.001-.026.008-.04.03-.007.023-.015.045-.015.07-.004.03-.016.04-.038.045-.024 0-.019.003-.039-.01-.012-.013-.026-.018-.026-.04a.237.237 0 0 0-.012-.075c-.011-.014-.028-.02-.047-.026-.103 0-.11.12-.105.164-.007.009-.011.22.13.278.19.09.545.052.53-.253 0-.027-.006-.118-.009-.143-.02-.045-.055-.062-.09-.056h.001zm2.542.003a.423.423 0 0 0-.172.048c-.126.12-.155.313-.057.433.097.045.193.142.129.196-.273.29-.981.776-1.017.865l-.001.003v.004l.001.003.002.001h.001l.002.002h.001l.001.001c.036.024.48.024.529.002l.001-.002h.002V4.15c.152-.056.875-.883.875-.883-.038-.032-.072-.055-.11-.088-.04-.034-.036-.068 0-.103.18-.104.123-.334.03-.438a.467.467 0 0 0-.217-.043zm6.645.003c-.019.002-.042.031-.078.106-.085.14-.143.384-.136.612.185 1.281.242 2.403.362 3.684.01.124-.008.304-.09.376-.305.318-.744.71-1.222.89-.052.059.128.305.36.305.387-.046.728-.263 1.045-.837.084-.134.233-.42.237-.642.03-1.301-.065-2.313-.26-3.253a.537.537 0 0 1 .011-.228c.025-.03.11.001.156-.073.066-.068-.178-.63-.316-.845-.027-.054-.044-.098-.069-.095zm-10.294.04c-.053.005-.104.049-.128.107-.009.206-.01.41.013.6.093.332.123.625.168.965.013.455-.263.197-.25-.029.064-.293.046-.755-.01-.872-.045-.117-.097-.146-.206-.127-.087-.005-.31.238-.373.642 0 0-.052.207-.075.392-.03.208-.168.356-.265-.03-.083-.279-.134-.968-.273-.807-.04.538-.087 1.485.37 1.582.553.053.247-.935.448-1.114.037-.089.107-.09.113.022v.839c-.005.273.175.354.314.41.145-.011.241-.007.298.134l.07 1.453s.334.096.35-.817c.016-.536-.106-.985-.034-1.09.002-.102.134-.107.224-.057.145.102.21.227.434.177.342-.094.547-.26.552-.522-.02-.25-.048-.5-.156-.749.015-.045-.066-.163-.05-.209.06.096.154.088.175 0-.058-.191-.149-.375-.295-.455-.121-.106-.298-.084-.363.139-.03.256.093.56.28.807.039.097.094.258.07.403-.1.057-.198.033-.281-.055 0 0-.272-.203-.272-.249.072-.462.016-.515-.024-.643-.028-.177-.112-.233-.18-.354-.069-.072-.16-.072-.205 0-.12.208-.064.656.023.856.063.185.16.3.114.3-.037.104-.115.08-.171-.04-.08-.25-.097-.62-.097-.786-.024-.208-.05-.65-.187-.762-.036-.05-.08-.067-.12-.062zm1.942.002c-.027.003-.058.02-.094.027-.117.038-.227.14-.192.337.139.845.23 1.49.368 2.334.021.099-.061.229-.168.216-.182-.123-.227-.372-.537-.362-.225.003-.48.247-.513.482-.037.187-.05.39 0 .553.158.19.347.17.513.127.136-.056.248-.19.296-.158h.002v.001c.03.052-.003.491-.642.83-.393.177-.706.22-.874-.102-.104-.2.007-.963-.25-.787-.758 1.956 1.779 2.23 2.062.08.019-.06.074-.12.114-.106.017.007.033.03.039.075C6.53 8.13 4.627 8.265 4.304 7.653c-.08-.144-.104-.466-.112-.658-.015-.116-.044-.184-.078-.21-.077-.058-.181.093-.203.355-.032.211-.023.27-.023.473.101 1.536 2.551.876 2.95-.393.196-.657-.005-1.152.061-1.213l.003-.001.003-.001.003-.002a.041.041 0 0 1 .009-.001c.243.262.584.033.659-.058.032-.045.112-.074.168-.016.19.137.522.072.592-.168.04-.235.074-.477.082-.728-.124.038-.223.067-.263.109a.07.07 0 0 0-.02.034l-.03.21a.052.052 0 0 1-.007.015.067.067 0 0 1-.023.022c-.043.023-.12.01-.123-.054-.06-.267-.301-.302-.448.113-.099.08-.28.095-.298-.025.024-.278-.088-.315-.313-.184l-.215-1.627c.093-.002.179.065.264-.041-.092-.288-.288-.874-.398-.929l-.003-.001a.147.147 0 0 0-.023-.022l-.007-.004a.08.08 0 0 0-.045-.009zm7.57.004c-.097-.003-.204.059-.162.18-.025.067.208.292.246.415.067.19-.052.37.018.396.065.029.155-.196.19-.403.038-.168-.082-.512-.251-.583a.201.201 0 0 0-.04-.005zm-5.897.208c.044-.005.097.036.123.093.028.061.014.12-.031.131-.046.011-.105-.03-.133-.09-.028-.062-.014-.122.032-.133a.062.062 0 0 1 .009-.001zm10.94.283c-.089-.003-.185.064-.147.196-.022.072.19.316.223.45.031.094-.047.4.018.428.059.032.142-.211.172-.436.017-.123-.074-.555-.229-.632a.162.162 0 0 0-.037-.006zm-6.049.15c.008.036.016.072.022.11.018.079.034.158.05.237a3.61 3.61 0 0 0-.152-.202c-.158-.188.003-.123.08-.145zm1.394.685c-.035.006-.068.036-.08.082-.007.03.015.08-.012.095-.016.016-.078.007-.075-.078 0-.026-.02-.056-.032-.073-.012-.008-.02-.01-.042-.01-.026.001-.026.008-.04.03-.006.023-.014.045-.014.07-.004.03-.014.04-.036.045-.025 0-.02.003-.04-.01-.013-.013-.027-.018-.027-.04a.237.237 0 0 0-.013-.075c-.01-.014-.027-.02-.046-.024-.103 0-.11.117-.103.162-.008.009-.013.22.128.28.19.09.546.05.531-.255a2.39 2.39 0 0 0-.01-.143c-.02-.045-.055-.062-.09-.056zm-6.363.063a.153.153 0 0 0-.089.028c-.168.09-.232.36-.128.517.097.138.251.087.272.087.164.02.262-.308.262-.308s.005-.092-.19.082c-.082.016-.093-.014-.114-.06A.409.409 0 0 1 8.1 4.12c.018-.051 0-.084-.039-.088zm8.994.042c-.093-.004-.192.056-.217.183 0 .075.034.116.027.184-.01.04-.05.065-.145.019.015-.014-.062-.122-.062-.122-.075-.046-.174.002-.239.044a.364.364 0 0 0-.021.29c.107.197.474.535.649.538.003-.178.02-.415.03-.563.004-.056.017-.117.07-.13.054-.015.146.053.147-.005-.01-.114-.032-.281-.096-.36a.18.18 0 0 0-.143-.078zm-7.445.62l-.007.005a.085.085 0 0 0-.004.003c-.019.014-.04.046-.09.08-.082.094-.097.16-.092.347.005.02.157.442.286.739.086.308.166.661.107.995-.202.44-.61.836-1.004 1.05-.2.065-.374.043-.42-.001l-.002-.002a.26.26 0 0 1-.11-.238V7.67 7.67c.333-.232.712-.42 1.01-1.044.087-.239.114-.382.027-.751a.715.715 0 0 0-.17-.349l.002-.001c.056-.027.203.08.226.013a1.094 1.094 0 0 0-.29-.534c-.118-.108-.247-.12-.355-.022-.122.068-.148.312-.09.525.066.161.242.19.367.513v.001c.003.02.044.242-.02.331-.051.16-.71.68-.757.712l-.004.003-.002.001-.001.001-.002.002h-.002l-.002-.002v-.001l-.001-.003c-.002-.013.001-.046 0-.1-.005-.097.036-.317.033-.355v-.001l-.002-.002v-.001H8.24c-.218.14-.29.572-.33.7-.551.38-1.178.664-1.539 1.05-.187.294 1.295-.337 1.467-.413l.005.005c.032.036.035.161.134.274.154.21.481.338.8.258.534-.193.842-.557 1.156-.961.045-.066.115-.117.18-.067.215.483.836.826 1.64.861.185-.226.096-.337.021-.384-.023-.016-.4-.162-.458-.308-.036-.136.053-.257.232-.347.516-.063 1.022-.132 1.513-.29.005-.164.102-.41.167-.518.045-.074.074-.081.085-.092l.001-.001.002-.002.001-.001v-.003l-.001-.014-.084-.05-1.645-.007a.176.176 0 0 1-.045-.023l-.003-.003h-.001l-.001-.002-.002-.003-.001-.002v-.001l-.002-.002v-.001-.001-.002-.001-.002-.001-.002-.001l.002-.002.001-.002a.123.123 0 0 1 .052-.03c.393-.054 1.09-.169 1.137-.84-.007-.35-.15-.578-.579-.642-.315.024-.54.33-.503.665-.015.09.03.268-.062.288-.605.055-1.265.434-1.287.705h-.002l-.001.002-.003.001h-.003l-.004.002h-.002-.002a.038.038 0 0 0-.005 0l-.006-.002c-.039-.01-.09-.076-.082-.167-.023-.468-.175-.999-.414-1.408-.085-.085-.123-.12-.147-.123h-.003-.004-.002-.001-.002zm1.575.248c-.034.006-.067.034-.079.08-.007.031.015.082-.013.097-.016.016-.077.007-.075-.077 0-.027-.02-.057-.031-.074-.012-.008-.019-.01-.04-.01-.027.001-.028.008-.042.03-.007.023-.015.045-.015.07-.003.03-.014.041-.036.045-.025 0-.019.003-.039-.01-.012-.013-.027-.018-.027-.04a.239.239 0 0 0-.012-.075c-.01-.014-.028-.02-.047-.024-.104 0-.11.118-.104.162-.007.009-.013.221.128.28.19.09.641.037.532-.255 0-.027-.008-.118-.01-.143-.02-.045-.056-.062-.09-.056zm6.356.26c-.005 0-.01 0-.016.002 0 0-.878.625-.9.647-.087.077-.043.35 0 .318.063.024.947-.575.93-.645.039.002.057-.308-.014-.321zm-5.526.093a.225.225 0 0 1 .128.035c.066.038.106.095.1.137v.004l-.002.004-.002.005-.001.002-.001.003a.058.058 0 0 1-.01.01c-.03.03-.103.026-.172-.014-.065-.038-.105-.095-.1-.137V5.34a.049.049 0 0 1 .007-.014l.002-.006.002-.002a.066.066 0 0 1 .007-.007.082.082 0 0 1 .042-.016zm-7.689.159c-.455.008-1.12.596-1.138.922.48-.23.951-.452 1.44-.69-.08-.118-.006-.224-.302-.232zm1.474.204c.045 0 .092.023.117.085a.148.148 0 0 1-.026.147v.001l-.001.003c-.02.025-.087.015-.134.015-.058-.003-.087-.012-.121-.06-.017-.052.034-.103.056-.142l.001-.001a.075.075 0 0 1 .01-.012.15.15 0 0 1 .098-.036zm11.57.181c-.081.01-.158.087-.122.209-.023.072.11.323.143.456.031.095-.04.364.025.392.059.031.214-.16.209-.399.017-.123-.044-.577-.199-.654a.146.146 0 0 0-.056-.004zm-9.826.444c-.072.005-.135.043-.107.143-.004.074.202.162.215.332.03.07-.044.293.017.313.056.024.135-.154.164-.32.017-.09-.07-.406-.219-.463a.253.253 0 0 0-.07-.005zm2.94.401H10.504c.184.05.454.055.689.08.19.011.285.161.106.224-.176.06-.346.108-.347.363.023.126.019.192-.001.223a.073.073 0 0 1-.006.007l-.001.001-.002.002-.001.001-.002.002-.003.001a.05.05 0 0 1-.008.004l-.009.002c-.042.006-.103-.034-.148-.058-.109-.078-.414-.267-.458-.673-.006-.092.063-.171.173-.179zm-7.183.313c-.011 0-.034.034-.064.073-.271.431-.295 1.075-.146 1.267.08.09.21.13.307.102.17-.074.245-.418.204-.544-.056-.089-.101-.103-.158-.028-.12.243-.17.077-.18-.059a3.12 3.12 0 0 1 .035-.682c.014-.096.014-.13.002-.13zm9.22.566a.124.124 0 0 0-.063.013 1.15 1.15 0 0 0-.254.217c-.038.028-.033.053-.022.102.03.067.08.046.138.015.077-.01.115.04.108.132-.035.115.016.158.016.166 0 .007.074.07.161.02.184-.07.299-.139.556-.195.067-.001.064-.182-.043-.188-.14.007-.268.014-.408.124-.085.02-.1-.033-.12-.08-.02-.116.05-.198.035-.285.004.004-.043-.038-.103-.041zm5.904.22c-.034.001-.07.006-.122.01-.056.012-.076.037-.086.105.004.104.067.099.132.14.038.048.062.09-.003.17-.061.056-.105.087-.167.144-.029.05-.047.125.042.15.164.045.544-.201.544-.207.062-.046.041-.134.036-.134-.036-.04-.117-.016-.171-.023-.026 0-.111-.012-.07-.087a.51.51 0 0 0 .068-.133c.026-.056.003-.094-.089-.125a.512.512 0 0 0-.114-.01zm-2.466 2.993l-.001.002c-.273.07-.265.353-.09.478-2.883 0-7.308-.05-8.257-.05-.53 0-2.21-.063-2.242-.063.36.527.882.635 1.564.645 1.281 0 7.215-.016 8.904-.016-.12.214.01.557.105.62a.065.065 0 0 0 .019.009h.004c.112.025.16-.055.198-.115.182.016 1.203.031 1.296-.001l.001-.001c.064.093.126.18.247.165.21-.045.376-.068.381-.495 0 0-.021-.728-.5-.682-.113.017-.43.049-.43.049-.367-.044-.636-.049-1.05-.064.039-.048.106-.244.024-.315-.022-.018-.054-.028-.098-.025h-.002-.002l-.002-.001-.004-.001a.044.044 0 0 1-.007-.008l-.003-.003c-.021-.03-.033-.104-.046-.123l-.002-.002-.001-.001-.003-.002h-.002zm.196 1.041h.001c.421.02.816.004 1.237.025.067.056.033.186-.01.21a.048.048 0 0 1-.007.003h-.012l-.353-.01a.079.079 0 0 0-.002-.02c-.033-.097-.268-.09-.323-.015a.117.117 0 0 0-.003.004l-.003.006a.083.083 0 0 0-.003.007l-.001.01c0 .004-.002.008-.001.012-.185.022-.351-.006-.536-.013-.054-.068-.048-.19.016-.219z" fill="#FFF" mask="url(#b)"/></g></svg>