<svg width="24" height="16" viewBox="0 0 24 16" xmlns="http://www.w3.org/2000/svg"><title>flag-somaililand</title><g fill="none" fill-rule="evenodd"><path fill="#FFF" d="M0 0h24v16H0z"/><path fill="#287E6E" d="M0 0h24v5H0z"/><path fill="#E84550" d="M0 11h24v5H0z"/><path fill="#2B3541" d="M12 9.317L10.764 10l.381-1.447L10 7.528l1.382-.059L12 6l.618 1.47L14 7.527l-1.145 1.025.381 1.447z"/><g transform="translate(7 .697)"><path d="M.097.649c-.024.318-.052.878.218.935.327.032.147-.553.265-.66C.603.873.644.873.647.939v.496c-.003.162.103.21.186.243.086-.007.143-.004.176.08l.04.858s.2.057.209-.483c.01-.317-.063-.582-.02-.644 0-.06.078-.064.132-.035.085.06.123.135.256.105.202-.055.324-.154.327-.309a1.344 1.344 0 0 0-.092-.443C1.87.78 1.82.71 1.83.683c.036.057.091.052.104 0C1.9.57 1.847.461 1.76.414c-.071-.063-.176-.05-.214.081-.018.152.054.332.165.479a.468.468 0 0 1 .042.238c-.06.033-.118.02-.167-.033 0 0-.16-.12-.16-.147.042-.273.009-.304-.015-.38-.017-.105-.066-.139-.107-.21-.04-.043-.094-.043-.12 0-.071.123-.038.388.013.506.037.11.094.178.067.178-.022.061-.068.047-.1-.024a1.772 1.772 0 0 1-.058-.465c-.014-.122-.03-.384-.11-.45C.946.12.874.153.848.214.843.335.843.457.856.569c.056.196.073.37.1.57.007.27-.156.117-.149-.016C.845.949.835.676.802.607.775.537.744.52.679.532.63.529.496.672.46.912c0 0-.031.122-.045.231-.018.123-.099.21-.156-.017C.21.96.178.553.097.649z" fill="#FFF"/><path d="M.985 1.954c-.288.141-.567.273-.851.41.01-.194.405-.542.674-.547.175.005.13.068.177.137z" fill="#FFF"/><path d="M.837 2.221c-.45 1.157 1.05 1.318 1.218.047.016-.052.08-.104.09-.019C2.111 3.4.985 3.48.794 3.117c-.048-.085-.062-.275-.067-.389C.7 2.502.581 2.59.562 2.814c-.02.125-.015.16-.015.28.06.908 1.51.518 1.745-.233.125-.416-.02-.722.048-.72.144.154.344.02.389-.034.019-.027.066-.044.1-.01.111.081.309.043.35-.099a3.16 3.16 0 0 0 .048-.431c-.092.028-.16.047-.166.085l-.02.123c-.007.04-.086.041-.09-.01-.034-.157-.178-.178-.265.067-.059.048-.164.057-.176-.014.015-.164-.052-.187-.184-.11L2.197.747c.056-.001.106.04.157-.023-.055-.173-.172-.525-.237-.55-.032-.038-.059-.015-.1-.005-.07.022-.134.082-.114.199.083.5.136.88.219 1.38.012.058-.037.136-.1.128-.107-.073-.134-.22-.318-.214-.132.002-.284.146-.303.285a.693.693 0 0 0 0 .327c.093.112.205.101.303.076.08-.033.147-.114.176-.095.019.024.004.29-.38.493-.232.105-.417.128-.516-.061-.062-.119.004-.57-.147-.465z" fill="#FFF"/><path d="M2.74 1.045c.09-.033.517-.522.517-.522L3.193.471c-.023-.02-.021-.04 0-.061C3.3.348 3.265.213 3.21.15a.258.258 0 0 0-.23.002c-.074.072-.092.185-.033.257.057.026.114.084.076.116-.175.186-.653.508-.598.519.012.016.306.015.315 0zM.216 2.773c-.22.255-.24.636-.118.75a.32.32 0 0 0 .25.06c.139-.043.2-.247.166-.322-.046-.052-.082-.06-.129-.016C.288 3.39.247 3.29.24 3.21a1.347 1.347 0 0 1 .027-.404c.024-.113 0-.079-.05-.033zM7.003 2.365c-.155-.333-.369-.662-.437-.789A14.826 14.826 0 0 0 5.907.62C5.74.42 6.18.702 5.852.307l-.236-.2c-.052-.038-.18-.105-.202.007a.645.645 0 0 0 .012.235c.012.055.092.146.132.2.522.702.985 1.41 1.431 2.302.07-.034.055-.43.014-.486z" fill="#FFF"/><path d="M6.324 3.48c-.03.034.075.18.212.18.23-.027.432-.156.619-.495.05-.08.137-.248.14-.38.018-.77-.038-1.368-.154-1.924a.318.318 0 0 1 .007-.134c.014-.018.065 0 .091-.044.04-.04-.104-.372-.185-.5-.03-.057-.04-.095-.088.007a.719.719 0 0 0-.08.362c.11.758.143 1.421.215 2.179.005.073-.005.18-.054.222-.18.188-.44.42-.723.527zM9.423 3.476c-.164.095-.165.204-.031.208.229-.026.5-.045.687-.328.05-.079.11-.293.112-.424.018-.77-.01-1.344-.125-1.9-.008-.055-.032-.18-.022-.196.014-.038.09.005.116-.04.04-.04-.194-.338-.275-.466-.03-.057-.04-.095-.088.007a.593.593 0 0 0-.047.362c.121.823.212 1.44.23 2.17-.01.07-.013.107-.045.194-.072.092-.151.207-.226.263-.075.055-.234.108-.286.15z" fill="#FFF"/><path d="M9.547 2.738c-.002-.193.002-.359-.004-.502a.9.9 0 0 0-.081-.363c-.047-.109-.018-.197-.04-.313-.022-.116-.017-.29-.05-.429a1.48 1.48 0 0 1-.029-.243c.014-.038.066.002.091-.043.038-.041-.131-.48-.217-.604C9.186.185 9.13.204 9.06.295c-.064.06-.04.197-.016.327.165.86.287 1.637.26 2.455-.008.07.243-.208.242-.34zM8.33 1.672c-.103-.002-.32-.201-.384-.318a.215.215 0 0 1 .013-.171c.038-.025.097-.053.141-.026 0 0 .046.064.037.072.057.027.08.011.087-.012.003-.04-.017-.064-.017-.108.024-.12.161-.14.213-.063.038.047.052.147.057.214 0 .034-.056-.006-.087.002-.032.008-.04.045-.042.078-.006.087-.016.227-.018.332zM6.42 2.951c.028-.261-.011-.727-.014-.881-.01-.365-.07-1.069-.098-1.186-.032-.222.09.024.074-.105-.04-.221-.163-.371-.307-.574-.047-.066-.045-.08-.117.016-.08.18-.011.304.01.445.104.458.164.879.193 1.295.028.417.037.867.01 1.306.079.003.204-.127.248-.316z" fill="#FFF"/><path d="M9.9 2.532c-.183-.306-.459-.638-.533-.761A17.578 17.578 0 0 0 8.592.763C8.364.524 8.696.725 8.548.54 8.423.402 8.386.36 8.28.276c-.053-.034-.086-.1-.104.012-.007.1-.014.215-.007.298 0 .047.048.134.09.186.552.678 1.154 1.37 1.639 2.242.069-.037.046-.428.002-.482z" fill="#FFF"/><path d="M1.68 2.035c-.038.077-.123.178-.094.281.059.094.106.113.204.118.086 0 .205.023.23-.036a.334.334 0 0 0 .044-.293.211.211 0 0 0-.384-.07z" fill="#006421"/><path d="M3.372.386c-.166.475.095.995.276.945.131.054.214-.195.268-.468.037-.076.064-.084.083-.045-.005.363.026.443.12.553.207.16.38.02.393.007l.162-.162c.036-.038.084-.04.135-.007.049.045.042.123.148.177.09.035.28.008.324-.069.06-.102.073-.137.1-.175.043-.057.116-.032.116-.014-.007.032-.05.063-.02.12.05.038.061.013.091.005.106-.05.185-.28.185-.28.005-.085-.043-.078-.074-.06-.04.024-.043.032-.084.057-.051.007-.152.042-.201-.035-.05-.092-.051-.22-.09-.313 0-.007-.067-.147-.004-.156.031.006.098.024.109-.032.033-.056-.07-.212-.142-.29-.061-.068-.147-.076-.23-.007-.057.053-.049.112-.06.168a.263.263 0 0 0 .054.23c.058.113.163.26.128.465 0 0-.061.097-.168.085-.045-.01-.117-.03-.155-.314-.03-.216.006-.518-.085-.66-.033-.085-.057-.168-.138-.022-.022.058-.115.145-.047.324.055.114.077.299.052.505-.038.058-.046.078-.097.136-.07.076-.146.057-.205.028-.055-.036-.097-.055-.122-.173.004-.186.015-.492-.02-.556-.05-.1-.133-.064-.168-.034-.17.155-.254.418-.306.627-.047.153-.097.109-.133.047-.086-.08-.091-.71-.195-.607z" fill="#FFF"/><path d="M3.872 1.42c.076-.054.04-.092.153.021.142.242.233.555.246.832-.006.069.042.112.065.097.013-.16.403-.384.76-.417.055-.012.028-.116.037-.17-.021-.198.112-.38.298-.394.254.038.339.173.343.38-.027.397-.441.465-.673.496-.036.014-.05.03 0 .05l.973.004.05.029c.006.023-.014.004-.053.067a.788.788 0 0 0-.098.307c-.29.093-.59.134-.895.17-.106.054-.158.126-.137.206.036.089.27.178.27.182.045.028.098.093-.012.227-.475-.02-.843-.223-.97-.508-.039-.03-.08 0-.107.038-.185.24-.367.455-.684.569a.462.462 0 0 1-.472-.153c-.061-.07-.059-.147-.081-.164-.102.045-.979.417-.868.244.214-.229.583-.396.91-.622.023-.075.066-.33.194-.414.008 0-.02.15-.017.213.001.052-.004.072.007.059.022-.014.418-.325.449-.42.038-.056.011-.194.011-.198-.074-.192-.178-.208-.217-.303-.034-.126-.019-.27.054-.31.064-.059.14-.052.21.012.08.072.15.212.171.316-.014.041-.104-.028-.136-.007a.422.422 0 0 1 .102.206c.052.218.036.303-.016.445-.176.37-.4.48-.597.616-.005.002-.009.094.065.144.026.027.128.04.249.002a1.45 1.45 0 0 0 .595-.622c.034-.197-.014-.406-.065-.589a6.939 6.939 0 0 1-.168-.437c-.003-.11.006-.15.054-.205zM1.345.58c.143.09.411.052.4-.255 0-.028-.005-.12-.007-.145-.03-.09-.11-.068-.127.026-.006.03.01.08-.01.096-.013.016-.058.006-.057-.079A.172.172 0 0 0 1.52.15C1.511.142 1.506.14 1.49.14c-.02.001-.02.008-.031.03-.005.023-.011.045-.011.071-.003.03-.011.041-.028.046-.019 0-.014.002-.03-.01-.008-.014-.02-.019-.02-.04A.318.318 0 0 0 1.361.16c-.008-.014-.02-.02-.035-.025-.078 0-.083.12-.079.164-.005.009-.009.222.098.28z" fill="#FFF"/><path d="M4.627 1.973c.14.091.471.038.39-.257 0-.027-.004-.12-.006-.145-.029-.09-.106-.068-.124.026-.006.03.01.08-.01.096-.012.016-.057.007-.055-.079a.176.176 0 0 0-.023-.073c-.009-.008-.015-.01-.03-.01-.02 0-.02.008-.03.03-.005.023-.011.045-.011.071-.002.03-.01.042-.027.046-.018 0-.014.003-.029-.01-.009-.013-.02-.018-.02-.04a.328.328 0 0 0-.008-.077c-.008-.014-.02-.02-.035-.025-.076 0-.08.12-.077.165-.005.008-.008.222.095.282zM6.545 1.395c.143.09.412.052.4-.255 0-.028-.005-.12-.007-.145-.029-.09-.109-.068-.127.026-.005.03.01.08-.01.096-.012.016-.058.006-.056-.079a.172.172 0 0 0-.024-.073c-.009-.008-.015-.01-.031-.01-.02.001-.02.008-.03.03-.005.023-.012.045-.012.071-.002.03-.01.041-.027.046-.019 0-.015.002-.03-.01-.009-.014-.02-.019-.02-.04a.318.318 0 0 0-.009-.077c-.008-.014-.02-.02-.035-.025-.078 0-.083.12-.079.164-.006.009-.01.222.097.28zM7.516 2.652c-.195.22-.11.584-.065.662.064.13.116.212.242.276.114.084.203.031.252-.028.114-.119.116-.423.17-.483.038-.11.133-.092.179-.043a.438.438 0 0 0 .163.141c.107.095.235.112.361.026a.418.418 0 0 0 .193-.235c.056-.15.025-.842.013-1.252-.004-.032-.11-.564-.11-.57 0-.006-.015-.272-.027-.335-.002-.026-.008-.033.019-.03.028.024.032.026.05.034.029.005.055-.044.037-.09L8.726.234c-.022-.021-.05-.045-.083.006a.193.193 0 0 0-.066.146c.008.117.028.236.036.353l.107.6c.034.428.042.778.076 1.205-.005.181-.061.34-.114.362 0 0-.08.047-.134-.005-.04-.015-.196-.261-.196-.261-.08-.074-.133-.053-.19 0-.158.152-.23.436-.336.632-.028.044-.106.081-.192-.003-.22-.3-.09-.726-.118-.616zM6.674.157c.181.042.309.246.267.345-.036.123-.132.255-.2.238-.076-.015.05-.122-.022-.234C6.68.433 6.433.3 6.46.261c-.051-.082.105-.118.215-.104z" fill="#FFF"/><path d="M7.84 2.772c.02-.244-.015-.393-.022-.536A20.563 20.563 0 0 0 7.624.888c-.038-.205.152-.027.131-.147-.065-.15-.229-.37-.28-.5-.03-.056-.018-.106-.087-.015-.064.21-.086.38-.062.511.165.86.333 1.574.307 2.391.078 0 .168-.178.206-.356zM9.669.503c.182.046.29.3.269.373-.036.133-.133.277-.203.258-.076-.016.015-.197-.021-.253-.04-.079-.29-.223-.263-.265-.052-.09.106-.128.218-.113zM2.87 2.31c.184.036.291.236.271.294-.037.104-.134.216-.203.202-.076-.013.015-.155-.022-.199-.015-.107-.27-.162-.264-.208-.047-.085.107-.1.219-.088z" fill="#FFF"/><path d="M4.868 2.592c.113.007.169.096.063.133-.104.035-.205.063-.205.214.039.21-.053.138-.108.11-.064-.046-.245-.158-.27-.398-.004-.057.04-.106.112-.105.109.03.269.031.408.046z" fill="#006421"/><path d="M.53.097c.272.04.288.236.268.293C.762.495.666.607.597.593.522.58.594.438.557.393.518.333.289.219.315.186.264.115.42.085.531.097zM3.01.997c-.143.07-.199.28-.11.403.084.108.216.068.234.068.14.016.224-.24.224-.24s.004-.071-.163.065c-.07.012-.08-.012-.097-.048a.29.29 0 0 1 .022-.2C3.145.98 3.091.953 3.01.997zM3.895.027c-.11.04-.329.164-.336.306-.006.08-.034.08.063.131.07.055.14.05.28.01.081-.032.109-.054.136-.108.033-.092-.177.043-.204-.059-.047-.094.088-.133.216-.224.004-.062.001-.107-.155-.056zM4.378.138c-.056.051-.123.32-.112.32-.045.08.202.113.315.01C4.749.28 4.749.2 4.76.12 4.707 0 4.508.003 4.377.138zM8.081 2.051c.013-.013.533-.382.533-.382.052-.018.041.19.017.189.01.041-.512.396-.55.382-.025.018-.051-.143 0-.189zM8.685 2.048c.199.046.278.313.256.386.007.142-.192.255-.268.237-.082-.017.007-.176-.032-.232-.044-.08-.213-.228-.185-.27-.056-.09.106-.137.229-.121zM5.467 3.233a.742.742 0 0 1 .15-.159c.051-.032.101.025.098.021.009.064-.032.123-.02.208.012.034.02.072.07.057.083-.08.16-.085.242-.09.063.005.066.137.026.138-.152.04-.22.091-.33.142-.05.037-.095-.01-.095-.015 0-.005-.03-.036-.009-.12.004-.068-.018-.105-.064-.097-.034.023-.064.038-.082-.01-.006-.037-.009-.054.014-.075zM9.135 3.37c.029.034.048.064-.002.119-.047.039-.08.06-.128.099-.022.034-.036.086.032.103.126.032.417-.138.417-.142.047-.032.031-.092.027-.092-.027-.029-.09-.012-.131-.016-.02 0-.085-.01-.054-.061a.344.344 0 0 0 .053-.092c.02-.04.002-.065-.068-.086-.073-.012-.101-.006-.181 0-.044.008-.058.025-.066.073.003.071.051.067.101.096z" fill="#FFF"/><circle fill="#006421" transform="rotate(30.045 5.531 2.38)" cx="5.281" cy="2.129" r=".25"/><circle fill="#006421" transform="rotate(65.514 2.855 .92)" cx="2.605" cy=".67" r=".25"/></g></g></svg>