<svg width="24" height="16" viewBox="0 0 24 16" xmlns="http://www.w3.org/2000/svg"><title>flag-ec</title><g fill="none" fill-rule="evenodd"><path fill="#EDED4A" d="M0 0h24v8H0z"/><path fill="#006DA0" d="M0 8h24v4H0z"/><path fill="#E84550" d="M0 12h24v4H0z"/><g transform="translate(9 3)"><path d="M3 7.628c1.338 0 2.423-1.486 2.423-3.318S4.338 4.946 3 4.946.577 2.478.577 4.31C.577 6.142 1.662 7.628 3 7.628z" fill="#EDED4A"/><path d="M3 7.17c1.147 0 2.077-1.274 2.077-2.845 0-1.57-.93.546-2.077.546-1.147 0-2.077-2.116-2.077-.546 0 1.571.93 2.844 2.077 2.844z" fill="#006DA0"/><path d="M2.942 6.694c.988 0 1.789-1.097 1.789-2.45 0-1.352-.801.47-1.789.47-.987 0-1.788-1.822-1.788-.47 0 1.353.8 2.45 1.788 2.45z" fill="#E84550"/><ellipse fill="#287E6E" cx="2.885" cy="4.153" rx="1.5" ry="2.133"/><path d="M2.902 4.083c.787.128 1.302.984 1.302 0 0-.985-.583-1.783-1.302-1.783-.72 0-1.302.798-1.302 1.7 0 1.067.514-.046 1.302.083z" fill="#006DA0"/><path d="M2.345 1.317c.265-.01.223.767.424.767.23 0 .801-.774 1.1-.762C4.85 1.36 6 1.406 6 1.074 6 .764 5.083.414 4.154.4c-.372-.005-.816.401-1.096.337C2.75.667 2.387.403 1.962.4 1.03.394 0 .776 0 1.074c0 .345 1.314.283 2.345.243z" fill="#2B3541"/><path fill="#EDED4A" d="M2.308 7.297h1.5l.577 1.122H1.73z"/><path fill="#006DA0" d="M2.435 7h1.13L4 9H2z"/><path fill="#E84550" d="M2.717 7h.566L3.5 9h-1z"/><path fill="#EDED4A" d="M2.2 6.398h1.5v.5H2.2z"/><path fill="#EDED4A" d="M2.7 6.1h.5v.5h-.5z"/><circle fill="#FFF" cx="3.4" cy=".6" r=".4"/><circle fill="#287E6E" cx="1.4" cy="3.4" r=".4"/><circle fill="#287E6E" cx="4.4" cy="3.4" r=".4"/><circle fill="#EDED4A" cx="1.25" cy="3.25" r=".25"/><circle fill="#EDED4A" cx="4.75" cy="3.25" r=".25"/></g></g></svg>