<svg width="24" height="16" viewBox="0 0 24 16" xmlns="http://www.w3.org/2000/svg" xmlns:xlink="http://www.w3.org/1999/xlink"><title>flag-kg</title><defs><path id="a" d="M0 0h24v16H0z"/><ellipse id="c" cx="2.155" cy="2.167" rx="2.155" ry="2.167"/><ellipse id="e" cx="2.155" cy="2.167" rx="2.155" ry="2.167"/></defs><g fill="none" fill-rule="evenodd"><mask id="b" fill="#fff"><use xlink:href="#a"/></mask><use fill="#E84550" xlink:href="#a"/><g transform="translate(4)" mask="url(#b)"><ellipse fill="#FFEF00" cx="7.6" cy="7.6" rx="2" ry="2"/><g transform="translate(5.49 5.773)"><mask id="d" fill="#fff"><use xlink:href="#c"/></mask><g mask="url(#d)" fill="#E84550"><path d="M.168 3.727c0-1.17.62-2.25 1.627-2.834a3.239 3.239 0 0 1 3.254 0 3.275 3.275 0 0 1 1.627 2.834h.027c0-1.736-1.4-3.143-3.126-3.143A3.134 3.134 0 0 0 .452 3.727H.168z"/><path d="M.638 3.727C.638 2.037 2 .667 3.68.667c1.68 0 3.042 1.37 3.042 3.06h.037c0-1.624-1.31-2.94-2.924-2.94a2.932 2.932 0 0 0-2.924 2.94H.638z"/><path d="M3.94.862a2.857 2.857 0 0 0-2.85 2.865A2.857 2.857 0 0 0 3.94 6.59l.154-.107A2.74 2.74 0 0 1 1.72 5.106a2.77 2.77 0 0 1 0-2.758A2.74 2.74 0 0 1 4.094.968L3.94.863z"/></g></g><g transform="matrix(-1 0 0 1 9.8 5.773)"><mask id="f" fill="#fff"><use xlink:href="#e"/></mask><g mask="url(#f)" fill="#E84550"><path d="M.168 3.727c0-1.17.62-2.25 1.627-2.834a3.239 3.239 0 0 1 3.254 0 3.275 3.275 0 0 1 1.627 2.834h.027c0-1.736-1.4-3.143-3.126-3.143A3.134 3.134 0 0 0 .452 3.727H.168z"/><path d="M.638 3.727C.638 2.037 2 .667 3.68.667c1.68 0 3.042 1.37 3.042 3.06h.037c0-1.624-1.31-2.94-2.924-2.94a2.932 2.932 0 0 0-2.924 2.94H.638z"/><path d="M3.94.862a2.857 2.857 0 0 0-2.85 2.865A2.857 2.857 0 0 0 3.94 6.59l.154-.107A2.74 2.74 0 0 1 1.72 5.106a2.77 2.77 0 0 1 0-2.758A2.74 2.74 0 0 1 4.094.968L3.94.863z"/></g></g><g fill="#EDED4A"><path d="M7.384 10.54c.245.621-.28 1.58.245 2.031-.175-.676.41-1.41.246-2.03-.164-.62-.737-.62-.491 0zM4.442 7.243c-.62.246-1.58-.28-2.03.246.676-.176 1.41.409 2.03.245.62-.163.62-.736 0-.49zM7.875 4.45c-.246-.621.28-1.58-.246-2.031.176.677-.409 1.41-.245 2.03.164.62.736.62.49 0zM10.817 7.747c.62-.246 1.58.28 2.03-.246-.676.176-1.41-.409-2.03-.245-.62.164-.62.736 0 .49zM6.456 10.317c.042.666-.755 1.415-.394 2.007.043-.698.825-1.215.861-1.856.036-.64-.509-.817-.467-.151zM4.677 6.271c-.666.042-1.415-.754-2.007-.394.698.043 1.215.825 1.856.861.64.036.817-.508.151-.467zM8.806 4.675c-.042-.666.754-1.415.394-2.007-.043.698-.825 1.215-.861 1.855-.036.64.508.818.467.152zM10.584 8.72c.666-.041 1.416.755 2.007.394-.697-.042-1.214-.825-1.855-.86-.64-.037-.817.508-.152.466zM5.643 9.816c-.166.647-1.155 1.113-.995 1.787.256-.65 1.16-.9 1.392-1.498.233-.598-.23-.935-.397-.289zM5.201 5.42c-.646-.167-1.112-1.156-1.787-.996.651.256.9 1.16 1.499 1.393.598.232.935-.232.288-.398zM9.621 5.177c.166-.646 1.155-1.113.995-1.787-.256.65-1.16.9-1.392 1.498-.232.598.23.935.397.289zM10.063 9.574c.646.166 1.113 1.155 1.787.995-.65-.256-.9-1.16-1.499-1.392-.598-.233-.934.23-.288.397zM5.024 9.092c-.358.564-1.442.702-1.498 1.392.444-.54 1.38-.497 1.787-.995.405-.497.069-.96-.289-.397zM5.963 4.774C5.399 4.416 5.26 3.33 4.57 3.276c.54.444.497 1.38.994 1.787.498.405.96.069.398-.29zM10.24 5.909c.358-.563 1.443-.701 1.5-1.392-.445.54-1.382.498-1.788.995-.406.497-.069.96.289.397zM9.302 10.227c.564.358.702 1.443 1.392 1.499-.54-.445-.497-1.382-.995-1.787-.497-.406-.96-.07-.397.288zM4.661 8.205c-.514.425-1.588.221-1.855.861.59-.376 1.467-.047 2.007-.394.54-.347.362-.892-.152-.467zM6.888 4.388c-.425-.514-.22-1.588-.86-1.855.375.59.046 1.467.393 2.007.348.54.892.362.467-.152zM10.606 6.79c.515-.425 1.59-.222 1.856-.861-.59.376-1.468.046-2.007.394-.54.347-.363.892.151.467zM8.38 10.607c.425.514.22 1.588.86 1.855-.376-.59-.046-1.468-.394-2.007-.347-.54-.892-.363-.467.152z"/><g><path d="M6.84 10.597c.145.651-.524 1.516-.075 2.044-.068-.696.624-1.329.56-1.967-.065-.639-.63-.728-.485-.077zM4.45 6.88c-.651.145-1.516-.524-2.044-.075.696-.068 1.329.624 1.967.56.638-.065.728-.63.077-.485zM8.278 4.657c-.146-.65.524-1.516.075-2.044.067.696-.625 1.33-.56 1.967.064.639.63.728.485.077zM10.667 8.374c.652-.145 1.516.525 2.044.076-.696.067-1.328-.625-1.967-.56-.638.064-.728.63-.077.484zM5.958 10.23c-.062.665-.966 1.28-.703 1.921.151-.683 1.005-1.07 1.14-1.698.137-.627-.374-.887-.437-.223zM4.834 5.957c-.664-.063-1.28-.967-1.92-.703.682.15 1.07 1.004 1.697 1.14.627.136.887-.374.223-.437zM9.161 5.026c.063-.664.967-1.28.704-1.92-.152.682-1.005 1.07-1.141 1.697-.136.627.374.887.437.223zM10.286 9.3c.664.062 1.28.966 1.92.703-.682-.151-1.07-1.005-1.697-1.14-.628-.137-.888.374-.223.437zM5.234 9.61c-.265.611-1.315.917-1.262 1.608.354-.602 1.286-.707 1.609-1.262.323-.554-.082-.96-.347-.347zM5.485 5.197c-.612-.265-.918-1.315-1.61-1.262.603.355.709 1.286 1.263 1.61.555.322.96-.083.347-.348zM9.888 5.649c.266-.612 1.315-.918 1.263-1.61-.355.603-1.287.708-1.61 1.263-.323.554.082.96.347.347zM9.637 10.06c.612.266.918 1.316 1.61 1.263-.603-.355-.708-1.286-1.263-1.61-.554-.322-.96.083-.347.348zM4.736 8.797c-.442.5-1.535.467-1.698 1.14.523-.463 1.442-.275 1.92-.702.479-.428.219-.938-.222-.438zM6.338 4.679c-.5-.442-.467-1.535-1.14-1.698.463.523.275 1.442.703 1.92.427.48.937.22.437-.222zM10.386 6.469c.441-.5 1.535-.467 1.698-1.14-.524.463-1.442.275-1.92.703-.48.427-.22.937.222.437zM8.783 10.587c.5.442.468 1.535 1.141 1.698-.463-.523-.276-1.442-.703-1.92-.428-.479-.938-.219-.438.222zM4.516 7.864c-.574.34-1.604-.03-1.967.56.64-.279 1.457.184 2.044-.075s.497-.824-.077-.485zM7.313 4.443c-.34-.575.03-1.604-.56-1.968.279.642-.184 1.457.075 2.044.258.588.824.498.485-.076zM10.61 7.396c.574-.34 1.603.03 1.966-.56-.64.28-1.456-.183-2.044.075-.587.259-.497.825.077.485zM7.813 10.818c.34.574-.03 1.603.56 1.967-.28-.641.183-1.457-.076-2.044-.258-.587-.824-.498-.484.077z"/></g></g></g><circle stroke="#EDED4A" mask="url(#b)" cx="11.6" cy="7.6" r="3"/></g></svg>