<svg width="24" height="16" viewBox="0 0 24 16" xmlns="http://www.w3.org/2000/svg" xmlns:xlink="http://www.w3.org/1999/xlink"><title>flag-bm</title><defs><path id="d" d="M0 0h24v16H0z"/><path id="f" d="M0 0h12v8H0z"/><path id="a" d="M0 .5L11.5 8h.5v-.5L.5 0H0z"/><mask id="h" x="-.5" y="-.5" width="13" height="9"><path fill="#fff" d="M-.5-.5h13v9h-13z"/><use xlink:href="#a"/></mask><path id="b" d="M0 .5L11.5 8h.5v-.5L.5 0H0z"/><mask id="i" x="-.5" y="-.5" width="13" height="9"><path fill="#fff" d="M-.5-.5h13v9h-13z"/><use xlink:href="#b"/></mask><path d="M6.857 3.265V0h-1.47v3.265H-.124v1.47h5.513V8h1.47V4.735h5.267v-1.47H6.857z" id="c"/><mask id="j" x="-.5" y="-.5" width="13.25" height="9"><path fill="#fff" d="M-.625-.5h13.25v9H-.625z"/><use xlink:href="#c"/></mask></defs><g fill="none" fill-rule="evenodd"><mask id="e" fill="#fff"><use xlink:href="#d"/></mask><use fill="#BB333C" xlink:href="#d"/><g mask="url(#e)"><mask id="g" fill="#fff"><use xlink:href="#f"/></mask><use fill="#006DA0" xlink:href="#f"/><g mask="url(#g)"><g transform="matrix(1 0 0 -1 0 8)"><use fill="#E8525D" xlink:href="#a"/><use stroke="#FFF" mask="url(#h)" stroke-linecap="round" stroke-linejoin="round" xlink:href="#a"/></g><use fill="#E8525D" xlink:href="#b"/><use stroke="#FFF" mask="url(#i)" stroke-linecap="round" stroke-linejoin="round" xlink:href="#b"/></g><g mask="url(#g)"><use fill="#C7152A" xlink:href="#c"/><use stroke="#FFF" mask="url(#j)" xlink:href="#c"/></g><path d="M6.857 3.265V0h-1.47v3.265H-.124v1.47h5.513V8h1.47V4.735h5.267v-1.47H6.857z" fill="#E84550" mask="url(#g)"/></g><g mask="url(#e)"><path d="M17.993 14c-.426 0-.52-.103-.914-.263l-1.104-.45c-.362-.173-1.037-.353-.967-.592.042-.09.108-.29.142-.387.092-.258.087-.305.218-.351.182-.04.369.008.642.265.228.18.229.039.229.039.01-.034-.09-.169-.217-.11 0 0-.053.033-.033.051.181.163.243.091.243.091l-.065.196c1.433.628 1.831.591 1.831.591s.49.044 1.831-.59l-.065-.197s.046.091.261-.107c.045-.042-.09-.048-.09-.048-.156.007-.182.096-.178.123 0 0 0 .14.23-.04.272-.256.46-.305.642-.264.13.046.125.093.217.35.034.098.1.299.142.388.07.239-.43.347-.967.593l-1.206.503c-.353.164-.317.209-.822.209z" fill="#E8E18F"/><path d="M20.985 10.604c0 1.497-2.992 1.983-2.992 1.983s-2.991-.486-2.991-1.983V5.002h5.983v5.602z" fill="#FFF"/><path d="M20.985 10.604c0 1.497-2.992 1.983-2.992 1.983s-2.991-.486-2.991-1.983v-.602h5.983v.602z" fill="#287E6E"/><path d="M19.444 7.366s-.104.017-.237-.023c-.134-.041-.188-.025-.229 0 0 0 .054-.108-.078-.192 0 0 .043.108-.016.158 0 0-.027.025-.058-.012 0 0-.046-.048-.095-.084 0 0 .112-.04.092-.153-.02-.114-.082-.129-.115-.143 0 0 .012.052 0 .086 0 0-.122-.068.044-.164.166-.097.135-.153.105-.202a.452.452 0 0 0-.124-.122s.033.051.027.095c-.006.044-.08.073-.066-.005.015-.077 0-.064-.002-.146 0 0 .147.05.205-.094 0 0 .057-.149-.13-.223 0 0 .046.061.024.107 0 0-.04.075-.087.014-.047-.06-.077-.072-.072-.144 0 0 .17.023.123-.16 0 0-.027.122-.246-.043 0 0 .142-.146.087-.264 0 0-.017-.054-.172-.023 0 0 .134-.084.077-.157 0 0-.029-.048-.154.015 0 0 .049-.084-.074-.174 0 0-.082.043-.126.083 0 0-.084-.106-.138-.149 0 0-.097.038-.122.149 0 0-.045-.054-.148-.08 0 0-.05.092.015.172 0 0-.048-.001-.135-.04 0 0-.1-.047-.085.039a.416.416 0 0 0 .042.144s-.224-.052-.215.07a.306.306 0 0 0 .108.216s-.126.164-.233.04c0 0-.037.04.043.145 0 0 .08.089.014.144 0 0-.088.07-.131-.066 0 0-.143.142.026.25 0 0 .107.062.218-.032 0 0-.034.272-.14.22 0 0-.063-.047.05-.102 0 0-.163-.021-.19.138 0 0-.02.126.123.172 0 0 .11.04-.004.125 0 0-.08.062-.028.153 0 0 .064.1-.097.11 0 0-.087 0-.119-.012 0 0-.035.066-.01.14 0 0-.08-.06-.263.007-.182.066-.168.02-.183.04-.014.02-.05.087-.05.087s.096.116.097.113a4.623 4.623 0 0 1-.018.133l.047.023.375-.167.381-.199.306.02.194.045.255.019.183-.097h.265l.29.145.333.198.173.03.133-.007v-.27l-.065-.096z" fill="#C13C47"/><path d="M16.424 7.68s.145.074.205-.016c0 0 .08-.15-.094-.203 0 0 .094-.113-.007-.218 0 0-.053-.056-.146-.015 0 0-.038-.08-.129-.077 0 0-.079-.002-.106.086 0 0-.109-.045-.17.02 0 0-.1.112.04.2l.1.01.1-.046.11.031s-.028.112.097.228z" fill="#D40000"/><path d="M19.898 7.546c.092.215-.103.33-.103.33.015.048.017.11.017.11.274.034.226.342.226.342l-.09-.075c-.16-.062-.322.073-.44.299-.116.226-.06.332-.04.6.02.268.454.427.454.427l-.34.871c-.133.341-.411.2-.492.128-.08-.072-.101-.032-.142 0-.04.032.183.207-.224.371-.407.165-.478.291-.546.333-.067.041-.35.013-.377-.022-.028-.035-.012-.035-.117-.1-.106-.065-.284-.121-.478-.216-.195-.095-.19-.216-.188-.24.001-.026.067-.229-.16-.067-.228.16-.422-.077-.422-.077-.045-.059-.234-.567-.234-.567a3.203 3.203 0 0 0-.152-.41c.005-.002-.01.023.158-.073.168-.097.244-.257.302-.416.058-.159.002-.43-.02-.485-.021-.055-.147-.307-.302-.36-.155-.052-.259.079-.259.079s-.048-.308.226-.341c0 0 .002-.063.016-.112 0 0-.194-.114-.102-.33 0 0 .061-.147.236-.13l-.042.08s-.044.439.598.144c.643-.294.623-.349.99-.164l.266-.005s.386-.179.51-.102c.123.077.568.326.568.326s.43.162.515-.136l-.048-.143c.175-.017.236.13.236.13z" fill="#64B4D1"/><path d="M17.729 9.317s-.022-.134-.046-.221c0 0-.047-.137.034-.233l.1-.117s.063-.084.141-.095c0 0 .078-.003.085-.018.007-.016.092-.156.294 0 0 0 .065-.103.164-.12 0 0 .106-.033.158.046 0 0 .12-.09.223.056 0 0 .143-.08.247.08 0 0 .14-.07.227.077.087.147.07.206.07.206l.064.233.227.281-.53.2h-.236l-.475.127-.843.065-.235-.277.331-.29z" fill="#FFF"/><path d="M17.016 10.719s-.126.007-.19.04c-.064.032-.114.067-.188.115 0 0-.035.046-.18.018 0 0-.253-.06-.253.136 0 0-.301.025-.178.29 0 0 .084.206.257.06 0 0-.11.159.104.221 0 0 .154.038.198-.12 0 0 .025-.062-.035-.14 0 0 .075-.014.127-.094 0 0-.159.2.014.272 0 0 .218.055.23-.172 0 0-.017-.105.067-.142 0 0 .173-.04.252-.233 0 0-.249-.133-.225-.251zM16.507 8.73s-.194-.09-.287 0c0 0-.128-.08-.264 0 0 0-.128.084-.217.177 0 0-.063.053-.04.222 0 0 .033.12.013.18 0 0-.042-.01-.128.092 0 0-.109.126-.205.015 0 0 .03.155.21.13 0 0-.088.068-.012.244 0 0 .056.125-.033.281 0 0 .157-.063.15-.247 0 0-.013-.125.033-.213 0 0-.046.08.061.25 0 0 .083.124.015.252 0 0 .155-.057.14-.244-.015-.188-.109-.11-.048-.283 0 0 .015.089.061.133a.25.25 0 0 1 .081.244s.093-.114.071-.232c-.021-.118-.044-.154-.044-.154l.291-.166.145-.262.007-.419z" fill="#C13C47"/><path stroke="#000" stroke-width=".1" fill="#784421" d="M18.205 9.435l-.48-1.665-.017.005.423 1.685z"/><path d="M16.8 11.448s.021-.01-.004-.015c0 0-.026-.003-.045.009 0 0-.062.033-.01.078 0 0 .05.032.026.064 0 0-.003.01.02.01 0 0 .02-.002.025-.008 0 0 .03-.032-.022-.064 0 0-.063-.048.01-.074z" fill="#FFF"/><path d="M19.538 7.68s-.145.074-.205-.016c0 0-.08-.15.094-.203 0 0-.094-.113.007-.218 0 0 .053-.056.146-.015 0 0 .038-.08.128-.077 0 0 .08-.002.107.086 0 0 .109-.045.17.02 0 0 .1.112-.04.2l-.101.01-.099-.046-.11.031s.028.112-.097.228z" fill="#D40000"/><path d="M16.416 8.42v-.312c0-.024 0-.045.037-.075s.077-.077.134.058c0 0 .11-.118.148-.135 0 0 .064-.055.109.025 0 0 .06-.09.106-.112 0 0 .111-.073.116.144l.087-.08s.067-.054.14.02c0 0 .127.123.144.158 0 0 .028.037.03.097 0 0 0 .067.035.105 0 0 .04.034.077.042 0 0 .09.002.123.087 0 0 .015-.014.06.392v.74l-.5.596-.801-.23-.32-.131-.071-.235.309-.2.168-.453-.054-.32-.077-.181z" fill="#E4CB5E"/><path d="M18.623 8.813l.038-.057.09-.07s.14.364.146.443v.113s.208.053.244.372l-.171.316-.27-.15-.077-.056v-.911z" fill="#784421"/><path d="M18.95 10.719s.127.007.19.04c.065.032.115.067.189.114 0 0 .034.047.18.019 0 0 .253-.06.253.136 0 0 .301.025.178.29 0 0-.084.206-.258.06 0 0 .112.159-.103.221 0 0-.154.038-.198-.12 0 0-.025-.062.034-.14 0 0-.074-.014-.126-.094 0 0 .159.2-.015.272 0 0-.217.055-.23-.172 0 0 .018-.105-.066-.142 0 0-.173-.04-.252-.234 0 0 .249-.132.225-.25z" fill="#C13C47"/><path stroke="#000" stroke-width=".1" fill="#784421" d="M17.548 9.726l-.478-1.664-.018.005.423 1.684z"/><path d="M18.661 8.756l-.924.292-.05.412c-.22.317-.665.374-.665.374l.347.369.666.14.35-.27.316-.293c-.033-.156-.015-.388-.015-.388 0-.039.015-.13.015-.13s-.055-.376-.04-.506z" fill="#784421"/><path d="M19.75 8.73s.13-.08.265 0c0 0 .128.084.217.177 0 0 .063.053.04.222 0 0-.033.12-.013.18 0 0 .042-.01.128.092 0 0 .109.126.205.015 0 0-.03.155-.21.13 0 0 .088.068.012.244 0 0-.056.125.033.281 0 0-.157-.063-.15-.247 0 0 .013-.125-.033-.213 0 0 .046.08-.061.25 0 0-.083.124-.015.252 0 0-.155-.057-.14-.244.015-.188.109-.11.048-.283 0 0-.015.089-.061.133a.25.25 0 0 0-.081.244s-.092-.114-.071-.232c.021-.118.044-.154.044-.154l-.291-.166-.145-.262-.007-.419s.195-.09.287 0z" fill="#C13C47"/><path d="M16.159 9.781s.027-.129.15-.078c0 0 .043-.211.268-.218.225-.008.237.219.237.234 0 0 .066-.097.177-.086 0 0 .19-.011.119.294l.036.038s.145-.34.445-.251c0 0 .291.089.1.372 0 0 .145.187.267.17.122-.018.23-.056.352-.27.121-.215.403-.247.475-.235.072.013.128.06.14.11 0 0 .15-.498.686-.42l.215.108.081.038-.121.343-.296.67-.225.069-.235-.135-.082.044-.007.2-.31.224-.215.088-.237.163-.055.144s-.131-.055-.28 0l-.048-.12-.139-.132-.538-.253-.097-.314-.098-.044-.11.126-.16.019-.24-.162-.255-.736z" fill="#FFF"/><path d="M20.994 5.002v5.602c0 1.497-2.991 1.983-2.991 1.983s-2.992-.486-2.992-1.983V5.002h5.983z" stroke="#000" stroke-width=".1"/></g></g></svg>