<svg width="24" height="16" viewBox="0 0 24 16" xmlns="http://www.w3.org/2000/svg" xmlns:xlink="http://www.w3.org/1999/xlink"><title>flag-lk</title><defs><path id="a" d="M0 0h24v16H0z"/></defs><g fill="none" fill-rule="evenodd"><mask id="b" fill="#fff"><use xlink:href="#a"/></mask><use fill="#FFB700" xlink:href="#a"/><path fill="#EDED4A" mask="url(#b)" d="M0 0h24v16H0z"/><path fill="#FD9B3F" mask="url(#b)" d="M-.053 8.354L3.39 3.833h3.444v9.043H3.39z"/><path fill="#287E6E" mask="url(#b)" d="M-.053 3.833H3.39v9.043H-.053z"/><path fill="#E84550" mask="url(#b)" d="M7.877 3.833h15.129v9.043H7.877z"/><path d="M11.814 8.701a.055.055 0 0 0 0-.025c-.009-.026-.013-.036-.04-.028l.026.002.014.051zm-.268-.077a1.68 1.68 0 0 0 .112-.02l.123-.027.163.137c.076-.033.135-.035.135.02 0 .016-.01.04-.028.07l.156.132c.321.27.435.38.458.444.046.124.22.336.38.461.077.06.139.12.139.132 0 .041-.226.207-.33.243a.538.538 0 0 1-.122.031l-.086-.013c-.037-.006-.164-.094-.286-.197-.122-.102-.236-.186-.254-.186-.062 0-.138.046-.138.083 0 .034-.004.034-.047-.002-.04-.031-.048-.079-.048-.262v-.113c-.212.18-.276.196-.283.063-.027.054-.092.076-.17.062a.285.285 0 0 0 .071.09c.06.049.06.052.013.1-.099.1-.097.273.005.356.068.056.098.056.115 0 .017-.052.106-.06.154-.012.018.018.024.053.014.079-.022.056-.165.132-.25.132-.085 0-.076.053.02.12l.082.055-.122.015c-.101.013-.122.023-.122.063 0 .027-.019.07-.042.097-.023.028-.054.05-.069.05-.025 0-.105-.132-.105-.174 0-.011-.052-.027-.115-.036l-.115-.015.075-.05c.095-.062.098-.125.007-.125a.326.326 0 0 1-.153-.062c-.07-.052-.082-.074-.067-.122.022-.074.105-.079.165-.01l.044.05.066-.062c.084-.08.09-.24.014-.335l-.053-.065.066-.065c.092-.089.088-.151-.008-.146-.126.007-.196-.023-.196-.083 0-.065.068-.093.138-.057.04.02.071.029.093.025-.033-.047-.042-.095-.042-.173 0-.126.002-.148.091-.132v-.01a.868.868 0 0 0-.036-.01c-.09-.024-.13-.062-.153-.145-.042-.147-.023-.228.049-.237-.006-.093.02-.142.078-.146l-.006-.047a.902.902 0 0 1-.235-.056c-.25-.108-.256-.36-.011-.417.108-.024.183-.002.208.063.018.048-.006.116-.042.116-.048 0-.023.066.035.092.163.073.562.032.562-.057 0-.02-.01-.035-.025-.035-.04 0-.06-.085-.03-.131.038-.061.104-.076.206-.048.246.067.224.325-.038.427-.092.036-.23.056-.373.059l.163.016zm1.71 2.978c.052.06.195.06.29-.002l.073-.047.061.047c.08.062.23.062.326 0 .067-.042.076-.043.12-.01.027.02.104.041.172.05.123.013.125.012.197-.081.06-.078.07-.11.055-.186-.01-.05-.02-.131-.023-.18-.006-.088-.005-.088.143-.133a2.18 2.18 0 0 0 .21-.074c.06-.027.222-.193.222-.226 0-.009-.063-.022-.141-.03-.31-.03-.362-.174-.16-.441.327-.436.216-.255.216-.255l.077-.015c.042-.009.289-.099.549-.201.712-.28.956-.334 1.417-.317.386.014.55.079.823.327.144.131.283.225.538.363.542.294.565.32.59.665.026.35.013.37-.292.428-.262.05-.426.156-.47.303-.023.078.026.08.158.007l.097-.054.043.054c.056.07.176.07.276 0l.075-.053.077.053c.12.083.279.063.323-.04.009-.02.032-.014.079.021.087.066.31.094.335.043.01-.02-.008-.069-.039-.109-.13-.169-.17-.25-.173-.342-.002-.128.042-.19.21-.294.205-.127.268-.29.112-.29-.096 0-.192-.074-.254-.193-.125-.244-.1-.517.087-.97.192-.462.213-.547.214-.855 0-.25-.007-.293-.073-.43a1.5 1.5 0 0 0-.18-.276l-.108-.125.139-.1c.422-.302.335-.799-.173-.99-.155-.058-.194-.063-.467-.062-.163.001-.413.02-.554.042-.144.022-.387.04-.554.04-.266.001-.311-.004-.413-.052-.107-.049-.125-.072-.146-.186-.005-.023-.024-.047-.042-.052-.037-.01-.204.116-.229.172-.012.028-.022.026-.058-.01a.436.436 0 0 1-.074-.125c-.042-.111.01-.195.16-.257l.117-.048-.069-.037c-.142-.077-.383-.024-.47.102-.026.035-.052.064-.06.065a.506.506 0 0 1-.105-.076c-.184-.155-.12-.385.125-.455.13-.038.247-.01.27.066.037.116.152-.036.131-.173-.013-.091-.011-.094.061-.094.102 0 .317.115.383.204.078.105.072.269-.013.39l-.067.097.088-.015a.523.523 0 0 0 .315-.175.356.356 0 0 0 .015-.354c-.057-.09-.05-.104.034-.074.144.052.22.109.279.207.052.088.054.11.026.201a.546.546 0 0 1-.085.166c-.047.054-.049.063-.012.063a.542.542 0 0 0 .265-.104.452.452 0 0 0 .083-.13l.037-.088.042.067c.06.093.176.178.318.23.152.057.215.06.136.007-.054-.035-.153-.287-.123-.311.018-.015.224.123.46.306.223.174.364.231.569.231.261 0 .414-.198.296-.384a.198.198 0 0 0-.31-.031c-.042.043-.053.077-.041.122.015.055.009.062-.049.062-.076 0-.226-.084-.493-.277-.406-.294-.9-.543-1.256-.634a3.18 3.18 0 0 0-.95-.044c-.252.04-.55.165-.712.298-.287.237-.292.552-.012.84l.08.082-.054.073a.282.282 0 0 0 .017.354.35.35 0 0 0 .088.085c.009 0 .019-.03.022-.067.008-.092.053-.154.132-.178.07-.022.116-.012.439.1.34.118.899.126 1.493.022.292-.051.635-.048.786.007.278.1.342.362.138.56-.088.087-.173.122-.459.19-.217.051-.268.055-.762.05-.422-.003-.574.004-.746.035-.187.034-.302.037-.851.025l-.635-.014s-.048.01-.062-.011c-.015-.022-.067-.04-.127-.045-.161-.012-.102-.031.028-.031h.097l-.06-.07a.37.37 0 0 1-.073-.177c-.012-.1-.07-.163.148-.056.033.016.02-.04-.043-.17a.38.38 0 0 1-.03-.138c0-.06-.02-.088-.11-.148-.131-.086-.116-.13.024-.024a.807.807 0 0 0 .161.108c.005-.005.016-.169.023-.366.015-.377-.001-.466-.106-.583l-.054-.06.085-.079a.52.52 0 0 0 .183-.298l.017-.092-.095.078c-.078.064-.116.079-.206.079-.09 0-.125-.013-.185-.07a.81.81 0 0 0-.325-.162c-.045-.011-.06-.006-.06.02a.38.38 0 0 1-.056.126l-.056.09-.118-.1a.581.581 0 0 0-.22-.124c-.163-.037-.172-.034-.172.071 0 .16-.078.189-.22.083-.107-.08-.196-.098-.4-.079l-.157.015.028.062c.024.051.018.073-.032.131-.082.095-.19.136-.354.136a.697.697 0 0 0-.21.03.957.957 0 0 1-.222.043 1.342 1.342 0 0 0-.194.027c-.039.012-.043.002-.03-.074.019-.117-.075-.203-.222-.203-.19 0-.278.147-.204.342.015.038.033.097.042.131.009.036.095.132.2.223.1.088.197.18.212.203a.344.344 0 0 0 .116.085l.086.042-.011-.08c-.013-.09.01-.103.064-.04.02.022.069.058.11.08.064.034.074.035.074.005 0-.02.013-.063.03-.097l.028-.062.05.085c.029.046.12.152.202.236.16.16.259.34.208.382-.02.017-.076.016-.19-.004a1.115 1.115 0 0 0-.245-.018c-.093.01-.1 0-.043-.062.06-.065.05-.076-.068-.076-.137 0-.478-.057-.609-.102-.127-.043-.156-.033-.194.072l-.068.19-.038.103.137-.011c.076-.007.173-.02.217-.032a.252.252 0 0 1 .087-.013c.005.004-.015.044-.043.09l-.052.083.086-.015a.896.896 0 0 0 .158-.046c.069-.029.074-.026.129.05.066.092.12.088.132-.01.012-.102.05-.087.123.048.07.13.143.176.157.099.005-.026.042-.068.084-.093.084-.051.147-.036.183.045.037.083-.046.168-.29.296-.486.256-.769.606-.85 1.051-.073.402.155.818.612 1.116.218.143.565.294.543.236-.094-.244-.049-.204.146.292.177.448.152.64-.097.766-.08.041-.132.048-.348.045-.234-.002-.26.002-.334.054a.508.508 0 0 0-.167.292c0 .042.053.036.158-.016l.091-.046.04.046zm3.666-.01l.098-.054.067.055c.087.071.19.07.273-.005.037-.032.07-.054.073-.05l.037.054c.02.03.063.046.14.051.093.006.117-.002.154-.048l.044-.055.097.054c.264.147.405-.008.287-.315-.06-.157-.027-.245.166-.444.082-.084.149-.173.149-.199 0-.04-.015-.046-.124-.044-.104.002-.134-.008-.189-.06-.089-.085-.084-.183.016-.29l.08-.087-.142-.083a2.274 2.274 0 0 1-.31-.24 1.066 1.066 0 0 0-.689-.306l-.182-.014v.12c0 .153.084.302.312.553.258.285.277.33.287.702l.009.316-.075.061c-.068.056-.098.063-.317.074-.208.01-.251.02-.312.066-.081.063-.106.096-.13.182-.015.05-.01.061.032.061a.428.428 0 0 0 .15-.054zM11.577 8.3c-.056-.038-.053-.094.008-.159.046-.048.052-.12.068-.851.027-1.259.135-2.206.277-2.433.057-.09.049-.09-.098-.004a1.296 1.296 0 0 0-.46.463c-.24.392-.323.918-.323 2.043 0 .639.005.722.047.782.04.057.042.078.014.14-.018.039-.026.076-.018.083.053.044.444.032.502-.015.015-.013.008-.032-.017-.049zm2.213-1.152c.008-.01-.01-.066-.04-.122-.048-.087-.067-.102-.134-.102-.21 0-.55-.082-.899-.217-.202-.077-.271-.095-.296-.076-.061.051.041.171.2.235.141.056.535.125.715.125.104 0 .107.004.047.078l-.043.055.118.002c.064.002.154.01.199.02.115.024.116.024.133.002z" fill="#EDED4A" mask="url(#b)"/></g></svg>