<svg width="24" height="16" viewBox="0 0 24 16" xmlns="http://www.w3.org/2000/svg" xmlns:xlink="http://www.w3.org/1999/xlink"><title>flag-kn</title><defs><path id="b" d="M0 0h24v16H0z"/><path d="M24 0v2.453S9.264 11.523 2.7 15.976c-.079.054-2.7 0-2.7 0v-2.33L21.492 0H24z" id="a"/><mask id="d" x="-3" y="-3" width="30" height="22"><path fill="#fff" d="M-3-3h30v22H-3z"/><use xlink:href="#a"/></mask></defs><g fill="none" fill-rule="evenodd"><mask id="c" fill="#fff"><use xlink:href="#b"/></mask><use fill="#299D56" xlink:href="#b"/><path fill="#287E6E" mask="url(#c)" d="M0 0h24v16H0"/><path d="M0 0l24 16H0V0z" fill="#E84550" mask="url(#c)" transform="matrix(-1 0 0 1 24 0)"/><g mask="url(#c)"><use fill="#FED100" xlink:href="#a"/><use stroke="#FED100" mask="url(#d)" stroke-width="6" xlink:href="#a"/></g><path d="M24 0v2.453S9.264 11.523 2.7 15.976c-.079.054-2.7 0-2.7 0v-2.33L21.492 0H24z" stroke="#2B3541" fill="#2B3541" mask="url(#c)"/><path fill="#FFF" mask="url(#c)" transform="rotate(-30 15.5 5.5)" d="M15.5 6.488L14.573 7l.286-1.085-.859-.77 1.036-.043L15.5 4l.464 1.102L17 5.146l-.859.769L16.427 7z"/><path fill="#FFF" mask="url(#c)" transform="rotate(-30 7.5 10.5)" d="M7.5 11.488L6.573 12l.286-1.085-.859-.77 1.036-.043L7.5 9l.464 1.102L9 10.146l-.859.769L8.427 12z"/></g></svg>