<svg width="24" height="16" viewBox="0 0 24 16" xmlns="http://www.w3.org/2000/svg"><title>flag-pe</title><g fill="none" fill-rule="evenodd"><path fill="#FFF" d="M0 0h24v16H0z"/><circle fill="#287E6E" cx="12" cy="8" r="3"/><path d="M12 10.78c1.077 0 1.95-1.294 1.95-2.89S13.077 5 12 5s-1.95 1.294-1.95 2.89.873 2.89 1.95 2.89z" fill="#FFF"/><path d="M11 7.257h2v2.382s-.476.241-1 .241-1-.241-1-.241V7.257z" fill="#E84550"/><path fill="#006DA0" d="M11 7.257h1v1.25h-1z"/><path fill="#FFF" d="M12 7.257h1v1.25h-1z"/><circle stroke="#EDED4A" stroke-width=".25" cx="12" cy="6.308" r=".5"/><path fill="#E84550" d="M17 0h7v16h-7zM0 0h7v16H0z"/></g></svg>