<svg width="24" height="16" viewBox="0 0 24 16" xmlns="http://www.w3.org/2000/svg" xmlns:xlink="http://www.w3.org/1999/xlink"><title>flag-as</title><defs><path id="a" d="M0 0h24v16H0z"/></defs><g fill="none" fill-rule="evenodd"><mask id="b" fill="#fff"><use xlink:href="#a"/></mask><use fill="#006DA0" xlink:href="#a"/><path fill="#BB333C" mask="url(#b)" d="M0 8l24-8v16z"/><path fill="#FFF" mask="url(#b)" d="M2.571 8L24 .857v14.286"/><path d="M17.55 8.841l.566.013c.073-.198.148-.175.286-.077.13.092.273.134.273.134.055-.284.457-.226.457-.226.17-.41.185-.404.083-.456-.102-.052-.143-.14-.143-.14a.801.801 0 0 1-.16-.39c-.01-.103-.13.052-.152.02-.022-.033-.2-.014-.2-.014.043.046-.107.02-.107.02.015.01 0 .054 0 .054-.014-.02-.127-.039-.127-.039a.235.235 0 0 1-.037.052c-.062-.027-.186-.022-.186-.022a.628.628 0 0 0-.342.085c-.051.03-.234.123-.383.267-.15.145-.233.129-.233.129-.044.16-.401.357-.401.357-.059.052-.237.077-.328 0-.092-.076 0-.213 0-.213.033-.063.067-.06.07-.282.003-.15.157-.269.316-.442.194-.213.465-.563.465-.563.001.107.06.125.06.125.053-.11.13-.198.13-.198l.112-.1c-.02-.007-.189 0-.346.138-.157.137-.265.091-.265.091-.11-.035-.12-.119-.12-.119-.079-.343.235-.589.235-.589-.421-.1-.118-.634.404-.862.523-.227.517-.33.517-.33.03.036.055.097.055.097.005-.004.044-.061.344-.194.301-.133.446-.248.446-.248.038.074.03.127.03.127.823-.289 1.634-.95 1.634-.95.023.055.01.138.01.138.135-.123.619-.412.619-.412.008.184-.144.255-.144.255.017.027.026.075.026.075.08-.043.449-.301.449-.301.135.116.012.308.012.308.048-.007.083-.05.083-.05.034.2-.186.374-.186.374.039.001.103-.037.103-.037-.041.217-.453.458-.453.458.06.053.003.123-.046.155-.05.032-.137.102-.11.13.028.029.21-.1.21-.1.031.092-.203.271-.203.271.163.022.616-.184.616-.184-.037.175-.208.31-.419.39-.21.079-.2.09-.2.09.037.03.329-.054.329-.054-.088.195-.391.33-.391.33.083.07.197-.012.31-.09.113-.078.268-.144.439-.202.17-.057.291-.014.291-.014.142-.045.263.019.263.019.273.022.3.121.3.121.03.007.054.02.123.07.07.052.066.21.063.288-.003.078-.024.078-.038.1-.014.021-.015.046-.015.075 0 .03-.068.214-.49.216-.423.002-.641 0-.641 0-.035 0-.077.02-.077.02-.177.089-.084-.06-.295.115-.211.174-.319.144-.319.144a2.824 2.824 0 0 1-.383.33c-.127.081-.104.074.007.121.11.048.277 0 .277 0-.107.071-.033.104-.033.104.14-.085.225-.054.225-.054.045.122-.116.315-.116.315.062.008.179 0 .179 0-.028.083-.145.174-.23.202-.086.027-.07.038-.045.09.025.052.003.105.003.105-.15-.104-.155-.011-.155-.011-.017.123-.014.298-.014.298-.106-.053-.112.018-.112.018-.027.112-.156.242-.156.242-.006-.07-.07-.088-.07-.088-.067.13-.19.208-.19.208a.978.978 0 0 0 .014.269c-.08-.017-.11-.015-.122.004-.013.019.018.028.018.028l1.044.026c.015.002.077.008.079.122.001.113-.092.118-.092.118l-1.142-.027s.005.031-.055.063c-.06.031-.04-.036-.057.105-.016.14-.244-.011-.244-.011-.036.055-.126.125-.126.125-.05-.154-.104-.201-.186-.068-.082.134.148.11.148.11s1.342-.197 1.415-.204c.072-.007.153-.003.185.1.033.102-.162.118-.162.118l-1.376.15c-.03.082-.144.076-.144.076.01.077-.073.126-.115.155-.042.029-.173.015-.173.015-.16.11-.239.023-.239.023-.104.045-.17.026-.255-.01-.086-.037-.078-.141-.078-.141l-.869.09c-.041.014-.07.042-.07.042.032.04-.061.131-.061.131.026.018.075.068.082.177.007.114-.14.134-.066.213.074.08.208.014.359-.058.15-.072.298-.063.362-.062.064 0 .243.045.355.085.111.039.15.015.157-.042.008-.057.058-.074.058-.074-.014.057.016.082.016.082.043.003.118-.04.118-.04-.007.042-.061.068-.061.068-.11.074.04.047.04.047.3-.062.407-.056.485-.048.078.009.445.165.445.165.014-.037.004-.128.004-.128.095.026.133.08.133.08.036-.039.012-.104.012-.104.304.17-.063.246-.16.28-.097.032-.095.072-.095.072a.823.823 0 0 1 .203-.04c.067-.005.044-.001.204-.033.16-.032.242.036.242.036-.134.007-.173.047-.173.047.084.058.004.107.004.107-.122-.153-.226.007-.226.007a.48.48 0 0 1 .199.041c.027.017.09.048.169.084.11.052.09.019.176.052.086.032.053.115.053.115-.036-.067-.116-.09-.116-.09-.007.09-.098.106-.098.106.112-.125-.13-.18-.244-.177a.346.346 0 0 0-.198.074c.229.214.387.144.387.144-.029.078-.217.048-.217.048.087.066.078.113.078.113-.047-.045-.123-.022-.287-.129-.164-.106-.31-.071-.31-.071.16.17-.06.272-.06.272-.08.046.035.108.035.108-.101.019-.115-.083-.115-.083-.053-.01-.13.055-.13.055.005-.105.142-.053.146-.161.004-.109-.127-.192-.514-.14-.387.054-.5-.07-.5-.07-.033.001-.04.034-.04.034.064.061.093.087.082.13-.01.043.02.057.02.057-.07-.004-.076-.089-.076-.089-.001.035-.016.038-.04.075-.023.037 0 .084 0 .084-.031-.027-.086-.059-.034-.134.04-.059-.083-.133-.083-.133-.048-.05-.175-.003-.175-.003-.264.052-.418-.115-.418-.115-.03 0-.088-.016-.088-.016-.279.125-.524-.146-.524-.146-.21.04-.306-.061-.37-.16a.358.358 0 0 0-.161-.159c-.085-.051-.164-.196-.087-.272.068-.067.048-.082.048-.082-.109-.184.195-.243.2-.287.009-.064.072-.105.14-.109.07-.004.07.002.114-.044.045-.046.131.011.131.011.018-.013.169-.13.303-.07.134.061.244.018.244.018.095-.02.878-.127.878-.127.05-.075.086-.166.302-.216.216-.049.38-.183.38-.183-.038-.04-.102-.039-.135-.043-.033-.004-.101-.062-.101-.062-.04.017-.06.009-.343.18-.253.155-.26-.15-.26-.15h-.552c-.01.117-.099.163-.099.163l-.2.01c-.113-.059-.114-.256-.114-.256-.607.009-.945.226-.945.226-.688-.352-1.226-.432-1.226-.432.835-.091 1.277-.323 1.277-.323.46.276.894.283.894.283.016-.167.128-.208.128-.208l.127.007c.16.013.155.171.155.171z" fill="#2B3541" mask="url(#b)"/><path d="M19.132 8.685c.17-.41.185-.404.083-.456-.102-.052-.143-.14-.143-.14a.801.801 0 0 1-.16-.39c-.01-.103-.13.052-.152.02-.022-.033-.2-.014-.2-.014.043.046-.107.02-.107.02.015.01 0 .054 0 .054-.014-.02-.127-.039-.127-.039a.235.235 0 0 1-.037.052c-.062-.027-.186-.022-.186-.022a.628.628 0 0 0-.342.085c-.051.03-.234.123-.383.267-.15.145-.233.129-.233.129-.044.16-.401.357-.401.357-.059.052-.237.077-.328 0-.092-.076 0-.213 0-.213.033-.063.067-.06.07-.282.003-.15.157-.269.316-.442.194-.213.465-.563.465-.563.001.107.06.125.06.125.053-.11.13-.198.13-.198l.112-.1c-.02-.007-.189 0-.346.138-.157.137-.265.091-.265.091-.11-.035-.12-.119-.12-.119-.079-.343.235-.589.235-.589-.421-.1-.118-.634.404-.862.523-.227.517-.33.517-.33.03.036.055.097.055.097.005-.004.044-.061.344-.194.301-.133.446-.248.446-.248.038.074.03.127.03.127.823-.289 1.634-.95 1.634-.95.023.055.01.138.01.138.135-.123.619-.412.619-.412.008.184-.144.255-.144.255.017.027.026.075.026.075.08-.043.449-.301.449-.301.135.116.012.308.012.308.048-.007.083-.05.083-.05.034.2-.186.374-.186.374.039.001.103-.037.103-.037-.041.217-.453.458-.453.458.06.053.003.123-.046.155-.05.032-.137.102-.11.13.028.029.21-.1.21-.1.031.092-.203.271-.203.271.163.022.616-.184.616-.184-.037.175-.208.31-.419.39-.21.079-.2.09-.2.09.037.03.329-.054.329-.054-.088.195-.391.33-.391.33.083.07.197-.012.31-.09.113-.078.268-.144.439-.202.17-.057.291-.014.291-.014.142-.045.263.019.263.019.273.022.3.121.3.121.03.007.054.02.123.07.07.052.066.21.063.288-.003.078-.024.078-.038.1-.014.021-.015.046-.015.075 0 .03-.068.214-.49.216-.423.002-.641 0-.641 0-.035 0-.077.02-.077.02-.177.089-.084-.06-.295.115-.211.174-.319.144-.319.144a2.824 2.824 0 0 1-.383.33c-.127.081-.104.074.007.121.11.048.277 0 .277 0-.107.071-.033.104-.033.104.14-.085.225-.054.225-.054.045.122-.116.315-.116.315.062.008.179 0 .179 0-.028.083-.145.174-.23.202-.086.027-.07.038-.045.09.025.052.003.105.003.105-.15-.104-.155-.011-.155-.011-.017.123-.014.298-.014.298-.106-.053-.112.018-.112.018-.027.112-.156.242-.156.242-.006-.07-.07-.088-.07-.088-.067.13-.19.208-.19.208-.017.112-.777.01-.777.01z" fill="#6D3F28" mask="url(#b)"/><path d="M17.377 9.91c-.041.014-.07.042-.07.042.032.04-.061.131-.061.131.026.018.075.068.082.177.007.114-.14.134-.066.213.074.08.208.014.359-.058.15-.072.298-.063.362-.062.064 0 .243.045.355.085.111.039.15.015.157-.042.008-.057.058-.074.058-.074-.014.057.016.082.016.082.043.003.118-.04.118-.04-.007.042-.061.068-.061.068-.11.074.04.047.04.047.3-.062.407-.056.485-.048.078.009.445.165.445.165.014-.037.004-.128.004-.128.095.026.133.08.133.08.036-.039.012-.104.012-.104.304.17-.063.246-.16.28-.097.032-.095.072-.095.072a.823.823 0 0 1 .203-.04c.067-.005.044-.001.204-.033.16-.032.242.036.242.036-.134.007-.173.047-.173.047.084.058.004.107.004.107-.122-.153-.226.007-.226.007a.48.48 0 0 1 .199.041c.027.017.09.048.169.084.11.052.09.019.176.052.086.032.053.115.053.115-.036-.067-.116-.09-.116-.09-.007.09-.098.106-.098.106.112-.125-.13-.18-.244-.177a.346.346 0 0 0-.198.074c.229.214.387.144.387.144-.029.078-.217.048-.217.048.087.066.078.113.078.113-.047-.045-.123-.022-.287-.129-.164-.106-.31-.071-.31-.071.16.17-.06.272-.06.272-.08.046.035.108.035.108-.101.019-.115-.083-.115-.083-.053-.01-.13.055-.13.055.005-.105.142-.053.146-.161.004-.109-.127-.192-.514-.14-.387.054-.5-.07-.5-.07-.033.001-.04.034-.04.034.064.061.093.087.082.13-.01.043.02.057.02.057-.07-.004-.076-.089-.076-.089-.001.035-.016.038-.04.075-.023.037 0 .084 0 .084-.031-.027-.086-.059-.034-.134.04-.059-.083-.133-.083-.133-.048-.05-.175-.003-.175-.003-.264.052-.418-.115-.418-.115-.03 0-.088-.016-.088-.016-.279.125-.524-.146-.524-.146-.21.04-.306-.061-.37-.16a.358.358 0 0 0-.161-.159c-.085-.051-.164-.196-.087-.272.068-.067.048-.082.048-.082-.109-.184.195-.243.2-.287.009-.064.072-.105.14-.109.07-.004.07.002.114-.044.045-.046.131.011.131.011.018-.013.169-.13.303-.07.134.061.244.018.244.018.095-.02-.007.109-.007.109z" fill="#EDED4A" mask="url(#b)"/><path d="M21.103 5.99c.107.07.159.132.237.153.077.02.158.049.157.127a.219.219 0 0 1-.059.161c-.042.054.023.077.08.046.055-.03.103-.047.14-.068.037-.022.098-.019.042.01-.056.029-.114.046-.042.048.073.002.509.01.6-.02.092-.029.21-.038.222-.157 0 0 .004-.053.038-.075s.057-.072.007-.038c-.05.034-.088.052-.097.042-.01-.01-.013-.018.024-.035.036-.017.056 0 .09-.05.033-.05.03-.042.012-.06-.018-.02-.055-.033-.037-.058.019-.024.037-.095-.043-.053-.08.042.096-.04.025-.11-.07-.072-.079-.078-.171 0-.092.076.09-.05.03-.087a.65.65 0 0 0-.167-.078c-.04-.009-.052-.02-.146.023-.095.042.03-.05.004-.061a.268.268 0 0 0-.127-.015c-.043.007-.03-.003-.172.053-.141.056-.355.118-.412.142 0 0 .023-.031.1-.06.04-.014-.043-.028.066-.033h.031s.296-.097.273-.101a.57.57 0 0 0-.301.046c-.14.064-.076.042-.125.052a.683.683 0 0 0-.188.104c-.035.028-.083.049-.083.049s-.115.033-.008.103zM16.604 7.93c.095-.097.56-.58.631-.716 0 0 .06.042.063.119 0 0 .078-.134.14-.185 0 0 .054.056.045.167 0 0 .112-.059.286-.06 0 0-.065.076-.067.12 0 0 .24-.027.366-.006 0 0-.33.185-.238.201.093.017.19 0 .19 0s-.105.107-.273.128c0 0 .213-.003.255.045 0 0-.208.032-.374.159 0 0-.016-.007-.017-.055 0 0-.005.042-.053.082s-.163.125-.205.168c-.042.043-.122.128-.207.124 0 0 .02-.066-.043-.086a.177.177 0 0 0-.186.048s-.224.003-.296.013c0 0-.004-.042-.028.005 0 0-.04.006-.077.014 0 0-.008-.19.088-.286z" fill="#FFF" mask="url(#b)"/></g></svg>