<svg width="24" height="16" viewBox="0 0 24 16" xmlns="http://www.w3.org/2000/svg" xmlns:xlink="http://www.w3.org/1999/xlink"><title>flag-tv</title><defs><path id="d" d="M0 0h24v16H0z"/><path id="f" d="M0 0h12v8H0z"/><path id="a" d="M0 .5L11.5 8h.5v-.5L.5 0H0z"/><mask id="h" x="-.5" y="-.5" width="13" height="9"><path fill="#fff" d="M-.5-.5h13v9h-13z"/><use xlink:href="#a"/></mask><path id="b" d="M0 .5L11.5 8h.5v-.5L.5 0H0z"/><mask id="i" x="-.5" y="-.5" width="13" height="9"><path fill="#fff" d="M-.5-.5h13v9h-13z"/><use xlink:href="#b"/></mask><path d="M6.857 3.265V0h-1.47v3.265H-.124v1.47h5.513V8h1.47V4.735h5.267v-1.47H6.857z" id="c"/><mask id="j" x="-.5" y="-.5" width="13.25" height="9"><path fill="#fff" d="M-.625-.5h13.25v9H-.625z"/><use xlink:href="#c"/></mask></defs><g fill="none" fill-rule="evenodd"><mask id="e" fill="#fff"><use xlink:href="#d"/></mask><use fill="#3CA5CD" xlink:href="#d"/><g mask="url(#e)"><mask id="g" fill="#fff"><use xlink:href="#f"/></mask><use fill="#006DA0" xlink:href="#f"/><g mask="url(#g)"><g transform="matrix(1 0 0 -1 0 8)"><use fill="#E8525D" xlink:href="#a"/><use stroke="#FFF" mask="url(#h)" stroke-linecap="round" stroke-linejoin="round" xlink:href="#a"/></g><use fill="#E8525D" xlink:href="#b"/><use stroke="#FFF" mask="url(#i)" stroke-linecap="round" stroke-linejoin="round" xlink:href="#b"/></g><g mask="url(#g)"><use fill="#C7152A" xlink:href="#c"/><use stroke="#FFF" mask="url(#j)" xlink:href="#c"/></g><path d="M6.857 3.265V0h-1.47v3.265H-.124v1.47h5.513V8h1.47V4.735h5.267v-1.47H6.857z" fill="#E84550" mask="url(#g)"/></g><path fill="#EDED4A" mask="url(#e)" d="M22 2.658L21.382 3l.19-.724L21 1.764l.691-.03L22 1l.309.735.691.029-.573.512.191.724zM22 8.658L21.382 9l.19-.724L21 7.764l.691-.03L22 7l.309.735.691.029-.573.512.191.724zM19 9.158l-.618.342.19-.724L18 8.264l.691-.03L19 7.5l.309.735.691.029-.573.512.191.724zM15 9.158l-.618.342.19-.724L14 8.264l.691-.03L15 7.5l.309.735.691.029-.573.512.191.724zM15 12.158l-.618.342.19-.724-.572-.512.691-.03L15 10.5l.309.735.691.029-.573.512.191.724zM12 13.158l-.618.342.19-.724-.572-.512.691-.03L12 11.5l.309.735.691.029-.573.512.191.724zM18 11.658l-.618.342.19-.724-.572-.512.691-.03L18 10l.309.735.691.029-.573.512.191.724zM20 4.658L19.382 5l.19-.724L19 3.764l.691-.03L20 3l.309.735.691.029-.573.512.191.724zM17 5.158l-.618.342.19-.724L16 4.264l.691-.03L17 3.5l.309.735.691.029-.573.512.191.724z"/></g></svg>