<svg width="24" height="16" viewBox="0 0 24 16" xmlns="http://www.w3.org/2000/svg" xmlns:xlink="http://www.w3.org/1999/xlink"><title>flag-km</title><defs><path id="a" d="M0 0h24v16H0z"/></defs><g fill="none" fill-rule="evenodd"><mask id="b" fill="#fff"><use xlink:href="#a"/></mask><use fill="#FFF" xlink:href="#a"/><path fill="#006DA0" mask="url(#b)" d="M0 13h24v3H0z"/><path fill="#EDED4A" mask="url(#b)" d="M0 0h24v3H0z"/><path fill="#FFF" mask="url(#b)" d="M0 3h24v5H0z"/><path fill="#E84550" mask="url(#b)" d="M0 8h24v5H0z"/><path fill="#287E6E" mask="url(#b)" d="M0 16l18-8L0 0z"/><g transform="translate(2 4)" mask="url(#b)"><ellipse fill="#FFF" cx="3.608" cy="3.62" rx="3.608" ry="3.62"/><ellipse fill="#287E6E" cx="5.212" cy="3.62" rx="3.608" ry="3.62"/><path d="M4.246 6.298l-.337.186.104-.395-.312-.28.377-.015.168-.4.169.4.377.016-.312.28.103.394-.337-.186zm0-1.637l-.337.187.104-.395-.312-.28.377-.015.168-.401.169.4.377.017-.312.279.103.395-.337-.187zm0-1.636l-.337.186.104-.394-.312-.28.377-.016.168-.4.169.4.377.016-.312.28.103.394-.337-.186zm0-1.636l-.337.186.104-.395L3.701.9l.377-.015.168-.4.169.4.377.016-.312.28.103.394-.337-.186z" fill="#FFF"/></g></g></svg>