<svg width="24" height="16" viewBox="0 0 24 16" xmlns="http://www.w3.org/2000/svg"><title>flag-et</title><g fill="none" fill-rule="evenodd"><path fill="#EDED4A" d="M0 0h24v16H0z"/><path fill="#E84550" d="M0 10h24v6H0z"/><path fill="#287E6E" d="M0 0h24v6H0z"/><circle fill="#006DA0" cx="12" cy="8" r="4"/><path d="M10.352 5.485l-.222.15.813 1.099.217-.133-.808-1.116zm1.019 2.593l-.335-.224.138-.422-1.666.022-.482-.354 2.274-.024.422-1.227.227.496-.578 1.733zm2.65-2.351l-.217-.159-.844 1.077.197.159.863-1.077zm-2.266 1.716l.122-.374.46-.001-.526-1.52.207-.548.71 2.076 1.346.015-.424.358-1.895-.006zm3.14 1.702l.09-.247-1.326-.441-.096.23 1.332.458zM12.5 7.6l.407-.004.142.42 1.344-.947.607.02-1.838 1.287.398 1.235-.485-.278-.575-1.733zm-.684 3.395l.272.004.013-1.348-.257-.015-.028 1.36zm.76-2.673l.133.37-.369.263 1.363.922.173.56-1.856-1.265-1.091.757.12-.53 1.527-1.077zM9 8.755l.08.25 1.339-.406-.065-.24L9 8.756zm2.881-.134l-.325.237-.375-.256-.49 1.53-.5.332.676-2.087-1.086-.763.561-.054 1.539 1.061z" fill="#FFC621"/></g></svg>