<svg width="24" height="16" viewBox="0 0 24 16" xmlns="http://www.w3.org/2000/svg" xmlns:xlink="http://www.w3.org/1999/xlink"><title>flag-mx</title><defs><path id="a" d="M0 0h24v16H0z"/></defs><g fill="none" fill-rule="evenodd"><mask id="b" fill="#fff"><use xlink:href="#a"/></mask><use fill="#FFF" xlink:href="#a"/><path fill="#196F52" mask="url(#b)" d="M0 0h8v16H0z"/><ellipse fill="#9B7745" mask="url(#b)" cx="12" cy="6.933" rx="1.714" ry="1.6"/><path d="M14.8 9.6c-.265 1.217-1.418 2.133-2.8 2.133S9.465 10.817 9.2 9.6H8V8.533h2.383a1.502 1.502 0 0 0-.097.534c0 .883.767 1.6 1.714 1.6s1.714-.717 1.714-1.6c0-.187-.034-.367-.097-.534H16V9.6h-1.2z" fill="#B2B593" mask="url(#b)"/><path fill="#CF3946" mask="url(#b)" d="M16 0h8v16h-8z"/></g></svg>