<svg width="24" height="16" viewBox="0 0 24 16" xmlns="http://www.w3.org/2000/svg"><title>flag-dm</title><g fill="none" fill-rule="evenodd"><path fill="#287E6E" d="M0 0h24v16H0z"/><path fill="#EDED4A" d="M0 5h24v2H0z"/><path fill="#2B3541" d="M0 7h24v2H0z"/><path fill="#FFF" d="M0 9h24v2H0z"/><path fill="#EDED4A" d="M9 0h2v16H9z"/><path fill="#2B3541" d="M11 0h2v16h-2z"/><path fill="#FFF" d="M13 0h2v16h-2z"/><path d="M17 8c0 2.761-2.244 5-5 5-2.761 0-5-2.244-5-5 0-2.761 2.244-5 5-5 2.761 0 5 2.244 5 5z" fill="#E84550"/><g stroke-width=".1" stroke="#297E6E" fill="#287E6E"><path d="M11.863 4.344l.152-.422.137.415.46.007-.364.272.165.463-.398-.286-.392.273.151-.45-.358-.265.447-.007zM12.166 11.625l-.151.422-.138-.415-.46-.007.364-.272-.165-.462.399.285.391-.272-.15.45.357.265-.447.006zM14.031 4.953l.37-.253-.132.417.368.276-.454.006-.139.471-.154-.465-.477-.01.386-.275-.133-.425.365.258zM9.996 11.021l-.37.252.133-.416-.369-.276.455-.006.138-.472.155.466.477.01-.387.274.134.425-.366-.257zM15.429 6.72l.448.013-.352.259.135.44-.37-.263-.39.3.148-.467-.38-.289.475.005.141-.422.145.423zM8.598 9.257l-.448-.014.352-.258-.136-.44.371.262.39-.3-.149.467.38.289-.474-.005-.142.422-.144-.423zM15.522 8.97l.355.273-.437.003-.15.436-.145-.43-.491.013.394-.29-.137-.457.38.282.363-.258-.132.427zM8.504 7.007l-.354-.274.437-.003.149-.436.146.431.49-.014-.394.29.138.458-.38-.283-.364.258.132-.427zM14.276 10.843l.126.43-.356-.255-.376.266.135-.435-.406-.277.49-.003.158-.45.141.452.446.004-.358.268zM9.751 5.13l-.125-.43.355.255.377-.265-.135.434.405.278-.49.003-.157.45-.142-.452-.445-.004.357-.269z"/></g><g transform="translate(10.896 5.545)"><path d="M1.034 3.376c.008.013.016.029.023.045a.373.373 0 0 1 .006-.016.614.614 0 0 1-.017-.167c.004-.164.064-.296.133-.294.025 0 .047.018.066.047.002-.42.061-.71.163-.721.019-.002.037.005.056.02.018-.056.04-.088.067-.09.03-.004.061.03.094.092a.078.078 0 0 1 .048-.025c.156-.016.344.56.42 1.288.075.728.01 1.331-.146 1.348h-.015c-.02.129-.052.205-.093.209-.045.005-.094-.072-.144-.21a.057.057 0 0 1-.012.004c-.112.011-.244-.32-.334-.8-.025.05-.059.081-.094.08a.065.065 0 0 1-.03-.009.074.074 0 0 1-.047.03c-.05.007-.102-.048-.137-.134-.014.065-.044.11-.084.116-.071.01-.148-.108-.172-.265a.641.641 0 0 1-.002-.017c-.067-.009-.134-.12-.156-.266a.53.53 0 0 1 .003-.186.614.614 0 0 1-.047-.162c-.025-.162.01-.303.079-.313.049-.008.102.053.137.147.015-.033.036-.054.06-.058.07-.01.146.112.17.275l.005.032z" fill="#006B3F"/><path d="M1.372 4.754c-.031.022-.09.02-.152-.002-.028.03-.092.03-.161.006-.092.064-.405-.076-.409-.318.015-.241.324-.378.412-.308.06-.02.116-.022.148 0 .068-.027.132-.03.165-.004.092-.031.173-.019.175.052.004.133-.253.087-.258.26-.004.174.252.125.256.27-.004.066-.085.076-.176.044z" fill="#FCD116"/><path d="M.488.819s-.44.381-.39 1.413c.055 1.038.97 1.526.97 1.526s.234-.295.207-1.129C1.21 1.41.777.871.777.871L.487.82z" fill="#9461C9"/><ellipse fill="#D41C30" transform="rotate(-21.121 1.54 2.545)" cx="1.411" cy="2.545" rx=".371" ry="1.138"/><path d="M2.102 3.565a.455.455 0 0 0 .015-.039l.051.122c.024-.148.05-.311-.01-.516a3.18 3.18 0 0 0-.187-.874c-.195-.552-.483-.98-.716-1.098a.128.128 0 0 0-.043-.084.123.123 0 0 0 .026-.073c.001-.071-.06-.13-.14-.136A.123.123 0 0 0 1.128.79C1.128.717 1.062.656.977.654A.16.16 0 0 0 .86.702a.148.148 0 0 0-.181.006.147.147 0 0 0-.098-.04.142.142 0 0 0-.147.144.138.138 0 0 0-.062.113.142.142 0 0 0-.05.105.145.145 0 1 0 .25.101.18.18 0 0 0 .165.027.144.144 0 0 0 .19.178c-.073.26-.02.732.158 1.235.22.626.56 1.092.806 1.13.188.254.25.409.344.622.029-.203.062-.435-.132-.758z" fill="#006B3F"/><path d="M1.039.738a.286.286 0 0 0 .06.09c-.028.065.012.154.06.206-.05.077.017.2.08.247.076.068.502.518.802.14a.467.467 0 0 1-.219-.093.393.393 0 0 0 .167-.13.461.461 0 0 1-.217-.09.405.405 0 0 0 .15-.122C1.844.985 1.748.927 1.645.855a.42.42 0 0 0 .13-.112c-.08-.001-.18-.062-.286-.138.07.018.148.022.253.004-.227-.086-.53-.45-.711-.538-.218-.11-.498-.078-.65.035a.387.387 0 0 0-.086.472c.083.15.321.224.607.183C.956.754 1 .747 1.04.738z" fill="#9461C9"/><path d="M.42.521C.46.53.49.548.503.577.525.634.463.71.363.745.276.775.19.765.153.725a.548.548 0 0 0-.069.151C-.069.541.028.4.192.365c.14-.043.225-.037.247.07A.117.117 0 0 1 .42.52z" fill="#FCD116"/></g></g></svg>