<svg width="24" height="16" viewBox="0 0 24 16" xmlns="http://www.w3.org/2000/svg"><title>flag-tk</title><g fill="none" fill-rule="evenodd"><path fill="#006DA0" d="M0 0h24v16H0z"/><path d="M6.282 13.207c-.207-.002 1.952-1.16 3.76-2.642 2.37-1.943 7.472-5.054 8.972-5.56.157-.052-.321.27-.383.374-1.602 1.909-.324 5.511 1.678 7.322.602.463.571.488 1.687.533v.105l-15.714-.132zM6.152 13.417S6 13.527 6 13.61c0 .09.17.21.17.21l15.5.172.285-.191-.399-.249-15.404-.134z" fill="#EDED4A"/><path fill="#FFF" d="M6 10.658L5.382 11l.19-.724L5 9.764l.691-.03L6 9l.309.735.691.029-.573.512.191.724zM9 5.658L8.382 6l.19-.724L8 4.764l.691-.03L9 4l.309.735.691.029-.573.512.191.724zM6 3.658L5.382 4l.19-.724L5 2.764l.691-.03L6 2l.309.735.691.029-.573.512.191.724zM3 6.658L2.382 7l.19-.724L2 5.764l.691-.03L3 5l.309.735.691.029-.573.512.191.724z"/></g></svg>