<svg width="24" height="16" viewBox="0 0 24 16" xmlns="http://www.w3.org/2000/svg" xmlns:xlink="http://www.w3.org/1999/xlink"><title>flag-pg</title><defs><path id="a" d="M0 0h24v16H0z"/></defs><g fill="none" fill-rule="evenodd"><mask id="b" fill="#fff"><use xlink:href="#a"/></mask><use fill="#D21F34" xlink:href="#a"/><path fill="#2B3541" mask="url(#b)" d="M0 0v16h24z"/><g mask="url(#b)" fill="#FFF"><path d="M5.34 6.847l-.687.38.212-.806-.638-.57.77-.033L5.34 5l.344.818.77.033-.638.57.212.806zM3.114 9.71l-.689.38.213-.805L2 8.715l.77-.033.344-.818.344.818.77.032-.638.571.212.806zM7.886 9.71l-.688.38.212-.805-.637-.57.77-.033.343-.818.344.818.77.032-.638.571.213.806zM5.34 14.165l-.687.38.212-.805-.638-.571.77-.033.344-.818.344.818.77.033-.638.57.212.806zM6.614 11.519l-.295.163.09-.346-.273-.244.33-.014.148-.35.147.35.33.014-.273.244.09.346z"/></g><path d="M15.968 4.603c-.194.251-.653-.252-1.203-.263-.55-.012-.94.527-1.1.71-.16.184-.676 1.146-.665 1.25.012.102.321-.287.436-.356.011.138-.126.298-.092.344.034.046.4-.275.527-.287.034.092-.069.184-.034.321.045.046.252-.229.39-.286.022.103-.127.298-.047.424.058.011.401-.39.516-.436.115-.046-.057.378 0 .413.103-.069.424-.436.527-.482.103-.045-.011.47.034.47.126-.091.447-.527.482-.596.034-.068-.035.665.32 1.055.356.39.894.836.952.836.068-.126-.023-.39.034-.378.16.172.458.424.527.424s-.046-.275.046-.275c.183.172.71.848 1.741 1.157-.068-.195-.217-.367-.229-.458.069.011.31.126.355.114.046-.011-.504-.687-.47-.779.127-.011.184.069.23.012-.057-.092-.539-.63-.539-.757 0-.126.15.023.195 0 .046-.022-.183-.504-.137-.561.045-.057.55.31.676.31s.034-.447.091-.47c.058-.023.482.24.573.24.092 0 .08-.195.115-.172.034.023 1.031 1.02.687 2.189-.343.836-1.03 1.283-2.04.917.058.091.597.538 1.18.378.585-.16 1.296-.62 1.215-1.765-.08-1.146-.458-1.306-.515-1.478-.057-.172.092.046.218.092s-.023-.241-.058-.367c-.034-.126.378.264.482.298.103.034-.241-.94-.344-1.008-.103-.07.103.022.172.045.068.023-.63-1.065-.78-1.065-.148 0 .126-.057.207-.057.08 0-.802-.71-.951-.71-.15 0 .32-.184.366-.196.08.012-1.02-.584-2.005.012-.057-.046.464-.407.481-.562.006-.04-.171-.126-.183-.172-.011-.045.275-.183.287-.286-.07-.092-.195-.057-.264-.08-.017-.086.24-.298.218-.39-.017-.051-.207-.068-.252-.034-.046.034.12-.24.091-.32-.023-.035-.114-.012-.206.01-.057-.01.298-.504.23-.572-.07-.07-1.032.504-1.387 1.145-.355.642-.08 1.158-.126 1.375-.046.218-.103.436-.252.436-.15 0-.493-.23-.608-.344-.114-.115-.137-.195-.297-.24-.16-.046-.528.091-.665.103-.138.011-.676-.104-.71-.07-.035.035.527.241.653.31s.137.16.229.218c.091.057.95.31.676.664zm3.357 1.616c.275.275 2.131 1.512 2.131 3.025 0 1.512-1.352 1.467-1.741 1.42.435.367 2.085.299 2.085-1.42 0-1.513-2.131-3.025-2.406-3.162-.275-.138-.344-.138-.069.137z" fill="#EDED4A" mask="url(#b)"/></g></svg>