<svg width="24" height="16" viewBox="0 0 24 16" xmlns="http://www.w3.org/2000/svg"><title>flag-hr</title><g fill="none" fill-rule="evenodd"><path fill="#FFF" d="M0 0h24v16H0z"/><path fill="#006DA0" d="M0 10h24v6H0z"/><path fill="#E84550" d="M0 0h24v6H0z"/><path d="M12.001 13.656a3.51 3.51 0 0 0 3.5-3.5V6H8.501v4.157a3.51 3.51 0 0 0 3.499 3.5z" fill="#E8525D"/><path d="M12.001 13.6a3.442 3.442 0 0 0 3.433-3.433V6.066H8.569v4.101A3.442 3.442 0 0 0 12 13.6z" fill="#FFF"/><g fill="#E84550"><path d="M10.017 6.195h-1.32v1.451h1.32V6.195zm0 2.903h1.321V7.646h-1.32v1.452zm-1.32 1.061c0 .132.008.262.023.39h1.297V9.098h-1.32v1.061zm3.962-1.062h-1.32v1.452h1.32V9.098zm0 2.903h1.321v-1.451h-1.32v1.45zm1.321.794c.294-.222.548-.49.754-.794h-.754v.794zM10.018 12h1.32v-1.451h-1.32v1.45zm-.756 0c.207.305.462.573.756.795V12h-.756zm2.967 1.451c.146-.01.29-.03.43-.059V12h-1.32v1.393a3.265 3.265 0 0 0 .89.058zM15.277 10.549c.015-.129.023-.259.023-.391v-1.06h-1.32v1.45h1.297zm-2.618-1.451h1.321V7.646h-1.32v1.452zm0-2.903h-1.32v1.451h1.32V6.195zM15.3 7.646V6.195h-1.32v1.451h1.32z"/></g><path d="M15.374 5.956l.819-1.857-.624-1.007-1.034.383-.726-.83-.956.548L12 2.495l-.853.698-.956-.548-.726.83-1.034-.383L7.807 4.1l.818 1.857A8.165 8.165 0 0 1 12 5.23c1.201 0 2.344.26 3.374.726z" fill="#FFF"/><path d="M8.461 3.179l-.574.926.22.5.557 1.263A8.238 8.238 0 0 1 9.96 5.42l-.473-1.863-1.027-.378z" fill="#77DAE0"/><path d="M11.156 3.278l-.002.001-.948-.543-.718.82.473 1.864a8.242 8.242 0 0 1 1.354-.226l-.159-1.916z" fill="#006DA0"/><path d="M9.843 4.957c.47-.12.95-.2 1.433-.239l-.04-.484a9.208 9.208 0 0 0-1.512.252l.12.471zm-.237-.936a9.673 9.673 0 0 1 1.59-.266l-.04-.475c-.562.046-1.12.14-1.668.279l.118.462z" fill="#E84550"/><path d="M12.85 3.279h-.001l-.846-.692-.844.691.159 1.916a8.321 8.321 0 0 1 1.373 0l.16-1.915z" fill="#77DAE0"/><path d="M14.52 3.558h-.003l-.72-.822-.946.543-.16 1.916c.457.037.91.113 1.355.226l.473-1.863z" fill="#006DA0"/><path d="M15.339 5.869l.777-1.763-.573-.927-1.024.38-.473 1.862c.442.113.875.263 1.292.448z" fill="#77DAE0"/><path d="M14.347 4.238a9.44 9.44 0 0 1 1.484.514l-.3.68a8.698 8.698 0 0 0-1.368-.473l.184-.721z" fill="#FFF"/><path d="M15.58 5.323l.2-.454a9.32 9.32 0 0 0-1.465-.507l-.118.465c.476.121.94.282 1.39.48l-.008.016z" fill="#E84550"/></g></svg>