<svg width="24" height="16" viewBox="0 0 24 16" xmlns="http://www.w3.org/2000/svg" xmlns:xlink="http://www.w3.org/1999/xlink"><title>flag-mw</title><defs><path id="a" d="M0 0h24v16H0z"/></defs><g fill="none" fill-rule="evenodd"><mask id="b" fill="#fff"><use xlink:href="#a"/></mask><use fill="#2B3541" xlink:href="#a"/><g transform="translate(0 1)" mask="url(#b)"><ellipse fill="#E84550" cx="12" cy="6.612" rx="3.44" ry="3.256"/><path fill="#E84550" d="M0 5.905h24v5H0z"/><g fill="#E84550"><path d="M12.09 1.464c-.183 0-.25.166-.25.328 0 .404.083.605.25 1.186.17-.58.25-.787.25-1.186 0-.167-.083-.328-.25-.328"/><path d="M12.56 1.491c-.183-.016-.264.144-.278.305-.035.402.03.61.146 1.204.22-.564.318-.763.353-1.16.014-.166-.055-.334-.221-.349"/><path d="M13.026 1.555c-.181-.032-.276.12-.304.28-.07.398-.023.611.04 1.212.269-.543.384-.732.453-1.125.029-.164-.025-.338-.19-.367"/><path d="M13.484 1.664c-.177-.047-.285.096-.327.252-.104.39-.076.607-.065 1.21.314-.516.445-.695.548-1.08.043-.161.005-.339-.156-.382"/><path d="M13.928 1.792c-.172-.063-.292.07-.347.223-.138.379-.129.597-.17 1.2.357-.488.503-.655.64-1.03.057-.156.034-.336-.123-.393"/><path d="M14.36 1.978c-.166-.077-.297.046-.365.192-.17.366-.18.584-.275 1.18.4-.454.56-.607.728-.969.07-.15.063-.332-.088-.403"/><path d="M14.776 2.198c-.159-.092-.3.02-.38.159-.203.35-.231.566-.377 1.152.437-.417.61-.557.81-.902.083-.144.091-.326-.053-.41"/><path d="M15.17 2.457c-.151-.106-.301-.007-.394.125-.231.33-.279.544-.475 1.115.472-.378.656-.502.885-.828.095-.137.12-.317-.017-.412"/><path d="M15.52 2.67c-.14-.118-.299-.033-.403.09-.26.31-.325.518-.57 1.07.503-.335.697-.443.953-.748.107-.128.147-.305.02-.412"/><path d="M15.862 2.993c-.13-.13-.294-.059-.409.055-.285.286-.369.488-.662 1.016.531-.29.734-.38 1.016-.662.118-.118.173-.291.055-.409"/><path d="M16.178 3.342c-.118-.14-.289-.085-.412.019-.31.26-.41.453-.748.954.554-.243.763-.315 1.069-.571.128-.107.198-.275.09-.402"/><path d="M16.459 3.72c-.105-.15-.28-.11-.412-.017-.331.231-.449.415-.829.885.573-.194.789-.247 1.115-.476.137-.095.221-.256.126-.393"/><path d="M16.717 4.103c-.092-.159-.27-.133-.41-.053-.349.202-.482.375-.901.81.587-.143.806-.177 1.152-.377.144-.083.242-.236.159-.38"/><path d="M16.928 4.524c-.077-.167-.256-.157-.403-.088-.366.17-.514.331-.97.727.599-.09.82-.106 1.181-.274.151-.07.263-.214.192-.365"/><path d="M17.105 4.959c-.062-.172-.242-.178-.393-.123-.38.138-.541.286-1.03.64.604-.038.826-.034 1.2-.17.157-.057.28-.19.223-.347"/><path d="M17.24 5.41c-.047-.177-.225-.199-.381-.157-.39.105-.564.238-1.081.549.604.014.825.037 1.21-.066.161-.043.295-.165.252-.326"/></g><g fill="#E84550"><path d="M6.805 5.787c-.032.18.12.275.28.303.397.07.61.023 1.21-.04-.541-.268-.731-.383-1.124-.452-.164-.03-.337.025-.366.19"/><path d="M6.913 5.329c-.047.177.097.285.253.326.39.105.606.077 1.21.066-.517-.315-.696-.445-1.081-.549-.16-.043-.338-.004-.382.157"/><path d="M7.057 4.882c-.062.172.071.292.223.347.38.138.598.129 1.2.17-.487-.358-.654-.504-1.029-.64-.156-.057-.337-.034-.394.123"/><path d="M7.244 4.45c-.078.165.045.296.192.365.366.17.584.18 1.18.274-.454-.4-.608-.56-.969-.728-.151-.07-.333-.063-.403.088"/><path d="M7.447 4.034c-.092.159.02.3.16.38.349.202.565.231 1.151.377-.417-.437-.557-.61-.902-.81-.144-.083-.326-.091-.409.053"/><path d="M7.706 3.64c-.105.15-.007.3.125.394.33.231.544.279 1.115.475-.378-.472-.501-.656-.828-.885-.137-.096-.317-.12-.412.017"/><path d="M7.994 3.27c-.118.14-.033.298.09.402.31.26.518.325 1.07.57-.335-.503-.442-.697-.748-.953-.127-.107-.305-.147-.412-.02"/><path d="M8.317 2.927c-.13.13-.059.295.055.409.286.285.488.37 1.016.662-.29-.53-.38-.734-.662-1.016-.118-.117-.29-.173-.409-.055"/><path d="M8.588 2.619c-.14.118-.084.288.02.412.26.31.453.41.954.748-.243-.554-.315-.764-.571-1.07-.107-.127-.275-.197-.403-.09"/><path d="M8.966 2.338c-.15.105-.11.28-.017.412.232.33.416.448.885.828-.193-.573-.246-.788-.475-1.115-.096-.136-.257-.22-.393-.125"/><path d="M9.364 2.088c-.159.091-.133.269-.053.409.202.35.375.483.81.902-.143-.588-.177-.807-.377-1.152-.083-.144-.236-.243-.38-.16"/><path d="M9.785 1.876c-.167.078-.157.257-.088.403.17.366.331.514.728.97-.092-.598-.107-.82-.275-1.18-.07-.152-.214-.263-.365-.193"/><path d="M10.207 1.689c-.172.062-.178.242-.123.394.139.379.286.54.641 1.029-.039-.604-.034-.826-.17-1.2-.058-.157-.191-.28-.348-.223"/><path d="M10.658 1.554c-.177.047-.198.225-.156.381.104.39.237.564.548 1.081.014-.604.038-.825-.065-1.21-.044-.16-.166-.295-.327-.252"/><path d="M11.118 1.455c-.18.032-.218.207-.19.366.07.398.188.582.453 1.125.066-.601.109-.819.04-1.211-.03-.165-.14-.31-.303-.28"/><path d="M11.585 1.4c-.182.016-.234.188-.22.349.035.402.136.596.352 1.16.119-.593.18-.806.146-1.204-.015-.166-.112-.32-.278-.305"/></g><path fill="#2B3541" d="M0 5.527h24v1H0z"/><path fill="#287E6E" d="M0 10.953h24v5H0z"/></g></g></svg>