<svg width="24" height="16" viewBox="0 0 24 16" xmlns="http://www.w3.org/2000/svg" xmlns:xlink="http://www.w3.org/1999/xlink"><title>flag-jm</title><defs><path id="a" d="M0 0h24v16H0z"/></defs><g fill="none" fill-rule="evenodd"><mask id="b" fill="#fff"><use xlink:href="#a"/></mask><use fill="#299D56" xlink:href="#a"/><path fill="#287E6E" mask="url(#b)" d="M0 0h24v16H0"/><path d="M0 0l9 8-9 8V0z" fill="#2B3541" mask="url(#b)"/><path d="M15 0l9 8-9 8V0z" fill="#2B3541" mask="url(#b)" transform="matrix(-1 0 0 1 39 0)"/><path fill="#EDED4A" mask="url(#b)" d="M2.56 0L0 .032l.033 2.43 21.451 13.573 2.573-.046-.047-2.416z"/><path d="M24 0v2.453S9.264 11.523 2.7 15.976c-.079.054-2.7 0-2.7 0v-2.33L21.492 0H24z" fill="#EDED4A" mask="url(#b)"/></g></svg>