<svg width="24" height="16" viewBox="0 0 24 16" xmlns="http://www.w3.org/2000/svg"><title>flag-mp</title><g fill="none" fill-rule="evenodd"><path fill="#006DA0" d="M0 0h24v16H0z"/><path d="M13.43 11.565s.424-.447.83-.362c.123-.472.582-.508.582-.508s-.044-.521.546-.635c.016-.354.374-.647.374-.647s-.073-.55.301-.675c-.228-.436.077-.753.073-.761-.004-.009-.386-.688-.045-.883-.362-.305-.244-.651-.244-.651s-.394-.102-.252-.574c-.325-.057-.39-.582-.39-.582s-.501.102-.562-.334c-.33.053-.366-.272-.37-.272-.004 0-.655.175-.786-.318a.25.25 0 0 1-.362-.101s-.362.179-.578-.167c-.43.268-.67-.012-.67-.012s-.566.374-.754.085c-.333.338-.63.191-.63.191s-.253.448-.66.334c-.093.415-.561.423-.561.423s.049.366-.513.464c-.073.431-.366.505-.366.505s.029.419-.236.553c.094.236-.15.525-.15.525s.26.325-.094.692c.342.09.094.68.094.68s.472.21.175.601c.337.11.231.379.236.537.215.098.406.05.313.485.663.073.35.439.35.439s.309.012.187.256c.566-.012.647.423.647.423s.525-.138.594.066c.07.203-.228 1.574-.228 1.574s-.443 0-.773-.354c-.773-.02-.602-.529-.614-.529-.013 0-.257.094-.383-.33-.517.107-.5-.329-.504-.333-.004-.004-.232-.106-.147-.321-.533.048-.492-.472-.492-.472-.117-.048-.16-.156-.143-.265-.069-.024-.54-.032-.297-.655-.451-.273-.17-.586-.17-.586s-.623-.321-.143-.692c-.358-.529.028-.793.028-.793s-.496-.505.009-.863c-.082-.765.374-.948.374-.948s-.24-.622.41-.883c.042-.63.497-.647.497-.647s.013-.5.729-.451c.138-.448.626-.358.626-.358s.15-.541.814-.281c.338-.66.838-.321.838-.321s.318-.208.476-.143c.202-.346.63-.013.908.054.1-.04.46-.31.736.032.366-.24.68.19.68.19s.504-.256.74.33c1.07-.097.916.603.916.603s.842-.192.659.647c.765.052.687.557.687.557s.485.366.273.696c.431.02.273.435.273.435s.33.126.057.639c.63.504.122 1.005.118 1-.004-.003.337.408.028.88.094.748-.285.94-.285.94s.098.484-.325.622c-.008.57-.545.639-.545.639s.142.247-.391.508c-.021.381-.578.412-.578.412s-.053.7-.76.512c-.173.562-1.002.395-1.018.387-.016-.008-.159-1.205-.159-1.209z" fill="#FFF"/><path d="M13.52 12.23s2.406-.68 3.133-3.634c-.422 3.032-3.055 3.993-3.055 3.993l-.078-.36zM10.366 12.166S7.98 11.474 7.26 8.467c.418 3.086 3.027 4.064 3.027 4.064l.078-.365z" fill="#F7DF73"/><path d="M13.52 3.876s2.406.68 3.133 3.633c-.422-3.032-3.055-3.993-3.055-3.993l-.078.36" fill="#FD9B3F"/><path d="M10.366 3.846S7.98 4.538 7.26 7.545c.418-3.086 3.027-4.065 3.027-4.065l.078.366" fill="#E84550"/><g><path d="M12.68 6.2c.476-.2.414-.815.414-.815s.147-.18.122-.476c-.025-.295-.54-.327-.54-.327-.004.007-1.11-.015-1.473.003-.364.018-.414.306-.414.306s.029.364.13.88c.1.514.349.453.349.453l.19.009c-.088 0-.156.002-.194.005-.183.069-.227.526-.227.526l-.37 3.428-.382 2.712s.057.27.41.382c.05.205.335.302.461.32.126.018.407-.09.57-.104.161-.014.428.097.503.1.083.004.922-.09 1.077-.413.213-.022.288-.288.288-.288l-.021-.364-.317-2.344-.36-3.242-.03-.425c-.014-.212-.078-.277-.147-.335a.64.64 0 0 1-.038.008z" fill="#8C8A8C"/><path fill="#FFF" d="M12 4.82l.717 2.21h2.324l-1.88 1.366.718 2.21L12 9.24l-1.88 1.366.718-2.21-1.88-1.367h2.324z"/></g></g></svg>