<svg width="24" height="16" viewBox="0 0 24 16" xmlns="http://www.w3.org/2000/svg"><title>flag-ag</title><g fill="none" fill-rule="evenodd"><path fill="#FFF" d="M0 0h23.965v15.984H0z"/><path fill="#2B3541" d="M.053.02h23.89v6.752H.054z"/><path fill="#006DA0" d="M4.437 6.35h15.856v3.558H4.437z"/><path fill="#E84550" d="M23.95 16H11.994L23.95.055z"/><path fill="#E84550" d="M.041.055V16h11.954z"/><path fill="#EDED4A" d="M17.595 6.354l-2.396-.605 2.038-1.53-2.503.356 1.287-2.171-2.217 1.28.393-2.526-1.502 1.993-.608-2.313-.679 2.384-1.502-2.029.43 2.599-2.218-1.353L9.405 4.61 6.974 4.22l2.002 1.495-2.503.64h11.122z"/></g></svg>