<svg width="24" height="16" viewBox="0 0 24 16" xmlns="http://www.w3.org/2000/svg"><title>flag-iq</title><g fill="none" fill-rule="evenodd"><path fill="#FFF" d="M.029 5.043h23.942v5.915H.029z"/><path fill="#BB333C" d="M.029 0h23.942v5.331H.029z"/><path fill="#2B3541" d="M.029 10.669h23.942V16H.029z"/><g transform="translate(7.223 6.423)" fill="#287E6E"><path d="M7.137.594a.289.289 0 0 1-.08-.062c-.02-.025-.009-.026.067-.006.135.037.222.023.308-.05L7.51.41l.09.046c.049.025.101.042.116.038.04-.01.12-.114.117-.15-.003-.044.034-.033.052.016.036.095-.016.204-.108.228-.045.012-.087.008-.155-.016-.084-.03-.098-.029-.14.003a.317.317 0 0 1-.344.018zM7.471.288a.47.47 0 0 1-.06-.239c.012-.033.024-.04.054-.03.054.016.066.053.058.178-.006.102-.021.129-.052.09zM3.538.175c-.01.076.136.266.202.3-.045.02-.1.012-.142.034-.23.231-1.07 1.052-1.223 1.248.454.01.958-.006 1.384-.026 0-.309.292-.325.488-.438.1.16.354.147.386.387v1.03H.753c-.07.302-.341.533-.72.438.117-.123.314-.165.385-.335.06-.371-.12-.6-.235-.812.192-.07.22-.087.415-.218-.136.416.355.37.72.36.012-.14.005-.307-.103-.328.14-.05.162-.068.385-.257v.56c.867 0 1.803-.007 2.688-.007 0-.175.046-.457-.092-.457-.132 0-.006.36-.109.36H2.011l-.002-.356c.088-.088.078-.08.679-.683.06-.06.482-.442.85-.8zM8.726.16c.145.078.26.186.437.232-.02.073-.086.102-.103.18v1.571c.199.044.24-.068.335-.128.025.251.185.498.18.695h-.849V.16zM7.596 1.001s.308-.26.308-.27V2.1h.222c0-.522-.007-1.052-.007-1.538.09-.09.267-.221.311-.313v2.456l-1.948.001c-.029-.51-.033-1.038.56-.924v-.208c-.019-.036-.051.009-.059-.038.094-.094.126-.118.381-.341 0 .269.005.905.005.905h.224L7.596 1zm-.732 1.087c.042.062.184.061.177-.044-.024-.088-.21-.054-.177.044z"/><circle cx="1.225" cy="2.999" r=".119"/><path d="M4.896.162c.145.078.26.187.437.232-.02.074-.086.103-.103.18v1.572c.198.044.24-.069.334-.129.026.252.186.498.18.696h-.848V.163z"/></g></g></svg>