<svg width="24" height="16" viewBox="0 0 24 16" xmlns="http://www.w3.org/2000/svg"><title>flag-eg</title><g fill="none" fill-rule="evenodd"><path fill="#2B3541" d="M0 0h24v16H0z"/><path fill="#FFF" d="M0 2h24v10H0z"/><path d="M12.164 6.346a1.1 1.1 0 0 0 .617-.175c.337-.193.802-.316.823.219l.15 3.525-2.092-1.941-2.14 1.941.149-3.525c.022-.535.486-.412.823-.22.19.122.394.176.61.176.072-.103.18-.275.232-.446.077-.258.081-.478.027-.556-.06-.088-.15-.163-.251-.081-.042.033-.03-.158.027-.197.061-.04.197-.027.332.008 0 0-.012-.059.061-.055.13.007.326.06.387.122.048.048.107.176.094.501-.01.253.06.557.151.704z" stroke="#C09300" stroke-width=".25"/><path d="M9.911 6.267l-.144 3.43-.246.218.15-3.525c.07-.049.192-.123.24-.123zm.294.245l-.123 2.87-.245.25.149-3.312c.048.048.193.166.219.192zm.267.22l-.096 2.392-.197.193.122-2.73c.049.048.145.118.171.144zm.29.122l-.097 2.04-.193.156.097-2.27c.048.021.144.074.192.074zm.267 0l-.07 1.7-.198.192.075-1.87c.048 0 .17 0 .193-.022zM13.363 6.267l.145 3.43.245.218-.149-3.525c-.07-.049-.192-.123-.24-.123zm-.293.245l.122 2.87.246.25-.15-3.312c-.047.048-.192.166-.218.192zm-.267.22l.096 2.392.197.193-.123-2.73c-.048.048-.144.118-.17.144zm-.29.122l.097 2.04.193.156-.097-2.27c-.048.021-.144.074-.193.074zm-.267 0l.07 1.7.197.192-.074-1.87c-.048 0-.17 0-.193-.022z" fill="#C09300"/><g stroke-width=".25" stroke="#C09300" fill="#FFF"><path d="M11.276 7.77l-.583 2.068.802.123.342-1.555-.561-.635z"/><path d="M12.041 7.77l.583 2.068-.802.123-.341-1.555.56-.635z"/></g><path d="M13.167 10.537c.145-.026.145-.1.145-.197.145-.048.048-.39-.074-.363 0-.171-.171-.193-.316-.145-.29.096-.802.118-1.288.118-.486-.022-.994-.022-1.288-.118-.144-.048-.315-.026-.315.145-.123-.027-.22.315-.075.363 0 .096 0 .17.15.197.337.096.92.145 1.528.145.61 0 1.192-.049 1.533-.145z" stroke="#C09300" stroke-width=".25" fill="#FFF"/><path d="M12.47 6.875l-.026.001c-.19 0-.63-.097-.8-.243-.177.135-.625.243-.811.243a.143.143 0 0 1-.026-.003 2.233 2.233 0 0 0 .08.57c.126.456.383.843.75 1.136.369-.294.626-.68.752-1.136a2.234 2.234 0 0 0 .08-.568z" stroke="#FFF" stroke-width=".25" fill="#FFF"/><path d="M11.313 6.782c-.18.057-.373.093-.48.093a.142.142 0 0 1-.027-.003c0 .043.003.087.005.127a2.225 2.225 0 0 0 .502 1.261V6.782zM11.943 6.78v1.503a2.228 2.228 0 0 0 .526-1.41 1.866 1.866 0 0 1-.526-.094z" fill="#C09300"/><path fill="#E84550" d="M0 0h24v4H0z"/></g></svg>