<svg width="24" height="16" viewBox="0 0 24 16" xmlns="http://www.w3.org/2000/svg"><title>flag-im</title><g fill="none" fill-rule="evenodd"><path fill="#E84550" d="M0 0h24v16H0z"/><path d="M10.826 6.435c-.036.027-.067.054-.102.08-.227.118-1.097 1.113-1.217 1.268-.1.226-.296.51-.497.694-.216.163-.335.386-.306.596-.002.262.145.44.262.625.07.084.163.139.262.145.203.027.22.09.323.129.4.545.998.948 1.429 1.266.274.145.465.29.53.369.127.24.104.475.086.59l-.32 1.207c-.053.328.232.254.248.189.128-.168.32-.05.595-1.018l.378-.508s.146-.058.146-.073c.22-.265.052-.417-.073-.465l-.276-.102s-.32-.32-.334-.32c-.152-.441-.898-1.385-1.071-1.516a1.27 1.27 0 0 0-.291-.248c-.175-.083-.231-.11-.339-.153-.089-.036-.025-.134.031-.179.591-.322 1.06-.679 1.626-1.042l.026-.018.003.014c.054.027.102.043.153.065.213.14 1.507.411 1.701.44.246-.024.59.007.849.093.247.108.5.103.669-.026.23-.127.313-.342.416-.534a.378.378 0 0 0-.001-.3c-.077-.19-.03-.236-.047-.344.28-.617.337-1.335.404-1.867-.009-.31.024-.547.06-.643a.952.952 0 0 1 .474-.364l1.208-.312c.313-.115.108-.327.043-.308-.208-.03-.2-.256-1.178-.021l-.629-.08s-.122-.098-.134-.091c-.34-.063-.39.158-.37.29l.047.291s-.122.436-.115.448c-.311.35-.774 1.47-.803 1.685-.014.203-.09.166-.07.363 0 .154-.017.058.034.374.013.096-.104.088-.17.06-.57-.356-1.111-.59-1.706-.905l-.093-.048-.07.058.078-.074c-.007-.06-.02-.108-.03-.163 0-.255-.481-1.487-.564-1.664a2.293 2.293 0 0 1-.387-.762c-.045-.266-.188-.474-.388-.545-.232-.123-.458-.075-.675-.056a.378.378 0 0 0-.25.166c-.117.168-.181.155-.262.227-.67.104-1.302.45-1.783.685-.255.177-.471.28-.572.301a.952.952 0 0 1-.563-.196l-.924-.84c-.266-.199-.332.089-.281.133.09.191-.104.308.628.997l.278.57s-.016.156-.003.162c.134.319.346.24.446.15l.218-.198s.43-.137.438-.15c.462.07 1.653-.158 1.85-.25.176-.1.187-.016.34-.14.129-.086.058-.018.295-.234.073-.063.13.038.144.11.014.67.114 1.249.176 1.917zm.992.419l.014.077c.02-.018.042-.035.064-.053l-.078-.024z" fill="#FFF"/></g></svg>