<svg width="24" height="16" viewBox="0 0 24 16" xmlns="http://www.w3.org/2000/svg" xmlns:xlink="http://www.w3.org/1999/xlink"><title>flag-zw</title><defs><path id="b" d="M0 0h24v16H0z"/><path id="a" d="M16 8L0 0v16z"/><mask id="d" x="-1" y="-1" width="18" height="18"><path fill="#fff" d="M-1-1h18v18H-1z"/><use xlink:href="#a"/></mask></defs><g fill="none" fill-rule="evenodd"><mask id="c" fill="#fff"><use xlink:href="#b"/></mask><use fill="#FACA37" xlink:href="#b"/><g mask="url(#c)"><path fill="#287E6E" d="M0 0h24v2.286H0z"/><path fill="#EDED4A" d="M0 2.286h24v2.286H0z"/><path fill="#E84550" d="M0 4.571h24v2.286H0z"/><path fill="#2B3541" d="M0 6.857h24v2.286H0z"/><path fill="#E84550" d="M0 9.143h24v2.286H0z"/><path fill="#EDED4A" d="M0 11.429h24v2.286H0z"/><path fill="#287E6E" d="M0 13.714h24V16H0z"/></g><g mask="url(#c)"><use fill="#FFF" xlink:href="#a"/><use stroke="#2B3541" mask="url(#d)" stroke-width="2" xlink:href="#a"/></g><g mask="url(#c)"><path fill="#E84550" d="M6.595 8.653l2.32-1.642-2.67-.388-1.194-2.42-1.194 2.42-2.67.388 2.32 1.642-.509 2.439 2.053-1.175 2.052 1.175z"/><path d="M4.37 7.265c.25.546.313.582.94.797.628.215 2.4.42 2.575.44-.114-.115-2.11-1.594-2.52-1.89-.41-.295-.525-.43-.525-.43s-.37-.665-.497-.86c-.128-.195-.363-.47-.672-.47-.31 0-.498.18-.587.504-.05.013-.314.174-.305.34.076-.009.555-.143.721.399.166.542.175 1.43.005 1.869-.17.439-.435.77-.435 1.156 0 .054.036.161.126.161.03.17.282 1.385.282 1.385h3.576l.568-2.196" fill="#EDED4A"/><g stroke="#313D49" stroke-width=".1"><path d="M4.37 7.265c.25.546.313.582.94.797.628.215 2.4.42 2.575.44-.114-.115-2.11-1.594-2.52-1.89-.41-.295-.525-.43-.525-.43s-.37-.665-.497-.86c-.128-.195-.363-.47-.672-.47-.31 0-.498.18-.587.504-.05.013-.314.174-.305.34.076-.009.555-.143.721.399.166.542.175 1.43.005 1.869-.17.439-.435.77-.435 1.156 0 .054.036.161.126.161.03.17.282 1.385.282 1.385h3.576l.568-2.196"/><path d="M3.196 9.326s.761-.09.968-.09c.206 0 2.125.005 3.195.5M3.465 9.266s-.077-.092-.028-.276c.05-.184.588-.659.588-1.331M3.926 9.236s-.063-.3.623-.555c.193-.059.744-.368.762-.619M4.476 8.71s1.682.013 3.013.5M4.898 8.696s.577.033.672-.011c.094-.044.26-.157.327-.477M5.24 8.646s.418-.218.5-.5"/><path d="M4.307 10.666s-.132-.916-.16-1.43l.346.33.365-.32.314.336.363-.308.313.352.36-.305.286.332.358-.259.426.405M7.203 10.417c-1.28-.535-2.993-.5-2.993-.5M3.615 6.75s1.041-.498 1.225-.568"/></g><g transform="translate(3.464 5.16)" stroke="#313D49" stroke-width=".1"><path d="M.712 4.439l.35.342.316-.34.32.354.346-.327.318.358.358-.318.293.368.357-.293.375.356"/><circle cx="1.816" cy="3.945" r=".25"/><circle cx="2.403" cy="3.984" r=".25"/><circle cx=".251" cy=".263" r=".25"/></g></g></g></svg>