<svg width="24" height="16" viewBox="0 0 24 16" xmlns="http://www.w3.org/2000/svg"><title>flag-md</title><g fill="none" fill-rule="evenodd"><path fill="#EDED4A" d="M8 0h8v16H8z"/><path d="M11.165 4.004a.18.18 0 0 0-.112.032c.038.012.066.05.066.095v.115h-.108a.093.093 0 0 1-.089-.069.211.211 0 0 0-.03.12c0 .05.012.093.03.119a.093.093 0 0 1 .089-.07h.108V4.9c0 .044-.026.08-.061.093.051.008.096.081.108.122.012-.04.056-.114.108-.122a.097.097 0 0 1-.062-.093v-.554h.108c.043 0 .078.029.089.069a.212.212 0 0 0 .03-.12.211.211 0 0 0-.03-.119.093.093 0 0 1-.089.07h-.108v-.115c0-.045.027-.083.065-.095a.18.18 0 0 0-.112-.032z" fill="#F6D227"/><path d="M12.514 6.035a.596.596 0 0 1-.158-.172 1.098 1.098 0 0 1-.132-.552c0-.084.088-.179.088-.246 0-.103-.01-.164-.01-.164.032.004.086.064.086.064s-.001-.17-.052-.2c0 0 .02-.022.094-.025-.02-.056-.123-.124-.123-.124a.068.068 0 0 1 .027-.025.319.319 0 0 1 .09-.031.913.913 0 0 1-.101-.03 2.29 2.29 0 0 1-.279-.12.779.779 0 0 0-.373-.094c-.052 0-.128.002-.173.034-.042.029-.038.067-.053.08-.033.031-.092.03-.12.03-.18 0-.187.207-.187.207s.046-.075.128-.075c.136 0 .239.08.239.11 0 .011-.014.014-.015.014-.089 0-.223-.055-.294-.058v.038c.159.059.32.142.32.511 0 .232-.026.47-.135.656a.6.6 0 0 1-.16.172 1.488 1.488 0 0 1-.264-.113c-.17-.101-.26-.202-.462-.212v-.165c0-.088.03-.167.03-.251-.086-.025-.323-.334-.542-.472-.322.223-.572.588-.572.757 0 0 .01 3.612 0 4.87 0 .073-.04.176-.04.176.117-.054.332-.368.378-.488v.057c.177-.086.308-.313.366-.43 0 .016.004.059.004.059.158-.149.36-1.026.36-1.026l.337.353s-.122.264-.17.31c0 0 .033.005.069.005a9.135 9.135 0 0 0-.245.392c-.05.092-.085.05-.16.05-.064 0-.208.108-.231.152a.334.334 0 0 0-.043.147c0 .05.05.12.05.12.005-.025.014-.033.014-.033s.132.174.151.197c.015.018.082.03.106.006.06-.057.116-.097.17-.18.026-.043.028-.092.06-.138.104-.153.311-.447.359-.514l.009.053c.053-.116.312-.337.312-.337l.27.133s-.505 1.238-.953 1.429a6.763 6.763 0 0 0 .542.282c.03-.038.062-.082.093-.126.143-.205.284-.442.284-.442.01.062-.066.252-.194.486l-.08.144.096.06c.237.152.46.327.543.488.082-.16.305-.336.542-.488l.097-.06c-.029-.05-.055-.098-.08-.144-.128-.234-.204-.424-.194-.486 0 0 .14.237.283.442.032.044.063.088.093.126l.108-.061c.24-.133.434-.221.434-.221-.448-.19-.953-1.43-.953-1.43l.27-.132s.26.221.313.337l.009-.053c.047.067.255.36.36.514.03.046.032.095.06.138.052.083.11.123.169.18.023.023.09.012.106-.006.019-.023.15-.197.15-.197s.01.008.015.032c0 0 .05-.069.05-.119a.334.334 0 0 0-.043-.147c-.024-.044-.167-.151-.23-.151-.077 0-.112.04-.162-.051a9.135 9.135 0 0 0-.244-.392c.036 0 .068-.004.068-.004-.048-.047-.17-.311-.17-.311l.337-.353s.202.877.361 1.026l.004-.06c.058.118.188.345.366.431v-.057c.045.12.26.434.378.488 0 0-.04-.103-.04-.175-.01-1.259 0-4.871 0-4.871 0-.169-.25-.534-.572-.757-.22.138-.457.447-.542.472 0 .084.03.163.03.251v.165c-.203.01-.292.11-.463.212a1.487 1.487 0 0 1-.264.113z" fill="#B07F59"/><g fill="#F5D402"><path d="M10.55 10.445l.167.091-.093.17-.166-.091zM9.89 8.916c-.032.013-.079-.126-.113-.202-.035-.078-.107-.198-.086-.208.022-.01.051.053.087.133.036.08.14.265.111.277zM9.573 8.169c-.031.013-.066-.078-.1-.154-.035-.078-.07-.133-.05-.143.023-.01.056.058.085.122.028.062.094.162.065.175zM10.307 9.877c-.025.007-.133-.227-.22-.426-.087-.198-.152-.36-.132-.369.023-.01.093.177.18.376.087.198.19.414.172.42z"/></g><path d="M9.157 7.312s-.004.11.031.171c.036.062.115.087.115.087s.004-.11-.031-.171c-.036-.062-.115-.087-.115-.087zm-.073.253s.094.006.147.048c.054.042.075.13.075.13s-.062.006-.116-.036a.542.542 0 0 1-.106-.142zm.291-.225s-.036.072-.032.15a.437.437 0 0 0 .057.165s.047-.093.043-.171c-.004-.078-.055-.122-.068-.144zm-.158.72s.046.065.116.1c.07.036.176.037.176.037s-.053-.07-.123-.105c-.07-.035-.17-.032-.17-.032zm.022.155s.033.067.095.095c.062.029.188.027.188.027s-.049-.063-.11-.092c-.062-.028-.173-.03-.173-.03zm.357-.367s-.049.063-.044.131a.326.326 0 0 0 .063.145s.041-.087.037-.156c-.005-.068-.056-.12-.056-.12zm.125.09s-.064.088-.073.177c-.01.089.036.18.036.18s.077-.078.086-.167a.37.37 0 0 0-.05-.19zm-.174.846s.008.032.035.066c.026.034.072.07.072.07s.044-.014.099-.002c.054.012.127.061.127.061s-.078-.118-.16-.164c-.08-.046-.173-.031-.173-.031zm-.008.208s.102-.044.185-.032a.352.352 0 0 1 .16.078s-.114.04-.197.028c-.084-.011-.148-.074-.148-.074zm.42-.49s-.089.097-.096.18c-.008.084.072.162.072.162s-.003-.054.01-.089c.014-.035.044-.073.044-.073s.012-.043.007-.077c-.007-.049-.036-.103-.036-.103zm.127.115s-.085.087-.107.18a.361.361 0 0 0 .017.192s.077-.062.1-.155c.022-.093-.01-.217-.01-.217zm.206.575s.038.08.048.148c.01.068 0 .092 0 .092s-.039.04-.057.062c-.022.03-.026.085-.026.085s-.08-.12-.067-.208a.406.406 0 0 1 .102-.18zm.165.192s-.102.068-.142.138c-.04.07-.02.142-.02.142s.073-.007.113-.077a.59.59 0 0 0 .049-.203zm-.656.296s.146-.005.236.018c.09.022.122.071.122.071s-.1.048-.19.025c-.09-.022-.168-.114-.168-.114zm-.025-.182s.067.104.152.142c.118.052.254.027.254.027s-.074-.092-.176-.133c-.102-.04-.23-.036-.23-.036z" fill="#097754"/><g fill="#F5D402"><path d="M14.713 7.409l.1.052v-.124zM14.675 7.486c-.013.026 0 .059.028.074.029.015.062.005.075-.02.013-.026 0-.06-.028-.074a.062.062 0 0 0-.033-.007.05.05 0 0 0-.042.027zM14.508 7.583c-.01.007.004.1 0 .178-.002.074-.025.094-.038.12a.196.196 0 0 1-.054.051l.035.036s.023-.036.059-.108c.042-.085.04-.238.053-.246.01-.007.1-.03.1-.03s-.082-.004-.127-.003c-.015 0-.025 0-.028.002z"/><path d="M14.516 8.01s.012-.034.053-.115c.05-.099.155-.17.157-.188.003-.018-.037-.105-.037-.105s-.093.018-.106.031c-.012.013-.007.14-.056.24-.041.08-.061.11-.061.11l.05.026z"/><path d="M14.752 7.714c0 .015-.122.104-.164.189-.036.071-.052.111-.052.111l.05.008s-.004-.05.008-.074c.012-.026.016-.057.073-.103.06-.048.143-.09.142-.104 0-.012-.091-.126-.091-.126s.033.086.034.1zM14.402 8.284c.074-.15.096-.16.105-.18.01-.02.008-.048-.025-.065a.054.054 0 0 0-.032-.007.042.042 0 0 0-.033.024c-.009.02-.004.045-.078.195l-.167.341s-.018.034.015.051c.033.018.048-.017.048-.017l.167-.342zM14.108 8.678c-.01.021.006.052.035.07.029.017.06.014.069-.007.009-.022-.007-.053-.036-.07a.067.067 0 0 0-.041-.012c-.013.002-.023.008-.027.019zM14.047 8.772c-.011.023.007.057.042.075.034.018.072.013.084-.01.012-.024-.007-.057-.041-.075a.093.093 0 0 0-.039-.011c-.02-.001-.038.006-.046.02zM14.01 8.883c-.01.021.006.053.035.07.028.018.06.014.068-.007.01-.022-.006-.053-.035-.07a.07.07 0 0 0-.042-.011c-.012 0-.022.007-.027.018zM13.995 8.984l-.252.514c-.02.043-.109.07-.143.14-.035.071-.01.138.035.162.045.024.112.006.147-.065.034-.07.003-.16.024-.203l.251-.515s.019-.033-.014-.05a.034.034 0 0 0-.021-.005c-.019.003-.027.022-.027.022zM13.526 9.867c-.014.027.002.064.036.082.034.017.073.009.087-.019.014-.027-.002-.064-.036-.082a.078.078 0 0 0-.038-.01c-.021.001-.04.011-.049.029zM13.287 10.449c-.012 0-.02.005-.024.016-.008.02.008.052.034.07.027.02.054.018.062-.003.007-.02-.008-.052-.035-.07a.06.06 0 0 0-.037-.013zM13.2 10.52v.183l.147-.107s-.02-.035-.064-.058c-.043-.022-.083-.018-.083-.018z"/></g><g><path d="M13.29 6.34c0-.103.127-.205.127-.205h-3.09s.126.102.126.205v2.454c0 .065.019.107.049.148.03.045.093.106.158.151.203.141.543.29.8.414.214.104.3.146.412.293.111-.147.199-.189.413-.293.257-.125.596-.273.799-.414a.667.667 0 0 0 .159-.15.233.233 0 0 0 .047-.149V6.34z" fill="#F6D227"/><path d="M10.526 7.729v-1.39c0-.078-.037-.126-.037-.126h2.766s-.038.048-.038.127l.001 1.389-1.346.435-1.346-.435z" fill="#E84550"/><path d="M13.218 7.729l-.833-.017H11.36l-.834.017v1.065c0 .054.052.18.353.34.497.263.878.387.993.537.114-.15.496-.274.993-.538.3-.16.352-.285.352-.339l.001-1.065z" fill="#006DA0"/><path d="M12.365 7.673s.48-.13.48-.678c0-.428-.482-.64-.495-.743-.047.177.16.421.16.71 0 .375-.258.393-.258.393-.06 0-.085.046-.109.046-.05-.006-.075-.075-.125-.075-.047 0-.084.078-.146.078-.063 0-.098-.078-.146-.078-.05 0-.074.07-.125.075-.024 0-.048-.046-.109-.046 0 0-.258-.018-.258-.392 0-.29.208-.534.16-.71-.013.102-.495.314-.495.742 0 .549.48.678.48.678l-.136.266s.198.011.304.107c.127.116.115.36.115.54 0 .14-.017.288-.085.35-.09.081-.152.087-.152.184 0 .08.058.096.152.15.121.067.115.158.295.158s.174-.09.295-.159c.094-.053.152-.069.152-.15 0-.096-.061-.102-.152-.184-.068-.06-.084-.21-.084-.35 0-.178-.013-.423.115-.539.105-.096.304-.107.304-.107l-.137-.266z" fill="#EDED4A"/><path d="M11.36 7.712s-.297-.078-.408-.234c-.194.186-.426.25-.426.25s.242.117.426.266c.085-.13.408-.282.408-.282zM12.385 7.712s.323.152.407.282c.184-.149.426-.265.426-.265s-.232-.065-.426-.25c-.11.155-.407.233-.407.233z" fill="#EDED4A"/></g><path fill="#006DA0" d="M0 0h8v16H0z"/><path fill="#E84550" d="M16 0h8v16h-8z"/></g></svg>