<svg width="24" height="16" viewBox="0 0 24 16" xmlns="http://www.w3.org/2000/svg" xmlns:xlink="http://www.w3.org/1999/xlink"><title>flag-tw</title><defs><path id="a" d="M0 0h24v16H0z"/></defs><g fill="none" fill-rule="evenodd"><mask id="b" fill="#fff"><use xlink:href="#a"/></mask><use fill="#E84550" xlink:href="#a"/><path fill="#0060BA" mask="url(#b)" d="M0 0h10v10H0z"/><g transform="translate(2 2)" mask="url(#b)" fill="#FFF"><path d="M3 4.5l-.718 1.413.02-1.585-1.291.918.755-1.394-1.571.212 1.316-.883-1.49-.543 1.576-.17L.531 1.296l1.474.581-.4-1.533 1.036 1.2L3 0l.359 1.544 1.035-1.2-.4 1.533 1.475-.581-1.066 1.172 1.575.17-1.489.543 1.316.883-1.57-.212.754 1.394-1.292-.918.02 1.585z"/><circle stroke="#0060BA" stroke-width=".5" cx="3" cy="3" r="1.5"/></g></g></svg>