<svg width="24" height="16" viewBox="0 0 24 16" xmlns="http://www.w3.org/2000/svg"><title>flag-nc</title><g fill="none" fill-rule="evenodd"><path fill="#287E6E" d="M0 0h24v16H0z"/><path fill="#E84550" d="M0 3h24v8H0z"/><path fill="#006DA0" d="M0 0h24v5H0z"/><circle stroke="#2B3541" stroke-width=".5" fill="#EDED4A" cx="8" cy="8" r="3.933"/><path d="M7.333 8.587h1.334M7.333 7.6h1.334M8 4.08v6.72M6.417 11.611c1.605.656 3.11.04 3.11.04s-.569-.614-.86-.854c-.284-.234-1.12-.225-1.405 0-.238.188-.92.88-.845.814z" fill="#2B3541"/><ellipse fill="#2B3541" cx="8" cy="9.813" rx=".44" ry=".64"/><ellipse fill="#2B3541" cx="8" cy="8.093" rx=".533" ry=".338"/><circle fill="#2B3541" cx="8" cy="6.533" r=".533"/><path d="M8.64 4.547s.046.076-.051.251c-.465.837-.931.855-1.02.927-.097.08-.138.074-.138.074.007-.071.013-.364.018-.393.07-.39.662-.385 1.124-.786.072-.062.067-.074.067-.074z" fill="#2B3541"/><g fill="#000"><path d="M7.08 6.347s.104.3.12.6c.025.48.485.493.8.493v-.267c-.236 0-.441-.035-.613-.386-.085-.174-.307-.44-.307-.44zM7.067 10.213s.168-.207.364-.692A.634.634 0 0 1 8 9.12v-.373c-.507 0-.75.188-.776.463a8.08 8.08 0 0 1-.157 1.003z"/></g><g fill="#000"><path d="M8.92 6.347s-.104.3-.12.6c-.025.48-.485.493-.8.493v-.267c.236 0 .441-.035.613-.386.085-.174.307-.44.307-.44zM8.933 10.213s-.168-.207-.364-.692A.634.634 0 0 0 8 9.12v-.373c.507 0 .75.188.776.463a8.08 8.08 0 0 0 .157 1.003z"/></g></g></svg>