<svg width="24" height="16" viewBox="0 0 24 16" xmlns="http://www.w3.org/2000/svg"><title>flag-ao</title><g fill="none" fill-rule="evenodd"><path fill="#E84550" d="M0 0h24v8.102H0z"/><path fill="#2B3541" d="M0 7.865h24v8.102H0z"/><path d="M8.575 4.929c6.196 1.44 2.212 8.503-2.67 5.564l-.331.45c2.873 1.818 5.721.355 6.521-1.542.836-1.955-.282-4.706-3.469-4.99l-.05.518z" fill="#EDED4A"/><path d="M6.373 11.005l.815.336-.38.722-.815-.337.38-.721zm5.587-3.31h.9v.797h-.9v-.796zm-.438-1.293l.838-.29.326.743-.837.289-.327-.742zm-.97-.971l.638-.56.633.565-.639.56-.633-.565zm-.987-1.324l.842.282-.318.745-.841-.281.317-.746zm2.289 4.875l.835.295-.334.74-.835-.296.334-.74zm-2.62 2.33l.827-.313.352.733-.827.312-.353-.732zm-1.482.092h.9v.796h-.9v-.796zM9.3 7.547l-.763-.499-.759.482.301-.763-.763-.497.917-.006.321-.75.292.755.926-.008-.734.507.262.78zM12.601 11.522c-.045.014-.234.412-.363.607.068.017.096.02.136.034.512.16.765.305.982.582a.324.324 0 0 0 .383.023s.104-.037.24-.167c.112-.15.083-.27-.051-.37-.41-.265-.859-.463-1.327-.71z" fill="#EDED4A"/><path d="M13.697 12.402c0 .08-.073.144-.163.144-.09 0-.162-.064-.162-.144 0-.08.073-.144.162-.144.09 0 .163.065.163.144zm-.802-.455c0 .08-.073.144-.162.144-.09 0-.163-.064-.163-.144 0-.079.073-.143.163-.143.09 0 .162.064.162.143zm.409.232c0 .08-.073.144-.163.144-.09 0-.162-.064-.162-.144 0-.079.073-.143.162-.143.09 0 .163.064.163.143zM12.168 12.097c-1.597-.807-3.274-1.68-4.87-2.488-.704-.387-.739-1.11-.27-1.659.05-.078.107-.059.132-.017.055.267.224.543.426.715a198.87 198.87 0 0 1 4.94 2.847c-.13.192-.23.41-.359.602z" fill="#EDED4A"/><path fill="#EDED4A" d="M11.144 10.16l.67.532-.601.593-.67-.531z"/></g></svg>