<svg width="24" height="16" viewBox="0 0 24 16" xmlns="http://www.w3.org/2000/svg"><title>flag-ki</title><g fill="none" fill-rule="evenodd"><path fill="#BB333C" d="M0 0h24v16H0z"/><g transform="translate(8.88 2.64)" fill="#EDED4A"><path d="M5.096 5.012c.35.094.88.07 1.118.348-.35-.094-.782.472-1.118.348.297.208-4.322 0-3.952 0-.35-.094-.88-.07-1.118-.348.35.094.782-.472 1.118-.348-.297-.208-.812-.37-.932-.71.298.208.902-.178 1.17.055C1.176 4.06.74 3.734.75 3.37c.208.297.908.138 1.08.452-.093-.35-.376-.802-.257-1.143.094.35.799.438.861.795.032-.361-.096-.884.149-1.162-.032.361.605.684.537 1.04.153-.328.238-.859.537-1.04-.153.329.347.848.149 1.162.256-.257.504-.732.861-.795-.256.257.017.91-.257 1.143.328-.153.716-.515 1.08-.452-.328.153-.296.862-.633.986.362-.032.847-.237 1.17-.055-.36.031-.561.71-.931.71z"/><path d="M1.454 5.36L.191 4.844l1.364-.054-1.011-.917 1.3.417-.636-1.208 1.08.836-.185-1.353.728 1.155.289-1.334.29 1.334.727-1.155-.184 1.353 1.079-.836-.636 1.208 1.3-.417-1.01.917 1.363.054-1.263.516 1.263.516H.19l1.263-.516z"/><circle cx="3.12" cy="5.36" r="1.654"/><path d="M3.664 1.354l.887.006c.006-.037-.076-.112-.146-.123-.224-.035-.393.038-.665.04l-.076.077z"/><path d="M1.897 1.146c.209.263.613.446.998.448.52.003 1.097-.417 1.794-.546L2.413 1C2.118.799 1.894.825 1.742.95l-.435.013c-.062.034.05.174.142.179l.448.004z"/><path d="M2.926.995C2.844.614 2.538.45 2.171.4 1.746.345.77.287.12.101.402.377.99.515 1.398.577c.432.066.853.162 1.187.414l.341.004z"/><path d="M2.65 1.249c.136.174.347.164.573.012.226-.151.471-.578.59-.585C4.64.628 5.64.28 6.118.01c-.606.086-1.206.183-1.817.185-1.042.005-1.165.48-1.59.812"/><path d="M2.812 1.044c.222-.141.403-.326.61-.48.345-.255.743-.263 1.17-.268C4.97.29 5.634.133 5.994.049M2.581.977c-.065-.34-.384-.442-.786-.503C1.357.407.91.37.473.249.365.22.264.167.16.125M2.72 1.48c.412.03.717-.094 1.068-.269"/><circle cx="1.99" cy=".977" r=".065"/></g><path fill="#006DA0" d="M0 8.6h24V16H0z"/><path d="M0 12.286c.8 0 1.6.514 2.4.514.8 0 1.6-.514 2.4-.514.8 0 1.6.514 2.4.514.8 0 1.6-.514 2.4-.514.8 0 1.6.514 2.4.514.8 0 1.6-.514 2.4-.514.8 0 1.6.514 2.4.514.8 0 1.6-.514 2.4-.514.8 0 1.6.514 2.4.514.8 0 1.6-.514 2.4-.514v-.858c-.8 0-1.6.515-2.4.515-.8 0-1.6-.515-2.4-.515-.8 0-1.6.515-2.4.515-.8 0-1.6-.515-2.4-.515-.8 0-1.6.515-2.4.515-.8 0-1.6-.515-2.4-.515-.8 0-1.6.515-2.4.515-.8 0-1.6-.515-2.4-.515-.8 0-1.6.515-2.4.515-.8 0-1.6-.515-2.4-.515v.858zM0 14.286c.8 0 1.6.514 2.4.514.8 0 1.6-.514 2.4-.514.8 0 1.6.514 2.4.514.8 0 1.6-.514 2.4-.514.8 0 1.6.514 2.4.514.8 0 1.6-.514 2.4-.514.8 0 1.6.514 2.4.514.8 0 1.6-.514 2.4-.514.8 0 1.6.514 2.4.514.8 0 1.6-.514 2.4-.514v-.858c-.8 0-1.6.515-2.4.515-.8 0-1.6-.515-2.4-.515-.8 0-1.6.515-2.4.515-.8 0-1.6-.515-2.4-.515-.8 0-1.6.515-2.4.515-.8 0-1.6-.515-2.4-.515-.8 0-1.6.515-2.4.515-.8 0-1.6-.515-2.4-.515-.8 0-1.6.515-2.4.515-.8 0-1.6-.515-2.4-.515v.858zM0 10.571c.8 0 1.6.515 2.4.515.8 0 1.6-.515 2.4-.515.8 0 1.6.515 2.4.515.8 0 1.6-.515 2.4-.515.8 0 1.6.515 2.4.515.8 0 1.6-.515 2.4-.515.8 0 1.6.515 2.4.515.8 0 1.6-.515 2.4-.515.8 0 1.6.515 2.4.515.8 0 1.6-.515 2.4-.515v-.857c-.8 0-1.6.515-2.4.515-.8 0-1.6-.515-2.4-.515-.8 0-1.6.515-2.4.515-.8 0-1.6-.515-2.4-.515-.8 0-1.6.515-2.4.515-.8 0-1.6-.515-2.4-.515-.8 0-1.6.515-2.4.515-.8 0-1.6-.515-2.4-.515-.8 0-1.6.515-2.4.515-.8 0-1.6-.515-2.4-.515v.857zM0 8.857c.8 0 1.6.514 2.4.514.8 0 1.6-.514 2.4-.514.8 0 1.6.514 2.4.514.8 0 1.6-.514 2.4-.514.8 0 1.6.514 2.4.514.8 0 1.6-.514 2.4-.514.8 0 1.6.514 2.4.514.8 0 1.6-.514 2.4-.514.8 0 1.6.514 2.4.514.8 0 1.6-.514 2.4-.514V8c-.8 0-1.6.514-2.4.514-.8 0-1.6-.514-2.4-.514-.8 0-1.6.514-2.4.514-.8 0-1.6-.514-2.4-.514-.8 0-1.6.514-2.4.514-.8 0-1.6-.514-2.4-.514-.8 0-1.6.514-2.4.514C6.4 8.514 5.6 8 4.8 8c-.8 0-1.6.514-2.4.514C1.6 8.514.8 8 0 8v.857z" fill="#FFF"/></g></svg>