<svg width="26" height="18" viewBox="0 0 26 18" xmlns="http://www.w3.org/2000/svg" xmlns:xlink="http://www.w3.org/1999/xlink"><title>flag-bh</title><defs><path id="b" d="M0 0h24v16H0z"/><path id="a" d="M0 0h24v16H0z"/><mask id="d" x="0" y="0" width="24" height="16" fill="#fff"><use xlink:href="#a"/></mask></defs><g fill="none" fill-rule="evenodd"><g transform="translate(1 1)"><mask id="c" fill="#fff"><use xlink:href="#b"/></mask><use stroke-opacity=".2" stroke="#2B3541" stroke-width=".1" xlink:href="#b"/><g mask="url(#c)"><path fill="#BB333C" d="M-1.219 0h27v16h-27z"/><path fill="#FFF" d="M4.284 15.992L-1.219 16V0L4.26.003l3.534 1.01-3.509.984 3.509 1.016-3.509.984 3.509 1.016-3.509.984 3.509 1.016-3.509.984 3.509 1.016-3.509.984 3.509 1.016-3.509.984 3.509 1.016-3.509.984 3.509 1.016-3.509.984"/></g></g><use mask="url(#d)" xlink:href="#a" stroke="#E6E6E6" transform="translate(1 1)"/></g></svg>