<svg width="24" height="16" viewBox="0 0 24 16" xmlns="http://www.w3.org/2000/svg" xmlns:xlink="http://www.w3.org/1999/xlink"><title>flag-uy</title><defs><path id="a" d="M0 0h24v16H0z"/><mask id="b" x="0" y="0" width="24" height="16" fill="#fff"><use xlink:href="#a"/></mask></defs><g fill="none" fill-rule="evenodd"><path fill="#006DA0" d="M0 0h24v16H0z"/><path fill="#FFF" d="M0 2h24v2H0zM0 6h24v2H0zM0 10h24v2H0zM0 14h24v2H0z"/><path fill="#FFF" d="M0 0h10v8H0z"/><g transform="translate(1)"><path d="M3.86 4.82l.263.394C3.038 6 3.701 6.464 2.932 6.715c.478-.467-.076-.506.327-1.479" stroke="#000" stroke-width=".1" fill="#FCD116"/><path d="M3.729 4.956c-.895.864.46 1.805-.739 1.783" stroke="#000" stroke-width=".1"/><path stroke="#000" stroke-width=".1" fill="#FCD116" d="M4.04 4.04h.526L4.04 6.936 3.513 4.04h.527v2.896M3.36 4.464l-.091.465c-1.323-.212-1.183.585-1.904.219.668.008.304-.411 1.277-.814"/><path d="M3.172 4.468c-1.243-.022-.951 1.601-1.783.738" stroke="#000" stroke-width=".1"/><path stroke="#000" stroke-width=".1" fill="#FCD116" d="M4.04 4.04l.372.372-2.42 1.675 1.676-2.42.372.373-2.048 2.047M3.26 3.86l-.394.263c-.786-1.085-1.25-.422-1.501-1.191.466.478.506-.076 1.479.327"/><path d="M3.124 3.729c-.864-.895-1.805.46-1.784-.739" stroke="#000" stroke-width=".1"/><path stroke="#000" stroke-width=".1" fill="#FCD116" d="M4.04 4.04v.526L1.144 4.04l2.896-.527v.527H1.144M3.616 3.36l-.465-.091c.212-1.323-.585-1.183-.22-1.904-.007.668.412.304.815 1.277"/><path d="M3.612 3.172c.022-1.243-1.601-.951-.739-1.783" stroke="#000" stroke-width=".1"/><path stroke="#000" stroke-width=".1" fill="#FCD116" d="M4.04 4.04l-.372.372-1.676-2.42 2.42 1.676-.372.372-2.048-2.048M4.22 3.26l-.264-.394c1.086-.786.423-1.25 1.192-1.501-.478.466.075.506-.328 1.479"/><path d="M4.351 3.124c.895-.864-.46-1.805.739-1.784" stroke="#000" stroke-width=".1"/><path stroke="#000" stroke-width=".1" fill="#FCD116" d="M4.04 4.04h-.527l.527-2.896.526 2.896H4.04V1.144M4.72 3.616l.091-.465c1.323.212 1.183-.585 1.904-.22-.668-.007-.304.412-1.277.815"/><path d="M4.908 3.612c1.243.022.95-1.601 1.783-.739" stroke="#000" stroke-width=".1"/><path stroke="#000" stroke-width=".1" fill="#FCD116" d="M4.04 4.04l-.372-.372 2.42-1.676-1.676 2.42-.372-.372 2.047-2.048M4.82 4.22l.394-.264C6 5.042 6.464 4.38 6.715 5.148c-.467-.478-.506.075-1.479-.328"/><path d="M4.956 4.351c.864.895 1.805-.46 1.783.739" stroke="#000" stroke-width=".1"/><path stroke="#000" stroke-width=".1" fill="#FCD116" d="M4.04 4.04v-.527l2.896.527-2.896.526V4.04h2.896M4.464 4.72l.465.091c-.212 1.323.585 1.183.219 1.904.008-.668-.411-.304-.814-1.277"/><path d="M4.468 4.908c-.022 1.243 1.601.95.738 1.783" stroke="#000" stroke-width=".1"/><path stroke="#000" stroke-width=".1" fill="#FCD116" d="M4.04 4.04l.372-.372 1.675 2.42-2.42-1.676.373-.372 2.047 2.047"/><circle stroke="#000" stroke-width=".1" fill="#FCD116" cx="4.04" cy="4.04" r=".965"/><path d="M4.75 3.695c-.06.09-.096-.068-.315-.068-.22 0-.255.17-.29.136-.035-.034.184-.238.255-.25.07-.01.272.08.35.182m-.254.102c.062.068.009.216-.052.216-.062 0-.176-.136-.123-.227" fill="#000"/><path d="M4.207 3.948c.009-.222.098-.26.24-.26.144 0 .206.223.26.279-.063 0-.116-.186-.26-.186-.142 0-.142 0-.24.186m.026.037c.036-.111.08.11.179.11.098 0 .152-.055.214-.147.063-.093-.089.222-.187.222s-.232-.111-.206-.185" fill="#000"/><path d="M4.531 3.89c.221-.06.085-.148 0-.166.034.018.17.105 0 .167m-.491.529c.053 0 .07-.02.14-.02s.237.11.334.07c-.202.09-.123.03-.474.03h-.044m.576.04c-.043-.061-.032-.044-.12-.14.088.052.11.079.12.14m-.532.088c.22 0 .184-.044.474-.167-.21.026-.255.097-.474.097h-.044m.044-.255c.061 0 .079-.044.15-.044.07 0 .166.027.21.062.008.008-.027-.07-.097-.08-.07-.008-.044-.122-.123-.14 0 .035.027.027.035.08 0 .043-.079.043-.096 0 .017.07-.035.07-.08.07M3.33 3.695c.06.09.096-.068.315-.068.22 0 .254.17.29.136.035-.034-.185-.238-.255-.25-.07-.01-.272.08-.35.182m.254.102c-.062.068-.01.216.052.216s.176-.136.123-.227" fill="#000"/><path d="M3.873 3.948c-.009-.222-.098-.26-.24-.26-.144 0-.206.223-.26.279.063 0 .116-.186.26-.186.142 0 .142 0 .24.186m-.027.037c-.035-.111-.08.11-.178.11-.098 0-.152-.055-.214-.147-.063-.093.089.222.187.222s.232-.111.205-.185" fill="#000"/><path d="M3.548 3.89c-.22-.06-.085-.148 0-.166-.034.018-.17.105 0 .167m.492.529c-.053 0-.07-.02-.14-.02s-.237.11-.334.07c.202.09.123.03.474.03h.044m-.577.04c.044-.061.033-.044.12-.14-.087.052-.109.079-.12.14m.533.088c-.22 0-.184-.044-.474-.167.21.026.255.097.474.097h.044m-.044-.255c-.062 0-.08-.044-.15-.044a.397.397 0 0 0-.21.062c-.009.008.026-.07.097-.08.07-.008.044-.122.122-.14 0 .035-.026.027-.035.08 0 .043.08.043.097 0-.018.07.035.07.079.07M4.209 4.707c-.136 0-.488.494 0 .494.487 0 .135-.494 0-.494" fill="#000"/></g><use mask="url(#b)" xlink:href="#a" stroke="#E6E6E6"/></g></svg>