<svg width="24" height="16" viewBox="0 0 24 16" xmlns="http://www.w3.org/2000/svg"><title>flag-uz</title><g fill="none" fill-rule="evenodd"><path fill="#FFF" d="M0 0h24v16H0z"/><path fill="#80D65E" d="M0 11h24v5H0z"/><path fill="#3CA5CD" d="M0 0h24v5H0z"/><path d="M4.5 4.472a2.308 2.308 0 0 1-.357.028C2.959 4.5 2 3.605 2 2.5s.96-2 2.143-2c.122 0 .24.01.357.028-1.013.158-1.786.981-1.786 1.972S3.487 4.314 4.5 4.472z" fill="#FFF"/><g fill="#FFF"><path d="M5.5 4.33l-.309.17.095-.362L5 3.882l.345-.015L5.5 3.5l.155.367.345.015-.286.256.095.362zM7.5 4.33l-.309.17.095-.362L7 3.882l.345-.015L7.5 3.5l.155.367.345.015-.286.256.095.362zM9.5 4.33l-.309.17.095-.362L9 3.882l.345-.015L9.5 3.5l.155.367.345.015-.286.256.095.362zM11.5 4.33l-.309.17.095-.362L11 3.882l.345-.015.155-.367.155.367.345.015-.286.256.095.362zM13.5 4.33l-.309.17.095-.362L13 3.882l.345-.015.155-.367.155.367.345.015-.286.256.095.362zM7.5 2.83L7.191 3l.095-.362L7 2.382l.345-.015L7.5 2l.155.367.345.015-.286.256.095.362zM9.5 2.83L9.191 3l.095-.362L9 2.382l.345-.015L9.5 2l.155.367.345.015-.286.256.095.362zM11.5 2.83l-.309.17.095-.362L11 2.382l.345-.015L11.5 2l.155.367.345.015-.286.256.095.362zM13.5 2.83l-.309.17.095-.362L13 2.382l.345-.015L13.5 2l.155.367.345.015-.286.256.095.362zM9.5 1.33l-.309.17.095-.362L9 .882l.345-.015L9.5.5l.155.367.345.015-.286.256.095.362zM11.5 1.33l-.309.17.095-.362L11 .882l.345-.015L11.5.5l.155.367.345.015-.286.256.095.362zM13.5 1.33l-.309.17.095-.362L13 .882l.345-.015L13.5.5l.155.367.345.015-.286.256.095.362z"/></g><path fill="#BB333C" d="M0 5.5h24V5H0zM0 11h24v-.5H0z"/></g></svg>