<svg width="24" height="16" viewBox="0 0 24 16" xmlns="http://www.w3.org/2000/svg" xmlns:xlink="http://www.w3.org/1999/xlink"><title>flag-sg</title><defs><path id="b" d="M0 0h24v16H0z"/><path id="a" d="M0 0h24v16H0z"/><mask id="d" x="0" y="0" width="24" height="16" fill="#fff"><use xlink:href="#a"/></mask></defs><g fill="none" fill-rule="evenodd"><mask id="c" fill="#fff"><use xlink:href="#b"/></mask><use fill="#FFF" xlink:href="#b"/><path fill="#E84550" mask="url(#c)" d="M0 0h24v12H0z"/><g mask="url(#c)"><g transform="translate(7 2)"><ellipse fill="#FFF" transform="rotate(90 3.847 3.778)" cx="3.847" cy="3.778" rx="3.599" ry="3.721"/><ellipse fill="#E84550" transform="rotate(90 5.175 3.798)" cx="5.175" cy="3.798" rx="3.483" ry="3.601"/></g><g fill="#FFF"><path d="M13.06 3.97l-.558.308.172-.654-.517-.464.624-.027.279-.664.28.664.623.027-.517.464.172.654zM15.113 5.706l-.558.31.172-.655-.517-.464.624-.026.28-.665.278.665.624.026-.517.464.172.654zM11.007 5.706l-.558.31.172-.655-.517-.464.624-.026.279-.665.279.665.624.026-.517.464.172.654zM11.892 8.156l-.558.31.172-.656-.517-.463.624-.027.279-.664.279.664.624.027-.517.463.172.655zM14.379 8.156l-.559.31.172-.656-.517-.463.624-.027.28-.664.279.664.624.027-.517.463.172.655z"/></g></g><use mask="url(#d)" xlink:href="#a" stroke="#E6E6E6"/></g></svg>