<svg width="24" height="16" viewBox="0 0 24 16" xmlns="http://www.w3.org/2000/svg"><title>flag-gu</title><g fill="none" fill-rule="evenodd"><path fill="#E84550" d="M0 0h24v16H0z"/><path fill="#006DA0" d="M.96.911h22.108v14.28H.96z"/><path d="M11.788 13.774c.09.045.235.043.315.004 5.168-2.443 5.17-9.144.008-11.553a.418.418 0 0 0-.33.003c-5.036 2.45-5.05 9.074.007 11.547z" fill="#CBE0E5"/><path d="M11.788 13.895c.08.059.242.053.315.004 3.808-2.534 3.83-4.114 3.662-4.114l-7.536.004c-.116 0 .066 1.603 3.559 4.106z" fill="#ADD2D9"/><path d="M8.825 11.04c.327-.075.722-.095 1.043.058.286.133.452.131.76.135.322.004.575.214.923.222.642.015.912.298.413.299-.236 0-.74-.14-.985-.11-.51.047-.833.147-1.312.621l.554.338c.48-.174.56-.37.825-.377.3-.009.402-.174.749-.174.394.064.927-.044 1.24-.106.554-.114.29-.459-.045-.584-.272-.103-.78-.004-1.097-.105-.239-.083-.042-.216.086-.244.13-.021.27.017.43.04.289.022.65-.003.903-.038.523-.072.501-.208.754-.212a.867.867 0 0 0 .45-.137c.147-.088.3-.268.479-.26l.478.017-.674 1.347-1.903 1.722-.986.332-2.166-1.253-1.093-1.49.174-.04z" fill="#FDF9A1"/><path d="M11.316 9.731l4.35-.018.077-.342s-.156-.021-.28-.028c-.157-.008-.425.146-.604.145-.127-.001-.272-.203-.4-.199-.221-.002-.24.176-.45.18-.168-.004-.24-.119-.459-.107-.229.011-.212.123-.501.117-.382-.009-.535-.303-.841-.307-.51-.005-.527.433-.893.56z" fill="#179A3B"/><path fill="#FDF9A1" d="M11.316 10.185l4.478-.078v-.422l-4.58.08.102.42z"/><path d="M13.156 11.01c.069.235.141.315.42.375.274.06.693-.178.433-.408-.248-.214-.509-.268-.73-.46-.468-.411-1.173-1.417-1.174-2.127 0-.61-.066-1.86-.067-3.044 0-.077-.26.215-.26.293.012 1.045.01 1.835.058 2.889.074.77.488 1.288.85 1.757.164.224.399.466.47.725z" fill="#A79270"/><path d="M9.736 5.363c-.058.1.135-.029.179-.043.25-.079.348-.36.779-.19.339.13.794.054.556.186-.294.156-.88.33-.891 1.106.049.076.052.064.093-.018.09-.18.514-.672.724-.63.085.019.333-.223.339-.154.022.194-.338.586-.334 1.11.001.122.17.162.25.076.08-.075.126-.153.267-.252.25-.182.181-.954.212-.918.176.204.204.777.467 1.012.218.195.395.102.347-.17-.095-.544-.384-.388-.522-.95-.028-.11-.035-.21.129-.163.2.05.316.133.465.333.149.191.428.374.59.486.28.193.38.025.245-.222-.148-.277-.483-.506-.788-.606-.231-.071-.313-.078-.517-.113-.056-.01-.115-.113-.014-.17.215-.117.473-.25.734-.256.252-.006.451.173.628.218.352.082.35-.116.195-.263-.128-.125-.397-.333-.649-.306-.507.056-.475.043-.787.227-.114.06-.24.126-.193.053.113-.182.007-.15.183-.336.137-.136.238-.234.373-.268.13-.027.3-.149.352-.21.127-.156.018-.245-.178-.193-.17.042-.26.142-.377.17-.274.076-.494.632-.528.711-.043.094-.092.048-.083-.032.04-.393.077-1.05-.079-1.32-.235-.4-.213-.214-.303-.024-.136.3-.089.58-.003.876.037.147.176.314.2.43.019.09-.059-.028-.103-.083-.148-.2-.256-.336-.496-.445-.164-.093-.606-.105-.76-.063-.066.018.074.103.134.145.16.114.466.149.671.261.176.096.31.159.37.292.023.098.06.245-.014.242-.192-.01-.49-.158-1.104-.097-.314.037-.586.275-.76.561z" fill="#239E46"/><path fill="#000" d="M11.073 10.352h.5v.5h-.5z"/><path d="M10.19 8.595c.705.869 1.837 1.375 1.86 1.77-.716-.002-1.49 0-2.205-.002.506-.541.815-.907.344-1.768z" fill="#FDF9FF"/><path d="M9.547 10.387c.96.205 2.104.318 2.836-.029.006.205-.238.5-.438.5h-1.84c.213-.03.335-.092.683-.11l-.977.012c-.108.004-.3-.274-.264-.373z" fill="#A68861"/><path d="M11.722 14.169a.447.447 0 0 0 .339.003c5.54-2.621 5.544-9.81.008-12.396a.448.448 0 0 0-.355.004c-5.4 2.627-5.414 9.735.008 12.389zm.323-.589c4.639-2.426 4.695-8.837.007-11.134-.09-.059-.22-.04-.31.003-4.441 2.335-4.689 8.48.008 11.128.085.042.22.04.295.003z" fill="#E84550"/></g></svg>