<svg width="24" height="16" viewBox="0 0 24 16" xmlns="http://www.w3.org/2000/svg"><title>flag-hn</title><g fill="none" fill-rule="evenodd"><path fill="#006DA0" d="M0 0h24v16H0z"/><path fill="#FFF" d="M0 4h24v8H0z"/><path fill="#006DA0" d="M7 10.5l.588.309-.112-.654.475-.464-.657-.096L7 9l-.294.595-.657.096.475.464-.112.654zM17 10.5l.588.309-.112-.654.475-.464-.657-.096L17 9l-.294.595-.657.096.475.464-.112.654zM12 8.5l.588.309-.112-.654.475-.464-.657-.096L12 7l-.294.595-.657.096.475.464-.112.654zM7 6.5l.588.309-.112-.654.475-.464-.657-.096L7 5l-.294.595-.657.096.475.464-.112.654zM17 6.5l.588.309-.112-.654.475-.464-.657-.096L17 5l-.294.595-.657.096.475.464-.112.654z"/></g></svg>