<svg width="24" height="16" viewBox="0 0 24 16" xmlns="http://www.w3.org/2000/svg"><title>flag-er</title><g fill="none" fill-rule="evenodd"><path fill="#E84550" d="M0 0h24v16H0z"/><path fill="#006DA0" d="M0 16h24V8"/><path fill="#287E6E" d="M0 0h24v8"/><path d="M5.526 10.86c-.26.072-.408.273-.404.463l1.277-.005c.011-.204-.157-.393-.412-.468 1.25-.025 2.336-.494 2.534-.794-.196-.085-.422.051-.583.02.383-.177 1.528-.918 1.342-1.713-.145.442-.583.807-.77.905.428-.65 1.012-1.326.505-1.85.026.304-.193.638-.29.663.249-.686.486-1.548-.052-2.116.07.205.042.784-.055.81-.03-.466-.11-1.448-.601-1.434.156.139.224.518.228.901a1.393 1.393 0 0 0-.512-.654c-.22-.422-.612-.772-1.004-1.023.044.308.08.55.51.87-.224-.015-.448-.439-.687-.45-.19-.01-.34.172-.651.067.034.103.18.148.21.224-.066.046-.225-.007-.356-.075.18.246.461.39.699.342.283-.055.586-.026.875.139-.074.038-.361.037-.546.014.168.17.28.283.572.28.26 0 .397-.138.464-.053.164.194.274.387.41.615-.302.033-.21-.341-.547-.533-.189.39.217.854.494 1.047.004.294.047.54.171.764.084.158.193.32.152.675-.166-.12-.327-.527-.268-.85-.207.057-.288.421-.19.604.073.14.121.407.037.527-.082.111-.09.099-.09.337a.603.603 0 0 1-.206.43c.027-.1.058-.274.028-.382-.103.174-.36.355-.442.542-.08.188-.1.514-.486.589-.496.098-.668.184-.987.315-.036-.243.07-.749.273-.72.198.035.799-.207.584-.713-.042.16-.184.315-.337.322.165-.214.46-.437.317-.796-.08.153-.206.336-.396.44.204-.392.024-.51-.219-.187-.092.125-.147.374-.205.69-.095-.257-.09-.596-.202-.871-.118-.298.156-.376.286-.352.316.084.844.084.805-.438-.136.176-.376.23-.635.167.29-.212.52-.61.196-.82-.01.222-.181.47-.41.583a1.226 1.226 0 0 1-.007-.6c-.128.133-.22.413-.295.73-.005-.314.054-.54.098-.708.067-.247.233-.087.486-.068.245.014.581-.122.517-.453-.084.131-.255.182-.43.168.21-.127.578-.354.377-.703-.085.132-.112.245-.357.286.064-.148.075-.356.265-.439-.34-.067-.533.155-.632.503-.04-.241-.088-.33-.097-.507.183-.203.202-.601-.194-.69a.847.847 0 0 0 .028.421c-.186-.11-.448-.172-.623-.015.118.128.302.24.584.1-.067.219-.24.182-.479.098.146.274.33.323.533.291.106.28.11.493-.2.901.015-.253-.003-.442-.205-.647-.172-.17-.313.007-.043.383a1.154 1.154 0 0 1-.405-.61c-.054.302-.005.658.162.858-.079.085-.169-.009-.302-.216.05.662.333.79.712.642.011.364.011.7.033 1.139-.222-.319-.502-.556-.659-.615-.048.178.135.41.238.54-.157-.033-.497-.292-.497-.292-.034.295.348.568.594.69-.29-.012-.417-.122-.604-.302.003.819.886.676 1.052.55.021.403.052.87.074 1.272-.25-.044-.23-.119-.444-.138-.593-.024-1.063-.712-1.219-1.219-.044.084-.009.171-.05.273-.096-.248-.219-.57-.384-.719.042.145.047.293.032.563-.057-.175-.11-.229-.113-.435.004-.158.152-.275.144-.497-.006-.163-.154-.515-.176-.787-.072.28-.117.576-.226.75.054-.3.037-.507.129-.708.107-.212.197-.402.126-.616-.068.083-.044.158-.215.359-.038-.219.22-.569.472-.71.177-.093.4-.426.254-.654-.166.119-.24.28-.476.556.168-.655.603-.826 1.125-.829.115 0 .348-.042.413-.195a.877.877 0 0 1-.475.033c.112-.165.35-.143.57-.144.174-.001.444-.025.553-.271-.211.091-.54.11-.748.045.33-.17.847-.19 1.112-.413-.302-.226-1.058.052-1.536.38.133-.122.344-.339.46-.514-.26-.125-.921.607-1.149 1.042-.216.122-.302.313-.386.447.115-.39.127-.672.223-.992-.74.255-.433 1.624-.594 1.951.019-.361.004-.826-.145-1.065-.229.174-.247 1.199-.033 2.052-.077-.228-.223-.442-.27-.72-.338.617.198 1.343.646 1.918-.337-.176-.67-.554-.89-.87.06 1.102 1.212 1.331 1.391 1.602-.243-.113-.707-.336-.903-.102.32.074.576.16.782.294.298.373.864.537 1.85.578z" fill="#EDED4A"/></g></svg>