<svg width="24" height="16" viewBox="0 0 24 16" xmlns="http://www.w3.org/2000/svg"><title>flag-gd</title><g fill="none" fill-rule="evenodd"><path fill="#E84550" d="M0 0h24v16H0z"/><path fill="#287E6E" d="M2 3h20v10H2z"/><path fill="#FFCA00" d="M2 13h20L12 8 2 13z"/><path fill="#EDED4A" d="M2 3l10 5 10-5H2zM7.331 2.412l-.54-.385-.54.384.2-.632-.532-.395.662-.006.212-.628.21.628.663.007-.533.395m5.608.632l-.54-.385-.54.384.2-.632-.532-.395.663-.006.211-.628.21.628.663.007-.533.395m5.612.632l-.54-.385-.54.384.2-.632-.532-.395.662-.006.212-.628.21.628.663.007-.533.395M7.331 15.162l-.54-.385-.54.384.2-.632-.532-.395.662-.006.212-.628.21.628.663.007-.533.395m5.608.632l-.54-.385-.54.384.2-.632-.532-.395.663-.006.211-.628.21.628.663.007-.533.395m5.612.632l-.54-.385-.54.384.2-.632-.532-.395.662-.006.212-.628.21.628.663.007-.533.395"/><path d="M14 8.5a1.5 1.5 0 1 1-3 0 1.5 1.5 0 0 1 3 0z" fill="#E84550"/><path fill="#EDED4A" d="M13.174 9.474l-.64-.457-.64.456.236-.75-.63-.47.785-.007.25-.746.25.746.785.009-.631.468"/><path d="M6.077 9.098s.073-.604.031-1.01c-.041-.405-1.082-.52-1.082-.52l-.01.947s.832.677 1.061.583z" fill="#E84550"/><path d="M4.558 6.705s.1.532-.042 1.592c-.076.576.552.968 1.322 1.145-.156-.271-.572-.708-.468-1.51.562.073 1.092 1.166 1.092 1.166s.42-1.55-.426-1.79c-.824-.231-1.478-.593-1.478-.603z" fill="#EDED4A"/></g></svg>