<svg width="24" height="16" viewBox="0 0 24 16" xmlns="http://www.w3.org/2000/svg"><title>flag-ir</title><g fill="none" fill-rule="evenodd"><path fill="#E84550" d="M0 0h24v16H0z"/><path fill="#FFF" d="M0 0h24v10.667H0z"/><path fill="#287E6E" d="M0 0h24v5.333H0z"/><g stroke-width=".5" stroke="#FFF"><path d="M.32 4.524h1.387m-1.334.56v-.31H.8v.248h.427v-.249H.96m-.427.25H.64m1.067 0H1.44v-.25h.427m0-.31v.56h.426v-.56m-.213 0v.56M.32 10.978h1.387m-1.334.56v-.311H.8v.249h.427v-.25H.96m-.427.25H.64m1.067 0H1.44v-.25h.427m0-.31v.56h.426v-.56m-.213 0v.56"/><g><path d="M2.453 4.524H3.84m-1.333.56v-.31h.426v.248h.427v-.249h-.267m-.426.25h.106m1.067 0h-.267v-.25H4m0-.31v.56h.427v-.56m-.214 0v.56M2.453 10.978H3.84m-1.333.56v-.311h.426v.249h.427v-.25h-.267m-.426.25h.106m1.067 0h-.267v-.25H4m0-.31v.56h.427v-.56m-.214 0v.56"/><g><path d="M2.453 4.524H3.84m-1.333.56v-.31h.426v.248h.427v-.249h-.267m-.426.25h.106m1.067 0h-.267v-.25H4m0-.31v.56h.427v-.56m-.214 0v.56M2.453 10.978H3.84m-1.333.56v-.311h.426v.249h.427v-.25h-.267m-.426.25h.106m1.067 0h-.267v-.25H4m0-.31v.56h.427v-.56m-.214 0v.56"/></g><g><path d="M6.72 4.524h1.387m-1.334.56v-.31H7.2v.248h.427v-.249H7.36m-.427.25h.107m1.067 0H7.84v-.25h.427m0-.31v.56h.426v-.56m-.213 0v.56M6.72 10.978h1.387m-1.334.56v-.311H7.2v.249h.427v-.25H7.36m-.427.25h.107m1.067 0H7.84v-.25h.427m0-.31v.56h.426v-.56m-.213 0v.56"/></g></g><g><path d="M8.853 4.524h1.387m-1.333.56v-.31h.426v.248h.427v-.249h-.267m-.426.25h.106m1.067 0h-.267v-.25h.427m0-.31v.56h.427v-.56m-.214 0v.56M8.853 10.978h1.387m-1.333.56v-.311h.426v.249h.427v-.25h-.267m-.426.25h.106m1.067 0h-.267v-.25h.427m0-.31v.56h.427v-.56m-.214 0v.56"/><g><path d="M10.987 4.524h1.386m-1.333.56v-.31h.427v.248h.426v-.249h-.266m-.427.25h.107m1.066 0h-.266v-.25h.426m0-.31v.56h.427v-.56m-.213 0v.56M10.987 10.978h1.386m-1.333.56v-.311h.427v.249h.426v-.25h-.266m-.427.25h.107m1.066 0h-.266v-.25h.426m0-.31v.56h.427v-.56m-.213 0v.56"/></g><g><path d="M13.12 4.524h1.387m-1.334.56v-.31h.427v.248h.427v-.249h-.267m-.427.25h.107m1.067 0h-.267v-.25h.427m0-.31v.56h.426v-.56m-.213 0v.56M13.12 10.978h1.387m-1.334.56v-.311h.427v.249h.427v-.25h-.267m-.427.25h.107m1.067 0h-.267v-.25h.427m0-.31v.56h.426v-.56m-.213 0v.56"/></g></g><g><path d="M15.253 4.524h1.387m-1.333.56v-.31h.426v.248h.427v-.249h-.267m-.426.25h.106m1.067 0h-.267v-.25h.427m0-.31v.56h.427v-.56m-.214 0v.56M15.253 10.978h1.387m-1.333.56v-.311h.426v.249h.427v-.25h-.267m-.426.25h.106m1.067 0h-.267v-.25h.427m0-.31v.56h.427v-.56m-.214 0v.56"/><g><path d="M17.387 4.524h1.386m-1.333.56v-.31h.427v.248h.426v-.249h-.266m-.427.25h.107m1.066 0h-.266v-.25h.426m0-.31v.56h.427v-.56m-.213 0v.56M17.387 10.978h1.386m-1.333.56v-.311h.427v.249h.426v-.25h-.266m-.427.25h.107m1.066 0h-.266v-.25h.426m0-.31v.56h.427v-.56m-.213 0v.56"/><g><path d="M17.387 4.524h1.386m-1.333.56v-.31h.427v.248h.426v-.249h-.266m-.427.25h.107m1.066 0h-.266v-.25h.426m0-.31v.56h.427v-.56m-.213 0v.56M17.387 10.978h1.386m-1.333.56v-.311h.427v.249h.426v-.25h-.266m-.427.25h.107m1.066 0h-.266v-.25h.426m0-.31v.56h.427v-.56m-.213 0v.56"/></g><g><path d="M21.653 4.524h1.387m-1.333.56v-.31h.426v.248h.427v-.249h-.267m-.426.25h.106m1.067 0h-.267v-.25h.427m0-.31v.56h.427v-.56m-.214 0v.56M21.653 10.978h1.387m-1.333.56v-.311h.426v.249h.427v-.25h-.267m-.426.25h.106m1.067 0h-.267v-.25h.427m0-.31v.56h.427v-.56m-.214 0v.56"/></g></g></g></g><g fill="#E84550"><path d="M11.06 9.673c.709.268 1.481-.083 1.846-.84.365-.758.222-1.711-.343-2.278.364.628.392 1.44.074 2.1-.318.66-.928 1.054-1.577 1.018"/><path d="M13.06 9.323c.462-.312.716-.919.642-1.535-.075-.617-.462-1.119-.98-1.27.365.32.605.794.668 1.32a2.254 2.254 0 0 1-.33 1.485M12 10l-.086-2L12 6.425a.561.561 0 0 0 .202.199v1.175l-.069 1.987L12 10zM11.966 6.3l.034.038c.072.12.21.157.32.087.11-.07.159-.224.112-.36-.018.112-.094.199-.19.218-.097.02-.193-.034-.242-.132"/><g><path d="M12.94 9.673c-.709.268-1.481-.083-1.846-.84-.365-.758-.222-1.711.343-2.278a2.286 2.286 0 0 0-.074 2.1c.318.66.928 1.054 1.577 1.018"/><path d="M10.94 9.323c-.462-.312-.716-.919-.642-1.535.075-.617.462-1.119.98-1.27-.365.32-.605.794-.668 1.32-.064.527.055 1.061.33 1.485M12 10l.086-2L12 6.425a.561.561 0 0 1-.202.199v1.175l.069 1.987L12 10zM12.034 6.3L12 6.338c-.072.12-.21.157-.32.087-.11-.07-.159-.224-.112-.36.018.112.094.199.19.218.097.02.193-.034.242-.132"/></g></g></g></svg>