<svg width="24" height="16" viewBox="0 0 24 16" xmlns="http://www.w3.org/2000/svg"><title>flag-lb</title><g fill="none" fill-rule="evenodd"><path fill="#E84550" d="M0 0h24v16H0z"/><path fill="#FFF" d="M0 4h24v8H0z"/><path d="M12.614 11.59c.238.066.129-.332.129-.332l.868.332s-.555-.482-.715-.817c-.159-.335-.153-1.009-.153-1.009l2.597.458-1.961-1.257 1.45.252-1.722-1.296 1.378.128-1.274-.634.976-.063-1.19-1.146.442-.144-.62-.416.288-.089L12 4.25l-.366.475-.64.584.37.095-.716.55.347.098-.83.801.83-.114-1.411 1.27 1.003-.088L8.66 9.464l1.656-.499-1.35 1.105 2.243-.189s.073.589-.122.892c-.194.303-1.075.973-1.075.973l1.427-.652h.408s.53.43.767.496z" fill="#287E6E"/></g></svg>