<svg width="24" height="16" viewBox="0 0 24 16" xmlns="http://www.w3.org/2000/svg" xmlns:xlink="http://www.w3.org/1999/xlink"><title>flag-ky</title><defs><path id="d" d="M0 0h24v16H0z"/><path id="f" d="M0 0h12v8H0z"/><path id="a" d="M0 .5L11.5 8h.5v-.5L.5 0H0z"/><mask id="h" x="-.5" y="-.5" width="13" height="9"><path fill="#fff" d="M-.5-.5h13v9h-13z"/><use xlink:href="#a"/></mask><path id="b" d="M0 .5L11.5 8h.5v-.5L.5 0H0z"/><mask id="i" x="-.5" y="-.5" width="13" height="9"><path fill="#fff" d="M-.5-.5h13v9h-13z"/><use xlink:href="#b"/></mask><path d="M6.857 3.265V0h-1.47v3.265H-.124v1.47h5.513V8h1.47V4.735h5.267v-1.47H6.857z" id="c"/><mask id="j" x="-.5" y="-.5" width="13.25" height="9"><path fill="#fff" d="M-.625-.5h13.25v9H-.625z"/><use xlink:href="#c"/></mask></defs><g fill="none" fill-rule="evenodd"><mask id="e" fill="#fff"><use xlink:href="#d"/></mask><use fill="#006DA0" xlink:href="#d"/><g mask="url(#e)"><mask id="g" fill="#fff"><use xlink:href="#f"/></mask><use fill="#006DA0" xlink:href="#f"/><g mask="url(#g)"><g transform="matrix(1 0 0 -1 0 8)"><use fill="#E7525D" xlink:href="#a"/><use stroke="#FFF" mask="url(#h)" stroke-linecap="round" stroke-linejoin="round" xlink:href="#a"/></g><use fill="#E7525D" xlink:href="#b"/><use stroke="#FFF" mask="url(#i)" stroke-linecap="round" stroke-linejoin="round" xlink:href="#b"/></g><g mask="url(#g)"><use fill="#C7152A" xlink:href="#c"/><use stroke="#FFF" mask="url(#j)" xlink:href="#c"/></g><path d="M6.857 3.265V0h-1.47v3.265H-.124v1.47h5.513V8h1.47V4.735h5.267v-1.47H6.857z" fill="#E84550" mask="url(#g)"/></g><g mask="url(#e)"><path d="M15.538 12.176l-.016.009c-.647.35-1.204.077-1.282-.13-.143-.336.13-.764.246-.66.19.159.361.203.51.185a4.023 4.023 0 0 1-.316-.509c-.142-.272 0-.414.169-.505.18-.078.414-.26.518-.376-.195.208-.156.35-.013.583.084.14.173.273.265.395.283-.272.549-.721.292-1.03-.026-.038-.052-.064-.078-.09.039.039.09.078.142.13.104.103.337.22.48.323.18.117.142.311.064.466-.13.3-.264.535-.417.727.557.49 1.239.737 2.075.737.836 0 1.517-.247 2.074-.736a3.418 3.418 0 0 1-.43-.728c-.064-.155-.103-.35.078-.466.143-.103.376-.22.48-.324.051-.051.09-.09.142-.13-.026.027-.052.053-.078.092-.259.31.013.764.285 1.036h.001a4.5 4.5 0 0 0 .271-.402c.143-.233.181-.375-.026-.583.117.117.337.298.518.376.169.09.311.233.169.505a4.055 4.055 0 0 1-.315.508c.153.02.327-.022.522-.184.116-.104.375.324.246.66-.09.207-.648.48-1.282.13a2.268 2.268 0 0 1-.022-.013c-.843.753-1.884.997-2.633.997-.748 0-1.794-.243-2.64-.993z" fill="#EDED4A"/><path d="M17.18 6.189c-.169.038-.285.051-.44-.091-.104-.104-.078-.285.025-.35.117-.077.22-.13.363-.09.142.038.518.388.427.401-.09 0-.233.09-.375.13zM17.581 5.567c.052-.039.117-.065.285-.078.156-.013.272-.013.31.104.053.142.092.31.195.388-.065.04-.388.078-.505.013-.155-.077-.194-.375-.285-.427zM18.695 5.58c.052-.039.117-.039.285-.026.168.013.233.026.272.142.039.13 0 .298.078.415-.078.026-.337.026-.428-.065-.142-.103-.13-.401-.207-.466z" fill="#FFF"/><path d="M19.472 5.658c-.117-.026-.194-.04-.246 0 .065.077.013.388.142.492.091.065.324.077.376-.065.065-.13.065-.324-.272-.427zM18.138 5.528c.039-.039.117-.052.272-.052.168 0 .272.026.324.13.052.13.039.298.13.401-.04.052-.39.052-.493-.026-.142-.09-.155-.388-.233-.453zM17.037 5.645c0-.065.09-.078.324-.091.233-.026.246-.013.324.155.039.091.09.247.194.298-.285.065-.376.104-.53.013a.79.79 0 0 1-.273-.285c-.013-.039-.013-.077-.039-.09z" fill="#073163"/><path d="M18.615 3.155c.076-.088.158-.17.248-.256-.062.13-.127.326-.185.518.12-.162.278-.3.496-.401-.146.146-.36.545-.457.826.175-.23.469-.55.936-.736-.25.25-.591.66-.788.943.23-.223.578-.497.944-.619a36.5 36.5 0 0 0-.66.658c.224-.088.487-.155.699-.114-.208.078-.83.363-1.101.622l.02-.114-.02.023.006-.17c-.023.093-.09.143-.136.131-.038-.01-.062-.061-.062-.13-.027.064-.073.1-.12.091-.03 0-.06-.02-.083-.054-.028.062-.082.106-.136.106-.054 0-.108-.037-.136-.099-.024.03-.054.047-.084.047a.084.084 0 0 1-.046-.016c-.011.03-.028.05-.045.055-.052.013-.13-.052-.155-.155a.272.272 0 0 1-.005-.016l-.021.068a1.35 1.35 0 0 0-.024-.058l-.044.067-.01.198a7.957 7.957 0 0 0-.88-.687c.225.03.465.148.686.293a3.347 3.347 0 0 0-.7-.539c.234.017.473.125.7.259-.2-.262-.448-.483-.622-.582.255.04.488.18.691.357-.101-.194-.195-.382-.25-.487.115.095.3.18.538.522a3.642 3.642 0 0 0-.41-.768c.142.057.264.165.37.305.088-.097.19-.084.304-.046-.064-.142.026-.233.052-.337a.489.489 0 0 1 .065.208c.039-.065.155-.195.259-.22-.052.025-.052.129-.09.207.09-.091.206-.143.284-.13-.142.026-.116.22-.246.324.04-.06.135-.082.218-.094zm-.126.157l-.01.015h-.004l.014-.015zm-.495.236a.29.29 0 0 0-.022.039 2.66 2.66 0 0 0-.01-.02.227.227 0 0 1 .032-.02zm-.034.014c-.02-.04-.04-.08-.062-.119.074-.02.143-.037.175-.026a.503.503 0 0 0-.113.145zm-.081-.152a1.7 1.7 0 0 0-.107-.162c.113-.01.212.029.262.104-.077-.01-.125.017-.155.058z" fill="#EDED4A"/><path d="M17.028 4.49a.274.274 0 0 1-.185-.102c-.09-.116-.337-.168-.44-.064-.04.026-.091.026-.13.039-.065 0-.142.064-.116.194.051-.039.064 0 .103 0 .026-.013.013.013.013.039 0 .064.143.194.272.181.143 0 .207.052.233.078a.165.165 0 0 1 .018.02.123.123 0 0 1 .008.026c0 .006.002.012.005.021a.119.119 0 0 0 .008.023c.039.04.052.052-.013.104a.262.262 0 0 0 0 .401c.16.124.557.306 1.009-.003.169.055.378.081.649.081.261 0 .496-.05.676-.123.053.11.076.18.088.24.013.051.078.103.168.09.09 0 .195.04.246.078.065.039.156.026.13-.09-.05-.343-.248-.408-.292-.557l.019-.024c.116.01.199.007.247-.041.039-.052.09-.143.142-.169.04-.025.04-.051-.013-.038-.05.01-.084.027-.152.029.028-.03.008-.058-.055-.068-.064-.013-.103-.065-.13-.091-.245-.246-.453-.401-.802-.376l-.039-.025c-.104-.104-.402-.156-.557-.104h-.052c-.103-.052-.285-.039-.362.026h-.04c-.155-.039-.31.026-.44.155l-.025.013c-.05-.025-.15.011-.191.037z" fill="#80D65E"/><path d="M19.537 4.764c-.246-.246-.454-.401-.803-.376 0 .013 0 .052-.013.078.207.078.505.311.634.48.052-.052.143-.117.182-.182zm-.842-.401c-.104-.104-.402-.156-.557-.104 0 .052 0 .13-.026.181.09.04.169.13.246.22.052-.013.182-.051.246-.064.026-.052.078-.169.091-.233zm-.609-.104c-.103-.052-.285-.039-.362.026a.587.587 0 0 0-.04.207c.053 0 .13.039.156.065a.699.699 0 0 0 .22-.117c.013-.052.04-.13.026-.181zm-.842.181c.13-.13.285-.194.44-.155a.396.396 0 0 0-.038.194.743.743 0 0 0-.402.078V4.44zm2.06.531c-.117-.168-.402-.362-.596-.453 0 .013-.026.065-.039.104.078.116.233.375.298.518a2.03 2.03 0 0 0 .337-.169zm-.985.285c.026-.181.04-.44.04-.53.064-.014.193-.053.245-.066.065.104.22.376.285.506-.155.038-.414.103-.57.09zm-.453-.621a.977.977 0 0 0 .22-.13c.052.039.156.13.195.181 0 .117-.04.454-.052.57a.869.869 0 0 1-.363-.078c.013-.194.026-.414 0-.543zm-.647.155a.557.557 0 0 0 .025-.155c.104-.065.363-.13.557-.026.013.13 0 .453-.013.53-.168-.129-.44-.31-.57-.35z" fill="#287E6E"/><g><path d="M20.599 6.202v2.525c0 2.189-1.036 2.94-2.422 3.535-1.386-.595-2.435-1.346-2.435-3.535V6.202H20.6z" fill="#FFF"/><path d="M18.177 8.338c.116 0 .298-.103.453-.259.169-.18.453-.246.751 0s.48.143.635 0c.155-.142.285-.194.583-.194V6.202h-4.857v1.683c.298 0 .428.052.583.194.155.143.337.246.635 0 .31-.246.582-.18.764 0 .142.156.323.26.453.26z" fill="#BB333C"/><g fill="#0B50A0"><path d="M18.177 9.633c.155 0 .466-.168.544-.207.285-.168.492-.013.66.065.182.078.518.168.726 0 .207-.168.323-.155.466-.155.026-.195.026-.389.026-.61v-.154c-.182-.04-.272.012-.467.18-.194.17-.414.13-.699.027-.272-.117-.544-.324-.816 0-.077.09-.259.22-.44.22-.194 0-.363-.13-.44-.22-.285-.324-.544-.117-.816 0-.285.103-.518.142-.713-.026-.18-.169-.272-.22-.466-.181v.155c0 .22.013.414.04.609.142 0 .245-.013.452.155.208.168.557.078.726 0 .18-.078.388-.233.673-.065.078.04.376.207.544.207zM18.177 10.19c.194 0 .427-.077.635-.194.259-.142.44-.078.699.052.272.13.492.09.647 0 .078-.052.143-.156.311-.117a2.932 2.932 0 0 1-.337.842c-.259.065-.401.065-.673-.052-.272-.13-.609-.207-.79-.09a.986.986 0 0 1-.492.155.986.986 0 0 1-.492-.155c-.181-.117-.518-.04-.79.09-.272.117-.415.117-.674.052a2.932 2.932 0 0 1-.336-.842c.168-.039.233.065.31.117.143.09.376.13.635 0 .272-.13.453-.194.712-.052.208.117.44.194.635.194zM18.177 12.262c.518-.22.997-.466 1.386-.802-.104-.04-.169-.013-.26-.078-.09-.065-.362-.09-.595.039-.246.116-.35.142-.531.142-.181 0-.285-.026-.531-.142-.233-.13-.505-.104-.596-.04-.09.066-.155.04-.259.079.389.336.855.582 1.386.802z"/></g><path d="M17.84 6.836c.013.026-.013.09 0 .117.026.052.026.077.065.103h.09c.286 0 .622-.116.907-.116.272 0 .44.09.596.09.09 0 .168-.064.168-.13 0-.064-.103-.103-.324-.103-.31 0-.479.078-.738.078-.388 0-.453-.142-.453-.207s.065-.156.272-.156c.065 0 .117-.013.142-.038a.29.29 0 0 1 .13-.117c.09-.052.272 0 .363-.065 0 .052-.078.13-.143.156.13-.04.272-.04.298.064-.065-.038-.168-.013-.207 0-.052.013-.078.026-.13.04.052-.014.078.09.156.09-.078.065-.208.065-.337.013-.039-.013-.143-.052-.207-.052-.13 0-.207.026-.207.078 0 .064.077.103.31.103.233 0 .363-.064.713-.064-.026-.04.013-.078-.04-.117.13 0 .273.039.325.13-.013-.091.064-.169.038-.247.078.013.143.091.156.156 0-.039.052-.039.052-.078a.2.2 0 0 1 .103.207c.04-.064.078-.038.104-.116.026.052.013.207-.078.259a.204.204 0 0 1 .272.039c-.078-.013-.116.026-.155.039a1.2 1.2 0 0 1-.609.13c-.207-.014-.233-.053-.363-.053.078.013.233.169.376.169.09 0 .155 0 .194-.013.039-.013.104 0 .156.026.038.038.116.077.168.064-.013.052-.039.078-.078.091.065.039.026.065.09.117-.025 0-.05.025-.09.012.04.04.04.091.078.117-.013 0-.052.013-.078 0 .04.052 0 .117.04.142.038.052-.04.117-.105.065.013.04-.025.078-.064.065-.04-.013-.065-.052-.052-.065 0-.013 0-.013.013-.026-.026.04-.078.04-.104.026-.013-.013-.026-.026-.026-.039-.09.026-.13-.051-.116-.09.013-.04.09-.052.116-.04.026.014.052.027.078 0a.071.071 0 0 0 .039-.064c0-.039-.039-.155-.207-.142a2.144 2.144 0 0 1-.66-.091c-.014-.013-.027-.013-.04-.026 0 .052-.051.078-.051.13 0 .064.025.116.103.142-.039.065-.103.052-.13.013 0 .039-.051.065-.051.117-.013-.026-.026-.04-.039-.065-.039.09-.142.142-.194.116-.065.052-.143.04-.169-.013-.038.026-.09.026-.116 0 0 .04-.026.026-.039.078 0 .026-.052.039-.078.026-.026-.013-.039-.065-.013-.09-.038.025-.077.025-.103 0 0-.027 0-.065.026-.078h.026c-.026-.013-.065 0-.091-.013-.026-.026-.026-.052-.013-.078.013-.013.052-.039.078-.013l.013.013c0-.026.013-.052.026-.052.025-.013.064-.013.103.026.026.039.052.039.13.026.064 0 .168-.065.246-.13-.22-.038-.091-.18-.026-.233a.291.291 0 0 0-.182.013c-.271.143-.556.311-.738.26 0 .025.013.051.026.077-.039 0-.116 0-.142-.039-.013.026-.04.09-.013.143a.479.479 0 0 0-.143-.065c.026.026 0 .078.013.116-.039-.038-.103-.064-.13-.038a.124.124 0 0 1-.116.026.201.201 0 0 1-.103.077c0-.026 0-.065-.013-.077a.221.221 0 0 1-.104.116c0-.026 0-.065-.013-.09 0 .051-.104.077-.116.116a.322.322 0 0 0 .012-.104.199.199 0 0 1-.129.091c.013-.026.026-.052.013-.078-.013.052-.09.078-.155.065 0 .026-.052.065-.117.026-.039-.013-.065-.052-.039-.078-.052 0-.103-.052-.078-.09 0-.013.013-.026.013-.04-.038-.025-.051-.077-.013-.116.013-.013.052-.013.078-.013 0-.103.09-.103.13-.026.026.04.103.104.168.091.026 0 .039-.013.065-.013.077-.026.233-.09.324-.168.012-.04.012-.065.012-.09-.051.025-.103.05-.129.09v-.04c-.039 0-.104-.012-.13-.012.013-.013.026-.078.052-.09a.416.416 0 0 1-.181-.014c.026-.026.026-.064.039-.103-.026.013-.09-.013-.143 0 .013-.04.026-.09.065-.104a.31.31 0 0 1-.181-.026c.052 0 .077-.065.116-.065-.103 0-.13-.051-.181-.077.039.013.065-.026.104-.026-.04-.013-.104-.078-.078-.117-.013.013-.026.04-.052.052-.026.013-.078 0-.116-.039-.026-.052-.013-.116.038-.13a.062.062 0 0 1-.038-.103c.013-.026.064-.065.09-.026.013.013.026.04.04.052-.014-.026-.014-.078-.014-.117.013-.038.039-.038.078-.051.039 0 .065.039.065.077 0 .04.013.065.025.117 0-.013.013-.039.013-.052 0-.052.065-.039.104-.026.039.013.052.09 0 .13-.026.026-.013.064.013.09.09.143.246.26.376.272 0-.051.025-.103.064-.142a.24.24 0 0 1 .026-.09c.013-.078.052-.117.104-.091-.013-.013-.026-.026-.026-.04-.039-.038-.078-.103-.052-.155.026-.051.104-.039.13-.013-.013-.077.077-.142.077-.18.013.038.04.09.026.129.013-.052.104-.117.169-.143-.026.039.051.104.038.143.026-.065.13-.104.208-.104-.026.026-.026.078-.026.104.039 0 .103-.013.13-.052a.198.198 0 0 1-.053.13c.013-.014.065-.014.104-.014-.039.04-.026.078-.065.104.052-.026.117-.026.13.026.026.039-.013.103-.039.142-.026.013-.052.04-.065.04z" fill="#F9D050"/></g></g></g></svg>