<svg width="24" height="16" viewBox="0 0 24 16" xmlns="http://www.w3.org/2000/svg" xmlns:xlink="http://www.w3.org/1999/xlink"><title>flag-je</title><defs><path id="b" d="M0 0h24v16H0z"/><path id="a" d="M0 0h24v16H0z"/><mask id="d" x="0" y="0" width="24" height="16" fill="#fff"><use xlink:href="#a"/></mask></defs><g fill="none" fill-rule="evenodd"><g><mask id="c" fill="#fff"><use xlink:href="#b"/></mask><use fill="#FFF" xlink:href="#b"/><use mask="url(#d)" xlink:href="#a" stroke="#E6E6E6"/><path d="M0 0l24 16M0 16L24 0" stroke="#E84650" stroke-width="1.6" fill="#000" mask="url(#c)"/></g><path d="M13.256 2.595c.308 1.214.14 2.713-1.254 3.545-1.393-.832-1.562-2.331-1.254-3.545.329-.29 1.821-.47 2.508 0z" fill="#E84650"/><path d="M12 2.35c.51 0 .986.132 1.267.303.055-.42.25-.838.48-1.154-.24-.005-.348.12-.35.248-.06-.165-.295-.156-.368-.066.263.173.06.48-.178.417-.111-.03-.17-.106-.191-.216a.127.127 0 0 0 .12-.12.127.127 0 0 0-.109-.13.13.13 0 0 0-.144.092.125.125 0 0 0 .077.15.284.284 0 0 1-.306.129.241.241 0 0 1-.178-.241c0-.253.25-.292.326-.248-.005-.17-.28-.307-.366-.166A.446.446 0 0 0 12 .793a.446.446 0 0 0-.08.555c-.085-.141-.36-.005-.365.166.075-.044.325-.005.325.248a.241.241 0 0 1-.178.24.284.284 0 0 1-.306-.128.125.125 0 0 0 .077-.15.13.13 0 0 0-.144-.091.127.127 0 0 0-.11.13.127.127 0 0 0 .121.12c-.02.11-.08.185-.191.215-.238.063-.44-.244-.178-.417-.073-.09-.308-.1-.368.066-.003-.129-.11-.253-.35-.248.23.316.425.735.48 1.154.28-.17.756-.302 1.267-.302z" fill="#EDED4A"/><path d="M12.166 3.304c-.029.001-.06-.008-.083.006-.036.02-.091-.014-.156.026s-.106-.017-.144.014a.16.16 0 0 1-.118.04c.003.02-.001.039-.02.066-.048.068-.094.094-.13.083.021-.007.026-.037.023-.06-.034.077-.144.084-.178.104a.08.08 0 0 0 .015-.076c-.006.097-.272.019-.312.063 0-.019.042-.044.068-.054-.067.014-.124-.047-.175-.024a.086.086 0 0 1 .062-.035c-.055.008-.07-.03-.124-.027-.035.001-.047-.023-.03-.04.015-.016.048-.017.08-.011-.03-.026-.075-.02-.097-.008-.028.013-.056-.025-.033-.046a.104.104 0 0 1 .1-.01c-.025-.011-.052-.027-.075-.02-.024.009-.052-.02-.022-.043.057-.044.128.003.182.062.06.067.176.08.263.076.046-.002.106.004.111-.024-.054-.066-.135-.036-.176-.077.042.018.086-.014.022-.015-.115 0-.169-.044-.217-.08.025.012.04-.002.066.005-.118-.03-.12-.094-.171-.107.016-.004.041-.02.081.003-.071-.03-.127-.148-.175-.143-.033.003-.048-.028-.033-.045.026-.028.068-.023.116.029-.055-.044-.02-.09-.068-.094-.03-.003-.035-.035-.021-.049.022-.022.069-.01.1.027-.007-.045-.037-.047-.061-.064-.024-.018-.014-.041.014-.051.032-.011.089.018.104.066.033.105.04.161.114.216.087.065.103.146.243.16a.146.146 0 0 1 .007-.017.058.058 0 0 1-.03-.041c-.03-.123-.082-.09-.083-.186v-.001a.218.218 0 0 1-.046-.083c-.018-.062.007-.064.081-.036.025-.024.068-.04.14-.04.07 0 .113.015.139.04.073-.028.098-.026.08.036a.22.22 0 0 1-.045.082v.002a.124.124 0 0 1-.01.054c.08.125.24.136.307.125.138-.023.224.013.35-.023.149-.043.278-.046.405-.032.126.015.29-.008.29-.062 0-.058-.094-.075-.273-.049-.307.044-.664.06-.66-.114.002-.174.334-.174.47-.137a.773.773 0 0 0 .358.011c-.215.074-.297.063-.412.046-.114-.017-.337-.006-.337.077s.31.106.567.051c.255-.054.381.027.381.127 0 .09-.163.199-.29.148.085.057.174.057.277.057.05 0 .135-.006.172-.015.041-.01.063-.003.059.029a.085.085 0 0 0 .042.08c-.013.012-.044.006-.05 0 .055.036.065.077.075.141-.011-.028-.054-.053-.076-.051.066.037.037.108.078.14-.012-.002-.05-.012-.063-.03.02.033-.008.081-.066.101.005-.007-.01-.037.008-.053-.025.04-.063.061-.143.063.016 0 .016-.038.046-.045-.032-.005-.084.025-.112.06-.028.036-.057.022-.07.005-.019-.027.015-.054.048-.068-.025.012-.063.02-.078.01-.014-.01-.018-.036.01-.05-.034-.013-.02-.051.005-.06.035-.012.074.027.165.021.023-.001.053-.006.053-.056 0-.072-.051-.126-.214-.097a.886.886 0 0 1-.31.01c-.006.056 0 .09.026.115.026.025.053.044.034.077-.02.033-.028.057-.08.047-.054-.01-.155-.007-.198.028.002-.014.01-.04.027-.05-.039.03-.08.049-.16.049.033-.003.026-.043.051-.047a.163.163 0 0 0-.092.032c-.055.042-.105.016-.104-.004.002-.02.036-.033.058-.028-.026-.028-.092.052-.109-.015-.01-.04.049-.038.093-.038-.064.002-.096-.015-.065-.054.038-.048.097.044.225.038.057-.002.13.005.148-.01.051-.041.005-.041-.072-.055-.074-.014-.087-.004-.172-.098zM12.113 4.324c-.027 0-.054-.007-.076.005-.032.018-.082-.013-.14.023-.058.036-.095-.015-.13.013a.144.144 0 0 1-.106.036c.003.019 0 .035-.018.06-.043.06-.084.084-.116.074.018-.007.022-.034.02-.054-.03.07-.13.076-.16.094a.072.072 0 0 0 .013-.068c-.005.087-.245.016-.28.056 0-.017.037-.04.06-.049-.06.013-.11-.042-.157-.022a.077.077 0 0 1 .056-.03c-.05.006-.063-.027-.112-.025-.03.001-.042-.02-.027-.035.014-.015.044-.016.072-.011-.026-.024-.067-.017-.087-.008-.025.013-.05-.022-.03-.04a.094.094 0 0 1 .09-.01c-.022-.01-.047-.024-.067-.017-.021.008-.047-.02-.02-.04.051-.039.115.004.163.057.055.06.16.072.237.068.042-.002.096.004.1-.022-.048-.06-.12-.032-.158-.07.038.018.077-.011.02-.012-.103-.001-.152-.04-.196-.073.023.011.036-.002.06.005-.106-.027-.108-.085-.154-.096.014-.004.037-.019.073.002-.064-.027-.114-.133-.157-.129-.03.003-.044-.024-.03-.04.023-.025.06-.02.104.026-.049-.04-.018-.08-.061-.084-.026-.003-.031-.032-.02-.044.021-.02.063-.009.09.024-.005-.04-.033-.042-.054-.058-.022-.016-.012-.037.013-.046.028-.01.08.017.093.06.03.094.036.145.103.195.078.058.092.131.219.142a.131.131 0 0 1 .006-.014.053.053 0 0 1-.026-.037c-.027-.11-.075-.081-.076-.167v-.001a.197.197 0 0 1-.04-.075c-.017-.056.005-.058.072-.032.022-.022.061-.036.125-.036s.103.014.126.036c.066-.026.088-.024.072.032a.199.199 0 0 1-.04.074v.002a.111.111 0 0 1-.01.048c.073.113.217.122.276.112.125-.02.202.012.315-.02a.907.907 0 0 1 .365-.028c.113.012.262-.008.262-.057 0-.051-.085-.067-.246-.044-.277.04-.598.054-.595-.102.002-.157.301-.157.423-.124a.696.696 0 0 0 .322.01c-.193.067-.267.057-.37.042-.103-.016-.304-.006-.304.069 0 .075.28.095.51.046.23-.049.344.025.344.115 0 .08-.147.178-.262.132.077.051.158.051.25.051a.888.888 0 0 0 .155-.012c.037-.01.057-.003.053.025a.076.076 0 0 0 .038.072c-.012.011-.04.006-.045 0 .05.032.058.07.068.128-.01-.026-.05-.048-.07-.047.06.034.034.098.07.126-.01-.001-.044-.01-.056-.027.019.03-.007.073-.06.091.006-.006-.008-.033.008-.047-.022.035-.057.055-.129.056.015 0 .015-.034.042-.04-.03-.005-.075.022-.1.054-.026.032-.053.02-.063.004-.018-.024.013-.048.043-.061-.024.01-.058.018-.07.01-.014-.01-.017-.033.009-.046-.032-.012-.019-.046.003-.054.032-.01.067.024.15.02.02-.002.047-.006.047-.051 0-.066-.046-.114-.193-.087a.798.798 0 0 1-.28.008c-.004.05.002.081.025.103.023.024.047.04.03.07-.017.03-.025.051-.073.042-.047-.009-.138-.006-.177.026.002-.013.008-.036.024-.045-.034.027-.071.044-.144.044.03-.003.024-.039.046-.043a.147.147 0 0 0-.082.03c-.05.037-.095.014-.094-.004.001-.018.032-.03.052-.026-.023-.025-.083.047-.098-.013-.009-.036.044-.034.083-.034-.057.002-.086-.014-.058-.05.034-.042.087.04.202.036.052-.003.118.003.134-.01.046-.037.004-.037-.065-.05-.067-.012-.079-.003-.154-.087zM12.078 5.212c-.019 0-.04-.006-.056.004-.023.015-.06-.01-.104.02-.043.03-.07-.013-.096.01a.1.1 0 0 1-.08.03c.003.015 0 .029-.013.05-.032.05-.063.07-.087.062.014-.006.017-.028.015-.045-.022.057-.096.063-.119.078a.065.065 0 0 0 .01-.057c-.004.073-.182.014-.209.047 0-.014.028-.033.046-.04-.045.01-.083-.036-.118-.019a.057.057 0 0 1 .042-.026c-.037.006-.046-.022-.083-.02-.023.001-.031-.017-.02-.03.01-.012.032-.013.053-.008-.02-.02-.05-.015-.064-.007-.02.01-.038-.018-.023-.033a.064.064 0 0 1 .067-.009c-.017-.007-.035-.02-.05-.014-.016.007-.035-.016-.015-.033.038-.033.086.003.122.047.04.05.118.06.176.057.031-.001.071.003.075-.018-.037-.05-.09-.027-.118-.058.028.014.058-.01.015-.01-.077-.002-.114-.034-.146-.062.017.01.027 0 .044.005-.078-.023-.08-.071-.114-.08.01-.004.028-.016.054.001-.048-.022-.085-.11-.117-.107-.022.003-.032-.02-.022-.033.017-.021.045-.018.077.022-.036-.034-.013-.067-.045-.071-.02-.002-.023-.026-.014-.037.015-.016.046-.007.067.02-.005-.033-.025-.035-.041-.048-.016-.013-.01-.03.01-.038s.059.014.069.05c.022.079.026.12.076.162.059.049.07.11.163.12a.116.116 0 0 1 .005-.013c-.009-.006-.016-.015-.02-.03-.02-.093-.055-.068-.056-.14V4.91a.17.17 0 0 1-.03-.062c-.012-.047.004-.048.054-.027.017-.019.045-.03.093-.03s.077.011.094.03c.049-.021.065-.02.053.027a.172.172 0 0 1-.03.061v.002a.102.102 0 0 1-.007.04c.055.094.161.102.206.094.092-.017.15.01.234-.017a.606.606 0 0 1 .272-.024c.084.01.195-.006.195-.047 0-.043-.063-.056-.183-.036-.207.033-.445.045-.443-.086.002-.13.224-.13.315-.103.09.028.204.024.24.009-.144.055-.2.047-.276.034-.077-.013-.226-.004-.226.058s.208.079.38.038c.17-.04.256.02.256.096 0 .067-.11.148-.195.11.057.043.117.043.186.043.033 0 .09-.004.115-.011.027-.007.042-.003.04.021a.066.066 0 0 0 .028.06c-.01.01-.03.005-.034 0 .037.027.044.058.05.106-.007-.02-.036-.04-.05-.038.044.028.024.081.051.105-.007-.001-.033-.009-.042-.023.014.025-.005.061-.044.076.004-.005-.007-.027.005-.04-.016.03-.042.046-.096.048.011 0 .011-.029.032-.034-.022-.004-.056.018-.075.045-.019.027-.039.016-.047.004-.013-.02.01-.04.032-.051-.017.008-.043.015-.052.008-.01-.008-.013-.028.007-.038-.024-.01-.014-.039.002-.045.024-.01.05.02.111.016.015-.001.036-.005.036-.042 0-.055-.035-.095-.144-.073a.532.532 0 0 1-.208.007c-.003.042 0 .068.018.086.018.02.035.033.023.058-.013.025-.02.043-.055.035-.035-.007-.103-.005-.131.022 0-.01.005-.03.017-.038-.025.023-.053.037-.107.037.023-.002.018-.032.034-.036a.102.102 0 0 0-.061.025c-.037.031-.07.012-.07-.003.001-.016.024-.025.039-.022-.017-.02-.061.04-.073-.01-.006-.03.033-.029.062-.03-.042.002-.064-.01-.043-.04.025-.036.065.033.15.029.039-.002.088.003.1-.008.034-.03.003-.03-.048-.041-.05-.01-.059-.003-.116-.073z" fill="#EDED4A"/></g></svg>