<svg width="24" height="16" viewBox="0 0 24 16" xmlns="http://www.w3.org/2000/svg" xmlns:xlink="http://www.w3.org/1999/xlink"><title>flag-bi</title><defs><path id="a" d="M0 0h24v16H0z"/></defs><g fill="none" fill-rule="evenodd"><mask id="b" fill="#fff"><use xlink:href="#a"/></mask><use fill="#FFF" xlink:href="#a"/><path fill="#287E6E" mask="url(#b)" d="M0 16l12.44-7.992L0 0v16"/><path fill="#287E6E" mask="url(#b)" d="M24 16V0L12 8.008 24 16"/><path fill="#E84550" mask="url(#b)" d="M24 .05H0L12.058 8 24 .05M0 15.912h24L12.058 9 0 15.912"/><path fill="#FFF" mask="url(#b)" transform="rotate(35 12.57 8.4)" d="M-2.544 7.672h30.23v1.455h-30.23z"/><path fill="#FFF" mask="url(#b)" transform="scale(1 -1) rotate(35 37.373 0)" d="M-2.418 7.273h28.837v1.455H-2.418z"/><circle fill="#FFF" mask="url(#b)" cx="12" cy="8" r="4"/><path fill="#E84550" mask="url(#b)" d="M12.367 5.512L12.093 5l-.414.512H11l.36.476-.36.516h.679l.414.496.274-.496H13l-.314-.516.314-.476h-.633M14.724 9.028L15 8.516h-.598L14.019 8l-.323.516H13l.374.512-.374.476h.696l.323.496.383-.496H15l-.276-.476M10.317 8.516L9.997 8l-.323.516H9l.41.512-.41.476h.674l.324.496.319-.496H11l-.369-.476.369-.512h-.683"/></g></svg>