<svg width="24" height="16" viewBox="0 0 24 16" xmlns="http://www.w3.org/2000/svg" xmlns:xlink="http://www.w3.org/1999/xlink"><title>flag-vu</title><defs><path id="b" d="M0 0h24v16H0z"/><path d="M14 7h10v2H14L0 16V0l14 7z" id="a"/><mask id="d" x="-1" y="-1" width="26" height="18"><path fill="#fff" d="M-1-1h26v18H-1z"/><use xlink:href="#a"/></mask></defs><g fill="none" fill-rule="evenodd"><mask id="c" fill="#fff"><use xlink:href="#b"/></mask><use fill="#E84550" xlink:href="#b"/><path fill="#287E6E" mask="url(#c)" d="M0 8h24v8H0z"/><g mask="url(#c)"><use fill="#FFBE3F" xlink:href="#a"/><use stroke="#313D49" mask="url(#d)" stroke-width="2" xlink:href="#a"/></g><path fill="#313D49" mask="url(#c)" d="M0 14l12-6L0 2z"/><g mask="url(#c)"><path d="M2.789 8.935v.854c.743 0 2.203-.57 2.203-2.404S3.435 5.211 2.97 5.211c-.466 0-1.904.333-1.904 1.834 0 1.5 1.41 1.64 1.688 1.64s1.32-.25 1.202-1.376c0 .32-.361.994-1.118.994-.758 0-1.23-.563-1.23-1.12 0-.555.458-1.298 1.257-1.298.8 0 1.383.708 1.383 1.424S3.685 8.935 2.79 8.935z" fill="#EDED4A"/><g fill="#FDCE12"><path d="M2.138 7.822l.044.029s.352-.803 1.297-1.373c-.12.065-.753.38-1.341 1.344z" stroke="#FDCE12"/><path d="M2.229 7.684s-.11-.224-.013-.323c.096-.099.052.263.052.263l.042-.06s-.066-.273.007-.33c.073-.058.037.263.037.263l.044-.058s-.047-.266.024-.315c.07-.05.026.25.026.25l.052-.06s-.04-.253.047-.313c.086-.06.01.24.01.24l.057-.062s-.026-.232.047-.284c.073-.052.01.218.01.218l.053-.054s-.016-.216.055-.266c.07-.05.005.206.005.206l.054-.052s-.013-.217.076-.258c.089-.042-.016.203-.016.203l.06-.052s.019-.253.094-.276c.076-.024-.034.224-.034.224l.055-.045s.029-.216.112-.242c.083-.026-.052.198-.052.198l.055-.041s.06-.217.138-.24c.078-.024-.081.203-.081.203l.052-.036s.086-.196.156-.209c.07-.013-.078.162-.078.162l.065-.04s.112-.203.152-.14c.039.062-.157.154-.157.154l-.065.036s.237-.112.266-.055c.028.058-.326.094-.326.094l-.057.04s.237-.066.208-.006c-.028.06-.263.047-.263.047l-.055.039s.237-.057.206-.003c-.031.055-.263.05-.263.05l-.057.047s.232-.06.198.01c-.034.07-.297.068-.297.068l-.065.06s.244-.083.224-.018c-.021.065-.3.099-.3.099l-.063.062s.264-.088.185-.008c-.078.081-.268.102-.268.102l-.076.091s.261-.156.225-.068c-.037.09-.292.149-.292.149l-.052.063s.234-.136.21-.06c-.023.075-.273.156-.273.156l-.042.057s.277-.164.253-.08c-.023.083-.286.143-.286.143l-.034.052s.255-.146.258-.076c.002.07-.3.141-.3.141l-.005-.06z"/></g><g fill="#FDCE12"><path d="M3.639 7.822l-.045.029s-.351-.803-1.297-1.373c.12.065.753.38 1.342 1.344z" stroke="#FDCE12"/><path d="M3.548 7.684s.109-.224.013-.323c-.097-.099-.053.263-.053.263l-.041-.06s.065-.273-.008-.33c-.073-.058-.037.263-.037.263l-.044-.058s.047-.266-.023-.315c-.07-.05-.026.25-.026.25l-.052-.06s.039-.253-.047-.313-.01.24-.01.24l-.058-.062s.026-.232-.047-.284c-.073-.052-.01.218-.01.218l-.053-.054s.016-.216-.054-.266c-.07-.05-.005.206-.005.206l-.055-.052s.013-.217-.076-.258c-.088-.042.016.203.016.203l-.06-.052s-.018-.253-.094-.276c-.075-.024.034.224.034.224l-.055-.045s-.028-.216-.112-.242c-.083-.026.052.198.052.198l-.054-.041s-.06-.217-.138-.24c-.079-.024.08.203.08.203l-.052-.036s-.086-.196-.156-.209c-.07-.013.078.162.078.162l-.065-.04s-.112-.203-.151-.14c-.04.062.156.154.156.154l.065.036s-.237-.112-.265-.055c-.03.058.325.094.325.094l.058.04s-.238-.066-.209-.006c.029.06.263.047.263.047l.055.039s-.237-.057-.206-.003c.031.055.263.05.263.05l.058.047s-.232-.06-.198.01c.033.07.297.068.297.068l.065.06s-.245-.083-.224-.018c.02.065.3.099.3.099l.062.062s-.263-.088-.185-.008c.078.081.268.102.268.102l.076.091s-.26-.156-.224-.068c.036.09.292.149.292.149l.052.063s-.235-.136-.211-.06c.023.075.273.156.273.156l.042.057s-.276-.164-.253-.08c.024.083.287.143.287.143l.034.052s-.256-.146-.258-.076c-.003.07.3.141.3.141l.005-.06z"/></g></g></g></svg>