<svg width="24" height="16" viewBox="0 0 24 16" xmlns="http://www.w3.org/2000/svg"><title>flag-br</title><g fill="none" fill-rule="evenodd"><path fill="#287E6E" d="M0 0h24v16H0z"/><path fill="#EDED4A" d="M12.053 15.348L23.358 8.01 11.984.652.642 8.028l11.41 7.32z"/><path d="M16.979 8a4.78 4.78 0 0 1-4.783 4.775A4.779 4.779 0 0 1 7.413 8a4.78 4.78 0 0 1 4.783-4.775A4.78 4.78 0 0 1 16.979 8z" fill="#006DA0"/><path d="M16.88 8.976c-2.54-2.231-5.372-3.375-8.95-3.14a4.67 4.67 0 0 0-.317.783 11.447 11.447 0 0 1 9.05 3.1c.074-.191.168-.479.218-.743z" fill="#FFF"/></g></svg>