<svg width="24" height="16" viewBox="0 0 24 16" xmlns="http://www.w3.org/2000/svg" xmlns:xlink="http://www.w3.org/1999/xlink"><title>flag-ls</title><defs><path d="M.484 4.422s1.336.451 2.358.451c1.083 0 2.442-.45 2.442-.45l.426.733s-1.019.656-2.868.656c-1.85 0-2.809-.656-2.809-.656l.451-.734z" id="a"/><mask id="c" x="0" y="0" width="5.677" height="1.389" fill="#fff"><use xlink:href="#a"/></mask><path id="b" d="M0 0h24v16H0z"/><mask id="d" x="0" y="0" width="24" height="16" fill="#fff"><use xlink:href="#b"/></mask></defs><g fill="none" fill-rule="evenodd"><path fill="#FFF" d="M0 0h24v16H0z"/><path fill="#006DA0" d="M0 0h24v4H0z"/><path fill="#287E6E" d="M0 12h24v4H0z"/><g transform="translate(9 5)"><rect fill="#000" x="2.619" width=".638" height="4.408" rx=".319"/><path stroke="#979797" stroke-width=".1" fill="#000" d="M2.938.826l.957.827H1.98z"/><path d="M2.938 4.132c.88 0 1.595-.863 1.595-1.928S3.819.275 2.938.275s-1.595.864-1.595 1.929.714 1.928 1.595 1.928z" stroke="#000" stroke-width=".1"/><path d="M2.938 2.066l2.685 3.062s-.718.582-2.685.582S.136 5.128.136 5.128l2.802-3.062z" stroke="#979797" stroke-width=".1" fill="#000"/><use stroke="#979797" mask="url(#c)" stroke-width=".2" fill="#000" xlink:href="#a"/><path d="M.737 4.746c-.04.042-.329.5-.329.5l.5-.083-.17-.417zM5.31 4.897l.232.372-.464.128-.036-.177.268-.323z" fill="#FFF"/></g><use stroke-opacity=".2" stroke="#2B3541" mask="url(#d)" stroke-width=".2" xlink:href="#b"/></g></svg>