<svg width="24" height="16" viewBox="0 0 24 16" xmlns="http://www.w3.org/2000/svg" xmlns:xlink="http://www.w3.org/1999/xlink"><title>flag-om</title><defs><path id="b" d="M0 0h24v16H0z"/><path id="a" d="M0 0h24v16H0z"/><mask id="d" x="0" y="0" width="24" height="16" fill="#fff"><use xlink:href="#a"/></mask></defs><g fill="none" fill-rule="evenodd"><mask id="c" fill="#fff"><use xlink:href="#b"/></mask><use fill="#FFF" xlink:href="#b"/><path fill="#FFF" mask="url(#c)" d="M8 0h16v5.333H8z"/><use mask="url(#d)" xlink:href="#a" stroke="#E6E6E6"/><path fill="#E84550" mask="url(#c)" d="M0 0h8v16H0z"/><g mask="url(#c)"><path fill="#E84550" d="M8 5.333h16v5.333H8z"/><path fill="#287E6E" d="M8 10.667h16V16H8z"/></g><path d="M4.915 2.749c-.015-.06-.102-.104-.209-.104h-.019c.502-.867.834-1.603.743-1.646-.092-.042-.575.63-1.078 1.498l.031.015a5.98 5.98 0 0 1-.086.12v-.51c-.106.001-.176-.061-.176-.125h-.025v-.124h-.025v-.25h-.025v-.167h.009v-.095a.268.268 0 0 0 .174-.115.083.083 0 0 0 .02.002c.04 0 .072-.028.072-.063 0-.034-.033-.062-.073-.062h-.01c-.027-.068-.107-.122-.208-.14V.977c0-.035-.032-.063-.072-.063-.04 0-.072.028-.072.063v.006c-.101.018-.18.072-.208.14h-.01c-.04 0-.072.028-.072.062 0 .035.032.063.072.063l.02-.002a.256.256 0 0 0 .15.109v.101h.008v.167h-.025v.25h-.025v.125h-.025c0 .063-.07.125-.175.125v.517a5.958 5.958 0 0 1-.093-.128l.032-.015C3.032 1.628 2.55.957 2.457 1c-.091.042.235.767.73 1.625-.106 0-.194.045-.209.104h-.107v-.05a.076.076 0 0 0-.076-.075h-.76a.076.076 0 0 0-.076.076v.348c0 .042.034.076.076.076h.76a.076.076 0 0 0 .076-.076v-.09h.116c.027.048.106.083.2.083.116 0 .21-.054.21-.122v-.03c.055.075.117.155.186.238-.008.072-.019.11-.037.122-.05.04-1.47 0-1.47.209 0 .157.663.314 1.14.381-1.01.958-1.433 1.088-1.218 1.173.216.085.89-.43 1.61-1.138.228-.001.399-.053.514-.156l.049.05c.76.76 1.49 1.333 1.718 1.244.227-.09-.257-.23-1.392-1.34-.08-.077-.153-.151-.222-.222a.861.861 0 0 0 .022-.2v-.115c.074-.09.14-.174.199-.254v.059c0 .067.094.122.21.122.094 0 .172-.035.2-.084h.11v.07c0 .042.034.076.076.076h.76a.076.076 0 0 0 .076-.076V2.68a.076.076 0 0 0-.076-.076h-.76a.076.076 0 0 0-.076.076v.07h-.101zm-.178-.063l-.072-.052-.028.075a.595.595 0 0 1 .1-.023z" fill="#FFF" mask="url(#c)"/></g></svg>