<svg width="24" height="16" viewBox="0 0 24 16" xmlns="http://www.w3.org/2000/svg"><title>flag-sz</title><g fill="none" fill-rule="evenodd"><path fill="#006DA0" d="M0 0h24v16H0z"/><path fill="#EDED4A" d="M0 3h24v10H0z"/><path fill="#BB333C" d="M0 4h24v8H0z"/><path d="M4.5 6h15M3.5 7h15M7.5 8h15" stroke="#EDED4A" stroke-width=".5" stroke-linecap="square"/><path fill="#FFF" d="M20 5.5L19 6l1 .5 1-.5-1-.5zM19 6.5L18 7l1 .5 1-.5-1-.5zM17.714 8c-1.143 1.143-2.667 3.428-5.714 3.428-2.667 0-4.572-2.285-5.715-3.428C7.428 6.857 9.333 4.571 12 4.571c3.047 0 4.57 2.286 5.714 3.429z"/><path d="M12 11.428c-2.667 0-4.572-2.285-5.715-3.428C7.428 6.857 9.333 4.571 12 4.571v6.857z" fill="#2B3541"/><g fill="#FFF"><path d="M8 7.2h3v.575H8zM8 8.2h3v.575H8z"/></g><g fill="#2B3541"><path d="M13 7.2h3v.575h-3zM13 8.2h3v.575h-3z"/></g><circle fill="#7C77B9" cx="3" cy="9" r="1"/><circle fill="#7C77B9" cx="10" cy="7" r="1"/><circle fill="#7C77B9" cx="21" cy="9" r="1"/></g></svg>