<svg width="24" height="16" viewBox="0 0 24 16" xmlns="http://www.w3.org/2000/svg" xmlns:xlink="http://www.w3.org/1999/xlink"><title>flag-fk</title><defs><path id="d" d="M0 0h24v16H0z"/><path id="e" d="M0 0h12v8H0z"/><path id="a" d="M0 .5L11.5 8h.5v-.5L.5 0H0z"/><mask id="g" x="-.5" y="-.5" width="13" height="9"><path fill="#fff" d="M-.5-.5h13v9h-13z"/><use xlink:href="#a"/></mask><path id="b" d="M0 .5L11.5 8h.5v-.5L.5 0H0z"/><mask id="h" x="-.5" y="-.5" width="13" height="9"><path fill="#fff" d="M-.5-.5h13v9h-13z"/><use xlink:href="#b"/></mask><path d="M6.857 3.265V0h-1.47v3.265H-.124v1.47h5.513V8h1.47V4.735h5.267v-1.47H6.857z" id="c"/><mask id="i" x="-.5" y="-.5" width="13.25" height="9"><path fill="#fff" d="M-.625-.5h13.25v9H-.625z"/><use xlink:href="#c"/></mask></defs><g fill="none" fill-rule="evenodd"><use fill="#006DA0" xlink:href="#d"/><mask id="f" fill="#fff"><use xlink:href="#e"/></mask><use fill="#006DA0" xlink:href="#e"/><g mask="url(#f)"><g transform="matrix(1 0 0 -1 0 8)"><use fill="#E8525D" xlink:href="#a"/><use stroke="#FFF" mask="url(#g)" stroke-linecap="round" stroke-linejoin="round" xlink:href="#a"/></g><use fill="#E8525D" xlink:href="#b"/><use stroke="#FFF" mask="url(#h)" stroke-linecap="round" stroke-linejoin="round" xlink:href="#b"/></g><g mask="url(#f)"><use fill="#C7152A" xlink:href="#c"/><use stroke="#FFF" mask="url(#i)" xlink:href="#c"/></g><path d="M6.857 3.265V0h-1.47v3.265H-.124v1.47h5.513V8h1.47V4.735h5.267v-1.47H6.857z" fill="#E84550" mask="url(#f)"/><g><path d="M15.98 10.587s.134.125.144.105c.01-.021.052-.105.021-.105-.031 0-.165.01-.165 0zm3.845 0l.01.136s.197-.115.166-.115-.155-.02-.176-.02zm-3.752-.865c-.02.01-.258-.042-.34.073-.083.114-.145.386-.227.48-.083.093-.248.218-.279.27-.03.053.01.147.01.147s-.082 0-.154.104-.072.281-.02.344c.051.063.288.688.391.761.103.073.423.084.578.01.154-.072.35-.208.36-.208.01 0 .742.258 1.619.271.845.014 1.608-.26 1.608-.26s.454.27.66.25c.206-.021.35-.084.35-.157s.372-.74.351-.834c-.02-.094-.052-.219-.124-.24-.072-.02-.093-.02-.093-.02s.01-.147-.051-.199c-.062-.052-.124-.083-.124-.083s-.227-.626-.35-.657a8.26 8.26 0 0 0-.3-.073c-.01 0-.845.824-.834.824.01 0 .02.23.04.302.022.073.063.167.052.167-.01 0-.773.23-1.216.188-.443-.042-1.175-.157-1.175-.157s.103-.427.051-.563c-.051-.135-.814-.709-.783-.74z" fill="#E39C75"/><path d="M18.029 11.126s-2.489-.71-2.474-3.409l.019-3.568h4.91l.019 3.548c.014 2.699-2.474 3.429-2.474 3.429z" fill="#77DAE0"/><path d="M15.915 4.957c.005 0 .035-.027.062-.052.039-.019.075-.045.114-.062.029-.017.087-.03.113-.042a.277.277 0 0 0 .093-.073c.003-.047.01-.08.01-.136.041-.019.078-.037.114-.052.051-.014.062-.034.113-.042.033-.01.087-.01.134-.01.051 0 .084.035.13.044.054.02.08.036.124.073.024.03.04.054.081.077.034.016.065.041.103.052.043.024.08.038.114.073.03.02.043.052.072.073a.8.8 0 0 0 .103.073.23.23 0 0 0 .16.044c.038-.002.078-.006.123.002.05 0 .1 0 .145.01.052 0 .095.007.144.01.046.01.093.011.144.011.045.012.094.01.145.01h.288c.053 0 .106.003.145.011.052 0 .096-.005.144-.01.056 0 .099-.01.155-.01h.175c.045.011.102.02.134.041.041.011.062.03.103.042.032.015.08.04.103.073.03.03.06.071.083.114.028.04.04.086.061.136.012.048.02.093.021.146.011.045.01.095.01.146-.011.048-.014.1-.03.146-.002.05-.013.097-.021.136-.01.042-.02.07-.02.125v.146c-.004.048-.015.083-.021.135a1.514 1.514 0 0 0-.073.157.322.322 0 0 0-.082.083c-.022.013-.035.033-.031.042.041.014.03.041.03.094.006.04.01.09.022.135.003.05.014.08.03.115.017.02.02.01-.02.01-.03.023-.06.011-.072-.03-.024-.029-.032-.063-.042-.116a.354.354 0 0 0-.03-.125c-.006-.059-.022-.058-.083-.062-.029-.025-.067-.032-.124-.032-.056 0-.06-.005-.062.053v.146c-.01.042-.03.076-.04.114-.031.022-.047.059-.083.084-.017.047-.042.055-.093.062-.018-.021-.047-.05-.062-.073.029-.047.054-.054.072-.104l.052-.104c-.022-.033-.042-.048-.062-.094a.56.56 0 0 1-.052-.115c-.033-.011-.087-.013-.113-.031-.05-.011-.064.042-.124.042H18.4c-.064 0-.08.034-.134.03-.016.006-.055-.001-.113 0-.044.015-.095.011-.145.011-.052 0-.095-.012-.134-.02-.047-.013-.094-.026-.144-.032-.06 0-.083.005-.124.031-.032.019-.079.061-.113.084-.015.034-.022.093-.041.135-.011.041-.03.067-.042.105a.387.387 0 0 0-.03.125c-.004.07-.02.061-.062.042-.018-.03-.046-.062-.062-.094.01-.053.02-.08.02-.136-.01-.04-.033-.04-.062-.01 0 .054.003.096-.02.125a.13.13 0 0 1-.062.083c-.015.039-.05.057-.082.073-.006-.002 0-.014 0-.041-.025-.048-.002-.088-.002-.146 0-.053-.003-.088.013-.136 0-.05-.024-.099-.032-.136-.02-.038-.03-.058-.083-.073-.036-.014-.09-.033-.113-.062a.212.212 0 0 0-.093-.073c-.047-.017-.07-.032-.103-.052-.032-.034-.058-.05-.072-.094-.022-.032-.025-.092-.041-.136a.455.455 0 0 0-.031-.125.511.511 0 0 0-.031-.125c-.006-.043-.019-.088-.031-.136 0-.05 0-.1-.01-.146v-.146c-.008-.042-.01-.103-.021-.135a.306.306 0 0 0-.02-.125c-.024-.037-.026-.054-.062-.063-.027.033-.07.046-.124.052-.038-.008-.091-.013-.134-.031-.042-.01-.07-.026-.103-.042a.928.928 0 0 0-.062-.083c-.007-.055-.019-.083-.02-.136 0-.04 0-.018.04-.073zM15.593 7.697c.35 0 .468-.355.818-.355.351 0 .468.355.819.355.35 0 .467-.355.818-.355.35 0 .552.324.86.34.309.015.543-.34.893-.34.351 0 .618.363.718.359l.01.029s-.026.44-.026.676c-.187-.007-.468-.355-.702-.355-.304 0-.467.355-.818.355-.271 0-.701-.355-.935-.355-.24 0-.584.355-.818.355-.234 0-.585-.355-.819-.355-.233 0-.756.333-.818.355v-.71zM15.754 9.136c.019-.01.307.57.307.57s.11-.073.35-.118c.24-.044.49.255.771.305.282.05.626-.305.866-.305.234 0 .552.373.86.305.309-.068.43-.45.72-.437.29.014.407.132.407.132l.35-.473s-.35-.321-.642-.338c-.292-.016-.41.338-.76.338-.467 0-.586-.354-.935-.354-.35 0-.468.354-.818.354-.351 0-.558-.36-.805-.357-.247.003-.662.398-.671.378zM17.113 10.653c.467 0 .591-.343.935-.355.344-.012.468.355.935.355.201-.026-.818.473-.935.473-.117 0-.935-.444-.935-.473z" fill="#FFF"/><path d="M18.067 11.244s-2.605-.71-2.59-3.409V4.031h5.104l.039 3.784c.014 2.699-2.553 3.429-2.553 3.429zm-2.493-3.527l.02-3.568h4.909l.019 3.548c.014 2.699-2.474 3.429-2.474 3.429s-2.488-.71-2.474-3.409z" fill="#FFF"/></g></g></svg>