<svg width="24" height="16" viewBox="0 0 24 16" xmlns="http://www.w3.org/2000/svg" xmlns:xlink="http://www.w3.org/1999/xlink"><title>flag-tc</title><defs><path id="d" d="M0 0h24v16H0z"/><path id="f" d="M0 0h12v8H0z"/><path id="a" d="M0 .5L11.5 8h.5v-.5L.5 0H0z"/><mask id="h" x="-.5" y="-.5" width="13" height="9"><path fill="#fff" d="M-.5-.5h13v9h-13z"/><use xlink:href="#a"/></mask><path id="b" d="M0 .5L11.5 8h.5v-.5L.5 0H0z"/><mask id="i" x="-.5" y="-.5" width="13" height="9"><path fill="#fff" d="M-.5-.5h13v9h-13z"/><use xlink:href="#b"/></mask><path d="M6.857 3.265V0h-1.47v3.265H-.124v1.47h5.513V8h1.47V4.735h5.267v-1.47H6.857z" id="c"/><mask id="j" x="-.5" y="-.5" width="13.25" height="9"><path fill="#fff" d="M-.625-.5h13.25v9H-.625z"/><use xlink:href="#c"/></mask></defs><g fill="none" fill-rule="evenodd"><mask id="e" fill="#fff"><use xlink:href="#d"/></mask><use fill="#006DA0" xlink:href="#d"/><g mask="url(#e)"><mask id="g" fill="#fff"><use xlink:href="#f"/></mask><use fill="#006DA0" xlink:href="#f"/><g mask="url(#g)"><g transform="matrix(1 0 0 -1 0 8)"><use fill="#E8525D" xlink:href="#a"/><use stroke="#FFF" mask="url(#h)" stroke-linecap="round" stroke-linejoin="round" xlink:href="#a"/></g><use fill="#E8525D" xlink:href="#b"/><use stroke="#FFF" mask="url(#i)" stroke-linecap="round" stroke-linejoin="round" xlink:href="#b"/></g><g mask="url(#g)"><use fill="#C7152A" xlink:href="#c"/><use stroke="#FFF" mask="url(#j)" xlink:href="#c"/></g><path d="M6.857 3.265V0h-1.47v3.265H-.124v1.47h5.513V8h1.47V4.735h5.267v-1.47H6.857z" fill="#E84550" mask="url(#g)"/></g><g transform="translate(14 5)" mask="url(#e)"><path d="M7.898.036v3.086c0 2.535-.996 4.854-3.948 6.264C.997 7.976 0 5.656 0 3.122V.036h7.897z" fill="#FFF"/><path d="M7.632.35v2.88c0 2.363-.928 4.527-3.682 5.842C1.195 7.757.267 5.592.267 3.229V.35h7.365z" fill="#EDED4A"/><path d="M2.235 1.612a.315.315 0 0 0-.191-.066c.017-.196-.125-.28-.227-.316-.102-.035-.138-.075-.155-.155-.018-.08-.071-.13-.165-.156C1.404.892 1.324.8 1.29.755c-.036-.045-.05-.036-.076.04-.027.075-.133.217-.036.222-.07.058-.11.124-.066.213-.05.04-.085.098-.018.12.067.022.084.04.089.058-.06 0-.076.12.066.146-.03.005-.044.103.014.103-.08 0-.147.12-.249.12-.102 0-.155.022-.16.066-.004.045-.058.098-.084.12.075.009.124 0 .164-.031.04-.031.107-.04.151-.004a.279.279 0 0 0 .182.044c-.097.067-.168.156-.177.24-.01.084-.067.182-.134.209a.354.354 0 0 0-.186.182c.084.209.204.26.324.315.213.098.346.17.435.267.09.098.125.027.258.195.133.17.258.49.39.542.134.054.303.018.4-.15.099-.17.16-1.876-.341-2.16z" fill="#FF9E3D"/><path d="M2.461.901c-.124.134-.284.267-.257.507.026.24.053.63-.17.764-.221.133-.328.47-.061.666.266.196.275.436.32.658.044.222.16.4.337.249.178.026.276-.045.276-.187 0-.142.008-.222.142-.266.133-.045.168-.09.23-.21.063-.12.098-.173.063-.244a.556.556 0 0 1-.022-.324c.026-.107-.036-.164-.071-.231a.287.287 0 0 1-.032-.213c.018-.09-.026-.147-.088-.191-.063-.045-.09-.09-.076-.16.013-.071-.044-.116-.111-.17a.282.282 0 0 1-.115-.23c0-.107-.205-.356-.365-.418z" fill="#FF927F"/><path d="M4.62 4.769c.05.073-.002.152.083.183.1.037.013.169.13.215.105.041.001.167.114.223.101.05-.017.169.118.236.135.067-.025.22.076.278.101.059-.034.21.084.27.118.059-.05.176.06.26.109.085-.026.211.083.287.11.076-.067.177.043.287.084.084-.03.166.033.294.042.085-.042.422-.278.388-.084.143-.412.27-.53.227-.118.084-.497.202-.691.017-.194.185-.573.067-.69-.017-.119.042-.447-.084-.531-.227-.236.034-.32-.303-.278-.388.064-.128-.05-.21.033-.294.11-.11-.067-.211.043-.287.109-.076-.026-.202.084-.286.11-.085-.06-.202.059-.261.118-.06-.017-.211.084-.27.101-.059-.059-.21.076-.278.135-.067.017-.185.118-.236.113-.056.009-.182.113-.223.118-.046.031-.178.131-.215.087-.032.031-.113.086-.187.25.099 1.027.17 1.347.004z" fill="#287E6E"/><path d="M3.315 4.687c.018-.813.166-1.1.63-1.1.464 0 .612.287.63 1.1.021.004.04.017.052.043.06.117.05.209-.122.313a1.15 1.15 0 0 1-.56.143 1.15 1.15 0 0 1-.56-.143c-.173-.104-.182-.196-.122-.313.013-.026.03-.04.052-.043z" fill="#EF072D"/><path d="M6.886 4.799c-.132-.31-.17-.852-.17-.942 0-.253.08-1.482.085-1.974.006-.492-.298-.762-.595-.762-.256 0-.426.18-.426.448h.128c0-.18.128-.314.298-.314.255 0 .451.212.468.628.018.481-.052 1.73-.043 2.064.009.334.123.632.255.852z" fill="#B95A1E"/><rect fill="#936A36" x="5.25" y="1.5" width="1" height="3" rx=".5"/><path d="M4.674 4.799c.132-.31.17-.852.17-.942 0-.253-.079-1.482-.085-1.974-.006-.492.298-.762.596-.762.255 0 .425.18.425.448h-.128c0-.18-.127-.314-.297-.314-.256 0-.452.212-.468.628-.019.481.05 1.73.042 2.064a1.767 1.767 0 0 1-.255.852z" fill="#B95A1E"/></g></g></svg>