<svg width="24" height="16" viewBox="0 0 24 16" xmlns="http://www.w3.org/2000/svg"><title>flag-bz</title><g fill="none" fill-rule="evenodd"><path fill="#E84550" d="M0 0h24v16H0z"/><path fill="#006DA0" d="M0 1.143h24v13.714H0z"/><g transform="translate(6 2)"><ellipse fill="#FFF" cx="6" cy="6" rx="5.388" ry="5.388"/><g transform="translate(1.063 1.063)"><circle stroke="#552300" stroke-width=".1" cx="4.937" cy="4.91" r="4.466"/><g fill="#287E6E"><path d="M4.421.171c.404-.433.77.067.76.302-.01.234-.418.752-.786.336.382.097.496-.33.689-.334-.193.004-.272-.418-.663-.304zM.217 3.569c-.212-.551.402-.654.61-.542.207.113.494.705-.046.848.258-.296-.077-.587.004-.76-.081.173-.498.056-.568.454zM9.279 3.024c.553.217.215.736-.01.811-.223.076-.856-.113-.599-.605.047.389.49.34.563.517-.074-.177.295-.403.046-.723zM2.046 8.863c-.592-.059-.41-.65-.215-.783.194-.134.856-.123.743.42-.151-.361-.564-.194-.683-.345.12.15-.173.468.155.708zM8.027 8.436c.008.59-.604.477-.76.3-.156-.176-.22-.83.336-.78-.344.19-.13.578-.268.713.137-.135.488.117.692-.233zM.648 2.448c-.054-.588.566-.522.735-.358.169.164.283.81-.275.804.329-.216.085-.586.212-.731-.127.145-.496-.08-.672.285zM1.283 7.962c-.587-.098-.365-.675-.161-.796.203-.12.862-.065.713.47-.127-.371-.55-.233-.659-.39.11.158-.204.454.107.716zM5.917.195c.532-.262.695.334.602.55-.093.216-.66.556-.855.037.322.226.582-.133.764-.069C6.246.65 6.323.226 5.917.195zM7.05 9.175c-.264.528-.757.15-.814-.077-.058-.228.186-.838.658-.542-.394.013-.382.455-.566.513.184-.058.38.325.722.106zM9.636 4.07c.448.389-.046.765-.283.761-.236-.003-.769-.393-.36-.77-.087.382.346.483.356.675-.01-.192.414-.282.287-.666zM2.123.961c.134-.575.701-.32.81-.112.11.208.015.858-.514.678.38-.103.266-.53.431-.629-.165.099-.445-.23-.727.063zM.364 5.89c-.521-.285-.12-.757.112-.804.232-.048.836.22.518.675.003-.39-.442-.398-.493-.583.051.185-.343.363-.137.712zM7.894 1.33c.589-.085.555.532.399.708-.156.177-.801.325-.824-.23.235.315.595.054.747.172-.152-.118.054-.495-.322-.65zM4.546 9.74c-.543.241-.68-.361-.579-.573.102-.212.682-.529.856-.002-.313-.24-.587.109-.766.037.179.072.084.491.489.538zM9.418 6.448c.245.538-.361.677-.575.577-.214-.1-.536-.674-.006-.849-.24.311.113.581.041.76.072-.179.495-.086.54-.488zM.128 4.716c-.341-.484.229-.732.458-.673.229.06.652.564.164.833.177-.35-.22-.55-.182-.739-.037.189-.47.176-.44.579zM3.336 9.383c-.558.204-.654-.407-.538-.612.116-.204.716-.481.854.056-.296-.26-.593.07-.767-.014.174.083.05.496.451.57zM3.175.41c.33-.49.77-.053.798.18.027.233-.294.808-.724.453.393.038.438-.402.629-.436-.19.034-.335-.371-.703-.197zM8.894 7.615c.036.589-.58.504-.745.335-.164-.17-.258-.82.3-.795-.335.206-.104.583-.234.724.13-.141.492.095.68-.264zM8.743 2.06c.583.116.342.686.135.8-.207.114-.864.038-.698-.491.115.374.542.249.646.41-.104-.161.219-.448-.083-.72zM1.359 1.644c.005-.59.615-.463.766-.283.152.18.2.835-.354.773.349-.183.144-.575.284-.707-.14.132-.485-.128-.696.217zM.622 6.964c-.531-.266-.146-.752.084-.807.23-.055.843.192.54.658-.01-.391-.455-.383-.512-.566.057.183-.33.374-.112.715zM6.994.68c.557-.208.658.402.544.607-.115.206-.712.488-.854-.048.297.257.592-.075.766.007-.174-.082-.055-.495-.456-.566zM5.813 9.674c-.433.406-.762-.118-.737-.35.026-.234.468-.724.807-.284-.374-.123-.517.296-.71.287.193.009.243.436.64.347zM9.605 5.16c.406.432-.124.756-.359.73-.235-.027-.725-.468-.28-.803-.126.371.295.516.285.707.01-.192.44-.239.354-.634z"/></g><g fill="#287E6E"><path d="M.217 3.569c-.212-.551.402-.654.61-.542-.662.039-.628.169-.61.542zM8.67 3.23c.047.389.478.325.552.502-.168-.056-.597-.204-.552-.502zM5.917.195c.532-.262.695.334.602.55-.102-.65-.23-.603-.602-.55zM6.894 8.556c-.394.013-.366.445-.55.503.07-.161.255-.573.55-.503zM4.546 9.74c-.543.241-.68-.361-.579-.573.075.653.204.612.579.573zM9.418 6.448c.245.538-.361.677-.575.577.658-.078.616-.206.575-.577zM.128 4.716c-.341-.484.229-.732.458-.673-.632.197-.567.315-.458.673zM3.336 9.383c-.558.204-.654-.407-.538-.612.03.657.162.625.538.612zM1.246 6.815c-.01-.391-.445-.367-.502-.55.162.07.575.257.502.55zM6.994.68c.557-.208.658.402.544.607C7.502.631 7.37.664 6.994.68zM5.813 9.674c-.433.406-.762-.118-.737-.35.288.59.397.51.737.35zM9.605 5.16c.406.432-.124.756-.359.73.598-.283.517-.391.359-.73z"/></g></g><path d="M5.929 3.72c-.028.022-.031.06-.048.083-.014.022-.056.053-.058.087a.181.181 0 0 0 .005.1c.017.045.087.243.059.394-.03.15-.02.214-.008.237.01.022.044.083.064.083.044-.005.025-.019.042-.047.041-.073 0-.634-.02-.79-.014-.12-.07-.229-.075-.24-.006-.014-.017-.05-.025-.072-.042-.1-.093-.187-.093-.397 0 0-.136.031-.253-.234-.062-.134-.151-.12-.257-.165l.047-.03s.09.044.134.044c.045 0 .031-.09.031-.09l.045-.044v.196c0 .089.122.212.195.248.045.022.103-.07.09-.16-.015-.088 0-.208 0-.208l.06.036s-.022.039-.016.061c.008.023.039-.022.061-.045 0 0 .006.006.028.006l-.067.115c-.022.036-.022.178-.022.231 0 .053.02.176.02.215 0 .028.052.142.094.212l.048.1c.033.054.036.09.056.135.01.022.03.086.044.198.006.028.011.134.02.204.008.067.064.014.131-.034.067-.05.067-.17.067-.17s.053-.045.045-.02c-.006.028.028.056.028.056-.042.095-.017.084.025.081.041-.006.187-.114.187-.114.02-.006.106-.006.092 0-.017.008-.04.05-.04.05l.095-.011c-.033.025-.159.097-.186.114-.031.02-.182.092-.246.117-.064.028-.19.09-.195.154-.003.064.008.237 0 .293l-.028.304h-.299s.059-.218-.003-.276c-.058-.062-.195-.24-.284-.302-.09-.058.058-.014.058-.014V4.35l.137.165s.237-.21 0-.494c-.075-.09-.15-.226-.21-.24-.06-.017-.091-.031-.195 0-.106.03-.36.03-.466-.137l.09-.014.075-.03s-.03.105.181.105c.21 0 .24 0 .224-.195l.06-.03.046.044s-.031.106-.014.15c.014.045.089.076.148.12.025.02.044.023.06.023.026-.003.032-.003.065-.036.05-.056.04-.053.09-.098 0 0 .025-.04.03-.045l.03.081z" fill="#730000"/><path d="M6.188 3.097l.037.022.039.006s.042.039.089.075c.036.03.036-.005.036-.005l.023.089h.03s-.008.059-.008.09l.053-.045.061.053s.045-.04.067-.04c.023 0 .03-.022.03-.022h.004c-.148-.07-.212-.142-.168-.217.073-.126.193-.045.232-.028l.541.29s.037-.022.011-.045c-.028-.022-.039-.078-.03-.1.008-.023.07.07.1.078.03.008.1.02.1.02l-.002-.028s.09.06.09.092c0 0 .063-.034.04-.053-.021-.02.099.047.107.083l.025-.028a.291.291 0 0 1 .04-.13c.027-.043.058-.054.058-.054s.028-.047.055-.047c0 0-.027-.02-.039-.042-.014-.022-.047-.034-.047-.034s.042-.03.053-.044c.011-.017.022-.02.022-.02s-.064-.053-.109-.061c0 0-.002-.073-.058-.078h.025s-.042-.078-.08-.081c0 0 .024-.028.047-.03 0 0-.048-.062-.112-.04l.042-.017s-.03-.033-.126-.016c0 0 .009-.04-.033-.07 0 0-.037.003-.037.03 0 0-.033-.03-.075-.03-.042 0 .014.044.014.044s-.056-.036-.09-.025c0 0 .015-.064-.022-.097 0 0-.041.022-.053.05l-.01-.028s-.057.067-.068.047c-.008-.01-.016-.058-.016-.058l-.034.05.006-.07s-.04.023-.07.095c0 0-.04.036-.04.07 0 0-.03-.036-.058 0-.025.039 0 .03 0 .03s-.01.014-.039.02l.006.022s-.036-.02-.064-.01l.014.033s-.073.005-.076-.053c0 0-.061-.031-.07.003l-.044.027s-.014-.027-.04-.033c-.027-.008-.005.036-.005.036s-.008-.033-.042-.05c-.033-.014-.005.03-.005.03s-.045-.036-.022-.063c0 0-.042.039-.023.075l-.028.02s-.014-.014-.01-.026c.002-.01-.048.034-.048.034s-.031-.073 0-.073c.002 0-.053-.003-.062.062 0 0-.036.002-.07.014-.036.01.026.036.026.036s-.053-.011-.084.005l.02.026s-.02-.02-.068-.003c-.05.014.012.022.012.022s-.05-.011-.076 0c-.025.011.009.03.009.03s-.092-.027-.106-.019c-.014.009.03.053.03.053s-.055.014-.067.056l.05.02s-.022.01-.033.033c-.01.022.034.011.034.011s-.062.045-.062.078c0 0 .045.014.078-.02.034-.033.012-.021.012-.021l.002.022s.065-.028.065-.045c0-.014-.012.023-.012.023l.065-.034.041.028zm-.053-.87l-.014-.062.143.017.025-.059s.067.03.089.053c0 0 .131-.033.17-.02l-.017.062s.12.008.16.022c.036.014-.017.045-.017.045s.137.017.195.053c.062.036.062.067.03.075l.076.12s-.12.014-.142.045c-.022.03-.045-.03-.045-.03l-.022.083s-.075-.04-.106-.067c0 0-.036.045-.014.067l-.137-.09s-.058-.008-.058.045c0 0-.067-.075-.084-.097l-.075.022s-.023-.03-.05-.04c-.031-.005-.009.04-.009.04l-.045-.053-.044-.053s-.04.053-.07.053c-.028 0-.028-.036-.022-.061.008-.023-.09-.028-.098 0 0 0-.028-.112.075-.143l.106-.028zm-.54.382l-.048.044-.028-.014-.056.062-.011-.034-.031.05-.047-.016-.023.036-.042-.008s-.036.033-.058.042c-.022.005 0-.05 0-.05s-.034.055-.059.055c-.022 0-.014-.025-.014-.025s-.014.036-.042.042c-.025.003-.013-.028-.013-.028l-.045.033v-.027l-.02-.009s.011-.05.031-.061c.02-.011-.02-.045-.02-.045l.02-.022s-.056-.014-.056-.003c0 0 .028-.075.067-.09l.003-.083s.039-.033.075-.036c.04-.006-.01-.064-.01-.064l.088-.053.012-.065.136.012.028-.06.11.029.091-.048.067.079.1.008-.002.09s.12.035.134.047c0 0-.023.072-.023.086 0 0 .084-.022.11-.017l.01.098s.143.045.151.07c0 0-.03.02-.047.045 0 0 .016.086.016.114l-.01.017s-.043-.04-.076-.045l-.028.061-.05-.033-.031.003s-.025-.03-.045-.03l-.003-.029-.039.025s-.061-.03-.061-.05c0-.017.003-.045.003-.045l-.064.045s-.014-.033-.011-.047c.002-.014-.026.033-.026.033s-.033-.059-.03-.07l-.009.048s-.067-.023-.075-.067zm-.894.273s.117.059.117.087c0 0 .03-.062.014-.084l.045.03s.014-.055-.003-.072c-.014-.014.1-.061.126.014 0 0 .07-.072-.065-.134 0 0-.01-.044.07-.033 0 0-.005-.028-.025-.04h.078s-.047-.038-.117-.05c-.067-.01-.025-.02-.028-.033-.006-.014 0-.064 0-.064s-.039-.014-.07.002l.011-.014s-.072-.019-.1-.002c0 0-.042-.017-.036-.062 0 0-.042-.002-.062.042 0 0-.039.045-.092.045a.22.22 0 0 1-.05-.023l-.033.079-.053-.003.016.03s-.08-.022-.106 0c0 0 .03.048.023.081 0 0-.065.012-.079.023-.016.01.023.02.023.02s-.073.022-.09.044l.028.022-.033.045.028.005s-.048.014-.073.023c-.025.008.045.014.045.014l-.034.03.053.009s-.041.111-.044.164c0 0 .064-.078.08-.083l-.05.083s.095-.03.104-.044a.515.515 0 0 1 .016-.03l.003.047s.037-.05.042-.07c.003-.02.059.02.059.02V2.97s.05.017.067.02c.02.003.022-.008.022-.008l.047-.006-.008.039s.033-.022.042-.045c.005-.022.022 0 .022 0l.022-.089h.048zm-.382.397l.044.092c-.036.002-.089.044-.089.044.008.154-.03.145-.03.145.01.028-.008.08-.008.08l.222-.133.003-.014.262-.122.009.013.075-.041.053.14-.053.03a.392.392 0 0 0 .059.131l.07-.017.075-.028s.003.042.003.028c0-.01.08-.039.08-.039l.037.037c.028-.003.078-.07.078-.07l.058.022s.02-.033.02-.058c0-.023.072-.023.072-.023l.05.036.065-.052s.02.039.045.044c.028.003.097.056.097.045 0-.011.031-.073.031-.073l.117.048c-.017-.053-.056-.118-.056-.118s.056-.044.045-.055c-.011-.011-.045 0-.045 0l.034-.067h-.045l.014-.017-.072-.03.039-.079c-.017-.02-.21-.058-.21-.058l.045-.042s-.022-.034-.045-.034c-.022 0-.14.003-.145-.008a.314.314 0 0 0-.05-.053l-.073.053-.036-.011-.064.025s0 .036-.008.011a.457.457 0 0 0-.067-.08c-.012.019-.087.108-.087.108s-.011.047-.036.014c-.028-.034-.087-.07-.095-.042-.008.03-.061.059-.073.05-.01-.008-.072-.003-.078.014-.003.02-.07.07-.07.07-.041-.02-.108-.008-.108-.008s-.02.03-.023.055l-.136.037zm1.261 1.13V4.35l.067.045.04-.045.05.05.03-.05v.081l.075-.067.045.02V4.32s.053-.09.03-.106l.045-.014s-.075-.076-.097-.09c-.023-.016-.053-.016-.053-.016s-.059-.06-.098-.076c-.036-.014-.059.017-.059.017s-.022-.045-.061-.053c-.036-.008-.036.03-.036.03s-.028-.027-.064-.041c-.037-.017-.012.033-.012.033l-.128-.039.017.04-.12-.031.014.044-.084-.014-.006.037-.12.022.023.039-.076-.03v.052l-.083.03.03.029s-.111.053-.134.07c-.022.014.045.044.045.044l-.12-.017.045.04-.106.097.075.053-.045.067.112.023.045.075.092-.017v.084l.134-.106s.097.086.106.061c.005-.022.005-.097.005-.097h.048v-.076l.036.03.061-.088.081.111.062-.142.089.014zm.547-.338l-.014-.128-.039.039.017-.12-.062-.011.023-.117-.045-.023.011-.056.045-.033.08-.078.188.003.022-.062.134.023c.022.025.092-.05.092-.05h.028l.03.058s.098-.014.143.017l-.053.072.098.008.066.015.07-.023.09-.005.022.036h.084l-.028.033.108.05-.022.023s.062.022.106.022h.023s.022.053-.009.075c0 0 .03.076.098.09.067.014.067.014.075.03.009.014 0 .09-.075.09v.075s-.059.053-.067.076l-.045-.031s-.039.045-.039.075c0 0-.098-.128-.134-.134-.039-.008-.03.073-.03.073l-.107-.09-.014.062-.089-.075-.053.036-.095-.098-.092.011.036-.047h-.111l-.022-.098-.017.081-.067-.045-.087.095s-.01-.01-.025-.056c-.014-.044-.053.053-.053.053l-.03-.07-.037.07s-.03-.053-.061-.07c-.028-.013-.059.084-.067.13zm.017.293l.005-.044.16-.062.133-.05.067-.03.03.052.04-.075.061.078.034-.042.053.04h.045l.008.058s.112.008.12-.014c.008-.022.022.075.022.075l.106.014.022.12s.053.112.037.157c-.014.047-.059-.06-.059-.06s-.008.085-.017.107c-.005.022-.142-.022-.142-.022l-.059.111s-.06-.089-.089-.089c-.03 0-.03.09-.03.09s-.09-.107-.129-.151c-.036-.045-.045.044-.045.044s-.058-.098-.058-.125c0-.031-.053-.062-.053-.062s-.092.106-.16.134c0 0 .01-.067-.013-.09-.023-.021-.09.045-.09.045s-.047-.103 0-.209z" fill="#328979"/><path d="M4.946 7.66a1.995 1.995 0 0 1-.17-.37l1.209-1.064 1.208 1.06a1.846 1.846 0 0 1-.176.38l-.01.015-.09-.035s-.04.037-.07.04c-.042.005-.078-.037-.078-.037s-.053.045-.106.036c-.053-.005-.076-.039-.076-.039s-.055.045-.095.037c-.036-.009-.06-.034-.06-.034s-.034.042-.082.034c-.044-.009-.086-.034-.086-.034s-.07.03-.115.036c-.044.009-.083-.039-.083-.039s-.059.04-.081.04c-.023 0-.106-.04-.106-.04s-.087.028-.118.028a.555.555 0 0 1-.114-.036s-.08.022-.117.022c-.04 0-.095-.022-.095-.022s-.067.03-.103.022c-.04-.008-.07-.022-.07-.022s-.073.03-.12.022c-.045-.008-.098-.039-.098-.039s-.008.023-.095.04h-.002" fill="#77DAE0"/><path d="M5.985 5.003v1.223L4.776 7.295a2.405 2.405 0 0 1-.125-.776V5.003h1.334" stroke="#000" stroke-width=".1" fill="#FFF"/><path d="M5.985 5.003v1.223L7.19 7.295c.117-.34.126-.645.126-.776V5.003H5.985" stroke="#000" stroke-width=".1" fill="#FFD83C"/><path d="M5.231 7.863s-.008.019-.08.035l-.02.004.018-.003a.338.338 0 0 1-.02.006c.082.12.205.227.333.314.129.086.276.19.528.263.264-.103.335-.142.507-.258.173-.126.263-.204.36-.334-.076.043-.065.043-.104.038-.04-.009-.068-.037-.068-.037s-.036.042-.083.037a.26.26 0 0 1-.09-.037s-.061.042-.123.04c-.047-.004-.086-.045-.086-.045s-.11.036-.132.036c-.025 0-.102-.036-.102-.036s-.054.033-.084.033c-.034 0-.123-.04-.123-.04s-.084.023-.123.023a.356.356 0 0 1-.097-.022s-.07.03-.112.022c-.039-.008-.07-.022-.07-.022s-.078.03-.125.022c-.048-.008-.104-.039-.104-.039z" fill="#5AC800"/><g><path d="M3.057 7.811c.042.02 0-.137.014-.195.017-.062.137.15.196.178.061.031.435-.148.435-.148l.09-.167.047.137s.103-.12.134-.165c.03-.045 0 .09-.031.134-.03.045.09.061.075.15-.014.09.12-.06.12-.06l.346.03s.059-.21.151-.33l.028.135.142-.145c.16.418.494.873 1.18 1.122.645-.235.977-.65 1.15-1.047l.193.198s.15-.045.178-.061c.031-.014.355.114.355.114s.058.023.09.045c.03.022.007-.098.007-.098s.165.03.151.12c0 0 .036-.083.067-.097.03-.014.103.075.12.106.014.028.368.072.419.103 0 0 .039.045.039.075 0 0 .075-.008.134-.008 0 0-.045.022-.045.07a.11.11 0 0 1-.067.103c-.045.022 0 .039.059.045.061.008 0 .083-.12.128 0 0-.028.067.022.09 0 0-.103.008-.12-.023 0 0-.036.07-.036.106 0 0-.112-.036-.143-.053 0 0-.044.045-.013.067 0 0-.204-.022-.243-.098 0 0-.073.023-.059.048 0 0-.142-.098-.187-.098l-.03.05s-.098-.058-.129-.058c-.028 0-.005.044-.005.044l-.137-.083-.053.083s-.112-.053-.142-.075c-.028-.022-.037.045-.06.053 0 0-.044-.061-.105-.053 0 0-.022.075-.014.098 0 0-.173-.037-.204-.045-.03-.008-.014.036 0 .067 0 0-.128-.036-.156-.059l-.008.059s-.106-.008-.129-.03l-.067.091H6.6l-.023.081s-.187-.053-.203-.022c-.014.03.008.075.008.075l-.165-.022-.013.067s-.19-.059-.235-.03c0 0-.059.06-.098.074-.036.017 0-.022 0-.022l-.058-.08s-.067.036-.106.022c-.036-.017-.156.058-.196.036 0 0 0-.053-.03-.067-.028-.014-.081-.014-.104.022 0 0-.022-.03-.06-.09-.037-.06-.09.006-.09.006l-.009-.072-.103-.009c-.061-.008-.075-.061-.075-.061s-.16.017-.182.008l.04-.036s-.218.045-.263.028c-.047-.014.05-.075.05-.075l-.24-.059c-.036-.008-.254.036-.284.036-.03 0-.045-.05-.045-.05s-.053.045-.098.059c0 0-.036-.09-.013-.098 0 0-.143.04-.151.075 0 0-.036-.058-.03-.083 0 0-.068.106-.099.128-.03.022-.005-.053-.005-.053s-.084.106-.115.114v-.075s-.24.129-.307.112c0 0 0-.053.023-.067l-.15-.009c-.037-.005-.082-.022-.12-.03-.037-.006.052-.045.114-.028 0 0-.168-.062-.218-.03 0 0-.022-.062.067-.085 0 0-.115-.111-.182-.103 0 0 .076-.045.137-.022 0 0-.07-.19-.114-.212 0 0 .159-.028.203-.006z" fill="#287E6E"/><path d="M2.826 4.537l2.031-1.052c.01-.054-.021-.097-.053-.14-.58.285-1.11.631-1.755.84-.036.015-.357.148-.522.347-.052.052-.056.13-.056.13s.004.088.023.112c0 0 .005.024.035.044 0 0 .019.009.032.004.015.003.039.003.072-.056.034-.056.142-.184.193-.229z" fill="#730000"/><path d="M4.461 3.496l.262-.125s.09.067.081.142c0 0 .02.173.235.293 0 0-.182.226-.5.246 0 0 .037-.299-.03-.385 0 0-.011.01-.007-.004.01-.03-.006-.129-.047-.15-.005-.004.003-.012.006-.017z" fill="#2F4662"/><path d="M6.637 3.38l.746.365c.15.073.203.005.288.042l1.473.75c.126.055.197.073.178.139-.003.103.05.105.064.106.01.003.06-.005.08-.032a.154.154 0 0 0 .017-.02c.017-.017.014-.018.019-.026.062-.089.096-.166.031-.216-.074-.035-.083.044-.16.035 0 0-.14-.053-.19-.089-.093-.05-.222-.11-.251-.143-.094-.018-.802-.416-1.203-.615-.043-.036-.067-.17-.151-.214-.025-.036-.568-.284-.852-.426-.104-.039-.163-.066-.238.063-.066.126-.05.194.149.28z" fill="#B34B00"/><g stroke="#000" stroke-width=".1"><path d="M4.21 3.672c-.006.017-.02.005-.02.011-.01.059-.008.09-.022.123-.02.039-.09.075-.087.072-.055.017-.122.084-.231.023-.006-.003-.011-.009-.017-.014 0 0 .03.114-.08.17l-.433.226s-.042.075-.014.179c.003.016.008.03-.009.041a.351.351 0 0 0-.1.165s-.084-.036-.084-.09c0-.052.034-.08.042-.12.008-.035.03-.128.02-.155-.012-.031-.062-.042-.081-.054-.017-.01-.04.012-.037.037.003.028.023.022.045.028 0 0-.025.053-.022.092l-.254.13s.033.046.044.065c.012.02.037.28.112.402.075.123.1.09.117.106.014.014.036.036.056.053.02.014.106.022.123-.025a.244.244 0 0 1 .086-.115c.053-.041.162-.147.162-.195 0 0 .064.184.056.338 0 0 .234.047.444.053.209.003.315-.042.315-.042s.028-.176.017-.21c0 0 .033.115.058.154.028.048.059.145.12.15.059.004.11-.058.115-.083v-.184h.237c0-.003.106.039.14.033.033-.002.052-.033.022-.044l-.012-.009c.031 0 .07.02.07.02h.117c.003-.003 0-.011-.002-.014-.009-.034-.07-.061-.115-.08-.044-.018-.095-.037-.128-.04a.541.541 0 0 0-.17.011c-.023.003-.106.011-.16.036-.013.009-.027.012-.022-.025a.63.63 0 0 0-.036-.29.206.206 0 0 1-.022-.142 2.329 2.329 0 0 0 0-.243c-.009-.045-.07-.106-.182-.12-.106-.014-.195-.1-.2-.17-.009-.07.01-.198.022-.254" fill="#F1D9BF"/><path d="M3.735 3.357a.98.98 0 0 0-.016.254c.003.058.03.125.056.184.016.039.039.084.075.106.098.064.19-.006.243-.028a.176.176 0 0 0 .075-.067c.014-.033.008-.059.022-.123a.072.072 0 0 0 .02-.01c.025-.043.02-.057.033-.085.014-.028-.016-.058-.05-.053a.27.27 0 0 0 .011-.162c-.005-.016.014-.06-.016-.05-.126.05-.274.04-.408.04-.011 0-.02-.023-.036-.02-.003 0-.006.008-.009.014" fill="#F1D9BF"/><path d="M3.41 5.72c.033-.217.136-.399.139-.415 0 0 .106.022.29.039.181.02.231.01.315.005.081-.008.187-.022.187-.022s.034.067.036.134c.009.142.062.76.067.924 0 0 .023.097.023.337 0 .263.072.796.072 1.08l-.072.015s-.397.03-.397-.023c0-.058-.022-.742.037-1.155 0 0-.014-.081-.037-.151-.022-.067-.12-.276-.12-.32 0 0-.156.44-.164.515-.009.07-.031 1.053-.045 1.134 0 0-.226.173-.257.19-.03.013-.248-.093-.254-.12-.008-.031.023-.363.126-.91.039-.196.017-.232.017-.285 0-.053.002-.754.036-.971z" fill="#FFF"/></g><g stroke="#000" stroke-width=".1"><path d="M7.76 3.672c.019-.009.013.017.016.025.008.036.008.075.022.109.017.03.023.042.05.056.045.025.176.097.268.039a.085.085 0 0 0 .02-.014s-.034.114.08.17l.43.226s.042.075.017.179c-.005.016-.01.03.006.041a.35.35 0 0 1 .103.165s.081-.036.081-.09c0-.052-.033-.08-.042-.12-.005-.035-.028-.128-.016-.155.01-.031.058-.042.078-.054.02-.01.041.012.036.037-.003.028-.022.022-.045.028 0 0 .028.053.023.092l.256.13s-.033.046-.044.065c-.014.02-.04.28-.115.402-.075.123-.1.09-.114.106l-.059.053c-.017.014-.103.022-.123-.025a.245.245 0 0 0-.086-.115c-.053-.041-.162-.147-.162-.195 0 0-.064.184-.056.338 0 0-.231.047-.443.053-.21.003-.316-.042-.316-.042s-.028-.176-.017-.21c0 0-.033.115-.055.154-.031.048-.062.145-.12.15-.062.004-.11-.058-.117-.083v-.184h-.238c0-.003-.103.039-.14.034-.033-.003-.05-.034-.021-.045l.01-.009c-.03 0-.069.02-.069.02h-.117l.003-.014c.008-.033.07-.061.117-.08.044-.018.092-.037.125-.04a.544.544 0 0 1 .17.011c.023.003.11.011.16.036.014.009.03.012.022-.025-.008-.039-.034-.153.008-.229a.242.242 0 0 0 .023-.142c-.006-.047-.031-.153-.031-.2 0-.157.12-.221.226-.255.117-.036.195-.075.19-.145-.003-.072.016-.192.005-.248" fill="#593F3F"/><path d="M8.231 3.357c.025.092.03.114.03.145 0 .033-.013.039-.002.075.02.067-.02.14-.067.218-.022.036-.04.084-.075.106-.092.059-.204-.011-.263-.036a.102.102 0 0 1-.055-.059c-.012-.033-.014-.064-.023-.109 0-.008.003-.033-.016-.025-.034-.039-.028-.056-.042-.084-.014-.028.025-.058.056-.053a.27.27 0 0 1-.009-.162c.006-.016-.014-.06.014-.05.126.05.274.04.408.04.01 0 .02-.023.036-.02.002 0 .005.008.008.014" fill="#593F3F"/><path d="M8.558 5.72c-.033-.217-.136-.399-.14-.415 0 0-.105.022-.29.039-.18.02-.23.01-.315.005-.08-.008-.187-.022-.187-.022s-.033.067-.036.134c-.008.142-.061.76-.067.924 0 0-.022.097-.022.337 0 .263-.073.796-.073 1.08l.073.015s.396.03.396-.023c0-.058.023-.742-.036-1.155 0 0 .014-.081.036-.151.023-.067.12-.276.12-.32 0 0 .156.44.165.515.008.07.03 1.053.044 1.134 0 0 .227.173.257.19.03.013.249-.093.254-.12.009-.031-.022-.363-.125-.91-.04-.196-.017-.232-.017-.285 0-.053-.003-.754-.036-.971z" fill="#FFF"/></g></g><g stroke-width=".1" stroke="#000"><path d="M5.985 9.483c.628.005.999-.223 1.202-.36.478-.321.578-.332.656-.327.09.009.22.04.226.118.009.12-.187.173-.298.173-.115 0-.413-.076-.413-.076l-.079.053c.053.025.665.23.782.037.12-.196.24-.511.24-.511s-.134-.24-.433-.24c-.301 0-.594.19-.79.332-.195.142-.44.338-1.093.338s-.902-.196-1.097-.338C4.693 8.54 4.4 8.35 4.1 8.35c-.301 0-.435.24-.435.24s.12.315.24.51c.117.193.728-.01.781-.036l-.075-.053s-.302.076-.413.076c-.115 0-.31-.053-.302-.173.006-.079.137-.11.226-.118.078-.005.179.006.656.327.204.137.575.357 1.206.36z"/><path d="M4.974 8.743s0-.053-.008-.131c-.011-.1-.07-.126-.117-.112-.03.011-.092.087-.092.087v.003a.91.91 0 0 0-.087-.053.564.564 0 0 1 .182-.104c.028 0 .413.157.535.263.031.028.053.2.037.256a1.33 1.33 0 0 1-.45-.206M6.992 8.743s.003-.053.011-.131c.011-.1.067-.126.115-.112.03.011.092.087.092.087v.003a.91.91 0 0 1 .086-.053.582.582 0 0 0-.178-.104c-.031 0-.416.157-.539.263-.028.028-.05.2-.036.256.21-.053.34-.13.45-.206"/></g><path d="M7.316 5.003V6.52c0 .301-.042 1.501-1.331 1.967C4.693 8.02 4.65 6.82 4.65 6.52V5.003h2.665" stroke="#000" stroke-width=".1"/></g></g></svg>