<svg width="24" height="16" viewBox="0 0 24 16" xmlns="http://www.w3.org/2000/svg" xmlns:xlink="http://www.w3.org/1999/xlink"><title>flag-jo</title><defs><path id="b" d="M0 0h24v16H0z"/><path id="a" d="M0 0h24v16H0z"/><mask id="d" x="0" y="0" width="24" height="16" fill="#fff"><use xlink:href="#a"/></mask></defs><g fill="none" fill-rule="evenodd"><mask id="c" fill="#fff"><use xlink:href="#b"/></mask><use fill="#299D56" xlink:href="#b"/><path fill="#FFF" mask="url(#c)" d="M0 0h24v16H0z"/><path fill="#287E6E" mask="url(#c)" d="M0 12h24v4H0z"/><path fill="#2B3541" mask="url(#c)" d="M0 0h24v4H0z"/><path fill="#E84550" mask="url(#c)" d="M0 .143v16l18-8z"/><path fill="#FFF" mask="url(#c)" d="M5.584 5.776l.445 1.156 1.159-.364-.604 1.078 1 .702-1.198.188.088 1.24-.89-.844-.89.844.088-1.24-1.198-.188 1-.702-.604-1.078 1.159.364z"/><use mask="url(#d)" xlink:href="#a" stroke-opacity=".2" stroke="#2B3541" stroke-width=".2"/></g></svg>