<svg width="24" height="16" viewBox="0 0 24 16" xmlns="http://www.w3.org/2000/svg" xmlns:xlink="http://www.w3.org/1999/xlink"><title>flag-mz</title><defs><path id="a" d="M0 0h24v16H0z"/></defs><g fill="none" fill-rule="evenodd"><mask id="b" fill="#fff"><use xlink:href="#a"/></mask><use fill="#2B3541" xlink:href="#a"/><path fill="#EDED4A" mask="url(#b)" d="M0 12h24v4H0z"/><path fill="#287E6E" mask="url(#b)" d="M0 0h24v4H0z"/><path fill="#FFF" mask="url(#b)" d="M0 4h24v2H0zM0 10h24v2H0z"/><path fill="#E84550" mask="url(#b)" d="M0 16l14-8L0 0z"/><g mask="url(#b)"><path fill="#EDED4A" d="M5.769 10.375l-1.707-1.25-1.705 1.25.661-2.01-1.715-1.234 2.115.007.644-2.013.647 2.014 2.114-.009-1.717 1.237z"/><path d="M2.58 8.973h1.23c.099.111.32.157.53-.001.385-.211 1.13.001 1.13.001l.148-.156-.358-1.174-.129-.138s-.275-.165-.798-.11c-.523.055-.707-.018-.707-.018s-.458.055-.587.119c-.014.011-.147.147-.147.147l-.312 1.33z" stroke="#313D49" stroke-width=".1" fill="#FFF"/><path d="M2.828 8.675s1.175-.165 1.514.341c-.192.148-.36.16-.541.01.029-.053.422-.516 1.422-.361" stroke="#313D49" stroke-width=".1"/><path d="M4.107 7.496L4.076 8.79m1.055-1.276l.22 1.028m-2.3-1.044l-.122.53" stroke="#313D49" stroke-width=".1" fill="#000"/><path d="M1.782 9.114l.289.34c.034.02.064.018.094 0l.429-.515.18-.223a.14.14 0 0 0 .034-.103l.344-.306c.028.002.045.006.073.008-.033-.01-.058-.025-.031-.062l.077-.06.06.077s-.086.112-.095.112h-.094l-.18.163.079.07.118.324.146-.103-.094-.334.205-.223-.077-.12.052-.069s.712.449.986.329c.007.002.017-.32.017-.32s-.738-.077-.755-.223c-.017-.146.163-.163.163-.163l-.077-.111.017-.06.129.163.291-.249L5.876 9.41c.094-.038.114-.06.12-.154l-1.68-1.928.13-.138c.024-.028.033-.04.033-.085l.197-.172c.06.02.098.056.129.103l.542-.46c.014.015.058.03.087.013l.896-.86-.976.69-.035-.026c0-.028.036-.035 0-.085-.038-.046-.094.042-.103.042-.008 0-.14-.047-.17-.106l-.01.158-.248.231-.189-.008-.274.265-.034.103.043.086s-.146.129-.146.12c0-.009-.03-.038-.03-.042l.124-.112.017-.077-.041-.066c-.013.01-.173.177-.182.16l-.462-.523.025-.094-.291-.317c-.106-.037-.274-.043-.309.188-.026.054-.248.009-.248.009l-.12.025-.677.96.377.455.771-.977.023-.277.162.18a.257.257 0 0 0 .154-.016l.457.51-.076.074.07.075c.025-.017.05-.037.075-.055l.032.045c-.039.02-.065.049-.104.07-.061-.04-.12-.09-.116-.17l-.257.215-.008.043-.763.634-.069.009-.017.197.497-.412v-.06l.052.043.385-.308s.026.034.017.034c-.008 0-.342.309-.342.309l-.009.034-.06.051-.034-.025-.463.411h-.069l-.257.257a.346.346 0 0 0-.18.052l-.46.406z" stroke="#313D49" stroke-width=".1" fill="#313D49"/></g></g></svg>