<svg width="24" height="16" viewBox="0 0 24 16" xmlns="http://www.w3.org/2000/svg"><title>flag-nf</title><g fill="none" fill-rule="evenodd"><path fill="#287E6E" d="M0 0h24v16H0z"/><path fill="#FFF" d="M7.304 0h9.391v16H7.304z"/><path d="M12.087 2.798l-.063.68-.231.036s.16.09.188.18c.005.014.003.026-.004.035a.05.05 0 0 1-.008.009c-.046.035-.184.019-.184.019s.182.153.196.209v.01a.029.029 0 0 1-.007.008c-.042.04-.244.05-.244.05s.223.16.237.25a.366.366 0 0 1 0 .139c-.015-.014-.376-.316-.608-.228-.012.006-.018.012-.021.017a.014.014 0 0 0-.001.01c.016.05.345.101.574.3-.005.05-.653-.158-.677-.028.02.036.697.134.747.222-.25.01-.764-.055-.747.027-.052.095.486.042.712.119.066.075.06.138-.055.145-.218-.103-.705-.18-.707-.048l.001.002.001.001.004.002c.055.028.509.015.68.127-.243.055-1.064-.111-1.07-.03a.45.45 0 0 0 .378.197c.223-.007.74.09.776.16a.01.01 0 0 1 0 .006c-.015.048-.681-.148-.937-.027-.266.125.761.049.93.202.167.153-.336-.014-.336-.014s-.699-.097-.804-.049c-.105.049-.223.16-.223.16s.07.139.14.111c.01-.004.017-.005.021-.004l.002.001.001.002.002.003c.001.021-.048.082-.048.082s.979.236 1.196.444c.216.209-1.245-.326-1.245-.326s-.587.215.035.229c-.07.1.029.163.035.167 0 0 1.035.215 1.14.382.105.167-.706-.16-.888-.25-.175-.087-.663.046-.691.086v.002c-.001 0 0 0 0 0v.003s-.001 0 0 0v.002l.001.003h.001c.031.035.25.082.256.14v.001l-.002.01c-.028.053-.288.076-.299.125v.003c0 .056 1.307.327 1.657.62.35.291-1.028-.349-1.028-.349s.077.104 0 .132c-.077.028-.35-.389-.797-.132-.082.106.39.19.51.202-.04.104-.076.14.092.243a.308.308 0 0 1 .032.022l.001.001v.002c-.027-.004-.328-.158-.36-.164h-.001-.001c0 .014.035.18.035.18-.155-.124-.342-.162-.518-.034 0 .008-.001.128.175.202-.1.201.112.139.448.326-.499-.13-.539.111-.182.167.356.056 1.335.09 1.566.39.048.062.062.094.052.104-.038.035-.392-.22-.444-.23l-.001.002-.003.003c-.012.028-.024.148-.024.148a1.504 1.504 0 0 0-.464-.199c-.014.028-.011.067-.025.095-.162-.116-.303-.198-.538-.209-.01.037-.02.075-.028.112 0 0-.196-.243-.58 0-.216.153.81.055.978.236.168.18.035.208.035.208l-.419-.152s-.497-.091-.637.02 2.042.383 2.104.681c.043.163-.512-.17-.992-.312l-.056.16c-.012-.012-.197-.191-.405-.222h-.001v.002c0 .023.042.185.042.185s-.537-.25-.81-.118.95.201 1.062.327c.013.013.018.023.017.03a.014.014 0 0 1-.002.004c-.027.039-.391-.106-.427-.034-.042.083-.636-.153-.63-.042a.257.257 0 0 0 .085.174s1.237.118 1.279.264c.042.146-.685-.083-.685-.083s-.07.103-.015.152a.04.04 0 0 1 .005.005c-.026-.008-.42-.264-.382-.068-.154-.06-.552-.25-.496-.104.055.144 1.093.349 1.124.355-.028.002-.467.039-.446.153-.589-.356-.587-.143-.574-.126-.033-.004-.757-.184-.181.126.308.166.384.231.385.256v.004l-.001.001-.001.002-.002.001v.001h-.001c-.012.008-.041.005-.05.005h-.001v.001a.688.688 0 0 1 .05.157v.002h-.001-.001c-.025-.005-.407-.208-.537-.222-.133-.014-.763.174-.091.466.67.292 1.083-.07 1.453-.028.37.042.546.104.511.223-.035.118-.379-.388-.74.05-.412-.082-.69-.128-.479.172-.671-.25-1.081.076-.236.208.832.025 1.343-.201 1.343-.201s.14.258.343.077c.193-.172.208.047.215.068v.001h.002c.015-.003.195-.083.195-.083h.049v1.668l.678.006s-.217-1.452-.098-1.647c.115-.188.224-.168.23-.166 0 0 .44.131.49.11h.003l.004-.003c.036-.033 0-.162.223-.142.07-.025.043-.135.088-.161l.003-.002a.052.052 0 0 1 .006-.002.057.057 0 0 1 .009-.002c.07-.007 1.419.375 1.712.014-.077-.202-.343-.014-.412-.007-.063 0-.33-.125-.483 0-.14-.104-.775-.173-.775-.173-.084-.084 1.516.04 1.607-.022.19-.187-.349-.166-.433-.104a.475.475 0 0 0-.45-.02c-.055-.131-.575-.075-.864-.112-.093-.054-.077-.085-.014-.118.603.025 1.203.104 1.81.077.164-.213-.206-.293-.433-.112-.134-.218-.406-.007-.588-.028-.181-.02-.098-.243.133-.208.23.035.643-.014.72-.119.077-.104-.046-.21-.426-.11-.129-.126-.412 0-.545.041-.177-.098-.588-.014-.728.021-.137-.084.72-.222.72-.222.331-.006.518-.063.623-.09.5-.267-.007-.296-.27-.102-.163-.126-.317.01-.464.06-.138.045-.392.078-.424.065h-.001v-.001l-.002-.001v-.002l.001-.001c.02-.032.398-.262.398-.262s.49-.035.587-.049c.06-.008.269-.107.269-.143-.002-.023-.09-.02-.353.046-.238.02-.377.007-.468.014-.146-.015-.208-.03-.22-.044l-.002-.002c0-.002 0-.005.002-.007l.002-.003c.036-.028.267-.049.267-.049s.706-.064.753-.1v-.002l.001-.001h.001c.014-.288-.599-.155-.615-.153.001-.202-.554-.003-.58 0-.025-.014-.035-.029-.037-.043l.001-.015c.014-.042.098-.074.098-.074.154-.037.384-.049.444-.098 0 0 .434-.003.486-.118-.107-.292-.919.052-1.028.104-.022 0-.035-.005-.041-.014-.036-.052.14-.223.146-.229.028-.008.676-.041.986-.459.021-.258-.37.146-.37.146-.03-.335-.427.021-.658.049-.23.028-.237-.104-.076-.125.16-.021.342-.007.433-.25.09-.244.364.013.413-.077.047-.087-.09-.162-.098-.167 0 0 .202-.209-.126-.202a6.8 6.8 0 0 1-.754-.041 2.02 2.02 0 0 1 .663-.126c.321.007.146-.229-.161-.229-.308 0-.468-.104-.468-.104l.524-.195-.035-.145s.308-.244-.126-.188l-.482.062-.874.133c-.009-.002-.093-.028-.109-.06a.04.04 0 0 1-.001-.004.03.03 0 0 1-.001-.004v-.006c.003-.017.03-.035.097-.052.224-.055 1.014-.215 1.133-.173.015.005.026.004.033-.002.045-.04-.104-.296-.467-.332-.42-.041-.678.104-.678.104s-.273-.097-.021-.18c.252-.084.65.027.65.027s.447-.132.077-.188c-.37-.055-.488.05-.657.056-.068-.084.581-.104.622-.173-.069-.125-.47 0-.706 0-.1-.043-.107-.111.007-.153.24-.01.466.004.706-.005-.007-.127 0-.278-.007-.406-.305-.055-.662.04-.833.033.046-.14.704-.175.777-.213.15-.188-.63-.003-.65 0-.138-.02-.13-.108-.042-.16.202-.023.657.03.623-.107-.027-.128-.316-.06-.434-.032-.12.028-.294.007-.294.007-.076-.102.685-.06.678-.139-.01-.09-.482-.028-.643-.021-.124-.085.581-.141.615-.153.027-.231-.49 0-.587 0a.061.061 0 0 1-.039-.012.058.058 0 0 1-.006-.006c-.033-.039-.004-.128-.004-.128s.184-.082.195-.102h.001v-.001-.001l-.003-.003a.815.815 0 0 0-.164-.06h-.001-.001v-.001h-.002c-.01-.02.003-.159.003-.159s.145-.108.155-.151V3.79 3.79v-.002-.001-.001l-.001-.002-.001-.001-.002-.002V3.78l-.003-.002h-.001c-.037-.018-.189.034-.189.034v-.138s.133-.015.147-.077a.03.03 0 0 0 0-.01v-.005a.035.035 0 0 0-.004-.009l-.002-.001c-.03-.04-.155-.045-.155-.045l-.07-.73zm-.125 2.382v.1s-.157-.008-.186-.034l-.001-.001-.001-.001-.002-.002V5.24 5.24v-.002-.001-.003l.001-.001.002-.002V5.23l.002-.002a.046.046 0 0 1 .004-.003c.052-.038.157-.037.178-.043l.002-.001h.001zm.222.128c.006 0 .313.002.34.042v.001l.001.003v.006c-.024.05-.334.079-.334.079l-.007-.131zm-.017.19s0-.001 0 0h.002c.018.005.145.01.16.036l.001.001v.002c.001 0 0 0 0 0v.004s.001 0 0 0v.004l-.001.001v.001c-.027.04-.144.05-.15.05l-.001-.002a.824.824 0 0 1-.011-.098zm-.936.251c.1-.005.3.018.673.12 0 .009.007.105.004.12v.002l-.001.001c-.006-.003-.68-.195-.74-.192h-.006a.05.05 0 0 1-.005-.001l-.005-.002-.002-.001h-.001a.022.022 0 0 1-.005-.006l-.001-.001v-.001-.001l-.002-.002v-.002-.002l.001-.003.005-.006c.01-.01.036-.02.085-.023zm.35.284c.107-.003.364.058.378.055 0 .02.012.117-.001.136l-.001.001-.002.002h-.001-.001-.001-.001c-.022-.005-.402-.125-.416-.174V6.05a.01.01 0 0 1 .002-.005l.001-.001c.008-.006.023-.01.042-.01zm1.056.265c.102-.002.175.006.148.037-.074.085-.58.154-.58.154l-.008-.154c.01-.001.267-.034.44-.037zm-1.448.48c.086-.005.286.042.732.23l.003.11s-.755-.227-.781-.265c-.013-.019-.037-.071.046-.076zm1.48.165c.023-.002.039 0 .044.006l.001.001v.002l.002.003c0 .003-.003.007-.007.012-.07.078-.448.157-.448.157v-.102c.018 0 .295-.074.408-.08zm-1.656.013c.113-.006.367.054.938.322 0 .003.005.096.003.104h-.001c-.034-.01-1.027-.357-1.027-.357 0-.004-.016-.063.087-.069zm1.89.434c.029-.001.048.001.052.008l.001.003c0 .003-.003.006-.007.01-.09.082-.664.18-.685.181h-.001-.001V7.59c-.001 0 0 0 0 0l-.002-.002c-.003-.02.009-.085.01-.094h.001c.037 0 .477-.098.632-.104zm-1.687.253c.17-.009.688.227.714.234-.002.01-.003.096-.005.11v.001c-.015-.007-.724-.3-.756-.277-.02-.046.001-.066.047-.068zm1.526.062a.193.193 0 0 1 .07.004l.002.002v.004l-.003.002c-.052.047-.542.143-.542.143l-.002-.099c.014-.003.33-.05.475-.056zm-.04.311c.035 0 .06.001.065.007v.002l.002.001h-.001v.003l-.002.002-.003.003c-.052.045-.467.132-.467.132l-.011-.102c.011 0 .288-.044.418-.048zm-1.749.025c.1-.006.348.035.96.256l.02.12-1.048-.338v-.001-.004c0-.003.002-.007.006-.012.007-.009.023-.019.062-.02zm1.342.259c.013.002.183.008.215.035l.001.001h.001l.001.002v.001l.002.002v.004l-.001.002-.001.002c-.026.04-.205.056-.205.056l-.013-.105zm.414.232c.04 0 .068.004.074.015.004.008-.003.02-.022.035-.146.12-.465.143-.465.143v-.132c.019-.002.28-.058.413-.06zm.406.122c.05-.001.072.007.079.019l.001.003v.007c0 .015-.017.033-.03.045-.05.046-.842.296-.842.296s-.006-.166-.003-.18c.463-.14.69-.186.795-.19zm-.513.47c.05-.002.09 0 .101.013l.003.003v.008a.028.028 0 0 1-.003.007c-.068.067-.398.077-.398.077v-.083c.062-.002.2-.022.297-.025zm.33.135c.016 0 .025.002.026.007v.001c0 .004-.005.01-.015.017-.131.093-.627.188-.627.188s.007-.065.01-.08c.013 0 .487-.13.606-.133zm.278.103c.058 0 .102.008.128.027v.003c-.002.018-.039.102-.17.14-.162-.015-.852.188-.866.19-.001-.014.008-.084.008-.084.238-.141.67-.274.9-.276zm-1.768.398h.005c.299.033.41.144.442.188-.06.104-.532-.129-.482-.178.005-.005.017-.01.035-.01zm1.711.02a.04.04 0 0 1 .03.01.044.044 0 0 1 .01.014.089.089 0 0 1 .004.028c-.03.074-.192.041-.202.04.008-.005.101-.088.158-.092zm-.64.323a.1.1 0 0 1 .052.008l.003.003.002.001.001.002.001.003c.002.005.001.013-.004.022-.046.088-.251.055-.251.055v-.06c.012 0 .125-.031.197-.034zm-1.207.23c.063-.003.118.038.176.071.129-.026.393.02.393.02v.117h-.002c-.024.005-.333-.009-.403-.052-.056 0-.216-.084-.228-.127v-.002-.002-.001-.002-.002-.001a.153.153 0 0 1 .064-.019zm1.354.057c.049-.002.07.013.031.066-.105.149-.378.088-.378.088l-.01-.092c.095.003.27-.057.357-.062zm-1.018.301c.11-.005.23.039.23.039.003.006.06.116.009.153a.05.05 0 0 1-.006.004c-.062.032-.355-.025-.373-.143.035-.036.086-.05.14-.053zm-1.136.058c.1-.006.213.056.226.062h.001l-.004.111s-.2-.055-.262-.166a.198.198 0 0 1 .04-.007zm1.919.015c.112 0 .248.025.268.063.004.008.002.017-.005.025-.055.067-.371.006-.371.006v-.081a.42.42 0 0 1 .108-.013z" fill="#287E6E"/></g></svg>