<svg width="24" height="16" viewBox="0 0 24 16" xmlns="http://www.w3.org/2000/svg" xmlns:xlink="http://www.w3.org/1999/xlink"><title>flag-kz</title><defs><path id="a" d="M0 0h24v16H0z"/></defs><g fill="none" fill-rule="evenodd"><mask id="b" fill="#fff"><use xlink:href="#a"/></mask><use fill="#77DAE0" xlink:href="#a"/><g fill="#EDED4A" mask="url(#b)"><path d="M13 10.356a3.09 3.09 0 1 0 0-6.179 3.09 3.09 0 0 0 0 6.18z"/><g transform="translate(8.5 8.27)"><path d="M3.466 3.86a.177.177 0 0 0-.045.007c-.02.002-.039.01-.059.013l-.008.001-.013.001a.05.05 0 0 1 .001.011l-.001.01a.026.026 0 0 1-.006.01.031.031 0 0 1-.009.007.03.03 0 0 1-.011.003l-.011-.001a.032.032 0 0 1-.011-.007.091.091 0 0 1-.012.002.05.05 0 0 1-.011 0 .069.069 0 0 1-.023-.01c-.015.009-.03.017-.04.032-.004.007-.005.014-.007.023 0 .01.002.02.006.03.002.002.003-.01.008-.012a.075.075 0 0 1 .028-.014c.01-.005.008 0 .004.007 0 .003-.005.017.001.01a.276.276 0 0 1 .092-.018c.045-.005.09-.006.135-.006.043 0 .085.001.128.003.02 0 .04.005.06.001.005-.001.013-.001.016-.004-.01-.005-.02-.006-.03-.007h-.081c-.023-.002-.046-.002-.067-.01-.006-.003-.011-.008-.017-.003a.097.097 0 0 1-.025.006.097.097 0 0 1-.043-.008c.01-.014.021-.026.032-.038a.34.34 0 0 1-.026-.006c.016-.01.03-.022.045-.034z"/><path d="M6.292 4.349c-.103.061-.181-.048-.267-.08-.061.032-.067.144-.124.197-.069.077-.153-.022-.146-.1-.082.07-.124.226-.256.205-.063-.05-.11-.158-.157-.036-.04.06-.144.145-.198.055-.016-.08-.056-.174-.1-.047-.03.09-.125.155-.217.116-.051-.041.04-.194-.024-.183-.097.063-.153.221-.287.209-.052-.059.032-.158-.026-.223-.067.087-.142.214-.259.223-.056-.046.002-.177-.034-.197-.12.072-.246.2-.397.16.059-.225.304-.304.51-.321.356-.044.73.037 1.072-.092.055-.033.19-.081.141-.159-.042-.061.11-.037.125-.11-.01-.09.07-.078.147-.086.345-.015.686.058 1.03.07.026.168-.16.286-.31.234-.071.012-.178-.164-.157-.036-.015.067-.005.156-.066.2m-2.938-.343c.08.073.136-.014.21-.045.251-.087.47-.237.686-.388.13-.108.243-.248.419-.283.342-.103.706-.09 1.05-.186.26-.358.705-.486 1.077-.692.084-.026.116-.095.142-.17.143-.225.336-.424.565-.56a.528.528 0 0 1 .36-.065.6.6 0 0 1-.194.376c.083-.002.154-.054.238-.051.028.15-.133.228-.22.321.048.011.232.025.132.073-.128.089-.273.15-.39.252.108.02.12.043.01.082-.06.04-.175.055-.186.134.082.05-.038.1-.084.117-.089.02-.182.059-.064.126-.045.067-.14.082-.218.075.024.076.058.161-.04.195a1.526 1.526 0 0 1-.76.316 1.63 1.63 0 0 0 1.003-.226c.039-.047.244-.097.13-.135-.055-.023-.17-.048-.179-.09.161-.099.364-.063.537-.122.004-.056-.132-.04-.182-.053-.121-.01-.114-.041.002-.053.148-.039.315-.046.44-.143-.102-.047-.229-.005-.337-.044.183-.08.399-.088.563-.208.075-.083-.096-.057-.146-.055-.1.018-.148-.03-.033-.073.197-.145.446-.239.584-.449.032-.047.077-.188-.028-.138-.137.046-.257.2-.414.153.308-.24.601-.51.811-.84.011-.096-.138-.106-.177-.032-.198.191-.377.416-.63.535.242-.234.443-.51.618-.798.037-.086.138-.188.083-.283-.088-.073-.198-.006-.244.081-.154.2-.27.435-.468.598.173-.33.352-.682.357-1.063 0-.078-.017-.193-.123-.179-.085.015-.065.142-.1.206-.076.26-.112.542-.27.77.036-.212.098-.432.05-.646-.022-.095-.176-.054-.156.04-.184.933-.81 1.749-1.629 2.22a3.51 3.51 0 0 1-1.22.412c-.114.025-.238.01-.347.05-.266.203-.426.543-.762.65-.15.075-.347.09-.455.23a.121.121 0 0 0-.01.058"/><path d="M4.36 3.059c-.05.09-.079.193-.143.274-.192-.175-.47-.169-.713-.18-.2-.011-.419-.03-.574-.173-.164-.134-.297-.308-.48-.416-.167-.046-.335-.102-.469-.217-.286-.233-.45-.58-.73-.82-.053-.053-.116-.093-.176-.138-.057.014-.031.136-.1.074-.038-.027-.133-.03-.142.008.086.113.172.241.184.386-.059.006-.163-.013-.191.01.077.115.176.218.29.3-.055.009-.162.004-.182.026.112.091.232.185.379.208.03.04-.044.116.018.15.036.015.155.04.073.08-.056.038-.036.127.036.125.046.023.148.028.156.069-.04.04-.166.09-.059.128.1.055.213.09.327.095-.057.048-.127.075-.186.12.263.154.554.256.842.353.114.039.23.074.349.097a2.863 2.863 0 0 1-.993-.262 8.867 8.867 0 0 0-.494-.202c.073-.038.158-.048.234-.08-.158-.032-.33-.043-.469-.13.022-.037.102-.039.147-.058.083-.02.135-.045.017-.052-.119-.032-.255-.018-.36-.09.007-.042.116-.027.161-.046.056-.01.119-.018.164-.056-.184-.076-.425-.022-.569-.185-.033-.061.103-.012.142-.022.099 0 .205.032.3-.008-.27-.118-.556-.228-.76-.446-.024-.035-.092-.13-.037-.143.16.022.275.195.445.168.023-.03-.099-.08-.13-.124C.42 1.67.179 1.438.005 1.16c-.012-.093.135-.107.174-.035.19.183.36.396.597.52.084.041-.048-.047-.065-.08a4.231 4.231 0 0 1-.58-.82C.103.69.058.592.14.564.22.523.302.579.344.649c.16.203.279.443.479.612C.653.931.47.582.466.201.47.127.475.016.575.02c.084-.013.07.095.098.146.083.28.119.582.285.83C.921.786.868.572.903.361.912.293.99.272 1.04.314c.042.1.05.225.088.333.213.73.692 1.371 1.316 1.802a3.467 3.467 0 0 0 1.747.6c.056.005.112.006.169.01"/><circle cx="3.586" cy="4.009" r=".05"/><circle cx="3.603" cy="4.024" r=".05"/></g></g><path d="M0 0v1.004h1.525V0H0zm0 1.523v1.004h1.525V1.523H0zm0 1.522V4.05h1.525V3.045H0z" transform="translate(1 10.5)" mask="url(#b)" fill="#EDED4A"/><path d="M0 0v1.004h1.525V0H0zm0 1.523v1.004h1.525V1.523H0zm0 1.522V4.05h1.525V3.045H0z" transform="translate(1 5.916)" mask="url(#b)" fill="#EDED4A"/><path d="M0 0v1.004h1.525V0H0zm0 1.523v1.004h1.525V1.523H0zm0 1.522V4.05h1.525V3.045H0z" transform="translate(1 1.318)" mask="url(#b)" fill="#EDED4A"/></g></svg>