<svg width="24" height="16" viewBox="0 0 24 16" xmlns="http://www.w3.org/2000/svg"><title>flag-tj</title><g fill="none" fill-rule="evenodd"><path fill="#287E6E" d="M0 0h24v16H0z"/><path fill="#FFF" d="M0 0h24v11.429H0z"/><path fill="#BB333C" d="M0 0h24v5H0z"/><path d="M12.132 8a.195.195 0 0 1 .366.093v.795h.147v-.795a.195.195 0 1 1 .365-.094.473.473 0 0 0-.166-.527.457.457 0 0 0-.545 0 .473.473 0 0 0-.167.527" fill="#F8C300"/><path d="M12.237 7.792a.312.312 0 0 1 .334.152.312.312 0 0 1 .334-.152.339.339 0 0 0-.334-.296.339.339 0 0 0-.334.296" fill="#F7CE45"/><path d="M12.498 8.57a.603.603 0 0 1-.382.511.59.59 0 0 1-.62-.124.623.623 0 0 1-.4.37.612.612 0 0 1-.536-.092c.057.58.913.461.977-.102.27.479.86.342 1.034-.245l-.073-.317zM12.645 8.57c.02.23.169.43.381.511a.59.59 0 0 0 .62-.124c.07.18.219.317.402.37.183.055.38.02.535-.092-.057.58-.914.461-.977-.102-.27.479-.86.342-1.034-.245l.073-.317z" fill="#F8C300"/><path d="M11.926 9.6c-.12.26-.358.306-.567.095 0 0 .084-.06.174-.077a.289.289 0 0 1 .066-.228.348.348 0 0 1 .14.189c.127-.017.187.02.187.02zM12.86 9.569c-.16.239-.402.244-.574.002 0 0 .093-.046.184-.048a.289.289 0 0 1 .102-.214.348.348 0 0 1 .108.21c.127.004.18.05.18.05zM13.788 9.693c-.197.21-.438.176-.568-.091 0 0 .1-.03.19-.017a.289.289 0 0 1 .136-.195c.037.05.081.14.072.224.125.025.17.08.17.08z" fill="#F8C300"/><path d="M11.05 10.405c.993-.596 2.05-.596 3.042 0" fill="#F7C92D"/><path fill="#F8C300" d="M12.571 6.588l-.215.12.066-.256-.2-.181.241-.01.108-.261.108.26.242.01-.2.182.066.257zM13.68 6.894l-.217.121.067-.256-.2-.182.241-.01.108-.26.108.26.242.01-.2.182.066.256zM14.485 7.712l-.216.12.067-.256-.2-.181.241-.01.108-.261.108.26.241.01-.2.182.067.257zM14.787 8.836l-.216.12.067-.256-.2-.181.241-.01.108-.261.108.26.242.01-.2.182.066.257zM11.451 6.894l-.216.121.067-.256-.2-.182.241-.01.108-.26.108.26.241.01-.2.182.067.256zM10.633 7.712l-.216.12.066-.256-.2-.181.242-.01.108-.261.108.26.241.01-.2.182.067.257zM10.38 8.836l-.215.12.066-.256-.2-.181.242-.01.108-.261.108.26.241.01-.2.182.067.257z"/></g></svg>