<svg width="24" height="16" viewBox="0 0 24 16" xmlns="http://www.w3.org/2000/svg" xmlns:xlink="http://www.w3.org/1999/xlink"><title>flag-ai</title><defs><path d="M0 0s.701.521 1.27.521C1.839.521 2.363 0 2.363 0s.668.521 1.256.521S4.749 0 4.749 0v3.167c0 1.603-1.802 3.106-2.374 3.106C1.803 6.273 0 4.735 0 3.167V0z" id="a"/><mask id="e" x="-.25" y="-.25" width="5.25" height="6.773"><path fill="#fff" d="M-.25-.25H5v6.773H-.25z"/><use xlink:href="#a"/></mask><path id="g" d="M0 0h12v8H0z"/><path id="b" d="M0 .5L11.5 8h.5v-.5L.5 0H0z"/><mask id="i" x="-.5" y="-.5" width="13" height="9"><path fill="#fff" d="M-.5-.5h13v9h-13z"/><use xlink:href="#b"/></mask><path id="c" d="M0 .5L11.5 8h.5v-.5L.5 0H0z"/><mask id="j" x="-.5" y="-.5" width="13" height="9"><path fill="#fff" d="M-.5-.5h13v9h-13z"/><use xlink:href="#c"/></mask><path d="M6.857 3.265V0h-1.47v3.265H-.124v1.47h5.513V8h1.47V4.735h5.267v-1.47H6.857z" id="d"/><mask id="k" x="-.5" y="-.5" width="13.25" height="9"><path fill="#fff" d="M-.625-.5h13.25v9H-.625z"/><use xlink:href="#d"/></mask></defs><g fill="none" fill-rule="evenodd"><path fill="#006DA0" d="M0 0h24v16H0z"/><g transform="translate(15.625 5)"><mask id="f" fill="#fff"><use xlink:href="#a"/></mask><use fill="#FFF" xlink:href="#a"/><use stroke="#EDED4A" mask="url(#e)" stroke-width=".5" xlink:href="#a"/><path fill="#77DAE0" mask="url(#f)" d="M0 4.75h4.75v1.583H0z"/><circle stroke="#FD9B3F" mask="url(#f)" cx="2.375" cy="2.375" r=".792"/></g><g><mask id="h" fill="#fff"><use xlink:href="#g"/></mask><use fill="#006DA0" xlink:href="#g"/><g mask="url(#h)"><g transform="matrix(1 0 0 -1 0 8)"><use fill="#E8525D" xlink:href="#b"/><use stroke="#FFF" mask="url(#i)" stroke-linecap="round" stroke-linejoin="round" xlink:href="#b"/></g><use fill="#E8525D" xlink:href="#c"/><use stroke="#FFF" mask="url(#j)" stroke-linecap="round" stroke-linejoin="round" xlink:href="#c"/></g><g mask="url(#h)"><use fill="#C7152A" xlink:href="#d"/><use stroke="#FFF" mask="url(#k)" xlink:href="#d"/></g><path d="M6.857 3.265V0h-1.47v3.265H-.124v1.47h5.513V8h1.47V4.735h5.267v-1.47H6.857z" fill="#E84550" mask="url(#h)"/></g></g></svg>