<svg width="24" height="16" viewBox="0 0 24 16" xmlns="http://www.w3.org/2000/svg"><title>flag-mh</title><g fill="none" fill-rule="evenodd"><path fill="#006DA0" d="M0 0h24v16H0z"/><path fill="#FFF" d="M0 14.792v-.312L24 3.517v3.787z"/><path fill="#FD9B3F" d="M0 14.584v-.208L24 2.208v2.548z"/><g fill="#FFF"><path d="M4.612 2.717l.235 4.03h-.47z"/><path d="M5.348 3.96L4.88 6.82l-.555-.148z"/><path d="M6.034 4.248L4.84 6.89l-.497-.287z"/><path d="M6.623 4.706L4.786 6.95l-.406-.407z"/><path d="M7.075 5.304L4.72 6.995l-.287-.497z"/><path d="M7.36 6L4.646 7.024l-.15-.555z"/><g><path d="M8.598 6.785l-4.03.236V6.55z"/><path d="M7.356 7.521l-2.862-.469.149-.555z"/><path d="M7.067 8.207L4.425 7.014l.287-.498z"/><path d="M6.609 8.796L4.365 6.96l.407-.406z"/><path d="M6.011 9.248L4.32 6.893l.497-.287z"/><path d="M5.315 9.533L4.291 6.82l.555-.149z"/></g><g><path d="M4.612 10.777l-.235-4.03h.47z"/><path d="M3.876 9.534l.47-2.862.554.149z"/><path d="M3.19 9.245l1.194-2.642.497.287z"/><path d="M2.6 8.787l1.838-2.244.406.407z"/><path d="M2.149 8.19l2.355-1.692.287.497z"/><path d="M1.865 7.494l2.713-1.025.148.555z"/></g><g><path d="M.626 6.708l4.03-.235v.47z"/><path d="M1.868 5.972l2.862.469-.149.555z"/><path d="M2.157 5.286L4.799 6.48l-.287.497z"/><path d="M2.615 4.697L4.86 6.534l-.407.406z"/><path d="M3.213 4.245L4.904 6.6l-.497.287z"/><path d="M3.909 3.96l1.024 2.713-.555.15z"/></g></g></g></svg>