<svg width="24" height="16" viewBox="0 0 24 16" xmlns="http://www.w3.org/2000/svg"><title>flag-bt</title><g fill="none" fill-rule="evenodd"><path fill="#EDED4A" d="M0 0h24v16H0z"/><path fill="#FD9B3F" d="M0 16h24V0z"/><path d="M17.694 3.607c.08.029.157.076.218.13.163-.083.276-.087.317 0a.457.457 0 0 1 .227-.054c.18-.262-.062-.382.28-.685.31-.274.059-.457.352-.67.095-.069.3-.206.318-.343.124.309-.387.352-.352.85.02.298-.168.291-.259.734.077-.056.145-.09.19-.16.18-.274.562.048.884-.197-.055.348-.489.223-.678.447a.83.83 0 0 1-.276.235c.139-.013.261.008.38-.064.523-.317.733.065 1.201-.085-.124.3-.815.043-1.116.266-.137.101-.43.201-.658.241.214.096.006.187-.227.11.413.11.177.245-.093.157.327.086.248.191.067.187.1.266-.162.483-.152.723.076.005.149 0 .213-.019.33-.095.181-.343.033-.386a.281.281 0 0 1 .392.326c.313-.12.176-.416.017-.395.172-.133.41.069.402.292.488.043.731.288.54.515.035-.455-.67-.36-1.036-.257a1.536 1.536 0 0 1-.872-.015c-.003.168.005.366-.128.497.098.144.014.362-.222.396.075-.103-.044-.16-.14-.228-.109.073-.23.147-.11.251-.17-.037-.248-.118-.257-.207-.11.148-.246.233-.413.1.158-.01.197-.328.333-.413a.328.328 0 0 1-.102-.09c-.16-.229-.388-.384-.642-.416-.12.07-.274.084-.49.022a.529.529 0 0 0-.55.202.46.46 0 0 0 .111.047c.314.085.292.433.593.515-.322.086-.36-.266-.756-.412a.606.606 0 0 1-.1-.048c-.08.011-.173-.016-.275-.037.078.115.14.226.228.31l.2-.032c-.013.05-.028.096-.043.138a.533.533 0 0 0 .06.02l.14.043.11-.11c-.007.027-.003.08-.012.143l.028.01.027-.025a1.498 1.498 0 0 1-.006.032c.09.033.175.07.249.113l.037-.034.003.059a.64.64 0 0 1 .118.096c.029.03.076.058.134.084l.024.002v.008c.087.035.195.064.305.086l.026-.004.001.01c.11.02.22.033.31.037l.011-.004.001.005c.066.002.121 0 .159-.01.189-.042.592-.205.755-.094.052-.111.138-.266.24-.378a.56.56 0 0 0 .012.217.597.597 0 0 1 .581-.726c.31 0 .566.238.593.542.306.02.242.361.356.384.137.163.124.408-.095.433-.073.232-.266.387-.472.357-.133.146-.3.189-.438.154-.094.013-.262-.03-.309-.081a.474.474 0 0 1-.179-.05c-.06.06-.2.12-.46.176l.065-.148a.898.898 0 0 1-.134.069.365.365 0 0 1-.026.247l-.275-.017a.553.553 0 0 1-.035.144l-.364-.255a1.39 1.39 0 0 1-.077-.002.221.221 0 0 1-.014.027c.024.183.242.412.082.59.005-.12-.12-.314-.261-.374.077.142-.164.245-.056.464-.223-.056-.318-.34-.176-.653-.095.16-.266.228-.382.155.165-.05.208-.207.192-.339-.077.031-.178.062-.304.092l.025-.192a.668.668 0 0 0-.3.131c.026.294-.006.608-.102.894l.066.326a2.395 2.395 0 0 1-.185-.046 1.582 1.582 0 0 1-.162.25 2.41 2.41 0 0 1 .017-.004l-.026.074.207.224a1.41 1.41 0 0 1-.264-.065l-.102.286a1.215 1.215 0 0 1-.103-.04l.114.34a.505.505 0 0 1-.24.003l.002.021.004.004.02-.019a1.921 1.921 0 0 1-.006.026c.119-.029.277.077.31.168.085-.043.206-.026.249.025.145-.068.266-.034.394.103a.362.362 0 0 1 .344.12c.06-.12.18-.163.266-.137-.009-.154.146-.266.283-.206a.254.254 0 0 1 .327-.3c.154-.12.463-.13.618.051-.275-.077-.266.215-.498.19.06.17-.095.27-.25.325.1-.047.207-.103.241-.043.086-.075.258-.047.3-.008.114-.037.224-.009.275.129.155.094.258.334.146.515-.034-.19-.163-.18-.214-.258-.12.043-.24.043-.275-.034a.28.28 0 0 1-.105.058l.032-.001a.735.735 0 1 1-.727.842.518.518 0 0 1-.033.191c.223.035.035.232.42.36-.188.06-.557 0-.609-.231-.189-.009-.317-.197-.309-.395-.099-.093-.14-.214-.094-.325l-.071-.095a.32.32 0 0 1-.165.15l-.115-.182c-.03.074-.09.121-.158.099l-.155-.235a.589.589 0 0 1-.034.015.268.268 0 0 1-.017.105l-.226-.206a.295.295 0 0 1-.098.023.088.088 0 0 1-.046.034l-.032-.037a.79.79 0 0 1-.025-.003l.012-.012-.133-.154a.212.212 0 0 1-.088.004.16.16 0 0 1-.04.014l-.022-.029c-.088-.03-.17-.096-.167-.18a.213.213 0 0 1-.153.007 1.374 1.374 0 0 1-.152.004l.024-.102a.16.16 0 0 1-.024-.093.162.162 0 0 1-.06-.02c-.034.127-.107.287-.249.29.108-.188-.047-.33.013-.347-.202-.073-.33.373-.58.137.235.02.17-.371.52-.395-.35-.034-.262-.174-.442-.18.05-.075.178-.064.275.01.095.075.178-.117.355-.004V9.55c-.054-.061-.053-.14-.026-.219a.45.45 0 0 1-.235-.093.262.262 0 0 1-.176.012.315.315 0 0 1-.154-.082.343.343 0 0 1-.103.01c-.272-.012-.416-.078-.485-.162a.33.33 0 0 1-.125.014.686.686 0 0 1-.377-.116.602.602 0 0 1-.385-.117.37.37 0 0 1-.306-.071.052.052 0 0 1-.023.016c-.255.064-.387.001-.452-.098-.03.065-.088.112-.187.113a.28.28 0 0 1-.214-.076.214.214 0 0 1-.117.116.256.256 0 0 1-.146.022.345.345 0 0 1-.123.182.255.255 0 0 1-.033.166.396.396 0 0 1-.027.044.36.36 0 0 1 .013.235c.04.04.02.107-.05.207-.064.088-.187.188-.094.3a1.008 1.008 0 0 1-.17-.189.432.432 0 0 1-.052.002l.188.163a.392.392 0 0 1-.12.102l.022.052.152.115a.451.451 0 0 1-.022.028.746.746 0 0 1 .076.027c.026-.036.088-.1.154-.098-.042-.082-.004-.314.112-.382.026-.148.11-.286.305-.297.189-.012.373.04.485.185-.069-.017-.223.052-.326.034-.009.073-.09.172-.163.202.034.052.021.193-.065.24.077-.055.245-.141.305-.115.034-.052.227-.078.3-.039.18-.094.451.056.43.34a.182.182 0 0 0-.117-.061.575.575 0 0 1-.43 1.067.42.42 0 0 0 .126.036c-.094.056-.416.065-.51-.034-.095-.099-.314-.095-.383-.275a.55.55 0 0 1-.084.007l.105.171a1.048 1.048 0 0 1-.185-.02l.096.178a.908.908 0 0 1-.223-.017l.186.252a.598.598 0 0 1-.162.02l.143.161a.488.488 0 0 1-.14.038.29.29 0 0 1 .007.005c.03-.003.06 0 .09.01l-.039.038c.02.023.035.049.046.076l.05.057a.24.24 0 0 1 .054.027l-.012.012.047.032a.676.676 0 0 1-.009.015l.012-.002.175.284a.272.272 0 0 1 .092.06c.06-.112.258-.137.36-.009.224-.017.336.164.327.387a.599.599 0 0 1-.051.644c.012-.09 0-.22-.005-.296-.008-.143-.206-.172-.184-.288-.103.008-.202-.047-.236-.125a.227.227 0 0 1-.22.043c.117.052.207.258.172.395.06.103.048.292-.025.374a.246.246 0 0 1-.076.142v.04a.668.668 0 1 1-1.335 0c-.017-.137-.19-.272-.17-.388-.102-.318.044-.614.464-.674-.029-.069.017-.138.05-.211-.059-.037-.067-.088-.046-.126l-.001-.002a.205.205 0 0 1-.004-.042.087.087 0 0 1-.047-.027l-.055-.019a.785.785 0 0 1 .026-.092c-.077-.007-.113-.08-.105-.134l-.05-.03a.66.66 0 0 1 .006-.013c-.13.067-.087.302-.22.288.051-.116-.077-.204-.06-.3-.09.117-.341.188-.43.08.215-.016.18-.265.284-.27.223-.009.09-.176-.013-.184-.103-.009-.133-.022-.047-.073.07-.042.229-.03.328.01a.826.826 0 0 0 .051-.302c-.062.126-.23.2-.474.106.049-.04.13-.132.208-.225a.284.284 0 0 1-.04-.086l-.003-.001a.724.724 0 0 1-.051.058c.006.06-.025.116-.104.163l-.034-.047a1.516 1.516 0 0 1-.053.036l.012.008a.487.487 0 0 1-.08.113l.144.155a.34.34 0 0 1-.353-.064.69.69 0 0 1-.03.06l.197.21a.456.456 0 0 1-.338-.088.1.1 0 0 1-.011.001l.149.164c-.078.04-.178.03-.267-.01l.091.099a.32.32 0 0 1-.229-.007l.07.11a1.29 1.29 0 0 1-.171-.042 1.65 1.65 0 0 1-.076.049l.024.064a1.707 1.707 0 0 1-.112-.01 1.347 1.347 0 0 0-.376.352c-.215.288-.498.094-.859.386.07-.315.334-.147.619-.546h-.013a.624.624 0 0 1-.11.021l.023.031a1.226 1.226 0 0 1-.199.043l.012.014a.666.666 0 0 1-.156.034 1.188 1.188 0 0 0-.026.019l.011.014a1.14 1.14 0 0 1-.046.013c-.158.127-.287.27-.48.212a.465.465 0 0 1-.246-.035c-.097.095-.2.194-.35.18-.284-.026-.314.45-.88.455-.434.004-.97.51-1.164.292.42-.06.59-.293.842-.55.403-.412.858-.227 1.013-.592-.185.124-.4.185-.61.18-.264-.005-.554.421-.85.232.172-.021.283-.094.464-.283.184-.194.455-.069.67-.266.334-.31.622-.052.944-.438-.09-.043-.284-.013-.464.081-.18.095-.412-.064-.618.048.026-.254.507-.109.807-.284.34-.197.62-.14.889-.116-.374-.002-.52-.356-1.035-.253-.225.045-.403-.309-.627-.129.007-.133.24-.24.481-.111.24.128.337-.113.816.189.197.124.536-.078.751.055-.028-.081-.15-.133-.294-.122.07-.143.433-.16.711-.077a.667.667 0 0 1-.035-.211c.122.06.282-.025.43-.027a.327.327 0 0 1-.082-.192c.104.039.172-.023.242-.088-.114-.04-.21-.108-.238-.194.198.079.277-.216.502-.259-.008-.11.104-.286.25-.357-.057-.042-.09-.119-.073-.22.028-.164.067-.258.156-.31a.631.631 0 0 1-.07-.007c-.143-.026-.522.223-.68-.026.364.103.591-.36.91-.426a.425.425 0 0 1-.04-.295c.03-.121.158-.219.285-.235-.087-.096-.058-.246.005-.272a.154.154 0 0 1 .016-.101c-.038-.026-.07-.042-.106-.027-.112.046-.232-.107-.37.02.007-.218.228-.093.456-.312.103-.1.275-.12.444.042a.328.328 0 0 1 .068-.209c.079-.1.244-.142.357-.063.004-.135.073-.268.16-.31.091-.044.236-.041.322.055-.024-.094.012-.196-.063-.246-.112-.073-.209-.154-.172-.283.058.148.236.147.386.176.143.027.272.18.28.322.042-.09.112-.15.204-.141.077.008.14.046.184.107.05-.06.117-.09.198-.066.067.02.121.06.158.113a.178.178 0 0 1 .196-.046c.028.01.054.024.077.04.01-.07.014-.133-.018-.161-.077-.07-.111-.168-.055-.275.004.077.111.154.223.197.111.043.047.266.223.352.086.042.127.168.061.253l.017.005c.049-.102.158-.183.29-.097a.396.396 0 0 1 .162.205c.054-.035.137-.051.243-.008a.383.383 0 0 1 .22.246c.027.01.053.018.08.026a.176.176 0 0 1 .13-.07c-.162-.063-.218-.18-.177-.29.054.141.283.179.404.146a.377.377 0 0 1 .229.025c-.086-.078-.145-.176-.148-.235a.266.266 0 0 1 .028-.123.464.464 0 0 1-.397-.04c-.066-.043-.208-.171-.348-.111.103-.223.408-.009.507-.176a.624.624 0 0 1 .05-.074.248.248 0 0 1-.15-.085c-.089-.12-.104-.273-.043-.37a.291.291 0 0 1-.25-.11.298.298 0 0 1-.048-.304.645.645 0 0 1-.259.063c-.12.008-.27.133-.309.36-.185-.356.15-.433.18-.67a.551.551 0 0 1 .06-.184.955.955 0 0 0-.515.28c.176-.365.376-.515.572-.578a.287.287 0 0 1-.005-.044.2.2 0 0 1 .076-.178c-.04-.056-.039-.137.004-.228a.334.334 0 0 1 .12-.143c-.012-.05 0-.11.035-.176a.417.417 0 0 0-.046.012c-.258.089-.893-.27-1.27.166.051-.353.411-.438.935-.401a.881.881 0 0 1 .62-.301c-.056-.064-.076-.16-.038-.3.105.355.533.174.813.3.04-.016.083-.03.13-.043-.687-.34-1.385-.458-1.525-.285-.146.18.133.275.215.24-.078.202-.524.026-.404-.291.109-.288.627-.387 1.348-.095a.563.563 0 0 1 .044-.301c-.17-.036-.31-.032-.388 0 .082-.104.249-.114.44-.077a.318.318 0 0 1 .134-.086c-.215-.089-.5-.23-.802-.083.063-.183.33-.207.572-.141.15-.213.612-.136 1.039.177.01-.08.03-.146.054-.198a.612.612 0 0 0-.389-.167c.108-.063.271-.026.45.072a.31.31 0 0 1 .046-.042 1.123 1.123 0 0 0-.72-.21c.297-.202 1.014.069 1.297.36.174.18.543.1.767.416.25-.146.535-.094.744.1a.176.176 0 0 1 .103-.082c.116-.032.22.012.297.097l.05-.016-.032.036a.553.553 0 0 1 .086.158l.03.024a.26.26 0 0 1 .202.055.6.6 0 0 1 .05-.014l-.025.025" fill="#FFF"/></g></svg>