<svg width="24" height="16" viewBox="0 0 24 16" xmlns="http://www.w3.org/2000/svg" xmlns:xlink="http://www.w3.org/1999/xlink"><title>flag-ck</title><defs><path id="d" d="M0 0h24v16H0z"/><path id="f" d="M0 0h10v6.667H0z"/><path id="a" d="M0 .417l9.583 6.25H10V6.25L.417 0H0z"/><mask id="h" x="-.5" y="-.5" width="11" height="7.667"><path fill="#fff" d="M-.5-.5h11v7.667h-11z"/><use xlink:href="#a"/></mask><path id="b" d="M0 .417l9.583 6.25H10V6.25L.417 0H0z"/><mask id="i" x="-.5" y="-.5" width="11" height="7.667"><path fill="#fff" d="M-.5-.5h11v7.667h-11z"/><use xlink:href="#b"/></mask><path d="M5.714 2.721V0H4.49v2.721H-.104v1.225H4.49v2.72h1.224v-2.72h4.39V2.72h-4.39z" id="c"/><mask id="j" x="-.5" y="-.5" width="11.208" height="7.667"><path fill="#fff" d="M-.604-.5h11.208v7.667H-.604z"/><use xlink:href="#c"/></mask></defs><g fill="none" fill-rule="evenodd"><g><mask id="e" fill="#fff"><use xlink:href="#d"/></mask><use fill="#006DA0" xlink:href="#d"/><g mask="url(#e)"><g fill="#FFF"><path d="M16.443 3.105l-.312.961.477.155"/><path d="M16.425 3.105l.312.961-.477.155"/><path d="M17.368 3.809h-1.01v.502"/><path d="M17.363 3.791l-.818.594-.295-.406"/><path d="M17.002 4.93l-.312-.961-.477.155"/><path d="M17.017 4.919l-.817-.594.295-.406"/><g><path d="M15.851 4.919l.817-.594-.295-.406"/><path d="M15.866 4.93l.312-.961.477.155"/></g><g><path d="M15.505 3.791l.817.594.296-.406"/><path d="M15.5 3.809h1.01v.502"/></g></g><g fill="#FFF"><path d="M18.385 3.552l-.637.708.387.349"/><path d="M18.392 3.555l-.1.947-.518-.054"/><path d="M18.96 4.526l-.87-.388-.212.477"/><path d="M18.96 4.534l-.932.198-.109-.51"/><path d="M18.209 5.362l.1-.948-.52-.055"/><path d="M18.201 5.363l-.476-.825.452-.26"/><path d="M17.17 4.904l.931-.198-.108-.51"/><path d="M17.165 4.897l.638-.708.388.349"/><g><path d="M17.278 3.785l.477.825.452-.26"/><path d="M17.284 3.78l.87.387-.212.476"/></g><g><path d="M20.199 4.84l-.87.387.212.477"/><path d="M20.204 4.845l-.476.825-.452-.26"/><path d="M20.328 5.963l-.638-.708-.387.35"/><path d="M20.324 5.97l-.932-.198.108-.51"/><path d="M19.301 6.421l.477-.825-.452-.26"/><path d="M19.294 6.42l-.1-.948.52-.055"/><g><path d="M18.538 5.58l.932.198.109-.51"/><path d="M18.537 5.572l.87-.387.213.476"/></g><g><path d="M19.093 4.603l.1.947.518-.054"/><path d="M19.1 4.6l.637.707-.387.35"/></g></g><g><path d="M21.32 6.738h-.952v.522"/><path d="M21.323 6.746l-.771.56-.307-.422"/><path d="M20.981 7.817l-.294-.906-.496.161"/><path d="M20.975 7.822l-.771-.56.307-.422"/><path d="M19.857 7.818l.771-.56-.306-.422"/><path d="M19.851 7.813l.294-.906.497.161"/><g><path d="M19.502 6.74l.77.56.308-.423"/><path d="M19.504 6.732h.953v.521"/></g><g><path d="M20.406 6.072l-.294.906.496.161"/><path d="M20.414 6.072l.294.906-.496.161"/></g></g><g><path d="M21.556 8.92l-.87-.388-.212.476"/><path d="M21.555 8.927l-.932.198-.108-.51"/><path d="M20.807 9.767l.1-.947-.519-.055"/><path d="M20.8 9.769l-.477-.825.452-.261"/><path d="M19.78 9.31l.932-.197-.108-.51"/><path d="M19.776 9.304l.638-.708.388.349"/><g><path d="M19.895 8.18l.476.826.452-.261"/><path d="M19.9 8.175l.87.387-.212.477"/></g><g><path d="M20.992 7.939l-.638.708.388.349"/><path d="M21 7.942l-.1.947-.52-.054"/></g></g><g><path d="M20.865 11.006l-.637-.709-.388.35"/><path d="M20.862 11.012l-.932-.198.108-.51"/><path d="M19.836 11.476l.477-.825-.452-.261"/><path d="M19.829 11.474l-.1-.948.519-.054"/><path d="M19.084 10.641l.932.198.108-.51"/><path d="M19.083 10.633l.87-.387.213.476"/><g><path d="M19.648 9.655l.1.948.518-.055"/><path d="M19.655 9.652l.638.708-.388.349"/></g><g><path d="M20.749 9.88l-.87.388.212.477"/><path d="M20.754 9.886l-.476.825-.452-.26"/></g></g><g><path d="M19.368 12.637l-.295-.907-.496.162"/><path d="M19.361 12.641l-.77-.56.306-.422"/><path d="M18.236 12.648l.771-.56-.307-.423"/><path d="M18.23 12.643l.294-.906.497.16"/><path d="M17.888 11.579l.771.56.307-.422"/><path d="M17.89 11.571h.954v.522"/><g><path d="M18.804 10.907l-.294.907.496.16"/><path d="M18.812 10.907l.295.907-.496.16"/></g><g><path d="M19.719 11.561h-.953v.522"/><path d="M19.721 11.569l-.77.56-.307-.422"/></g></g><g><path d="M17.321 13.53l.1-.947-.519-.055"/><path d="M17.314 13.532l-.477-.825.452-.261"/><path d="M16.283 13.08l.932-.198-.108-.51"/><path d="M16.28 13.073l.637-.708.388.35"/><path d="M16.4 11.962l.477.825.451-.26"/><path d="M16.405 11.956l.871.388-.212.477"/><g><path d="M17.51 11.722l-.637.708.387.349"/><path d="M17.518 11.725l-.1.947-.519-.054"/></g><g><path d="M18.08 12.69l-.87-.387-.213.477"/><path d="M18.079 12.698l-.932.199-.109-.51"/></g></g></g><g fill="#FFF"><path d="M15.433 13.562l.476-.825-.452-.26"/><path d="M15.425 13.56l-.1-.947.52-.055"/><path d="M14.668 12.729l.932.198.108-.51"/><path d="M14.667 12.721l.87-.387.212.476"/><path d="M15.229 11.755l.1.948.518-.055"/><path d="M15.236 11.752l.638.708-.388.35"/><path d="M16.34 11.987l-.87.387.213.477"/><path d="M16.346 11.993l-.476.825-.452-.261"/><g><path d="M16.467 13.104l-.638-.708-.387.349"/><path d="M16.463 13.11l-.932-.198.108-.51"/></g><g><path d="M13.391 12.68l.77-.56-.306-.423"/><path d="M13.385 12.675l.294-.906.496.161"/><path d="M13.031 11.607l.77.56.308-.422"/><path d="M13.033 11.6h.953v.521"/><path d="M13.94 10.946l-.295.906.497.161"/><path d="M13.948 10.946l.294.906-.496.161"/><g><path d="M14.861 11.61h-.952v.522"/><path d="M14.864 11.617l-.771.56-.307-.422"/></g><g><path d="M14.522 12.681l-.294-.906-.496.161"/><path d="M14.516 12.686l-.77-.56.306-.422"/></g></g><g><path d="M11.9 11.056l.931-.198-.108-.51"/><path d="M11.895 11.049l.638-.708.388.349"/><path d="M12.007 9.93l.476.825.452-.261"/><path d="M12.012 9.924l.87.387-.212.477"/><path d="M13.106 9.695l-.638.708.388.35"/><path d="M13.113 9.698l-.1.948-.519-.055"/><g><path d="M13.678 10.677l-.87-.388-.213.477"/><path d="M13.677 10.684l-.932.198-.109-.51"/></g><g><path d="M12.932 11.517l.1-.947-.52-.055"/><path d="M12.924 11.519l-.476-.825.452-.261"/></g></g><g><path d="M11.215 8.971l.932.198.108-.51"/><path d="M11.214 8.964l.87-.388.213.477"/><path d="M11.771 7.986l.1.948.519-.055"/><path d="M11.778 7.983l.638.708-.388.35"/><path d="M12.87 8.22l-.87.387.212.476"/><path d="M12.876 8.225l-.477.825-.451-.26"/><g><path d="M12.994 9.348l-.638-.708-.387.35"/><path d="M12.99 9.355l-.932-.198.108-.51"/></g><g><path d="M11.97 9.813l.477-.825-.452-.26"/><path d="M11.963 9.812l-.1-.948.52-.055"/></g></g><g><path d="M11.457 6.787l.77.56.307-.422"/><path d="M11.46 6.78h.952V7.3"/><path d="M12.366 6.113l-.295.906.496.161"/><path d="M12.374 6.113l.294.906-.496.161"/><path d="M13.275 6.773h-.953v.522"/><path d="M13.278 6.78l-.771.56-.307-.421"/><g><path d="M12.929 7.855l-.295-.906-.496.16"/><path d="M12.922 7.86l-.77-.56.306-.423"/></g><g><path d="M11.805 7.863l.77-.56-.306-.422"/><path d="M11.799 7.859l.294-.907.496.162"/></g></g><g><path d="M12.583 4.88l.476.825.452-.26"/><path d="M12.588 4.874l.87.388-.211.476"/><path d="M13.687 4.634l-.637.708.387.35"/><path d="M13.694 4.637l-.1.948-.518-.055"/><path d="M14.25 5.607l-.87-.387-.213.476"/><path d="M14.249 5.615l-.932.198-.108-.51"/><g><path d="M13.493 6.454l.1-.947-.52-.055"/><path d="M13.486 6.456l-.477-.825.452-.261"/></g><g><path d="M12.463 6.005l.932-.198-.108-.51"/><path d="M12.46 5.998l.637-.708.387.35"/></g></g><g><path d="M14.399 3.58l.1.948.518-.054"/><path d="M14.406 3.577l.637.708-.387.35"/><path d="M15.507 3.805l-.87.388.212.476"/><path d="M15.513 3.81l-.477.826-.452-.26"/><path d="M15.626 4.923l-.638-.708-.388.349"/><path d="M15.622 4.93l-.932-.199.108-.51"/><g><path d="M14.59 5.389l.476-.825-.452-.261"/><path d="M14.582 5.387l-.1-.947.52-.055"/></g><g><path d="M13.831 4.56l.933.198.108-.51"/><path d="M13.83 4.552l.871-.388.212.477"/></g></g></g></g></g><g><mask id="g" fill="#fff"><use xlink:href="#f"/></mask><use fill="#006DA0" xlink:href="#f"/><g mask="url(#g)"><g transform="matrix(1 0 0 -1 0 6.667)"><use fill="#E8525D" xlink:href="#a"/><use stroke="#FFF" mask="url(#h)" stroke-linecap="round" stroke-linejoin="round" xlink:href="#a"/></g><use fill="#E8525D" xlink:href="#b"/><use stroke="#FFF" mask="url(#i)" stroke-linecap="round" stroke-linejoin="round" xlink:href="#b"/></g><g mask="url(#g)"><use fill="#C7152A" xlink:href="#c"/><use stroke="#FFF" mask="url(#j)" xlink:href="#c"/></g><path d="M5.714 2.721V0H4.49v2.721H-.104v1.225H4.49v2.72h1.224v-2.72h4.39V2.72h-4.39z" fill="#E84550" mask="url(#g)"/></g></g></svg>