<svg width="24" height="16" viewBox="0 0 24 16" xmlns="http://www.w3.org/2000/svg"><title>flag-pt</title><g fill="none" fill-rule="evenodd"><path fill="#E84550" d="M0 0h24v16H0z"/><path fill="#287E6E" d="M0 0h12v16H0z"/><g fill="#EDED4A"><path d="M15.248 10.243l-.012.021c-.01.009-.03.011-.059.008l-.219.34c.01.028.01.05-.002.067l-.046.073-.002.002c-.02.03-.056.03-.121.024a1.469 1.469 0 0 1-.284-.071 10.13 10.13 0 0 1-2.25.322v1.128h-.03v.044h-.103v-.044h-.295v.044h-.103v-1.17c-1.345-.043-2.439-.309-2.966-.537l-.045-.077a.084.084 0 0 1 .019-.037l-.097-.157a8.13 8.13 0 0 1-.041-.013H8.59l-.044-.078c.01-.122.41-.28.77-.385.768-.223 1.603-.294 2.405-.305v-.145a37.717 37.717 0 0 1-.14-.084A14.023 14.023 0 0 1 9.7 9.065c-.89-.13-1.46-.357-1.575-.425V8.536a.139.139 0 0 1 .032-.049v-.151a.51.51 0 0 1-.031-.017v-.004.001-.101c.044-.13.503-.329 1.145-.471-.589-.419-.93-.734-.848-.863l.043-.077h.003a.12.12 0 0 1 .043-.013l.186-.347c-.014-.034-.017-.063-.008-.087l.006-.012.044-.078h.001l.004-.007c.033-.025.087-.035.16-.031.208-.096.516-.184.892-.257.53-.096 1.198-.145 1.925-.154V4.583h.103v.043h.295v-.043h.101v.043h.029V5.82c.646.01 1.269.054 1.77.144.462.09.919.23 1.086.355l.088.14a.256.256 0 0 0-.007-.008l.005.008a.245.245 0 0 1-.033.022l.07.122a.217.217 0 0 1 .058.04l.06.106h-.001c-.029.044-.559.227-1.34.361a13.53 13.53 0 0 1-1.755.147v.235c.766.017 1.499.097 2.095.213.703.14 1.197.316 1.366.514v.097a.201.201 0 0 1-.043.035v.133l.001.013c.016.015.03.029.042.043v.098c-.101.117-.719.295-1.493.42l-.022.004c.732.535 1.175.96 1.098 1.112l-.047.07zm-4.88-3.465c.38.041.833.07 1.354.076v-.63c-.803.004-1.442.052-1.996.148a7.12 7.12 0 0 0-.182.037c.233.091.51.216.824.37zm.91.47c.142.006.29.01.444.011v.23h-.002l-.442-.241zm2.433 1.47c.177-.02.343-.042.496-.066a7.5 7.5 0 0 0 1.125-.258 5.506 5.506 0 0 0-1.002-.286 12.492 12.492 0 0 0-1.892-.206c.46.278.89.555 1.273.816zm-.66.463l-.07.004c.129.071.254.139.376.203l-.307-.207zm-1.329-.834v.108a76.044 76.044 0 0 1-.847-.523l.106-.007c.238.13.487.272.741.422zm0 1.505v.769a13.658 13.658 0 0 1-2.634-.36c.116-.048.241-.09.34-.118.7-.201 1.498-.285 2.294-.29zm1.016.022c.425.23.81.425 1.133.574l-.153.025c-.431.058-.78.117-1.466.143v-.761c.165.003.328.01.486.019zm-.488-3.649v.626c.671-.014 1.21-.073 1.648-.136.37-.05.658-.123.863-.19a8.946 8.946 0 0 0-.676-.152c-.521-.098-1.162-.14-1.835-.148zM9.737 8.064c.335.222.717.464 1.128.716-.443-.027-.825-.07-1.152-.12a8.722 8.722 0 0 1-1.207-.277c.274-.111.645-.208.955-.27.089-.017.18-.034.276-.05z"/><path d="M15.285 8.3c.005 1.066-.54 2.021-.979 2.443a3.523 3.523 0 0 1-2.406.998c-1.074.02-2.086-.68-2.358-.988-.53-.601-.963-1.365-.977-2.394.066-1.162.522-1.972 1.184-2.527a3.536 3.536 0 0 1 2.275-.806c.846.022 1.835.437 2.518 1.261.447.54.641 1.126.743 2.014zm-3.376-3.646c2.062 0 3.758 1.678 3.758 3.736 0 2.058-1.696 3.736-3.758 3.736A3.747 3.747 0 0 1 8.165 8.39a3.747 3.747 0 0 1 3.744-3.736z"/></g><path d="M9.55 8.843c0 .641.262 1.22.684 1.644.424.425 1 .693 1.637.693.642 0 1.224-.262 1.646-.685a2.331 2.331 0 0 0 .683-1.65v-3.12L9.55 5.72v3.123z" stroke="#FFF" stroke-width=".2" fill="#FFF"/><path d="M9.548 8.861v.002c0 .637.263 1.217.685 1.638a2.315 2.315 0 0 0 3.28.004c.42-.42.68-1 .68-1.64V5.721L9.551 5.72l-.003 3.141zm3.613-2.104V8.7l-.001.206a1.343 1.343 0 0 1-.38.951 1.263 1.263 0 0 1-.913.395c-.354 0-.67-.156-.905-.401a1.382 1.382 0 0 1-.38-.952l-.001-2.147 2.58.005z" fill="#E84550"/><path d="M11.644 8.477c0 .084.032.16.084.215.051.056.122.09.2.09.078 0 .15-.034.201-.09a.316.316 0 0 0 .083-.215V8.07h-.567l-.001.407M11.644 7.492c0 .084.032.16.084.215.051.056.122.09.2.09.078 0 .15-.034.201-.09a.316.316 0 0 0 .083-.215v-.407h-.567l-.001.407M10.857 8.477c0 .084.032.16.083.215.052.056.123.09.201.09.078 0 .15-.034.2-.09a.316.316 0 0 0 .084-.215V8.07h-.567l-.001.407M12.429 8.477c0 .084.032.16.084.215.051.056.123.09.2.09.079 0 .15-.034.201-.09a.316.316 0 0 0 .083-.215V8.07h-.567l-.001.407M11.644 9.453c0 .083.032.16.084.215.051.056.122.09.2.09.078 0 .15-.034.201-.09a.316.316 0 0 0 .083-.215v-.408h-.567l-.001.408" fill="#039"/><path fill="#EDED4A" d="M9.882 5.979h.5v.5h-.5zM11.751 5.979h.5v.5h-.5zM13.404 5.94h.5v.5h-.5zM9.882 8.039h.5v.5h-.5zM13.404 8h.5v.5h-.5zM13.181 9.784l.354.354-.354.354-.353-.354zM10.59 9.785l.353.353-.354.354-.353-.354z"/></g></svg>