<svg width="24" height="16" viewBox="0 0 24 16" xmlns="http://www.w3.org/2000/svg"><title>flag-sx</title><g fill="none" fill-rule="evenodd"><path fill="#E84550" d="M0 0l10.616 8.009H24V0z"/><path fill="#FFF" d="M0 0l10.631 8.027L0 16z"/><path fill="#006DA0" d="M0 16l10.616-7.991H24V16z"/><g transform="translate(1.735 4.797)"><path d="M4.628 1.257l.003-.123s-.067-.106.01-.22c0 0-.164-.087-.125-.223 0 0-.149-.038-.138-.2 0 0-.16-.012-.176-.148 0 0-.16.026-.23-.107 0 0-.157.03-.201-.079 0 0-.152.053-.242-.076 0 0-.16.065-.227-.056-.067.12-.227.056-.227.056-.089.129-.242.075-.242.075-.042.11-.198.08-.198.08-.07.132-.23.106-.23.106-.016.135-.176.147-.176.147.013.163-.135.2-.135.2.039.136-.125.222-.125.222.08.115.014.22.014.22l-.004.114 2.649.013" fill="#FF0"/><path d="M4.628 1.257l.003-.123s-.067-.106.01-.22c0 0-.164-.087-.125-.223 0 0-.149-.038-.138-.2 0 0-.16-.012-.176-.148 0 0-.16.026-.23-.107 0 0-.157.03-.201-.079 0 0-.152.053-.242-.076 0 0-.16.065-.227-.056-.067.12-.227.056-.227.056-.089.129-.242.075-.242.075-.042.11-.198.08-.198.08-.07.132-.23.106-.23.106-.016.135-.176.147-.176.147.013.163-.135.2-.135.2.039.136-.125.222-.125.222.08.115.014.22.014.22l-.004.114 2.649.013z" fill="#F9D90F"/><path d="M4.566 1.103C4.149 1.06 3.67.963 3.3 1.17c-.248-.146-.594-.138-.888-.109-.16.029-.347.029-.514.056l-.026.004c-.303.02-.577-.07-.84-.187.083.474.176.96.222 1.456.099.735-.348 1.352-.165 2.078.11.348.493.55.843.59.34.021.691.077 1.006.145.06.012.13.04.171.058.087.036.15.09.206.146.19-.197.468-.252.742-.281.494-.058 1.104-.027 1.407-.475v-.025c.164-.248.142-.625.071-.906-.005-.098-.031-.184-.045-.278-.302-.797-.044-1.694.086-2.498-.158.087-.335.128-.512.171-.14.019-.298.01-.44.003l-.06-.016" fill="#DC171D"/><path d="M5.187 3.392c-.002.052.026.094.037.142.057.349.113.81-.246 1.027-.397.252-.917.144-1.377.278a.844.844 0 0 0-.283.17c-.041-.028-.083-.07-.136-.094-.378-.201-.87-.134-1.297-.243-.214-.067-.438-.234-.492-.454-.14-.575.195-1.066.155-1.637a6.957 6.957 0 0 0-.2-1.263c.334.155.72.181 1.096.106.278-.038.601-.04.861.078.144-.061.312-.09.466-.106.294.028.61.082.913.08.202-.011.386-.07.562-.147-.105.675-.305 1.383-.06 2.063" fill="#62AFE1"/><circle fill="#287E6E" cx="2.102" cy="2.001" r=".293"/><path d="M3.863 4.348l.797.001-.002-.881h-.071.117v-.187h-.118l-.002-.39h.078l-.971-.627-.002-.326h.094l-.486-.348-.483.348h.093l.002.325-.966.627h.077l.002.387h-.115v.189l.116.004v-.004h-.061l.002.88.812.001v.01l1.087.001v-.01zm-1.775-.823l-.006.83.006-.83zm2.442.002h.002l.003.832-.005-.832zM4.598 1.534c.091-.002.115.377.115.564a.85.85 0 0 1 .33.23H4.16a.849.849 0 0 1 .326-.23c0-.188.02-.566.112-.564" fill="#FFF"/><path d="M4.985 5.966l.003.159c-.436.24-1.443.292-1.665.29-.222.002-1.241-.05-1.68-.292l.002-.16C.092 5.703-.029 4.204.047 3.595l.154.01c.015-.148.048-.332.117-.54l.454.145-.137.734-.127.02c.073.555.376 1.462 1.72 1.523l-.009.079c.253.107.725.179 1.103.179H3.32c.377.001.835-.07 1.087-.177l-.009-.078c1.344-.06 1.639-.968 1.706-1.523l-.126-.02-.143-.733.452-.143c.07.207.105.39.121.54l.155-.01c.08.609-.028 2.107-1.579 2.365z" fill="#F9D90F"/><path d="M.047 3.595l.437.031c.01.37.055 1.784 1.743 1.861l-.052.514C.12 6.023-.037 4.267.047 3.595" fill="#F9D90F"/><path d="M6.288 3.07l-.452.144.143.733.43.07s.07-.387-.121-.947" fill="#FF0"/><path d="M6.564 3.6l-.438.03C6.12 4 6.087 5.415 4.4 5.49l.058.514C6.51 6.027 6.652 4.273 6.564 3.6" fill="#F9D90F"/></g></g></svg>