<svg width="24" height="16" viewBox="0 0 24 16" xmlns="http://www.w3.org/2000/svg" xmlns:xlink="http://www.w3.org/1999/xlink"><title>flag-ph</title><defs><path id="a" d="M0 0h24v16H0z"/></defs><g fill="none" fill-rule="evenodd"><mask id="b" fill="#fff"><use xlink:href="#a"/></mask><use fill="#FFF" xlink:href="#a"/><path fill="#3A75C4" mask="url(#b)" d="M0 13h24v3H0z"/><path fill="#006DA0" mask="url(#b)" d="M0 0h24v8H0z"/><path fill="#E84550" mask="url(#b)" d="M0 8h24v8H0z"/><path fill="#FFF" mask="url(#b)" d="M10 8L0 0v16z"/><path d="M3.056 8.567l-.733 1.127.278-1.316a.862.862 0 0 1-.122-.122l-1.316.278 1.127-.733a.867.867 0 0 1 0-.173l-1.127-.734 1.316.278A.862.862 0 0 1 2.6 7.05l-.278-1.315.733 1.126a.867.867 0 0 1 .173 0l.734-1.126-.278 1.315a.862.862 0 0 1 .122.122l1.316-.278-1.127.734a.867.867 0 0 1 0 .173l1.127.733-1.316-.278a.862.862 0 0 1-.122.122l.278 1.316-.734-1.127a.867.867 0 0 1-.173 0zm3.515-.424a.429.429 0 1 0 0-.857.429.429 0 0 0 0 .857zM1.43 3.857a.429.429 0 1 0 0-.857.429.429 0 0 0 0 .857zm0 8.572a.429.429 0 1 0 0-.858.429.429 0 0 0 0 .858z" fill="#FDD64D"/></g></svg>