<svg width="24" height="16" viewBox="0 0 24 16" xmlns="http://www.w3.org/2000/svg" xmlns:xlink="http://www.w3.org/1999/xlink"><title>flag-cy</title><defs><path id="a" d="M0 0h24v16H0z"/><mask id="b" x="0" y="0" width="24" height="16" fill="#fff"><use xlink:href="#a"/></mask></defs><g fill="none" fill-rule="evenodd"><path fill="#FFF" d="M0 0h24v16H0z"/><path d="M11.544 14.947a.03.03 0 0 1-.01-.007l-.004-.003a.63.63 0 0 1-.048-.05 5.472 5.472 0 0 1-.14-.17c-.094-.117-.17-.217-.186-.236l-.023-.03-.233-.073-.17-.08.09-.101.313.133.233.048.43.317-.124.108a1.433 1.433 0 0 0-.086.084.329.329 0 0 0-.036.048l.027-.016.03.022-.06.006h-.003zm-1.6-.48c-.204 0-.404-.056-.597-.167 0 0 .025-.048.086-.093a.553.553 0 0 1 .333-.095h.004c.2 0 .447.069.73.203a1.08 1.08 0 0 1-.556.152zm-.881-.195a.127.127 0 0 1-.095-.04.194.194 0 0 1-.043-.087.438.438 0 0 1-.01-.126.13.13 0 0 1 .046-.01h.004c.075 0 .134.064.16.13.014.036.017.067.008.091-.009.024-.037.041-.07.041zm1.55-.18c-.52-.074-.741-.263-.835-.408-.1-.154-.08-.297-.079-.298 0 0 .032-.01.08-.01.139 0 .493.07.834.716zm-1.067-.103c-.223 0-.392-.039-.504-.114a.31.31 0 0 1-.11-.124.203.203 0 0 1-.018-.06.681.681 0 0 1 .268-.051c.172 0 .433.056.71.323a2.7 2.7 0 0 1-.347.026zm-1.078-.042c-.234 0-.556-.071-.757-.272.002-.001.22-.057.466-.063h.044c.22 0 .388.043.5.127.04.029.06.056.066.083.004.023-.008.047-.032.065-.05.038-.14.058-.268.06h-.018zm-.76-.39a.096.096 0 0 1-.074-.035.176.176 0 0 1-.033-.075c-.013-.056-.01-.11-.01-.11v-.001a.091.091 0 0 1 .037-.008c.035 0 .062.019.078.034.023.023.04.05.05.08a.12.12 0 0 1 .006.079.057.057 0 0 1-.054.036zm1.756-.04a.127.127 0 0 1-.095-.04.194.194 0 0 1-.043-.086.438.438 0 0 1-.01-.126.13.13 0 0 1 .047-.01h.003c.075 0 .135.065.16.13.015.036.017.067.008.091-.009.025-.037.041-.07.041zm-.855-.035c-.472-.016-.717-.15-.84-.26a.549.549 0 0 1-.127-.164.35.35 0 0 1-.027-.073s.045-.016.117-.017h.011c.16 0 .483.066.866.514zm.512-.047c-.38-.058-.595-.221-.708-.348a.726.726 0 0 1-.157-.262.558.558 0 0 1 .15-.014c.19.004.538.09.715.623zm-1.95-.183a1.48 1.48 0 0 1-.358-.043c-.2-.05-.285-.125-.321-.18a.19.19 0 0 1-.031-.076.128.128 0 0 1-.001-.032h.001s.132-.038.314-.04c.093-.002.187.006.278.024.317.063.48.302.482.304-.002 0-.152.043-.364.043zm.882-.32a.127.127 0 0 1-.095-.04.196.196 0 0 1-.043-.087.431.431 0 0 1-.01-.125.13.13 0 0 1 .047-.01h.003c.075 0 .135.065.16.13.014.035.017.066.008.09-.01.026-.037.042-.07.042zm-.663-.091c-.003 0-.18-.046-.359-.157-.166-.102-.37-.283-.394-.565 0 0 .016-.004.038-.005a.46.46 0 0 1 .284.107c.157.12.302.328.431.62zm.433-.016a1.17 1.17 0 0 1-.284-.183 1.823 1.823 0 0 1-.501-.7.23.23 0 0 1 .095-.021h.014c.073.002.183.032.305.164.14.151.265.4.372.74zm-1.122-.033c-.144 0-.194-.078-.208-.112-.024-.055-.017-.11-.017-.111a.319.319 0 0 1 .072-.01h.005c.114 0 .204.058.243.115.007.011.03.05.011.082-.015.024-.05.036-.106.036zm-.32-.404c-.08 0-.204-.005-.334-.028-.129-.024-.202-.133-.24-.221-.043-.096-.054-.187-.055-.188.4.012.587.128.675.224.09.099.096.201.096.208 0 0-.057.005-.142.005zm.415-.414a1.602 1.602 0 0 1-.091-.127c-.047-.074-.09-.15-.09-.213 0-.06-.015-.188-.024-.258-.01-.09-.021-.166-.022-.173.01.004.25.094.25.318s-.023.45-.023.452zm-.31-.022h-.007a1.22 1.22 0 0 1-.333-.145 1.419 1.419 0 0 1-.348-.264c-.066-.075-.105-.193-.117-.351a1.3 1.3 0 0 1 .003-.215.124.124 0 0 1 .04-.006c.052 0 .109.024.185.077.06.04.125.097.195.165.12.119.215.238.216.24.009.015.077.138.13.257.034.076.053.131.06.173.005.023.006.039 0 .053a.027.027 0 0 1-.011.014.032.032 0 0 1-.013.002z" fill="#287E6E"/><path d="M10.721 14.947a.03.03 0 0 0 .01-.007l.005-.003a.63.63 0 0 0 .047-.05c.04-.045.093-.111.14-.17.094-.117.171-.217.186-.236l.024-.03.233-.073.17-.08-.091-.101-.312.133-.233.048-.431.317c0 .001.063.053.124.108.027.025.062.057.086.084a.329.329 0 0 1 .036.048l-.027-.016-.029.022.06.006h.002zm1.6-.48c.204 0 .405-.056.597-.167 0 0-.025-.048-.086-.093a.553.553 0 0 0-.333-.095h-.003c-.201 0-.447.069-.731.203.01.007.232.152.556.152zm.882-.195a.127.127 0 0 0 .095-.04.194.194 0 0 0 .042-.087c.016-.06.011-.12.01-.126a.13.13 0 0 0-.046-.01l-.003-.001c-.076 0-.135.065-.16.13-.015.037-.018.068-.009.092.01.024.038.041.07.041zm-1.55-.18c.52-.074.74-.263.834-.408.1-.154.08-.297.08-.298h-.001s-.032-.01-.08-.01c-.139 0-.493.07-.834.716zm1.067-.103c.222 0 .392-.039.503-.114a.31.31 0 0 0 .11-.124c.01-.02.016-.04.019-.06a.681.681 0 0 0-.269-.051c-.172 0-.433.056-.709.323a2.7 2.7 0 0 0 .346.026zm1.077-.042c.235 0 .557-.071.758-.272-.003-.001-.22-.057-.466-.063h-.044c-.22 0-.389.043-.501.127-.04.029-.06.056-.065.083-.004.023.008.047.031.065.05.038.141.058.269.06h.018zm.76-.39a.096.096 0 0 0 .074-.035.176.176 0 0 0 .034-.075c.012-.056.009-.11.008-.11v-.001a.091.091 0 0 0-.036-.008.113.113 0 0 0-.078.034.209.209 0 0 0-.05.08.12.12 0 0 0-.006.079.057.057 0 0 0 .054.036zm-1.756-.04a.127.127 0 0 0 .095-.04.194.194 0 0 0 .043-.086.438.438 0 0 0 .01-.126.13.13 0 0 0-.046-.01h-.004c-.075 0-.134.065-.16.13-.014.036-.017.067-.008.091.009.025.037.041.07.041zm.856-.035c.472-.016.717-.15.839-.26a.549.549 0 0 0 .127-.164.35.35 0 0 0 .027-.073s-.045-.016-.117-.017h-.01c-.16 0-.484.066-.866.514zm-.513-.047c.38-.058.595-.221.708-.348a.726.726 0 0 0 .157-.262.558.558 0 0 0-.15-.014c-.19.004-.537.09-.715.623zm1.95-.183c.124 0 .245-.014.359-.043.199-.05.284-.125.32-.18a.19.19 0 0 0 .031-.076.128.128 0 0 0 .001-.032c-.001 0-.133-.038-.315-.04a1.314 1.314 0 0 0-.278.024.814.814 0 0 0-.482.304c.002 0 .153.043.364.043zm-.882-.32a.127.127 0 0 0 .095-.04c.02-.02.033-.049.043-.087.015-.06.01-.12.01-.125a.13.13 0 0 0-.046-.01h-.004c-.075 0-.134.065-.16.13-.014.035-.016.066-.007.09.009.026.036.042.069.042zm.663-.091c.003 0 .18-.046.36-.157.165-.102.369-.283.394-.565 0 0-.016-.004-.04-.005a.46.46 0 0 0-.284.107c-.156.12-.3.328-.43.62zm-.433-.016c.001 0 .127-.05.284-.183.147-.122.353-.343.502-.7a.23.23 0 0 0-.096-.021h-.014c-.072.002-.182.032-.305.164-.14.151-.265.4-.372.74h.001zm1.122-.033c.145 0 .194-.078.209-.112.024-.055.016-.11.016-.111a.319.319 0 0 0-.072-.01h-.005a.298.298 0 0 0-.242.115c-.008.011-.031.05-.012.082.016.024.051.036.106.036zm.32-.404c.081 0 .205-.005.335-.028.128-.024.201-.133.24-.221.042-.096.054-.187.054-.188-.399.012-.587.128-.675.224a.352.352 0 0 0-.096.208s.057.005.142.005zm-.415-.414c.033-.041.063-.083.091-.127.048-.074.091-.15.091-.213 0-.06.015-.188.023-.258.01-.09.022-.166.022-.173-.01.004-.25.093-.25.318 0 .224.023.45.023.452zm.31-.022h.008a1.22 1.22 0 0 0 .332-.145c.152-.087.276-.181.349-.264.066-.075.105-.193.116-.351a1.3 1.3 0 0 0-.003-.215.124.124 0 0 0-.039-.006c-.053 0-.11.024-.186.077-.06.04-.125.097-.194.165-.12.119-.215.238-.216.24h-.001a3.558 3.558 0 0 0-.13.257.828.828 0 0 0-.06.173c-.005.023-.006.039 0 .053.002.006.006.01.011.014a.032.032 0 0 0 .014.002z" fill="#287E6E"/><path d="M19.465 2.864l-.07.028-.028.011-.086-.004-.08.038-.142.097-.007.005-.053.014-.049-.022-.028.013-.01.058-.026.041-.033.023-.113.012-.096.05-.125-.034-.057.022-.123.111-.063.03-.022-.001-.084-.005-.035.012-.052.05-.1.008-.03.022-.05.098-.052.054-.03.006-.033-.012-.024.005-.011.062-.024.026-.067.023-.053.045-.046.024-.063-.002h-.014l-.063.035-.117.01-.049.046-.01.01-.023.014-.037.022-.01.006-.044-.008-.053.02-.02-.032-.037.022-.048.002-.06-.027-.046-.02-.033.005-.012.058-.001.006-.035.047-.066.04-.009.01-.074.097-.142.15-.12.06-.124.038-.087.071-.228.113-.36.18-.073.023-.106.017-.188.069-.166.05-.01.003-.032.01-.235.07-.109-.01-.064.023-.168-.019-.117.002-.074.016-.14.067-.234.112-.078.071-.12.063-.142.045v-.062l-.05.016-.035.01-.115.019h-.064l-.04-.012-.006.002-.234.077-.262.026-.13.042-.098-.002-.061.018-.12.015-.043-.012-.01-.002-.352.015-.161-.018-.077.017-.13-.043-.187-.022-.044-.013-.1-.03-.044.026-.033.004-.08-.029h-.03l-.065.023-.038-.01-.036-.028-.082-.012-.05-.042-.283.037-.076-.023-.257-.074-.04.002-.052.038-.076.028-.067.017-.09.003-.105-.027-.108-.053-.04-.01-.09.01-.026.002-.165-.088-.21-.132-.144-.069-.054-.008-.007.025.027.084.009.084-.003.076-.002.048.014.043.052.057.021.058.016.158v.161l-.025.257-.009.039-.03.133-.027.122-.107.325-.029.04-.072.049-.162.11-.12.07-.038.015-.097.008-.06-.004-.076-.04-.074-.02-.097-.07-.108-.022-.118-.068-.03-.037-.065-.006-.09-.027-.032-.01-.023-.006-.114-.003-.106-.05-.056-.013-.076-.004-.08.037-.04.02-.052-.021-.037.002-.042.064-.006.01-.03.015h-.035l-.028-.002-.03.014-.042.017-.036.016-.018.008-.01.002-.02.003-.024.005-.043-.025-.022-.013-.038-.008-.02.015-.004.069-.019.041-.058.052-.06.053-.042.061-.11.252-.07.102-.02.023-.073.08-.064.05-.148.114-.14.052-.12.025H5.51l-.111-.015-.1-.03-.11-.069-.12-.096-.173-.172-.025-.015-.005-.003-.055-.035h-.04l-.016.027-.009.038-.007.034-.02.19.001.012.01.078.133.185.04.098.007.011.027.046.021.035.002.003.045.135-.031.076.016.05-.04.032-.008.044.119.148.026.066-.03.09-.045.051-.013.014.006.038.055.05.092.082.05.122.037.033.044-.01.024.02.037-.001.037.036.023.011.037.019.03.038.006.117.055.146v.09l.035.059.01.046-.018.122.044.04.047-.01.03.004.049.041.059.09.058-.008.036.017.177.16.04.02.003.002.029.014.036.037.055-.037.006-.001.06-.005.028.018.05.034h.068l.145.044.064.016.127.08.055.033.032.026.043.035.085.037.073.017.04.01.03.011v-.002.002l.159.061.085.02.08.03.058.02.042.001.06-.05.058-.004.048.012.048-.008.074-.046.015-.021.053-.025.178-.022.052.017.134-.059.09.025.079-.028.173.039.046.032.052.059h.006l.057.001-.024.04.076.08.069.103.004.014.05.146.037.051.026.073v.047l-.04.03-.006.018-.002.006.008.02.015-.008.029-.016.035-.006.062.007.04.004.066-.032.042-.021.07.03.075-.002.031.015.09.04.046.005.017-.012.01-.025-.005-.03-.034-.04-.076-.088-.031-.045-.024-.066-.007-.084-.005-.056.01-.074.02-.027.015-.06.004-.015.042-.055.112-.072.12-.108.094-.062.098-.043.003-.012.01.005.25-.085h.004l.11-.02.748.053.028-.008.025-.07.013-.013.009-.009.082-.036.039-.005.106.026.044.01.07-.039.05.001.102-.056.063.002.024-.01.124-.088.119-.034.03-.017.011-.006.122-.064.078-.06.066-.035.074-.019.191-.013.038-.065.083-.01.05-.057.056-.023.041-.058.034-.05.048-.027.153-.01.181.023.024-.015.041-.146.043-.028.116-.168V8.858l.02-.073-.014-.131.016-.134.071-.17.064-.068.102-.069.052-.022.073-.013.01-.002.02-.003.253-.003c.003-.003.092-.001.092-.001l.084-.002.213.038.016.003.072.023.083.065.088.086.017.016.057.024.017.008.047-.008.067-.035.05-.043.07-.037.001-.003.04-.058v-.001h.001l.015-.024.133-.052.157-.009.018-.01.01-.005.041-.048h.04l.093.033.066-.013.053.021.04-.005.078-.009.082.058.048.007.17.099.009.001.004.001.01.002.02-.006.03-.009.004-.001.004.005.02.027.026.004.031-.042-.012-.019-.005-.007-.06-.012-.055-.093.052-.056-.082-.1-.013-.016-.005-.007-.028-.043-.142-.217-.186-.148-.065-.052-.023-.018-.099-.1-.07-.094-.01-.02-.015-.033-.042-.092-.074-.057-.06-.066-.003-.003-.124-.17-.02-.027-.03-.017h-.062l-.006-.007-.003-.003.002-.003.03-.03.033-.007.014-.033-.063-.183V6.53l-.005-.058.051-.266.007-.032.088-.179.054-.045.06-.116.05-.075.05-.047.008-.005.088-.054.074-.01.07-.01.123.038.117-.002.023-.003.053-.006.087-.027.042-.026.02-.033.046-.15.014-.047.027-.051.16-.184.12-.111.27-.198.133-.08.067-.04.604-.268.157-.16.082-.082.145-.097.169-.07.145-.115.032-.04.04-.129.034-.008.03-.065.008-.019.12-.084.013-.006.461-.232.067.01.036-.054.135-.023.024-.004.033-.016.029-.048v-.01l.004-.128.028-.035.016-.084.014-.02.016-.02.038-.027-.007-.016v.001z" fill="#FD9B3F"/><g stroke="#E6E6E6"><use mask="url(#b)" xlink:href="#a"/></g></g></svg>