<svg width="24" height="16" viewBox="0 0 24 16" xmlns="http://www.w3.org/2000/svg" xmlns:xlink="http://www.w3.org/1999/xlink"><title>flag-ug</title><defs><path id="a" d="M0 0h24v16H0z"/></defs><g fill="none" fill-rule="evenodd"><mask id="b" fill="#fff"><use xlink:href="#a"/></mask><use fill="#FACA37" xlink:href="#a"/><g mask="url(#b)"><path fill="#2B3541" d="M0 0h24v2.667H0z"/><path fill="#EDED4A" d="M0 2.667h24v2.667H0z"/><path fill="#E84550" d="M0 5.333h24V8H0z"/><path fill="#2B3541" d="M0 8h24v2.667H0z"/><path fill="#EDED4A" d="M0 10.667h24v2.667H0z"/><path fill="#E84550" d="M0 13.333h24V16H0z"/></g><g transform="translate(9 5)" mask="url(#b)"><circle fill="#FFF" cx="3.26" cy="3.26" r="3"/><g transform="translate(2.48 1.52)"><path d="M.55.501L.31.137C.401.06.56 0 .81 0l-.026.4L.55.5z" stroke="#000" stroke-width=".1" fill="#D90000"/><path d="M.547.364L.568.002s.311-.022.48.218L.881.501.547.364z" stroke="#000" stroke-width=".1" fill="#FCDC04"/><path d="M.822.479l.244-.33c.163.15.23.257.256.418.004.004-.387.085-.387.081C.935.644.826.483.822.48z" stroke="#000" stroke-width=".1" fill="#D90000"/><path d="M.492 3.501s.232-.266.683-.208c-.068-.11-.287-.098-.287-.098S.82 2.678.873 2.653c.053-.026.279.002.279.002.03 0 .08-.081.04-.132-.04-.051-.16-.247-.11-.285.048-.039.314.02.314.02l-.75-.96S.568.934.721.76C.907.608.888.441.882.444.855.276.6.154.427.31.326.433.394.527.394.527S.126.599.116.647C.105.692.418.636.418.636l-.03.216s-.609.553-.143 1.031a.098.098 0 0 0 .015-.02s.164.201.336.246c.162.166.147.14.147.14s.032.262.002.313C.705 2.55.292 2.536.23 2.56c-.055.017-.268.006-.214.353l.076-.177s-.006.126.045.17c-.009-.131.049-.22.049-.22s.01.144.042.165c.032.022.032-.234.209-.212.176.02.304.015.304.015s.06.5.04.546c-.127-.03-.431.013-.45.09.178-.01.261.01.261.01s-.145.128-.1.202z" stroke="#000" stroke-width=".1" fill="#000"/><path d="M.764.773s-.739.488-.42.862c.017-.052.01-.085.02-.083a.39.39 0 0 0 .084.035C.45 1.56.414 1.502.414 1.502l.1.015-.058-.065.142.01s-.05-.08-.034-.08l.117.005C.47 1.161.669.974.764.773z" stroke="#9CA69C" stroke-width=".1" fill="#9CA69C"/><path d="M.91.355S.968.619.743.697C.707.713.566.744.587.797c.026.074.089.06.177.047C1 .817 1.27.495.91.354z" stroke="#9CA69C" stroke-width=".1" fill="#9CA69C"/><ellipse fill="#FFF" cx=".664" cy=".644" rx=".18" ry=".18"/><path d="M.56.64c-.068.05-.427.379-.074.5C.852 1.052.753.99.833.92.835.772.651.733.561.64z" stroke="#000" stroke-width=".1" fill="#D90000"/><path d="M.7 1.846c-.014.066-.08.311.01.5.252-.107.368-.076.454-.02a2.09 2.09 0 0 1-.463-.48z" stroke="#9CA69C" stroke-width=".1" fill="#9CA69C"/><path d="M.862 2.33l.023.486s.293.03.428 0c.136-.03-.007-.34-.45-.487z" stroke="#FFF" stroke-width=".1" fill="#FFF"/><path d="M1.464 2.359s-.153-.37-.544-.464C.528 1.801.58 1.385.61 1.36c.017-.036.03-.092.143-.038.113.053.632.314.706.327.075.013.01.72.004.71z" stroke="#000" stroke-width=".1" fill="#9CA69C"/><path d="M1.092 1.893c-.006.004.524.313.364.579.151-.1.102-.275.102-.275s.123.321-.177.479c.032.028.054.021.054.021l-.051.051s-.024.039.178-.06c-.055.045-.06.077-.06.077s.016.043.148-.072c-.107.115-.13.174-.13.172.287-.025.913-.96-.198-1.236l.051.053-.28.21z" stroke="#000" stroke-width=".1" fill="#D90000"/><path d="M1.116 1.877c.072.064.097.085.106.117-.066-.019-.126-.014-.126-.014s-.142-.17-.168-.183a.76.76 0 0 1-.13-.087c-.055-.034-.106-.273.098-.204.211.125.24.135.24.135l.252.098.145.202s-.258-.16-.29-.162c.07.071.11.17.11.17-.08-.03-.152-.056-.237-.072z" stroke="#000" stroke-width=".1" fill="#FFF"/><path d="M.113.866S.56.57.613.611" stroke="#FFF" stroke-width=".1" fill="#000"/></g></g></g></svg>