<svg width="24" height="16" viewBox="0 0 24 16" xmlns="http://www.w3.org/2000/svg"><title>flag-mn</title><g fill="none" fill-rule="evenodd"><path fill="#E84550" d="M0 0h24v16H0z"/><path fill="#006DA0" d="M8 0h8v16H8z"/><circle fill="#F9CF02" cx="4" cy="6.1" r="1.1"/><circle fill="#E84550" cx="4" cy="5.6" r="1.2"/><circle fill="#EDED4A" cx="4" cy="5.8" r=".8"/><path d="M3.5 4.3a.5.5 0 0 0 1 0c0-.2-.125-.225-.125-.3 0-.075.075-.175-.075-.3.075.125-.05.15-.05.275 0 .125.05.125.05.225a.1.1 0 0 1-.2 0c0-.1.1-.2.1-.35 0-.15-.025-.2-.1-.325C4.025 3.4 3.9 3.3 4 3.2c-.15.05-.075.25-.075.375s-.1.2-.1.35c0 .15.075.175.075.275a.1.1 0 0 1-.2 0c0-.1.05-.1.05-.225s-.125-.15-.05-.275c-.15.125-.075.225-.075.3 0 .075-.125.1-.125.3zM1.8 7.4v4.8h1V7.4h-1zm3.4 0v4.8h1V7.4h-1zM3 8.2v.4h2v-.4H3zM3 11v.4h2V11H3zm0-3.6h2L4 8l-1-.6zm0 4.2h2l-1 .6-1-.6z" fill="#EDED4A"/><g transform="translate(2.94 8.74)" stroke="#E84650" stroke-width=".5"><circle fill="#EDED4A" cx="1.06" cy="1.06" r="1.06"/><path d="M1.06 0a.53.53 0 1 1 0 1.06.53.53 0 1 0 0 1.06"/></g><circle fill="#E84550" cx="4" cy="7.27" r=".2"/><circle fill="#E84550" cx="4" cy="8.33" r=".2"/></g></svg>