<svg width="24" height="16" viewBox="0 0 24 16" xmlns="http://www.w3.org/2000/svg" xmlns:xlink="http://www.w3.org/1999/xlink"><title>flag-vg</title><defs><path id="d" d="M0 0h12v8H0z"/><path id="a" d="M0 .5L11.5 8h.5v-.5L.5 0H0z"/><mask id="f" x="-.5" y="-.5" width="13" height="9"><path fill="#fff" d="M-.5-.5h13v9h-13z"/><use xlink:href="#a"/></mask><path id="b" d="M0 .5L11.5 8h.5v-.5L.5 0H0z"/><mask id="g" x="-.5" y="-.5" width="13" height="9"><path fill="#fff" d="M-.5-.5h13v9h-13z"/><use xlink:href="#b"/></mask><path d="M6.857 3.265V0h-1.47v3.265H-.124v1.47h5.513V8h1.47V4.735h5.267v-1.47H6.857z" id="c"/><mask id="h" x="-.5" y="-.5" width="13.25" height="9"><path fill="#fff" d="M-.625-.5h13.25v9H-.625z"/><use xlink:href="#c"/></mask></defs><g fill="none" fill-rule="evenodd"><path fill="#006DA0" d="M0 0h24v16H0z"/><g><mask id="e" fill="#fff"><use xlink:href="#d"/></mask><use fill="#006DA0" xlink:href="#d"/><g mask="url(#e)"><g transform="matrix(1 0 0 -1 0 8)"><use fill="#E8525D" xlink:href="#a"/><use stroke="#FFF" mask="url(#f)" stroke-linecap="round" stroke-linejoin="round" xlink:href="#a"/></g><use fill="#E8525D" xlink:href="#b"/><use stroke="#FFF" mask="url(#g)" stroke-linecap="round" stroke-linejoin="round" xlink:href="#b"/></g><g mask="url(#e)"><use fill="#C7152A" xlink:href="#c"/><use stroke="#FFF" mask="url(#h)" xlink:href="#c"/></g><path d="M6.857 3.265V0h-1.47v3.265H-.124v1.47h5.513V8h1.47V4.735h5.267v-1.47H6.857z" fill="#E84550" mask="url(#e)"/></g><path d="M18.485 12.572c1.001-.102 2.094-1.172 2.094-1.172s.443-.569.66-.25c.216.318.42.478.58.603.159.125.284.466.045.717-.239.25-.614.284-.717-.023-.159.08-1.137 1.263-3.14 1.32-2.036-.035-3.15-1.332-3.15-1.332s-.274.433-.66.092c-.376-.444-.091-.729-.091-.729s.318-.182.41-.307c.147-.17.193-.398.443-.398.296.023.41.262.41.262s1.023 1.08 2.127 1.217c.313.09.99 0 .99 0z" fill="#EDED4A"/><path d="M15.084 5.189l5.847-.035v5.256c.011.683-1.138 1.377-2.935 2.264-1.854-.955-2.924-1.536-2.935-2.275l.023-5.21z" stroke="#FFF" stroke-width=".2" fill="#287E6E"/><path d="M16.837 8.892a.25.25 0 0 0-.034.06c-.047.035-.077.105-.077.105h-.497s-.017.128.235.153c.057.074.1.095.15.114-.033.028-.042.061-.042.106l.535.001s.008-.07-.056-.112c.28-.039.208-.287.442-.3.046.006-.122.105-.122.105s-.142.1-.077.15c.05.041.073-.024.08-.073.007-.05.228-.08.196-.221-.036-.08-.193-.014-.287.036a.249.249 0 0 0-.045-.117.25.25 0 1 0-.4-.007zm-.628-3.087a.25.25 0 0 0-.033.057.302.302 0 0 0-.078.107h-.497s-.016.12.21.15c.027.096.079.211.168.253l-.015-.03h.018l.001.091.342-.004a.25.25 0 0 0-.135.386.25.25 0 0 0-.034.06.304.304 0 0 0-.076.105h-.498s-.017.129.235.153c.057.075.101.095.15.115-.032.027-.042.06-.042.105l.535.002s.009-.07-.055-.112c.28-.04.207-.287.442-.301.045.007-.123.105-.123.105s-.141.1-.077.151c.051.04.074-.024.08-.073.008-.05.228-.081.197-.222-.036-.08-.193-.013-.288.036a.249.249 0 0 0-.045-.116.25.25 0 0 0-.162-.4v-.08h.05s.009-.07-.055-.112c.28-.039.207-.287.442-.3.045.006-.123.105-.123.105s-.141.1-.077.151c.051.04.074-.025.08-.074.008-.049.228-.08.197-.221-.036-.08-.193-.014-.288.036a.249.249 0 0 0-.045-.115.25.25 0 1 0-.4-.007zm-.33.366a.29.29 0 0 0 .107.065.11.11 0 0 0-.04.071l-.067-.136zm.304 1.641a.25.25 0 0 0-.035.06.304.304 0 0 0-.076.105h-.498s-.017.128.235.153c.057.074.101.095.15.115-.032.027-.041.06-.041.105l.535.002s.008-.07-.056-.112c.28-.04.207-.287.442-.301.046.007-.123.105-.123.105s-.141.1-.077.151c.052.04.074-.024.08-.073.008-.05.229-.081.197-.222-.036-.08-.193-.013-.288.036a.249.249 0 0 0-.045-.116.25.25 0 1 0-.4-.008zm-.086 1.963a.247.247 0 0 0-.035.06c-.046.035-.076.105-.076.105h-.497s-.017.128.235.153c.057.074.1.095.15.114-.033.028-.042.061-.042.106l.535.001s.009-.07-.056-.112c.28-.038.208-.286.443-.3.045.006-.123.105-.123.105s-.142.1-.077.151c.051.04.073-.025.08-.074.007-.049.228-.08.197-.221-.036-.08-.193-.014-.288.036a.246.246 0 0 0-.045-.117.25.25 0 1 0-.401-.007zm.02 1.044a.25.25 0 0 0-.035.059.304.304 0 0 0-.076.106h-.498s-.017.128.235.152c.057.075.101.095.15.115-.032.027-.042.06-.041.105l.535.002s.008-.07-.056-.112c.28-.039.207-.287.442-.301.046.007-.123.105-.123.105s-.141.1-.077.151c.052.04.074-.024.08-.073.008-.05.229-.081.197-.222-.036-.08-.193-.013-.288.036a.249.249 0 0 0-.045-.116.25.25 0 1 0-.4-.007z" fill="#F7C600"/><path d="M15.89 11.398l.446-.006m-.65-.41s.036.327.2.405M15.87 10.354l.446-.005m-.65-.41s.036.327.2.404"/><path d="M19.753 9.825a.25.25 0 0 0-.034.06c-.047.035-.077.105-.077.105h-.497s-.017.128.235.153c.057.074.1.095.15.114-.033.028-.042.061-.042.106l.535.001s.009-.07-.056-.112c.28-.039.208-.287.443-.3.045.006-.123.105-.123.105s-.142.1-.077.151c.051.04.073-.025.08-.074.007-.05.228-.08.197-.221-.037-.08-.193-.014-.288.036a.249.249 0 0 0-.045-.117.25.25 0 1 0-.401-.007zm.005 1.005a.25.25 0 0 0-.033.057.302.302 0 0 0-.077.107h-.498s-.017.128.235.152c.057.075.101.096.15.115-.032.028-.042.06-.042.105l.536.002s.008-.07-.056-.112c.28-.039.207-.287.442-.3.045.006-.123.105-.123.105s-.141.1-.077.15c.051.041.074-.024.08-.073.008-.05.229-.08.197-.222-.036-.08-.193-.013-.288.037a.249.249 0 0 0-.045-.115.25.25 0 1 0-.4-.007zm-.043-3a.25.25 0 0 0-.034.057c-.047.035-.077.106-.077.106h-.498s-.017.128.236.153c.056.074.1.095.15.114-.033.028-.042.061-.042.106l.535.001s.008-.07-.056-.112c.28-.038.207-.286.442-.3.046.007-.123.105-.123.105s-.141.1-.077.151c.052.04.074-.024.081-.074.007-.049.228-.08.196-.221-.036-.08-.193-.013-.288.036a.249.249 0 0 0-.045-.115.25.25 0 1 0-.4-.007zm.043-1.017a.25.25 0 0 0-.034.06.304.304 0 0 0-.076.105h-.498s-.017.128.235.153c.057.074.101.095.15.115-.032.027-.042.06-.041.105l.535.002s.008-.07-.056-.112c.28-.04.207-.287.442-.301.046.007-.123.105-.123.105s-.141.1-.077.151c.051.04.074-.024.08-.073.008-.05.229-.081.197-.222-.036-.08-.193-.013-.288.036a.249.249 0 0 0-.045-.116.25.25 0 0 0-.148-.398V6.36h.05s.009-.07-.055-.112c.28-.04.207-.287.442-.301.045.007-.123.105-.123.105s-.141.1-.077.151c.051.04.074-.024.08-.073.008-.05.228-.081.197-.222-.036-.08-.193-.013-.288.036a.25.25 0 0 0-.045-.115.25.25 0 1 0-.402-.007.25.25 0 0 0-.033.058c-.047.035-.077.105-.077.105h-.497s-.016.12.21.15c.027.097.079.212.168.254l-.015-.03h.018l.001.09.28-.003a.25.25 0 0 0-.087.367zm-.297-.626a.29.29 0 0 0 .107.066.11.11 0 0 0-.04.07l-.067-.136zm.303 2.64a.25.25 0 0 0-.034.059c-.047.035-.077.106-.077.106h-.497s-.017.128.235.152c.057.075.1.096.15.115-.033.027-.042.06-.042.105l.535.002s.009-.07-.056-.112c.28-.039.208-.287.442-.301.046.007-.122.105-.122.105s-.142.1-.077.152c.05.04.073-.025.08-.074.007-.05.228-.081.197-.222-.037-.08-.194-.013-.288.036a.249.249 0 0 0-.045-.116.25.25 0 1 0-.4-.007z" fill="#F7C600"/><path d="M15.956 8.391l.446-.005m-.65-.41s.036.327.2.405M15.964 7.395l.446-.006m-.65-.41s.035.327.2.405"/><path d="M18.666 11.42s.026.004.047-.03c.021-.036-.047-.051-.077-.09l-.034.062.064.058zm-.813-.085l-.314.17s-.155.032-.167 0c-.011-.03.004-.058.086-.062.081-.003.302-.205.302-.205l.093.097zm.004-5.582l.012.112c.004.04-.062.12-.066.117-.004-.004-.035.004-.031.027.004.023.05.031.05.031s-.019.081 0 .085c.02.004-.05.105 0 .132.05.027.136.062.175.055.039-.008 0 .15 0 .15l-.109.234.598-.063-.124-.197s-.059-.04-.043-.152c.015-.112-.008-.62-.008-.62l-.426-.058-.028.147zm-.108.884s-.194.09-.187.33c-.05.233-.077.466-.077.466s-.229.26-.299.353c-.07.093-.174.283-.213.333-.039.05-.19.217-.186.28.004.061-.035.337.116.368.039.015.163-.318.163-.318s.008-.144-.035-.17c-.043-.028.093-.121.093-.121s.26-.19.318-.237c.058-.046.217-.225.217-.225l.09-1.059z" fill="#FFC6B5"/><path d="M17.97 6.455s.05.136.163.113c.112-.024.244-.128.244-.128s.105-.004.12.011c.016.016.283.276.276.357-.008.082-.124.058-.167.113-.043.054-.113.19-.093.29.02.101.077.233.07.284-.008.05-.05.066-.05.093 0 .027.034.073.034.124 0 .05-.046.124-.039.174.008.05.012.198.012.198l-.012.683s.04.023.043.062c.004.039.264 1.168.264 1.168s-.012.034-.039.03c-.027-.003.105.175.109.226.003.05.135.446.132.5a.616.616 0 0 1-.035.178c-.012.004.085.249.07.287-.016.04-.175.035-.175.035l-.043-.007s.004.05-.027.054c-.031.004-.26-.012-.26-.012s-.066.101-.105.097c-.038-.004-.089-.074-.1-.062-.012.012.034.078.023.097-.012.02-.21.062-.248-.03-.04-.094.023-.07.011-.09-.011-.02-.1-.07-.128-.054-.027.015.07.038.066.077-.004.039-.085.097-.116.097s-.105-.143-.214-.128c-.108.016-.178.043-.178.043s-.128.054-.182.042c-.055-.011-.078-.054-.078-.077s.039-.124.035-.155c-.004-.031-.035-.062-.035-.109 0-.046.09-.206.09-.206l-.005-.713s-.081 0-.085-.05c-.004-.051.124-1.13.144-1.2.02-.07.07-.317.07-.317s-.059.027-.063 0c-.004-.028.175-.644.175-.644s.031-.307.031-.388c0-.082-.016-.194-.016-.194s-.159-.067-.162-.17c-.015-.165.15-.257.17-.311l.078-.217s.085-.148.225-.17z" fill="#FFF"/><path d="M17.846 5.73s.085.011.131-.016c.047-.027.101-.039.14.016.039.054.066.05.066.05s-.058.144 0 .16c.058.015.085.015.09.034.003.02-.051.062-.036.081.016.02.043.043.047.059.004.015-.035.081-.023.097.011.015.046.077.07.077.023 0 .007.097.077.074.07-.023.066-.085.066-.085s.074-.012.093-.078c.02-.066.066-.081.066-.081s.093-.05-.031-.128c0-.544-.357-.485-.357-.485s-.043-.097-.112-.086c-.07.012-.074.093-.125.086-.05-.008-.062-.043-.065-.04a.408.408 0 0 0-.047.102c0 .02-.136-.027-.124.073.011.101.077.097.074.09z" fill="#9C5100"/><path d="M18.757 6.826c.004 0 .128.384.144.48.015.098.066.486.046.54-.019.054-.217.314-.24.38-.023.066-.163.318-.163.318s-.035.248-.05.26c-.016.012.04.073.034.093-.007.023-.112.132-.159.12-.046-.011-.12-.066-.124-.116-.004-.05.004-.217.04-.26.034-.043.216-.473.228-.5.012-.027.167-.365.17-.423a.412.412 0 0 0-.103-.242c-.122-.36-.074-.576.177-.65z" fill="#FFC6B5"/></g></svg>