<svg width="24" height="16" viewBox="0 0 24 16" xmlns="http://www.w3.org/2000/svg"><title>flag-py</title><g fill="none" fill-rule="evenodd"><path fill="#FFF" d="M0 0h24v16H0z"/><path fill="#006DA0" d="M0 11h24v5H0z"/><path fill="#E84550" d="M0 0h24v5H0z"/><path d="M14.5 8a2.5 2.5 0 1 1-5 0 2.5 2.5 0 0 1 5 0z" stroke="#000" stroke-width=".2" fill="#FFF"/><path d="M10.472 7.364a1.842 1.842 0 0 0-.083.765c.09.53.525 1.026.924 1.106.347.07.558.225.697.39.09.11.138.158.268.374.047.079-.034.095-.067.03a1.54 1.54 0 0 0-.267-.398c-.134-.151-.333-.286-.657-.35-.386-.078-.84-.575-.929-1.104-.029-.172-.003-.583.085-.8l.03-.013" stroke="#000" stroke-width=".1" fill="#000"/><path d="M10.466 7.374c-.084.22-.108.586-.08.756.09.53.525 1.028.926 1.109.346.07.553.225.695.386.067.075.12.149.165.218.038.06.07.125.102.176.005.008-.038.026-.042.019-.034-.055-.065-.124-.104-.187-.045-.072-.12-.145-.187-.223-.14-.167-.328-.292-.653-.356-.385-.077-.832-.568-.921-1.096a2.024 2.024 0 0 1 .069-.78l.03-.022z" stroke="#000" stroke-width=".1" fill="#A48253"/><path d="M10.5 8.09c.185-.113.281-.272.202-.49-.028.055-.067.068-.111.11a.463.463 0 0 0-.143.215.473.473 0 0 1-.027-.12.482.482 0 0 0-.113.146.094.094 0 0 1-.014-.02c-.012-.022-.02-.08-.028-.108a.64.64 0 0 0-.065-.166c-.047-.077-.17-.14-.203-.202-.024.103-.026.239.033.33.04.062.095.114.163.142.053.022.079.019.107.038a.392.392 0 0 0-.019.219c.01.068.04.125.088.174.028.029.077.068.1.104l.025.014c-.072-.159.031-.19.012-.351a.401.401 0 0 0-.006-.035zm.264.95c-.067.018-.136.088-.239.09-.145.005-.236-.064-.336-.161.145-.022.256-.105.405-.058a.28.28 0 0 1 .057.027.373.373 0 0 1-.049-.133.145.145 0 0 0-.027-.007c-.02-.002-.208.043-.323-.009a.381.381 0 0 1-.233-.275c.127.038.24.022.369.096.09.05.168.153.204.171a.1.1 0 0 0 .007.003.38.38 0 0 1 .003-.106c.088.078.19.1.27.187.094.104.014.173.19.274l-.018.002c-.07-.06-.185-.057-.28-.101zm.548.19a.302.302 0 0 0-.042-.037c-.035-.025-.11-.028-.168-.07a.324.324 0 0 1-.143-.209c-.014-.059-.003-.105 0-.154.071.104.196.114.263.24.04.075.035.19.119.237l-.03-.006zm-.94-.733c-.051-.016-.11-.026-.17-.04a.342.342 0 0 1-.15-.086c-.069-.062-.091-.144-.105-.233a.681.681 0 0 1-.006-.149.08.08 0 0 0 .022.026c.045.032.092.055.137.087.039.029.067.047.1.084.04.046.074.095.103.15.022.043.042.093.07.132l-.001.029zm.028-.783l.003-.028a.095.095 0 0 0 .05-.05c.037-.089.06-.18.112-.262.068-.107.14-.149.214-.207.003.094.02.194-.055.318-.043.07-.168.14-.245.17-.035.014-.06.025-.079.059zm.619 1.486c-.035 0-.145-.018-.232.005-.133.034-.187.158-.286.202.15.065.26.049.386-.052.051-.04.083-.117.15-.138l-.018-.017zm-.57-1.827c.024-.067.024-.142.037-.211.028-.147.07-.195.176-.293.034-.032.069-.055.105-.082a.473.473 0 0 1 .005.12c-.021.207-.11.256-.258.383-.029.025-.036.06-.064.083zm-.076.327l-.01.035c-.007-.046-.026-.066-.059-.095-.142-.13-.203-.28-.143-.458a.354.354 0 0 1 .085-.144.707.707 0 0 1 .06.128.625.625 0 0 1 .05.355c-.008.053-.033.118.002.165a.04.04 0 0 0 .015.014z" fill="#287E6E"/><path d="M13.542 7.364c.084.214.112.593.083.765-.09.53-.525 1.026-.924 1.106-.347.07-.558.225-.697.39-.09.11-.138.158-.268.374-.047.079.034.095.067.03a1.54 1.54 0 0 1 .266-.398c.135-.151.334-.286.658-.35.386-.078.84-.575.929-1.104.029-.172.003-.583-.085-.8l-.03-.013" stroke="#000" stroke-width=".1" fill="#000"/><path d="M13.548 7.374c.084.22.108.586.08.756-.09.53-.525 1.028-.926 1.109-.346.07-.553.225-.695.386-.067.075-.12.149-.165.218-.038.06-.07.125-.102.176-.005.008.038.026.042.019.034-.055.065-.124.104-.187.045-.072.12-.145.187-.223.14-.167.328-.292.653-.356.384-.077.832-.568.921-1.096.03-.171.008-.57-.069-.78l-.03-.022z" stroke="#000" stroke-width=".1" fill="#A48253"/><path d="M13.513 8.09c-.184-.113-.28-.272-.2-.49.027.055.066.068.11.11.081.075.117.133.143.215a.473.473 0 0 0 .027-.12.482.482 0 0 1 .113.146.094.094 0 0 0 .014-.02c.012-.022.02-.08.028-.108a.64.64 0 0 1 .065-.166c.047-.077.17-.14.203-.202.024.103.026.239-.033.33a.363.363 0 0 1-.163.142c-.053.022-.079.019-.107.038a.392.392 0 0 1 .019.219.316.316 0 0 1-.088.174c-.028.029-.077.068-.1.104l-.025.014c.072-.159-.031-.19-.012-.351a.401.401 0 0 1 .006-.035zm-.263.95c.067.018.136.088.239.09.145.005.236-.064.336-.161-.145-.022-.256-.105-.405-.058a.28.28 0 0 0-.057.027.373.373 0 0 0 .049-.133.145.145 0 0 1 .027-.007c.02-.002.208.043.323-.009a.381.381 0 0 0 .233-.275c-.127.038-.24.022-.369.096-.09.05-.168.153-.204.171a.1.1 0 0 1-.007.003.38.38 0 0 0-.003-.106c-.088.078-.19.1-.27.187-.094.104-.014.173-.19.274l.018.002c.07-.06.185-.057.28-.101zm-.548.19a.302.302 0 0 1 .042-.037c.035-.025.11-.028.168-.07a.324.324 0 0 0 .143-.209c.014-.059.003-.105 0-.154-.071.104-.196.114-.263.24-.04.075-.035.19-.119.237l.03-.006zm.94-.733c.051-.016.11-.026.17-.04a.342.342 0 0 0 .15-.086c.069-.062.091-.144.105-.233a.681.681 0 0 0 .006-.149.08.08 0 0 1-.022.026c-.045.032-.092.055-.137.087-.039.029-.067.047-.1.084a.757.757 0 0 0-.103.15c-.022.043-.042.093-.07.132l.001.029zm-.028-.783l-.003-.028a.095.095 0 0 1-.05-.05c-.037-.089-.06-.18-.112-.262-.068-.107-.14-.149-.214-.207-.003.094-.02.194.055.318.043.07.168.14.245.17.035.014.06.025.079.059zM12.995 9.2c.035 0 .145-.018.232.005.133.034.187.158.286.202-.15.065-.26.049-.386-.052-.051-.04-.083-.117-.15-.138l.018-.017zm.57-1.827c-.025-.067-.024-.142-.037-.211-.028-.147-.07-.195-.176-.293-.034-.032-.069-.055-.105-.082a.473.473 0 0 0-.005.12c.021.207.11.256.258.383.029.025.036.06.064.083zm.076.327l.01.035c.007-.046.026-.066.059-.095.142-.13.203-.28.143-.458a.354.354 0 0 0-.085-.144.707.707 0 0 0-.06.128.625.625 0 0 0-.05.355c.008.053.033.118-.002.165a.04.04 0 0 1-.015.014z" fill="#287E6E"/><path fill="#EDED4A" d="M11.933 6.67l.281.854.85.02-.677.548.246.865-.7-.514-.7.514.245-.865-.678-.548.852-.02z"/></g></svg>