<svg width="24" height="16" viewBox="0 0 24 16" xmlns="http://www.w3.org/2000/svg"><title>flag-al</title><g fill="none" fill-rule="evenodd"><path fill="#E84550" d="M0 0h24v16H0z"/><g fill="#2B3541"><path d="M10.503 3.11c-.146-.002-.388.05-.383.17-.406-.075-.448.104-.424.264.038-.064.085-.098.122-.104.054-.01.11.009.168.047a.69.69 0 0 1 .15.137c-.143.036-.254.013-.366-.008a.498.498 0 0 1-.18-.078c-.045-.035-.06-.067-.132-.146-.086-.094-.177-.068-.149.078.066.134.175.194.314.219.066.011.165.036.277.037.112 0 .238-.018.307-.002-.042.027-.088.075-.18.094-.094.019-.237-.06-.324-.081.011.078.103.15.285.189.299.069.547.122.71.217.165.095.268.213.342.307.147.185.155.327.164.359.03.296-.066.462-.246.514-.09.025-.25-.023-.309-.096-.059-.074-.116-.2-.1-.397.017-.078.1-.28.029-.321a8.316 8.316 0 0 0-1.008-.502c-.078-.032-.143.081-.168.126-.486-.064-.925-.415-1.122-.788-.134-.255-.356 0-.319.24.06.269.252.463.482.6.236.14.531.276.83.269.16.032.16.254-.034.296-.377.002-.678-.008-.963-.3-.215-.21-.337.04-.274.182.105.437.69.559 1.281.418.23-.04.092.22.027.224-.247.189-.69.373-1.079-.002-.178-.146-.299-.024-.232.187.173.548.834.433 1.288.163.117-.07.223.092.08.215-.564.42-.846.425-1.101.264-.319-.135-.347.243-.158.367.21.137.747.034 1.14-.23.168-.133.176.076.069.159-.466.43-.65.543-1.136.473-.241-.02-.238.297-.048.42.259.17.764-.111 1.157-.458.165-.095.192.06.11.243-.24.322-.464.512-.681.6a.803.803 0 0 1-.573.02c-.18-.065-.203.134-.103.316.06.109.308.144.576.043.269-.102.556-.34.754-.618.172-.161.15.055.072.207-.395.667-.757.915-1.234.873-.212-.039-.26.137-.125.299.237.209.532.202.791-.004.23-.237.67-.746.901-1.02.163-.138.215-.001.167.28-.043.16-.152.33-.448.454-.202.123-.05.292.101.296.084.001.253-.103.383-.258.17-.205.18-.343.274-.661.09-.156.248-.083.248.08-.076.319-.142.376-.295.507-.148.147.102.196.186.136.243-.175.332-.402.414-.607.058-.149.228-.077.15.166-.19.58-.499.807-1.041.925-.055.01-.089.045-.07.113.073.08.146.153.219.234-.335.104-.608.162-.943.267-.165-.116-.298-.213-.462-.328-.044-.109-.064-.274-.307-.157-.165-.082-.24-.052-.332.03.132.005.19.042.241.107.068.19.223.208.383.154.103.093.159.164.262.258-.193-.008-.328-.011-.521-.017-.184-.211-.331-.2-.463-.034-.1.016-.143.018-.212.149.108-.048.176-.062.223-.01.196.12.324.094.42 0 .19.012.36.022.55.036-.07.063-.165.096-.235.16-.284-.087-.432.03-.482.277a.599.599 0 0 0-.04.309.388.388 0 0 1 .154-.234c.253.068.348-.042.361-.203.122-.107.306-.13.428-.237.142.048.211.078.354.127.051.165.167.23.354.188.223.007.183.105.201.183.06-.112.058-.221-.08-.32-.05-.145-.16-.211-.305-.127-.137-.042-.172-.101-.308-.142.344-.117.588-.144.931-.26.087.086.155.148.241.226.046.029.09.036.117 0 .215-.333.311-.626.512-.845.076-.091.173-.214.28-.243a.156.156 0 0 1 .161.043c.042.048.075.138.061.273-.02.192-.064.253-.114.369-.051.115-.113.186-.177.275-.127.176-.295.28-.394.349-.2.138-.283.077-.437.069-.2.023-.252.127-.09.27.153.084.29.094.401.073.096-.02.207-.15.287-.221.09-.11.238.02.137.149-.184.233-.368.387-.595.384-.24.034-.194.177-.036.247.285.125.542-.11.673-.264.1-.118.173-.123.155.06-.1.33-.237.457-.46.474-.182-.018-.184.13-.051.232.302.222.52-.157.622-.386.073-.207.185-.109.196.062.002.227-.095.413-.353.647.198.336.428.677.626 1.015l.6-7.13-.6-1.127c-.062-.061-.274-.327-.329-.364-.02-.023-.032-.039-.003-.05.029-.012.096-.025.14-.034-.126-.136-.235-.18-.476-.254.058-.026.116-.01.288-.02a.956.956 0 0 0-.42-.34c.131-.099.157-.106.286-.222a2.549 2.549 0 0 1-.609-.125 1.119 1.119 0 0 0-.374-.114zm.021.28c.12 0 .193.043.193.096 0 .053-.074.097-.193.097-.118 0-.193-.048-.193-.101 0-.053.075-.092.193-.092z"/><path d="M13.497 3.11c.146-.002.388.05.383.17.406-.075.448.104.424.264-.038-.064-.085-.098-.122-.104-.054-.01-.11.009-.168.047a.69.69 0 0 0-.15.137c.143.036.254.013.366-.008a.498.498 0 0 0 .18-.078c.045-.035.06-.067.132-.146.086-.094.177-.068.149.078-.066.134-.175.194-.314.219-.066.011-.165.036-.277.037-.112 0-.238-.018-.307-.002.042.027.088.075.18.094.094.019.237-.06.324-.081-.011.078-.103.15-.285.189-.299.069-.547.122-.71.217a1.188 1.188 0 0 0-.342.307c-.147.185-.155.327-.164.359-.03.296.066.462.246.514.09.025.25-.023.309-.096.059-.074.116-.2.1-.397-.017-.078-.1-.28-.029-.321a8.316 8.316 0 0 1 1.008-.502c.078-.032.143.081.168.126.486-.064.925-.415 1.122-.788.134-.255.356 0 .319.24-.06.269-.252.463-.482.6-.236.14-.531.276-.83.269-.16.032-.16.254.034.296.377.002.678-.008.963-.3.215-.21.337.04.274.182-.105.437-.69.559-1.281.418-.23-.04-.092.22-.027.224.247.189.69.373 1.079-.002.178-.146.299-.024.232.187-.173.548-.834.433-1.288.163-.117-.07-.223.092-.08.215.564.42.846.425 1.101.264.319-.135.347.243.158.367-.21.137-.747.034-1.14-.23-.168-.133-.176.076-.069.159.466.43.65.543 1.136.473.241-.02.238.297.048.42-.259.17-.764-.111-1.157-.458-.165-.095-.192.06-.11.243.24.322.464.512.681.6a.803.803 0 0 0 .573.02c.18-.065.203.134.103.316-.06.109-.308.144-.576.043-.269-.102-.556-.34-.754-.618-.172-.161-.15.055-.072.207.396.667.758.915 1.234.873.212-.039.26.137.125.299-.237.209-.532.202-.791-.004a26.16 26.16 0 0 1-.901-1.02c-.163-.138-.215-.001-.167.28.043.16.152.33.448.454.202.123.05.292-.101.296-.084.001-.253-.103-.383-.258-.17-.205-.18-.343-.274-.661-.09-.156-.248-.083-.248.08.076.319.142.376.295.507.148.147-.102.196-.186.136-.243-.175-.332-.402-.414-.607-.058-.149-.228-.077-.15.166.19.58.499.807 1.041.925.055.01.089.045.07.113-.073.08-.146.153-.219.234.335.104.608.162.943.267.165-.116.298-.213.462-.328.044-.109.064-.274.307-.157.165-.082.24-.052.332.03-.132.005-.19.042-.241.107-.068.19-.223.208-.383.154-.103.093-.158.164-.262.258.193-.008.328-.011.521-.017.184-.211.331-.2.463-.034.1.016.143.018.212.149-.108-.048-.176-.062-.223-.01-.196.12-.324.094-.42 0-.19.012-.36.022-.55.036.07.063.165.096.235.16.284-.087.432.03.482.277.038.1.056.202.04.309a.388.388 0 0 0-.154-.234c-.253.068-.348-.042-.361-.203-.122-.107-.306-.13-.428-.237-.142.048-.211.078-.354.127-.051.165-.167.23-.354.188-.223.007-.183.105-.201.183-.06-.112-.058-.221.08-.32.05-.145.16-.211.305-.127.137-.042.172-.101.308-.142-.344-.117-.588-.144-.931-.26a5.011 5.011 0 0 1-.241.226c-.046.029-.09.036-.117 0-.215-.333-.311-.626-.512-.845-.076-.091-.173-.214-.28-.243a.156.156 0 0 0-.161.043c-.042.048-.075.138-.061.273.02.192.064.253.114.369.051.115.113.186.177.275.127.176.295.28.394.349.2.138.283.077.437.069.2.023.252.127.09.27a.579.579 0 0 1-.401.073c-.096-.02-.207-.15-.287-.221-.09-.11-.238.02-.137.149.184.233.368.387.596.384.238.034.194.177.035.247-.285.125-.542-.11-.673-.264-.1-.118-.172-.123-.155.06.1.33.237.457.46.474.182-.018.184.13.051.232-.302.222-.52-.157-.622-.386-.073-.207-.185-.109-.196.062-.002.227.095.413.353.647-.197.336-.428.677-.626 1.015l-.6-7.13.6-1.127c.062-.061.274-.327.329-.364.02-.023.032-.039.003-.05-.029-.012-.096-.025-.14-.034.126-.136.235-.18.476-.254-.058-.026-.116-.01-.288-.02a.956.956 0 0 1 .42-.34c-.131-.099-.157-.106-.286-.222.224-.017.416-.062.609-.125.122-.06.291-.112.374-.114zm-.021.28c-.12 0-.193.043-.193.096 0 .053.074.097.193.097.118 0 .193-.048.193-.101 0-.053-.075-.092-.193-.092z"/></g></g></svg>