<svg width="24" height="16" viewBox="0 0 24 16" xmlns="http://www.w3.org/2000/svg"><title>flag-kh</title><g fill="none" fill-rule="evenodd"><path fill="#006DA0" d="M0 0h24v16H0z"/><path fill="#E84550" d="M0 3h24v10H0z"/><path fill="#FFF" d="M6 11h12v.75H6zM7 10h10v.75H7zM8 9h8v.75H8zM8 7h8v1.75H8z"/><path fill="#FFF" d="M7.5 7h9v.75h-9z"/><path d="M10 7.173C10 6.11 9.552 5.25 9 5.25c-.242 0-.464.185-.637.474-.222.37-.363.91-.363 1.449 0 .088 2 .077 2 0zM13 7.136c0-1.594-.448-2.886-1-2.886-.242 0-.464.278-.637.711-.222.556-.363 1.367-.363 2.175 0 .133 2 .117 2 0zM16 7.173c0-1.062-.448-1.923-1-1.923-.242 0-.464.185-.637.474-.222.37-.363.91-.363 1.449 0 .088 2 .077 2 0z" fill="#FFF"/></g></svg>