<svg width="24" height="16" viewBox="0 0 24 16" xmlns="http://www.w3.org/2000/svg" xmlns:xlink="http://www.w3.org/1999/xlink"><title>flag-na</title><defs><path id="a" d="M0 0h24v16H0z"/></defs><g fill="none" fill-rule="evenodd"><mask id="b" fill="#fff"><use xlink:href="#a"/></mask><use fill="#D8D8D8" xlink:href="#a"/><path fill="#006DA0" mask="url(#b)" d="M24 0H0v16z"/><path fill="#287E6E" mask="url(#b)" d="M0 16h24V0z"/><path d="M0 16L24 0" stroke="#FFF" stroke-width="5.333" fill="#000" mask="url(#b)"/><path d="M0 16L24 0" stroke="#E84650" stroke-width="4" fill="#000" mask="url(#b)"/><g transform="translate(-.933 -2.376)" mask="url(#b)"><g fill="#FFCE00"><path d="M5.733 9.4l.414-1.121H5.32zM3.067 6.733l1.12.414V6.32zM5.733 4.067l-.414 1.12h.828zM8.4 6.733L7.279 6.32v.828z"/></g><g fill="#FFCE00"><path d="M4.4 9.043l.92-.764-.718-.414zM3.424 5.4l.764.92.414-.718zM7.067 4.424l-.92.764.718.414zM8.043 8.067l-.764-.92-.414.718z"/></g><g fill="#FFCE00"><path d="M3.424 8.067l1.178-.202-.414-.718zM4.4 4.424l.202 1.178.717-.414zM8.043 5.4l-1.178.202.414.717zM7.067 9.043l-.202-1.178-.718.414z"/></g><circle fill="#EDED4A" cx="5.733" cy="6.733" r="1.467"/></g></g></svg>