<svg width="24" height="16" viewBox="0 0 24 16" xmlns="http://www.w3.org/2000/svg" xmlns:xlink="http://www.w3.org/1999/xlink"><title>flag-nz</title><defs><path id="d" d="M0 0h24v16H0z"/><path id="f" d="M0 0h12v8H0z"/><path id="a" d="M0 .5L11.5 8h.5v-.5L.5 0H0z"/><mask id="h" x="-.5" y="-.5" width="13" height="9"><path fill="#fff" d="M-.5-.5h13v9h-13z"/><use xlink:href="#a"/></mask><path id="b" d="M0 .5L11.5 8h.5v-.5L.5 0H0z"/><mask id="i" x="-.5" y="-.5" width="13" height="9"><path fill="#fff" d="M-.5-.5h13v9h-13z"/><use xlink:href="#b"/></mask><path d="M6.857 3.265V0h-1.47v3.265H-.124v1.47h5.513V8h1.47V4.735h5.267v-1.47H6.857z" id="c"/><mask id="j" x="-.5" y="-.5" width="13.25" height="9"><path fill="#fff" d="M-.625-.5h13.25v9H-.625z"/><use xlink:href="#c"/></mask></defs><g fill="none" fill-rule="evenodd"><mask id="e" fill="#fff"><use xlink:href="#d"/></mask><use fill="#006DA0" xlink:href="#d"/><g mask="url(#e)" stroke-width=".25" stroke="#FFF" fill="#E8525D"><path d="M17.6 5.706l-.685.351.211-.744-.634-.527.766-.03L17.6 4l.342.756.766.03-.634.527.21.744zM17.6 12.649l-.685.351.211-.744-.634-.527.766-.03.342-.756.342.755.766.03-.634.528.21.744zM20.093 8.106l-.685.352.211-.745-.634-.527.765-.03.343-.756.342.756.766.03-.635.527.211.745zM15.108 8.277l-.685.352.211-.745L14 7.357l.765-.03.343-.756.342.756.765.03-.634.527.211.745z"/></g><g mask="url(#e)"><mask id="g" fill="#fff"><use xlink:href="#f"/></mask><use fill="#006DA0" xlink:href="#f"/><g mask="url(#g)"><g transform="matrix(1 0 0 -1 0 8)"><use fill="#E8525D" xlink:href="#a"/><use stroke="#FFF" mask="url(#h)" stroke-linecap="round" stroke-linejoin="round" xlink:href="#a"/></g><use fill="#E8525D" xlink:href="#b"/><use stroke="#FFF" mask="url(#i)" stroke-linecap="round" stroke-linejoin="round" xlink:href="#b"/></g><g mask="url(#g)"><use fill="#C7152A" xlink:href="#c"/><use stroke="#FFF" mask="url(#j)" xlink:href="#c"/></g><path d="M6.857 3.265V0h-1.47v3.265H-.124v1.47h5.513V8h1.47V4.735h5.267v-1.47H6.857z" fill="#E84550" mask="url(#g)"/></g></g></svg>