<svg width="24" height="16" viewBox="0 0 24 16" xmlns="http://www.w3.org/2000/svg"><title>flag-eh</title><g fill="none" fill-rule="evenodd"><path fill="#FFF" d="M0 0h24v16H0z"/><path fill="#287E6E" d="M0 10.627h24V16H0z"/><path fill="#2B3541" d="M0 0h24v5.397H0z"/><path fill="#E84550" d="M0 0l8 8.053L0 16zM13.568 9.965a2.345 2.345 0 0 1-.406.035C11.968 10 11 9.105 11 8s.968-2 2.162-2c.139 0 .274.012.406.035-1 .176-1.757.989-1.757 1.965 0 .976.756 1.79 1.757 1.965z"/><path fill="#E84550" d="M12.582 9.211l.922-.61.914.62-.341-1 .919-.614-1.134-.008-.347-.998-.358.995-1.133-.004.911.623-.353.996z"/></g></svg>