<svg width="24" height="16" viewBox="0 0 24 16" xmlns="http://www.w3.org/2000/svg"><title>flag-bn</title><g fill="none" fill-rule="evenodd"><path fill="#EDED4A" d="M0 0h24v16H0z"/><path fill="#FFF" d="M0 1.111v7.111l24 3.334V7.778z"/><path fill="#2B3541" d="M0 4.889v3.333l24 6.667v-3.333z"/><g fill="#E84550"><path d="M11.596 10.495c-.323-.043-.619-.145-.824-.286a.462.462 0 0 0-.084-.05c-.006 0-.01.03-.01.068 0 .106-.043.16-.15.188-.103.026-.26-.027-.387-.133a1.138 1.138 0 0 0-.412-.226.665.665 0 0 0-.467.061.145.145 0 0 1-.046.02c-.018 0-.015-.113.003-.15a.294.294 0 0 1 .158-.12c.036-.014.065-.03.065-.038a.227.227 0 0 0-.027-.061c-.048-.085-.028-.167.056-.231.086-.066.233-.078.362-.029a.534.534 0 0 0 .067.023c.017 0 .007-.024-.04-.092a.27.27 0 0 1-.058-.212.245.245 0 0 1 .224-.225c.097-.007.158.026.301.162.427.408.892.632 1.434.693.137.015.413.007.574-.017a2.6 2.6 0 0 0 1.363-.68c.107-.1.158-.127.245-.127.076 0 .129.024.183.084.05.055.067.107.061.19a.24.24 0 0 1-.044.132c-.047.077-.039.084.054.048.126-.05.28-.027.364.053.074.07.08.14.024.234a.415.415 0 0 0-.038.072c0 .01.016.014.092.027.1.016.157.09.157.203 0 .034-.004.062-.01.062a.68.68 0 0 1-.083-.031.687.687 0 0 0-.319-.06.564.564 0 0 0-.211.03.958.958 0 0 0-.325.191c-.106.095-.173.125-.277.124-.096-.001-.161-.029-.196-.084-.018-.03-.021-.047-.017-.113a.24.24 0 0 0 0-.079.706.706 0 0 0-.084.053c-.11.076-.181.114-.308.164a3.026 3.026 0 0 1-1.37.162z"/><path d="M11.772 9.753a2.274 2.274 0 0 1-1.632-.928c-.406-.554-.534-1.285-.41-1.954.066-.304.199-.609.426-.826-.181.384-.242.823-.146 1.238.15.83.85 1.532 1.69 1.653.33.096.674-.005.99-.108.7-.246 1.232-.91 1.297-1.651a2.038 2.038 0 0 0-.187-1.182c.103.054.233.268.31.411.267.517.279 1.136.122 1.688-.213.701-.75 1.316-1.459 1.54a2.76 2.76 0 0 1-1 .119zM8.582 6.498a.044.044 0 0 0-.023.012.18.18 0 0 1-.042-.149.255.255 0 0 0-.036-.14c.01.007.019.014.022.021.072.074.1.154.078.233v.023zm.163.098c.064.08.133.158.206.23.103.087.24.157.286.292l.016 1.325c-.016.079-.163.09-.242.11-.133.022-.258-.037-.374-.095a16.25 16.25 0 0 0 0-.768c-.01-.094.006-.198-.04-.284-.13-.178-.342-.286-.442-.487a2.67 2.67 0 0 1-.145-.648c.003-.071-.039-.172.015-.226l.016.004c.107.079.13.234.107.358a.716.716 0 0 1 .181.366c.027.097.15.12.223.175a.409.409 0 0 1 .178.166c.065-.037-.011-.154-.016-.218a.418.418 0 0 0-.056-.133.512.512 0 0 0-.047-.013.467.467 0 0 0-.075-.148.613.613 0 0 0-.195-.193.652.652 0 0 0-.025-.22c-.016-.026-.025-.068.023-.079a.13.13 0 0 1 .07.03c.015.011.03.025.041.039.033-.02.07-.042.13-.046a.163.163 0 0 1 .054.007.348.348 0 0 1 .153.099c.092.1.132.208.154.315.019.02-.028.013-.06.015a.409.409 0 0 0-.136.027zm.529 2.114a.04.04 0 0 1 .022-.005c.036.004.047.095.032.157a.362.362 0 0 1-.006.027.232.232 0 0 1 .021-.011c.037-.016.073.064.053.144-.02.123-.085.159-.135.198a.45.45 0 0 1-.282.11h-.03a.489.489 0 0 1-.358-.133c-.047-.046-.1-.094-.13-.191-.014-.084.02-.164.056-.174-.013-.085.022-.186.063-.173l.004.002a.275.275 0 0 1-.001-.013c-.007-.073.018-.164.055-.155.028.013.048.06.072.088.067.078.14.15.218.145.09 0 .178-.05.258-.14.024-.02.05-.07.076-.037.025.027.02.098.014.147l-.002.014zM8.19 6.07c-.05.008-.048.07-.025.104.024.071.03.149.018.223a.734.734 0 0 1 .176.361c0 .05.054.067.088.093.082.051.173.089.245.153.015.017.027.034.016.001-.011-.042-.017-.09-.05-.121a.343.343 0 0 0-.17-.108c-.005-.069-.037-.132-.068-.192-.033-.058-.068-.12-.125-.158a.673.673 0 0 0-.043-.302C8.24 6.1 8.22 6.071 8.19 6.07zM15.418 6.498c.01.002.018.006.023.012a.18.18 0 0 0 .042-.149.255.255 0 0 1 .036-.14.065.065 0 0 0-.022.021c-.072.074-.1.154-.078.233a.09.09 0 0 1 0 .023zm-.163.098c-.064.08-.133.158-.206.23-.103.087-.24.157-.286.292l-.016 1.325c.016.079.163.09.242.11.133.022.258-.037.374-.095a16.25 16.25 0 0 1 0-.768c.01-.094-.006-.198.04-.284.13-.178.342-.286.442-.487a2.67 2.67 0 0 0 .145-.648c-.003-.071.039-.172-.016-.226l-.015.004c-.107.079-.13.234-.107.358a.716.716 0 0 0-.181.366c-.027.097-.15.12-.223.175a.409.409 0 0 0-.178.166c-.065-.037.011-.154.016-.218a.418.418 0 0 1 .056-.133.512.512 0 0 1 .047-.013.467.467 0 0 1 .075-.148.613.613 0 0 1 .195-.193.652.652 0 0 1 .025-.22c.016-.026.025-.068-.023-.079a.13.13 0 0 0-.07.03.315.315 0 0 0-.041.039c-.033-.02-.07-.042-.13-.046a.163.163 0 0 0-.054.007.348.348 0 0 0-.153.099.636.636 0 0 0-.154.315c-.019.02.028.013.06.015a.409.409 0 0 1 .136.027zm-.529 2.114a.04.04 0 0 0-.022-.005c-.036.004-.047.095-.032.157l.006.027a.232.232 0 0 0-.021-.011c-.037-.016-.073.064-.053.144.02.123.085.159.135.198a.45.45 0 0 0 .282.11h.03a.489.489 0 0 0 .358-.133c.047-.046.1-.094.13-.191.014-.084-.02-.164-.056-.174.013-.085-.022-.186-.064-.173l-.003.002.001-.013c.007-.073-.018-.164-.055-.155-.028.013-.048.06-.072.088-.067.078-.14.15-.218.145-.09 0-.178-.05-.258-.14-.024-.02-.05-.07-.076-.037-.025.027-.02.098-.014.147l.002.014zm1.083-2.64c.05.008.048.07.025.104a.453.453 0 0 0-.018.223.734.734 0 0 0-.176.361c0 .05-.054.067-.088.093-.082.051-.173.089-.245.153-.015.017-.027.034-.016.001.011-.042.017-.09.05-.121a.343.343 0 0 1 .17-.108c.005-.069.037-.132.068-.192.033-.058.068-.12.125-.158a.673.673 0 0 1 .043-.302c.013-.024.032-.053.062-.054z"/><path d="M12.366 3.566h.1l.003.212.072.036-.071.022.006.554h-.073c.01.01.019.021.028.033a.415.415 0 0 0 .041-.027c-.013.237.09.38.166.547l-.209-.15-.115.127.135-.036v.18a.997.997 0 0 1 .447.044c.088.031.186.087.28.159.093.072.285.168.398.2a1.07 1.07 0 0 0 .509 0c.038 0-.027.127-.104.201-.139.137-.32.136-.576-.002-.159-.085-.35-.132-.35-.085 0 .01.01.016.025.016.056 0 .163.037.312.108.16.076.251.109.305.109.039 0 .04.024.004.077-.039.057-.104.085-.196.085-.089 0-.138-.02-.216-.085-.132-.11-.46-.232-.448-.167.002.013.018.021.052.026a.912.912 0 0 1 .386.185l.097.07c.02.01.02.014.005.042-.025.046-.087.081-.154.088a.309.309 0 0 1-.242-.082c-.166-.139-.322-.24-.372-.24-.04 0-.022.023.05.061.094.05.192.118.263.184a.68.68 0 0 0 .085.07c.03.015.029.039-.004.082-.034.044-.09.063-.162.056-.144-.016-.256-.085-.432-.268a1.178 1.178 0 0 0-.137-.13c-.024 0-.01.032.036.083.056.063.067.098.045.15-.018.045-.05.055-.114.038-.066-.018-.076-.002-.033.052.064.08.055.178-.024.246a.19.19 0 0 1-.057.038c-.007 0-.024-.018-.039-.04-.05-.077-.095-.077-.144.001a.894.894 0 0 1-.033.05l-.05-.038c-.057-.04-.075-.08-.075-.158a.14.14 0 0 1 .033-.097c.039-.053.032-.07-.023-.054-.088.025-.13.002-.132-.073-.002-.036.006-.052.055-.11.04-.048.054-.073.046-.08-.008-.008-.054.032-.15.13a2.067 2.067 0 0 1-.19.175c-.164.11-.32.128-.392.043-.037-.044-.035-.068.007-.095a.456.456 0 0 0 .074-.061c.049-.051.195-.157.268-.194.059-.03.073-.05.035-.05-.05 0-.21.104-.33.215a.536.536 0 0 1-.114.081.424.424 0 0 1-.231.02c-.037-.013-.105-.077-.105-.1 0-.006.015-.019.034-.03a.501.501 0 0 0 .075-.053c.097-.085.28-.172.425-.203.046-.01.03-.033-.022-.03-.1.004-.298.097-.416.194-.139.115-.348.104-.416-.021-.011-.022-.018-.042-.015-.045a1.546 1.546 0 0 0 .34-.13.858.858 0 0 1 .302-.109c.047-.008.05-.03.003-.036-.058-.007-.149.023-.308.101-.205.1-.262.118-.37.112a.323.323 0 0 1-.233-.107c-.053-.05-.127-.175-.112-.19a1.058 1.058 0 0 0 .263.022.728.728 0 0 0 .25-.025c.123-.035.287-.119.4-.203.214-.16.39-.225.613-.226.206 0 .337.047.453.165a.594.594 0 0 0 .046.042v-.374l.236.061.116-.031-.133-.156a.466.466 0 0 1-.013.004l-.128.128-.132-.121a.506.506 0 0 1-.015-.004l-.135.15-.128-.153-.185.171c.077-.168.132-.32.15-.539a.36.36 0 0 0 .035.026.289.289 0 0 1 .109-.097c.07-.034.149-.037.223-.04v.226c.054.003.108.001.162-.004V4.39h-.135v-.508a.252.252 0 0 1 0-.295v-.02h.017a.248.248 0 0 1 .187-.082c.076 0 .141.031.186.081zm-.438 5.367a.594.594 0 0 1-.497-.4c.003-.037.05.02.071.025.041.022.085.04.132.044.06.025.096.084.153.114.026.02.119.06.102-.004-.022-.034-.037-.077-.018-.116.031-.07.08-.13.129-.187.035-.012.06.058.085.082.036.055.078.122.058.19-.02.025-.034.1.02.075.067-.03.122-.08.178-.125.048-.034.11-.037.162-.067.023-.006.072-.053.083-.027a.745.745 0 0 1-.125.204.536.536 0 0 1-.313.182.86.86 0 0 1-.22.01zm.264-.263a.221.221 0 0 0-.028-.132c-.036-.072-.086-.136-.134-.2-.046-.026-.072.062-.102.087-.048.071-.108.144-.11.234-.027.042-.077-.034-.099-.06a.315.315 0 0 1-.067-.199.846.846 0 0 1 .06-.343c.033-.093.085-.183.08-.285.003-.076-.012-.16-.074-.212-.06-.047.038-.056.069-.033.053.004.081.091.13.07.019-.046.023-.1.062-.136.039-.053.08.023.093.058.027.032-.002.109.043.11.053-.037.092-.1.16-.113.028-.016.075-.002.038.03a.304.304 0 0 0-.103.177.428.428 0 0 0 .046.257c.074.157.131.334.094.508a.326.326 0 0 1-.134.189c-.008.005-.021.004-.024-.007zm-.08-1.176a.35.35 0 0 0-.094-.117c-.04 0-.065.05-.092.076-.018.036-.041.094-.088.048-.074-.043-.087-.137-.087-.216-.004-.126.047-.244.092-.36a.38.38 0 0 0 .004-.227c-.022-.084-.09-.143-.143-.21.004-.025.07-.011.096-.006.056.014.09.064.131.099.03-.01.018-.07.032-.098 0-.04.054-.092.075-.035.033.036 0 .108.042.13.04-.014.06-.058.097-.078a.133.133 0 0 1 .13-.009c.014.037-.044.068-.06.1a.34.34 0 0 0-.063.302c.023.081.063.157.077.24a.669.669 0 0 1-.008.286c-.014.057-.063.094-.113.118-.013-.012-.02-.029-.028-.043z"/></g></g></svg>