<svg width="24" height="16" viewBox="0 0 24 16" xmlns="http://www.w3.org/2000/svg" xmlns:xlink="http://www.w3.org/1999/xlink"><title>flag-bl</title><defs><path id="a" d="M0 0h24v16H0z"/><mask id="b" x="0" y="0" width="24" height="16" fill="#fff"><use xlink:href="#a"/></mask></defs><g fill="none" fill-rule="evenodd"><path fill="#FFF" d="M0 0h24v16H0z"/><use mask="url(#b)" xlink:href="#a" stroke="#E6E6E6"/><path d="M15.634 9.967c.206.484.117.866 0 1.239.297-.108.927-.404.852-.773-.133-.323-.544-.402-.852-.466" fill="#CE0F25"/><path d="M16.43 10.7c-.494.32-1.162.344-1.745.397l-.372.378.34.502s.38-.124.577-.155c.138-.021.294-.002.433-.024.118-.02.224-.01.303-.1.092-.105.088-.296.136-.427.031-.084.081-.153.146-.252.103-.16.182-.319.182-.319" fill="#F6E4BE"/><path d="M14.403 12.28c.092-.441-.191-.615-.343-.882 0 0 .164.067.25.078.163.022.257.019.493-.02.192-.03.354-.127.489-.066.018.009.033.03.036.05.008.064-.028.128-.065.18-.201.284-.86.66-.86.66M8.336 9.967c-.205.484-.117.866 0 1.239-.296-.108-.927-.404-.851-.773.132-.323.543-.402.851-.466" fill="#CE0F25"/><path d="M7.54 10.7c.495.32 1.162.344 1.746.397l.371.378-.34.502s-.38-.124-.576-.155c-.139-.021-.295-.002-.433-.024-.119-.02-.224-.01-.304-.1-.092-.105-.087-.296-.136-.427-.03-.084-.08-.153-.145-.252a3.599 3.599 0 0 1-.183-.319" fill="#F6E4BE"/><path d="M9.567 12.28c-.091-.441.192-.615.344-.882 0 0-.164.067-.25.078-.164.022-.258.019-.493-.02-.193-.03-.355-.127-.49-.066a.068.068 0 0 0-.035.05c-.009.064.028.128.064.18.202.284.86.66.86.66" fill="#CE0F25"/><path d="M15.299 12.551c.03-.142-.041-.288-.044-.433-.004-.157.026-.469.026-.469-.387.37-1.453 1.306-3.296 1.306a4.75 4.75 0 0 1-3.296-1.306s.03.312.027.469c-.003.145-.075.291-.044.433.012.057.08.124.08.124 1.014.652 2.097 1.052 3.233 1.052 1.136 0 2.22-.4 3.234-1.052 0 0 .067-.067.08-.124z" fill="#F6E4BE"/><path d="M10.632 13.114a2.39 2.39 0 0 0 .03-.13c.004-.02.001-.031-.018-.04a.135.135 0 0 0-.024-.008c-.007-.002-.01-.004-.01-.008.001-.004.006-.005.015-.002l.09.023.078.017c.009.002.013.004.012.008-.001.005-.005.005-.011.004a.098.098 0 0 0-.019-.003c-.017 0-.025.008-.031.03-.006.018-.01.035-.032.128l-.02.085c-.022.088-.012.13.012.161a.12.12 0 0 0 .072.044.127.127 0 0 0 .094-.013c.042-.025.057-.08.072-.142l.018-.076.03-.129c.003-.02 0-.032-.019-.04a.127.127 0 0 0-.022-.008c-.007-.002-.01-.004-.01-.008.002-.004.007-.005.015-.002.032.007.07.018.071.019l.072.015c.008.002.012.004.011.008 0 .005-.005.005-.012.003a.099.099 0 0 0-.019-.002c-.017-.001-.025.008-.03.029-.007.019-.01.036-.033.128l-.016.065c-.016.068-.04.138-.102.17a.194.194 0 0 1-.14.012c-.033-.008-.092-.024-.128-.075-.025-.036-.038-.087-.017-.175l.021-.088zM11.322 13.356c.003 0 .004-.002.003-.003l-.035-.16c0-.003 0-.007-.002-.007s-.004.003-.005.005l-.08.143c0 .003 0 .005.002.005l.117.017zm-.134.012c-.003 0-.004 0-.006.004l-.047.08a.12.12 0 0 0-.014.037c-.002.01.002.02.022.022l.01.002c.007 0 .009.002.008.006 0 .005-.004.006-.011.005l-.067-.012c-.007 0-.042-.004-.075-.009-.008 0-.012-.003-.011-.008 0-.003.003-.004.008-.003l.02.001c.03 0 .045-.019.062-.048l.213-.36c.01-.017.015-.024.022-.023.005.001.008.007.013.022.01.036.076.298.103.398.016.06.033.07.046.076l.026.006c.005 0 .008.002.008.006-.001.005-.007.006-.03.002a4.95 4.95 0 0 1-.12-.018c-.011-.002-.019-.004-.018-.008 0-.004.003-.004.01-.004.004 0 .01-.006.007-.014l-.032-.134c0-.004-.003-.005-.006-.006l-.14-.02zM11.652 13.498c0 .049.008.065.02.07.011.004.023.006.033.006.007 0 .011.002.011.005 0 .005-.006.006-.015.006l-.079-.005h-.07c-.007 0-.013-.001-.013-.007 0-.004.004-.005.01-.005.009 0 .02 0 .03-.002.016-.004.02-.022.022-.077l.019-.367c0-.013.003-.021.009-.021.007 0 .013.008.023.02.007.008.1.112.19.206.043.044.126.137.136.147h.003l.004-.28c0-.038-.004-.05-.02-.057a.106.106 0 0 0-.033-.005c-.008 0-.01-.002-.01-.006 0-.005.007-.006.016-.005l.078.004h.062c.009.001.015.002.015.007 0 .004-.004.005-.012.005l-.02.001c-.017.005-.023.018-.025.053l-.02.393c-.001.014-.004.02-.01.02-.007 0-.014-.008-.021-.015-.039-.039-.118-.124-.182-.19-.067-.07-.135-.15-.146-.161h-.002l-.003.26zM12.39 13.385c.004 0 .004-.002.003-.004l-.068-.15c-.001-.002-.002-.005-.004-.005s-.003.003-.003.006l-.048.157c0 .003 0 .005.003.005l.117-.009zm-.127.04c-.004.001-.005.002-.006.006l-.028.089a.12.12 0 0 0-.007.038c.001.012.007.02.027.018h.01c.007-.001.01 0 .01.004 0 .005-.004.006-.01.007-.021.001-.049.001-.068.003-.007 0-.042.005-.076.007-.008 0-.012 0-.012-.005 0-.004.002-.006.007-.006a.196.196 0 0 0 .02-.003c.029-.006.04-.028.05-.06l.132-.4c.006-.018.01-.025.016-.026.006 0 .01.005.017.02.018.032.138.275.186.367.028.055.047.062.061.064.01.002.02.001.027 0 .005 0 .008 0 .009.005 0 .005-.006.007-.03.009l-.12.007c-.011 0-.02.001-.02-.003s.003-.006.01-.007c.004-.001.008-.007.004-.014l-.06-.126c-.002-.003-.004-.004-.007-.004l-.142.01zM13.239 13.246c.003-.001.003-.003.002-.005l-.092-.136c-.001-.002-.002-.005-.004-.004-.002 0-.003.003-.003.006l-.02.163c0 .002 0 .004.003.003l.114-.027zm-.12.06c-.002.001-.003.003-.004.007l-.013.091a.119.119 0 0 0 0 .04c.002.01.01.017.029.012l.01-.002c.007-.002.009-.001.01.003 0 .005-.003.007-.01.008l-.066.014c-.007.002-.04.012-.073.02-.008.002-.012.002-.013-.003 0-.004.001-.006.006-.007a.2.2 0 0 0 .02-.006c.027-.01.034-.034.039-.067l.065-.415c.003-.019.005-.027.011-.028.006-.001.01.003.02.016.024.03.182.248.244.33.037.05.057.054.07.054.01 0 .02-.002.027-.004.005-.001.008-.001.01.003 0 .005-.005.007-.028.013l-.117.027c-.012.002-.02.004-.02 0-.001-.004.001-.006.007-.008.004-.002.007-.009.002-.015l-.08-.113c-.002-.003-.004-.004-.007-.003l-.138.034zM13.861 13.019c-.045-.133-.151-.188-.25-.154-.07.023-.136.088-.086.236.042.123.145.196.261.157.042-.015.133-.068.075-.24m-.413.13c-.035-.102-.01-.256.17-.318.151-.051.274.002.32.138.047.135-.014.275-.167.328a.24.24 0 0 1-.323-.149" fill="#000"/><path d="M7.916 10.037c-.007.75-.014.777-.014.777.328.322.367.44.464.544.126-.183.322-.11.322-.11.04-.172.248-.321.248-.321-.291-.024-.795-.173-.835-.233-.132-.198.05-.8.05-.8l-.235.143zM8.155 9.682s.405-.166.82.126a.2.2 0 0 0 .1.002c.08-.086.263-.34.403-.306.01-.214-.014-1.07-.014-1.07-.06-.002-.082.117-.082.117.035.244-.105 1.727-.682.746l-.407.043-.138.342zM7.933 6.251c.348.127.352.193.697.498.275.11.685.379.708.438l-.023.087c.053.034.103-.089.103-.089-.053-.302-1.02-1.211-1.02-1.211l-.427.09-.038.187z" fill="#EACE24"/><path d="M7.358 8.173a8.68 8.68 0 0 1-.106.054l.18-.016a.073.073 0 0 1 .022-.038.246.246 0 0 1-.096 0zm.117.09l-.106.091c-.275.07-.464.564-.533.56-.11-.022-.018-.347.171-.58-.14.076-.393.329-.463.306-.047-.016.045-.285.337-.537l-.022-.001c-.162.017-.9-.318-.729-.518.012-.034.61.327 1.007.339a.095.095 0 0 1-.01-.008 1.902 1.902 0 0 1-.662-.205s-.53-.325-.421-.474c.067-.016.19.223.982.407a.167.167 0 0 1-.006-.008c-.194-.057-.573-.176-.622-.25 0 0-.524-.413-.36-.537.077-.021.114.211.792.473a2.4 2.4 0 0 1-.495-.334s-.347-.448-.182-.51c.068-.027.323.46.845.662a.105.105 0 0 0-.009-.036c-.391-.292-.867-.663-.723-1.055.07-.026.085.37.694.728-.125-.118-.374-.362-.396-.456 0 0-.216-.457-.046-.524.03-.01.068.194.24.422-.053-.18-.18-.65-.038-.638.038.003.086.376.425.716-.004-.068-.01-.157.014-.179 0 0 .337.308.426.554l.077-.154a.777.777 0 0 1-.037-.39s.018-.208.168-.336a.252.252 0 0 1 .003-.129c.033-.08.642-.694.684-.436 0 .027-.298.199-.393.466.05-.01.445-.077.396.346h-.116s.019.21-.192.242c-.26-.187-.12.236-.12.236.504.643 1.326.934 1.293 1.698.026.74-1.265 1.279-1.246 1.938-.013.065-.016-.058-.033-.07-.007-.004-.009.097-.03.097-.026 0-.018-.142-.03-.14-.026.006-.024.107-.036.107-.026 0-.038-.098-.056-.11l-.04.126s-.065-.381-.196-.554c-.062.051-.475.395-.546.44-.042-.015-.004-.099-.004-.099s-.183.145-.263.145c-.047-.028.01-.107.01-.107s-.237.174-.319.112c-.014-.033.253-.197.253-.197s-.274.186-.317.057c.139-.088.425-.39.425-.39s-.193.03-.094-.08c.067-.114.333-.431.406-.52l-.002-.003.58-.547a.03.03 0 0 1-.01-.021s-.168.01-.144-.066c-.083.037-.108-.06-.108-.06a.145.145 0 0 1-.073-.01zm.818-.53a.778.778 0 0 0-.044-.367s-.14-.128-.288-.32c-.026.208-.01.547-.001.7.144-.016.268-.014.333-.012zM6.97 6.44l.03.025a1.334 1.334 0 0 1-.03-.025z" fill="#E9EAEB"/><path d="M15.837 9.902s.182.602.05.8c-.04.06-.544.209-.835.232 0 0 .208.15.248.322 0 0 .196-.073.322.11.096-.105.135-.223.463-.545 0 0-.006-.026-.013-.776l-.235-.143zM15.695 9.347l-.408-.042c-.576.98-.717-.502-.681-.746 0 0-.021-.12-.082-.117 0 0-.025.855-.014 1.07.14-.033.322.22.402.306a.2.2 0 0 0 .1-.003c.416-.291.82-.126.82-.126l-.137-.342zM16.017 6.071l-.426-.09s-.969.91-1.022 1.212c0 0 .05.122.103.09l-.022-.088c.023-.06.433-.328.708-.438.344-.305.349-.372.697-.498l-.038-.188zM9.451 5.34l-.574-1.353-.096.029-.21-.483.386-.115.088.227.187-.055-.08-.223.394-.09.07.23.194-.037-.067-.234.395-.069.054.236.262-.037.022.12.097-.013-.02-.119.2-.026.021.12.098-.01-.015-.12.2-.019.016.122.194-.015-.036-.36.401-.02.014.236.19-.003-.003-.239h.403l-.006.242.195.004.014-.24.4.017-.037.365.194.013.017-.12.198.018-.016.12.1.01.018-.117.2.022-.02.12.1.013.024-.12.258.039.055-.238.395.07-.061.237.186.037.072-.235.393.09-.081.231.187.051.09-.231.389.11-.21.484-.167-.055-.584 1.382c-1.614-.465-3.53-.467-5.088 0" fill="#EACE24"/><path d="M9.451 7.949c.012.834.053 1.485.42 1.994.441.613 1.177 1.055 2.124 1.49.946-.435 1.682-.877 2.124-1.49.367-.51.408-1.16.42-1.994.012-.866.013-1.732 0-2.597H9.45a85.946 85.946 0 0 0 0 2.597z" fill="#1353B4"/><path d="M10.519 6.445a.244.244 0 0 0-.023-.098c-.008-.014-.027-.03-.042-.029-.015 0-.035.006-.042.02a.126.126 0 0 0-.01.054.25.25 0 0 0 .025.06s-.08-.017-.106-.038a.204.204 0 0 1-.064-.096c-.003-.011-.014-.05 0-.094a.216.216 0 0 1 .053-.08c.05-.045.148-.032.168-.02a.143.143 0 0 1 .013.008.27.27 0 0 1-.03-.053.207.207 0 0 1 0-.133.139.139 0 0 1 .052-.068l.062-.041c.03-.02.05-.087.05-.087s.019.067.049.087l.063.04a.14.14 0 0 1 .053.069.208.208 0 0 1 0 .133.27.27 0 0 1-.03.053.143.143 0 0 1 .012-.008c.02-.012.118-.025.168.02.02.018.045.053.053.08.014.045.003.083 0 .094a.204.204 0 0 1-.064.096c-.026.021-.106.038-.106.038s.022-.04.025-.06a.125.125 0 0 0-.01-.055c-.007-.013-.027-.018-.042-.019-.015 0-.034.015-.042.029a.244.244 0 0 0-.023.098h.018l.034.049-.034.048h-.013c.006.027.018.049.03.076.012.029.06.093.06.093s-.087-.014-.115-.039l-.014-.013a.174.174 0 0 1 .01.081c-.012.07-.083.13-.083.13s-.07-.06-.082-.13a.17.17 0 0 1 .01-.08l-.013.012c-.028.025-.115.039-.115.039s.048-.064.06-.093c.012-.027.024-.049.03-.076h-.013l-.034-.048.034-.049h.018zM13.269 6.445a.244.244 0 0 0-.023-.098c-.008-.014-.027-.03-.042-.029-.015 0-.035.006-.042.02a.126.126 0 0 0-.01.054.25.25 0 0 0 .025.06s-.08-.017-.106-.038a.204.204 0 0 1-.064-.096c-.003-.011-.014-.05 0-.094a.216.216 0 0 1 .053-.08c.05-.045.148-.032.168-.02a.143.143 0 0 1 .013.008.27.27 0 0 1-.03-.053.207.207 0 0 1 0-.133.139.139 0 0 1 .052-.068l.062-.041c.03-.02.05-.087.05-.087s.019.067.049.087l.063.04a.14.14 0 0 1 .053.069.208.208 0 0 1 0 .133.27.27 0 0 1-.03.053.143.143 0 0 1 .012-.008c.02-.012.118-.025.168.02.02.018.045.053.053.08.014.045.003.083 0 .094a.204.204 0 0 1-.064.096c-.026.021-.106.038-.106.038s.022-.04.025-.06a.125.125 0 0 0-.01-.055c-.007-.013-.027-.018-.042-.019-.015 0-.034.015-.042.029a.244.244 0 0 0-.023.098h.018l.034.049-.034.048h-.013c.006.027.018.049.03.076.012.029.06.093.06.093s-.087-.014-.115-.039l-.014-.013a.174.174 0 0 1 .01.081c-.012.07-.083.13-.083.13s-.07-.06-.082-.13a.17.17 0 0 1 .01-.08l-.013.012c-.028.025-.115.039-.115.039s.048-.064.06-.093c.012-.027.024-.049.03-.076h-.013l-.034-.048.034-.049h.018zM11.919 6.445a.244.244 0 0 0-.023-.098c-.008-.014-.027-.03-.042-.029-.015 0-.035.006-.042.02a.126.126 0 0 0-.01.054.25.25 0 0 0 .025.06s-.08-.017-.106-.038a.204.204 0 0 1-.064-.096c-.003-.011-.014-.05 0-.094a.216.216 0 0 1 .053-.08c.05-.045.148-.032.168-.02a.143.143 0 0 1 .013.008.27.27 0 0 1-.03-.053.207.207 0 0 1 0-.133.139.139 0 0 1 .052-.068l.062-.041c.03-.02.05-.087.05-.087s.019.067.049.087l.063.04a.14.14 0 0 1 .053.069.208.208 0 0 1 0 .133.27.27 0 0 1-.03.053.143.143 0 0 1 .012-.008c.02-.012.118-.025.168.02.02.018.045.053.053.08.014.045.003.083 0 .094a.204.204 0 0 1-.064.096c-.026.021-.106.038-.106.038s.022-.04.025-.06a.125.125 0 0 0-.01-.055c-.007-.013-.027-.018-.042-.019-.015 0-.034.015-.042.029a.244.244 0 0 0-.022.098h.017l.035.049-.035.048h-.013c.006.027.018.049.03.076.012.029.06.093.06.093s-.087-.014-.115-.039l-.014-.013a.174.174 0 0 1 .01.081c-.012.07-.083.13-.083.13s-.07-.06-.082-.13a.17.17 0 0 1 .01-.08l-.013.012c-.028.025-.115.039-.115.039s.048-.064.06-.093c.012-.027.024-.049.03-.076h-.013l-.034-.048.034-.049h.018z" fill="#EACE24"/><path d="M16.621 8.17l.106.054-.18-.016a.073.073 0 0 0-.022-.038c.03.004.07.008.096 0zm-.117.09l.106.091c.275.07.464.564.533.56.11-.023.018-.347-.171-.58.14.076.393.329.463.305.047-.015-.045-.284-.337-.536l.022-.001c.162.016.9-.318.729-.518-.012-.034-.61.327-1.007.339a.095.095 0 0 0 .01-.008c.152-.02.435-.074.662-.205 0 0 .53-.325.421-.474-.067-.016-.19.223-.982.407a.167.167 0 0 0 .006-.008c.194-.057.573-.176.622-.25 0 0 .524-.413.36-.537-.077-.021-.114.21-.792.473a2.4 2.4 0 0 0 .494-.334s.348-.448.183-.511c-.068-.026-.323.46-.845.663 0-.007.003-.02.008-.036.392-.292.868-.663.724-1.055-.07-.026-.085.37-.695.727.125-.117.375-.36.397-.455 0 0 .216-.457.046-.524-.03-.011-.068.193-.24.422.053-.18.18-.65.038-.638-.038.003-.086.376-.425.716.004-.068.01-.157-.014-.179 0 0-.337.308-.426.554l-.077-.154a.777.777 0 0 0 .037-.39s-.018-.208-.169-.336a.252.252 0 0 0-.002-.129c-.033-.08-.642-.694-.684-.436 0 .027.298.199.393.465-.05-.01-.445-.076-.396.347h.116s-.019.209.192.242c.26-.187.12.235.12.235-.505.644-1.326.934-1.293 1.7-.026.738 1.264 1.278 1.246 1.937.013.064.016-.059.033-.07.007-.004.009.097.03.097.026 0 .018-.142.03-.14.026.006.024.106.036.106.026 0 .037-.097.056-.109l.04.126s.064-.381.196-.554c.062.051.475.395.545.44.043-.015.005-.1.005-.1s.183.146.263.146c.047-.028-.01-.108-.01-.108s.237.175.319.113c.014-.033-.253-.197-.253-.197s.274.186.317.057c-.14-.088-.425-.391-.425-.391s.193.03.094-.08c-.067-.113-.333-.43-.406-.518l.002-.004-.58-.547a.03.03 0 0 0 .01-.021s.168.01.144-.066c.083.036.108-.06.108-.06.019.003.048 0 .073-.01zm-.818-.53a.778.778 0 0 1 .044-.367s.14-.128.288-.32c.025.208.01.546.001.7a2.442 2.442 0 0 0-.333-.012zm1.322-1.293l-.03.025.03-.025z" fill="#E9EAEB"/><path d="M14.468 9.02c.002-.217.047-.32.047-.537.022-.434.03-.865.024-1.298H9.45c-.007.433.002.86.024 1.298 0 .217.047.32.048.536h4.945z" fill="#CE0F25"/><path fill="#FFF" d="M11.36 8.367l.619-.252-.252.62.275-.184.274.183-.252-.619.618.252-.183-.275.183-.275-.618.253.252-.62-.274.184-.275-.183.252.619-.618-.253.183.275z"/><path d="M10.597 9.729a1.404 1.404 0 0 0-.118-.598.12.12 0 0 1 .144.16.12.12 0 1 1 .026.225c.009.082.05.143.1.143.038 0 .072-.036.089-.09.017.054.05.09.089.09.053 0 .097-.07.101-.16a.12.12 0 1 1-.069-.218.12.12 0 1 1 .207 0 .12.12 0 1 1-.068.218c.005.09.048.16.102.16.038 0 .072-.036.089-.09.017.054.05.09.089.09.05 0 .091-.061.1-.142a.12.12 0 1 1 .026-.225.12.12 0 0 1 .144-.16c-.088.18-.116.391-.118.597h-.933zm0 .047h.933v.22h-.933v-.22zM12.39 9.727a1.404 1.404 0 0 0-.118-.598.12.12 0 0 1 .144.16.12.12 0 1 1 .026.225c.009.082.05.144.1.144.038 0 .071-.037.089-.09.017.053.05.09.089.09.053 0 .097-.071.101-.16a.12.12 0 1 1-.069-.218.12.12 0 1 1 .207 0 .12.12 0 1 1-.068.217c.005.09.048.16.102.16.038 0 .071-.036.089-.09.017.054.05.09.089.09.05 0 .09-.06.1-.141a.12.12 0 1 1 .026-.225.12.12 0 0 1 .144-.162c-.088.18-.116.393-.118.598h-.933zm0 .048h.933v.218h-.933v-.218zM11.534 10.784a1.404 1.404 0 0 0-.118-.598.12.12 0 0 1 .145.16.12.12 0 1 1 .026.225c.008.082.049.143.099.143.038 0 .071-.036.089-.09.017.054.05.09.089.09.053 0 .097-.07.101-.16a.12.12 0 1 1-.069-.218.12.12 0 1 1 .207 0 .12.12 0 1 1-.068.218c.005.09.048.16.102.16.038 0 .071-.036.089-.09.017.054.05.09.089.09.05 0 .09-.06.1-.142a.12.12 0 1 1 .026-.225.12.12 0 0 1 .11-.166c.012 0 .023.002.034.005-.088.18-.116.392-.118.598h-.933zm0 .047h.933v.22h-.933v-.22z" fill="#EACE24"/></g></svg>