<svg width="24" height="16" viewBox="0 0 24 16" xmlns="http://www.w3.org/2000/svg"><title>flag-cr</title><g fill="none" fill-rule="evenodd"><path fill="#006DA0" d="M0 0h24v16H0z"/><path fill="#FFF" d="M0 1.829h24v12.085H0z"/><path fill="#E84550" d="M0 4.914h24v5.915H0z"/><g transform="translate(5 6)"><ellipse fill="#FFF" cx="1.75" cy="2" rx="1.75" ry="2"/><path d="M1.75 3.501a1.5 1.5 0 0 0 1.5-1.5c0-.828-3-.828-3 0a1.5 1.5 0 0 0 1.5 1.5z" fill="#EDED4A"/><ellipse fill="#287E6E" cx="1.75" cy="2" rx="1.167" ry="1.5"/><path d="M2.917 2c0-.828-.523-1.5-1.167-1.5S.583 1.148.583 2h2.334z" fill="#77DAE0"/></g></g></svg>