<svg width="24" height="16" viewBox="0 0 24 16" xmlns="http://www.w3.org/2000/svg"><title>flag-mo</title><g fill="none" fill-rule="evenodd"><path fill="#287E6E" d="M0 0h24v16H0z"/><path fill="#EDED4A" d="M12 3.658L11.382 4l.19-.724L11 2.764l.691-.03L12 2l.309.735.691.029-.573.512.191.724zM14.225 4.619l-.464.532-.068-.745-.713-.286.639-.264.039-.796.542.585.659-.209-.363.678.427.614zM9.775 4.619l-.698.11.427-.615-.363-.678.66.209.541-.585.04.796.638.264-.713.286-.068.745zM7.775 6.619l-.698.11.427-.615-.363-.678.66.209.541-.585.04.796.638.264-.713.286-.068.745zM16.225 6.619l-.464.532-.068-.745-.713-.286.639-.264.039-.796.542.585.659-.209-.363.678.427.614z"/><path d="M12 11.054H8.584a4.878 4.878 0 0 1-.127-.133H12c.027.01.046.035.047.063a.072.072 0 0 1-.047.07zm0-1.044a.413.413 0 0 0 0-.379 2.701 2.701 0 0 1-1.867.748H8.03c.062.091.127.18.195.267h2.034c.664 0 1.271-.24 1.742-.636zm-3.653-.824c-.101.04-.21.064-.323.07.495.561 1.22.915 2.026.915.766 0 1.458-.32 1.95-.832a14.698 14.698 0 0 0 0-4.219c-.22.197-.632.623-.826 1.276a2.702 2.702 0 0 0 .345 2.274 2.69 2.69 0 0 1-.565-1.653c0-.414.093-.806.26-1.156a1.083 1.083 0 0 1-.252-.433 2.69 2.69 0 0 0-.35 1.33c0 .602.197 1.157.53 1.607a3.17 3.17 0 0 0-2.445-.982c.09.084.167.185.225.296a3.17 3.17 0 0 1 2.29.98 3.166 3.166 0 0 0-2.037-.738c-.433 0-.845.086-1.222.243a2.706 2.706 0 0 0 2.753 1.74 2.695 2.695 0 0 1-2.359-.717zM12 12.146h-1.77a4.783 4.783 0 0 0 1.77.337.364.364 0 0 0 0-.337zm0-.817H8.879c.084.073.171.142.26.208H12a.152.152 0 0 0 .042-.104.152.152 0 0 0-.042-.104zm0 .417H9.443c.155.097.316.187.482.266H12a.252.252 0 0 0 0-.266z" fill="#FFF"/><path d="M12 11.054h3.416c.043-.043.085-.088.127-.133H12a.071.071 0 0 0-.047.063c-.002.03.017.06.047.07zm0-1.044a.413.413 0 0 1 0-.379 2.701 2.701 0 0 0 1.867.748h2.104c-.062.091-.127.18-.195.267h-2.034c-.664 0-1.271-.24-1.742-.636zm3.653-.824c.101.04.21.064.323.07-.495.561-1.22.915-2.026.915-.766 0-1.458-.32-1.95-.832a14.698 14.698 0 0 1 0-4.219c.22.197.632.623.826 1.276a2.702 2.702 0 0 1-.345 2.274 2.69 2.69 0 0 0 .565-1.653c0-.414-.093-.806-.26-1.156.115-.121.203-.269.252-.433.222.393.35.847.35 1.33a2.69 2.69 0 0 1-.53 1.607 3.17 3.17 0 0 1 2.445-.982 1.088 1.088 0 0 0-.225.296 3.17 3.17 0 0 0-2.29.98 3.166 3.166 0 0 1 2.037-.738c.433 0 .845.086 1.222.243a2.706 2.706 0 0 1-2.753 1.74 2.695 2.695 0 0 0 2.359-.717zM12 12.146h1.77a4.783 4.783 0 0 1-1.77.337.364.364 0 0 1 0-.337zm0-.817h3.121a4.811 4.811 0 0 1-.26.208H12a.152.152 0 0 1-.042-.104c0-.059.035-.097.042-.104zm0 .417h2.557a4.787 4.787 0 0 1-.482.266H12a.252.252 0 0 1 0-.266z" fill="#FFF"/></g></svg>