<svg width="24" height="16" viewBox="0 0 24 16" xmlns="http://www.w3.org/2000/svg" xmlns:xlink="http://www.w3.org/1999/xlink"><title>flag-gb</title><defs><path id="a" d="M.008 0h23.977v15.97H.008z"/></defs><g fill="none" fill-rule="evenodd"><mask id="b" fill="#fff"><use xlink:href="#a"/></mask><use fill="#006DA0" xlink:href="#a"/><path fill="#FFF" mask="url(#b)" d="M10.523 10.353L2.689 15.97H.01v-1.785l7.833-5.616h2.68zM24 1.785L16.55 7.4H14V5.333L21.45 0H24z"/><path fill="#FFF" mask="url(#b)" d="M.008 10h23.98V6H.008z"/><path fill="#FFF" mask="url(#b)" d="M.008 1.785l8.796 5.203 2.219.003v-2L2.689 0H.01zM13 10.785l8.795 5.203 2.22.003v-1.772L15.176 9H13z"/><path fill="#E84550" mask="url(#b)" d="M14.015 10.01h1.787l8.183 4.769v1.19z"/><path fill="#FFF" mask="url(#b)" d="M9.999 0v15.97h3.996V0H9.999z"/><path fill="#E84550" mask="url(#b)" d="M22.198 0h1.787l-8.21 6h-1.787zM10.005 5.999H8.218L.008 1.19V0zM8.263 9.982h1.787L1.796 15.97H.008zM11 0v15.97h2V0h-2z"/><path fill="#E84550" mask="url(#b)" d="M.008 7v2h23.98V7z"/></g></svg>