<svg width="24" height="16" viewBox="0 0 24 16" xmlns="http://www.w3.org/2000/svg"><title>flag-kp</title><g fill="none" fill-rule="evenodd"><path fill="#006DA0" d="M0 0h24v16H0z"/><path fill="#FFF" d="M0 4h24v8H0z"/><path fill="#E84550" d="M0 4.333h24v7.333H0z"/><circle fill="#FFF" cx="8" cy="8" r="2.667"/><path fill="#ED1C27" d="M8 5.417l-.798 2.457 1.228.399z"/><path fill="#ED1C27" d="M8 5.417l.798 2.457-1.228.399z"/><path fill="#ED1C27" d="M10.457 7.202H7.874v1.291z"/><path fill="#E84550" d="M5.543 7.202h2.583v1.291z"/><path fill="#ED1C27" d="M5.543 7.202l2.09 1.518.76-1.045z"/><path fill="#E84550" d="M10.457 7.202L8.367 8.72l-.76-1.045z"/><path fill="#ED1C27" d="M9.518 10.09L8.72 7.633l-1.228.4z"/><path fill="#E84550" d="M6.482 10.09l.798-2.457 1.228.4z"/><path fill="#ED1C27" d="M6.482 10.09l2.09-1.518-.76-1.045z"/><path fill="#E84550" d="M9.518 10.09l-2.09-1.518.76-1.045z"/></g></svg>