<svg width="24" height="16" viewBox="0 0 24 16" xmlns="http://www.w3.org/2000/svg"><title>flag-li</title><g fill="none" fill-rule="evenodd"><path fill="#006DA0" d="M0 0h24v8H0z"/><path fill="#E84550" d="M0 8h24v8H0z"/><g fill="#EFEE60"><path d="M2.546 4.517c-.061-.19-.1-.387-.1-.615 0-.372.261-.668.637-.668.397 0 1.078.31 1.517.31v.001c.473 0 1.07-.311 1.466-.311.375 0 .636.296.636.668 0 .228-.039.425-.1.615-.176.04-.33.17-.408.4.028-.301-.136-.563-.322-.599-.311-.06-.644.386-.723.528-.014-.396-.252-.55-.575-.55-.323 0-.56.154-.574.55-.08-.142-.413-.587-.725-.528-.185.036-.349.298-.32.598-.079-.228-.233-.36-.409-.399z"/><path d="M4.625 1.55l-.375.383.375.383L5 1.933l-.375-.383zm0 1.072l-.375.382.375.383L5 3.004l-.375-.382zM3.8 2.469l.376.383.374-.383-.374-.383-.376.383zm.913 0l.374.383.376-.383-.376-.383-.374.383zM2.763 6.178h-.074c-.245-.313-.374-1.034-.665-1.278.328-.266.777-.193.93.257-.028-.3.136-.562.321-.598.312-.06.646.386.725.528.014-.396.251-.551.574-.551.323 0 .56.155.575.551.079-.142.412-.588.723-.528.186.036.35.298.322.598.154-.45.603-.523.93-.257-.285.24-.416.937-.652 1.26-.17-.112-.93-.17-1.843-.17-.963 0-1.757.065-1.866.188z"/><path d="M4.629 6.66c-1.037 0-1.879-.157-1.879-.3 0-.142.842-.216 1.879-.216s1.879.074 1.879.217c0 .142-.842.299-1.88.299z"/></g></g></svg>