<svg width="24" height="16" viewBox="0 0 24 16" xmlns="http://www.w3.org/2000/svg"><title>flag-bb</title><g fill="none" fill-rule="evenodd"><path fill="#006DA0" d="M0 0h24v16H0z"/><path fill="#EDED4A" d="M8 0h8v16H8z"/><path d="M11.991 4.518c-.26.63-.525 1.286-1.092 1.788.176-.051.484-.098.682-.093v2.65l-.842.112c-.03-.003-.04-.045-.04-.102-.08-.823-.3-1.514-.552-2.23-.018-.098-.337-.471-.09-.405.03.003.358.122.306.065-.448-.412-1.103-.709-1.739-.797-.056-.012-.089.013-.039.07.844 1.155 1.55 2.518 1.544 4.135.328 0 1.123-.173 1.452-.173v1.87h.415l.095-5.223-.1-1.667z" fill="#2B3541"/><path d="M11.991 4.518c.26.63.525 1.286 1.092 1.788a2.714 2.714 0 0 0-.682-.093v2.65l.842.112c.03-.003.04-.045.04-.102.081-.823.3-1.514.552-2.23.018-.098.337-.471.091-.405-.03.003-.359.122-.307.065.448-.412 1.103-.709 1.74-.797.055-.012.088.013.038.07-.844 1.155-1.55 2.518-1.544 4.135-.328 0-1.123-.173-1.452-.173v1.87h-.415l-.095-5.223.1-1.667z" fill="#2B3541"/></g></svg>