<svg width="24" height="16" viewBox="0 0 24 16" xmlns="http://www.w3.org/2000/svg"><title>flag-cm</title><g fill="none" fill-rule="evenodd"><path fill="#287E6E" d="M0 0h8v16H0z"/><path fill="#E84550" d="M8 0h8v16H8z"/><path fill="#FD9B3F" d="M16 0h8v16h-8z"/><g fill="#FCD116"><path d="M12 5.877l-.66 2.032 1.015.33z"/><path d="M12 5.877l.66 2.032-1.015.33z"/><path d="M14.03 7.354l-2.136.001v1.067z"/><path d="M14.03 7.354l-1.728 1.255-.628-.863z"/><path d="M13.255 9.743l-.661-2.032-1.015.33z"/><path d="M13.255 9.743l-1.728-1.257.627-.863z"/><g><path d="M10.745 9.743l1.728-1.257-.627-.863z"/><path d="M10.745 9.743l.661-2.032 1.015.33z"/></g><g><path d="M9.97 7.354l1.728 1.254.628-.862z"/><path d="M9.97 7.354h2.136v1.067z"/></g></g></g></svg>