<svg width="24" height="16" viewBox="0 0 24 16" xmlns="http://www.w3.org/2000/svg" xmlns:xlink="http://www.w3.org/1999/xlink"><title>flag-ws</title><defs><path id="a" d="M0 0h24v16H0z"/></defs><g fill="none" fill-rule="evenodd"><mask id="b" fill="#fff"><use xlink:href="#a"/></mask><use fill="#E84550" xlink:href="#a"/><path fill="#006DA0" mask="url(#b)" d="M0 0h11v11H0z"/><g mask="url(#b)" fill="#FFF"><path d="M5 3.357l-.506.28.156-.593-.468-.419.565-.024L5 2l.253.601.565.024-.468.42.156.591zM5 8.811l-.506.28.156-.592-.468-.42.565-.023L5 7.455l.253.6.565.025-.468.419.156.592zM7.182 5.539l-.506.28.156-.593-.468-.42.565-.023.253-.601.253.6.565.025-.468.42.155.591zM2.818 5.539l-.505.28.155-.593L2 4.806l.565-.023.253-.601.253.6.565.025-.468.42.156.591zM6.227 6.77l-.253.14.078-.297-.234-.21.283-.012.126-.3.127.3.282.012-.234.21.078.296z"/></g></g></svg>