<svg width="24" height="16" viewBox="0 0 24 16" xmlns="http://www.w3.org/2000/svg"><title>flag-st</title><g fill="none" fill-rule="evenodd"><path fill="#287E6E" d="M0 0h24v16H0z"/><path fill="#EDED4A" d="M0 5.429h24v5.143H0z"/><path fill="#E84550" d="M0 0v16l8-8"/><g fill="#000"><path d="M12 6.286l-.53 1.63.815.265"/><path d="M12 6.286l.53 1.63-.815.265"/><path d="M13.63 7.47h-1.714v.857"/><path d="M13.63 7.47l-1.387 1.008-.503-.694"/><path d="M13.008 9.387l-.53-1.63-.815.264"/><path d="M13.008 9.387L11.62 8.379l.504-.693"/><g><path d="M10.992 9.387l1.387-1.008-.504-.693"/><path d="M10.992 9.387l.53-1.63.815.264"/></g><g><path d="M10.37 7.47l1.387 1.008.503-.694"/><path d="M10.37 7.47h1.714v.857"/></g></g><g fill="#000"><path d="M18 6.286l-.53 1.63.815.265"/><path d="M18 6.286l.53 1.63-.815.265"/><path d="M19.63 7.47h-1.714v.857"/><path d="M19.63 7.47l-1.387 1.008-.503-.694"/><path d="M19.008 9.387l-.53-1.63-.815.264"/><path d="M19.008 9.387L17.62 8.379l.504-.693"/><g><path d="M16.992 9.387l1.387-1.008-.504-.693"/><path d="M16.992 9.387l.53-1.63.815.264"/></g><g><path d="M16.37 7.47l1.387 1.008.503-.694"/><path d="M16.37 7.47h1.714v.857"/></g></g></g></svg>