<svg width="24" height="16" viewBox="0 0 24 16" xmlns="http://www.w3.org/2000/svg" xmlns:xlink="http://www.w3.org/1999/xlink"><title>flag-pn</title><defs><path id="d" d="M0 0h24v16H0z"/><path id="f" d="M0 0h12v8H0z"/><path id="a" d="M0 .5L11.5 8h.5v-.5L.5 0H0z"/><mask id="h" x="-.5" y="-.5" width="13" height="9"><path fill="#fff" d="M-.5-.5h13v9h-13z"/><use xlink:href="#a"/></mask><path id="b" d="M0 .5L11.5 8h.5v-.5L.5 0H0z"/><mask id="i" x="-.5" y="-.5" width="13" height="9"><path fill="#fff" d="M-.5-.5h13v9h-13z"/><use xlink:href="#b"/></mask><path d="M6.857 3.265V0h-1.47v3.265H-.124v1.47h5.513V8h1.47V4.735h5.267v-1.47H6.857z" id="c"/><mask id="j" x="-.5" y="-.5" width="13.25" height="9"><path fill="#fff" d="M-.625-.5h13.25v9H-.625z"/><use xlink:href="#c"/></mask></defs><g fill="none" fill-rule="evenodd"><mask id="e" fill="#fff"><use xlink:href="#d"/></mask><use fill="#006DA0" xlink:href="#d"/><g mask="url(#e)"><mask id="g" fill="#fff"><use xlink:href="#f"/></mask><use fill="#006DA0" xlink:href="#f"/><g mask="url(#g)"><g transform="matrix(1 0 0 -1 0 8)"><use fill="#E8525D" xlink:href="#a"/><use stroke="#FFF" mask="url(#h)" stroke-linecap="round" stroke-linejoin="round" xlink:href="#a"/></g><use fill="#E8525D" xlink:href="#b"/><use stroke="#FFF" mask="url(#i)" stroke-linecap="round" stroke-linejoin="round" xlink:href="#b"/></g><g mask="url(#g)"><use fill="#C7152A" xlink:href="#c"/><use stroke="#FFF" mask="url(#j)" xlink:href="#c"/></g><path d="M6.857 3.265V0h-1.47v3.265H-.124v1.47h5.513V8h1.47V4.735h5.267v-1.47H6.857z" fill="#E84550" mask="url(#g)"/></g><g mask="url(#e)"><path d="M19.478 13.104c.158-.074.067-.278.142-.37.042-.05.05-.132-.012-.17-.053-.034-.124-.048-.152.065-.026.112-.27.13-.216.357a.253.253 0 0 0-.174.11c-.061.101-.305.22-.4.236.028.043.11.092.175.071-.033.162.071.216.126.184-.003.072.077.158.14.112.042.108.156.137.211.054.05.072.18.045.243.017-.099-.007-.095-.282-.076-.394.022-.135.015-.218-.007-.272zm.341-2.526c-.08-.29-.302-.643-.78-1.043l-.013.68c.27.093.534.384.677.653a.806.806 0 0 0-.007.082.201.201 0 0 1 .028-.04.968.968 0 0 1 .078.21.779.779 0 0 0 .053-.287.453.453 0 0 1 .246-.006c.088.03.317.047.408-.055-.075.065.048.214-.058.33.358-.014.514-.347.453-.494.463-.42.374-1.107-.571-1.278.952.204.612.96.333.953-.177-.004-.347-.153-.357-.282-.204.108-.15.323.006.408-.237-.028-.398.045-.496.17zm-4.259 2.437c.057-.202-.16-.227-.18-.327-.012-.058-.039-.08-.068-.082a.504.504 0 0 0-.02-.05c-.068-.143-.068-.606-.204-.87.218.155.538.067.51-.362-.278.164-.556.157-.584-.231-.036-.456.142-1.118.455-1.403-.262.221-.511.545-.572.838-.173.824-.402 1.007-.756.83 0 .443.388.477.558.218a1.394 1.394 0 0 0 .508 1.098c-.01.033 0 .073.023.103.063.084-.026.263.114.335-.022.048-.03.121-.015.243.012.102.006.347-.082.35.054.027.17.057.217-.006.046.077.15.055.191-.041.054.044.13-.03.13-.095.047.03.142-.014.118-.16.058.02.132-.02.16-.058-.086-.017-.3-.132-.35-.224a.227.227 0 0 0-.153-.106zm-.422-6.602c.019-.164-.016-.332-.136-.437-.23-.203-.456-.136-.625.028-.252-.136-.385.346-.67.265.047.156.122.224.264.17-.15.136 0 .3-.177.462.32.103.49-.074.477-.381.122.109.312.102.414-.02-.17-.055-.17-.203-.102-.34.102-.205.582-.196.555.253zm1.636 1.951c-.203.565-.761.966-1.013 1.028-.43.104-1.303.528-1.537.747a.272.272 0 0 1-.097-.04c-.115-.081-.21-.346-.006-.571.64-.6 1.327-.34 1.756-.749-.361.19-1.02.109-1.082-.36a1.66 1.66 0 0 0 1.646-.49c.075.082.292.34.333.435zm2.463.429c.394.258.841.258 1.252-.218.13-.15.333-.279.476-.293.143-.014.136-.15.245-.176-.068-.02-.095-.103-.198-.092.256-.088.18-.293.306-.391-.102.038-.261-.115-.408.078.038-.088-.014-.193-.05-.234.013.102-.201.122-.242.38-.023.146-.102.137-.115-.087-.01-.165-.089-.62-.184-.85-.094-.232-.117-.55.013-.597a.252.252 0 0 0-.08-.083c-.158-.104-.436-.062-.49.122-.177.463.32.728.278 1.232-.074-.374-.68-.47-.673-.837-.197.088-.17.252-.095.38-.123-.19-.402.124-.64-.135-.027.34.273.47.517.483-.122.217.041.402.204.462.007-.381.788-.225.796.429.007.556-.592.604-.912.427zm-1.02-.81c-.012.698.278 1.051.68 1.28-.15-.089-.085-.395-.286-.494.048-.003.123.065.241.038-.058-.13-.153-.327-.373-.354.058-.006.184.014.265-.017-.116-.177-.422-.092-.527-.452zm-.072-.663c-.025-.008-.045-.033-.066-.064-.107.022-.149-.045-.157-.091.007.078-.06.075-.092.077.191.16.219.343.176.449-.054.136-.244.13-.354.04-.014.29.361.385.497.021 0 .062.078.055.099.136.096-.156.023-.381-.103-.568z" fill="#EDED4A"/><path d="M15.064 10.485c.072-.32.21-.63.405-.795.466-.396 1.062-.688 1.286-1.299.129.082.197.164.238.28-.225.646-.83 1.21-1.219 1.462-.275.179-.45.49-.55.767a.61.61 0 0 1-.008.097.338.338 0 0 0-.013-.04 1.89 1.89 0 0 0-.091.4c-.054-.051-.09-.137-.1-.264a1.842 1.842 0 0 1 .003-.288c-.158-.04-.362-.002-.465-.114.02.156-.014.354-.144.429.007-.286-.312-.245-.258-.585-.204-.096-.547-.52-.027-1.007-.205.225-.109.49.007.572.116.08.416.08.443-.185.136.054.218.266.074.395a.495.495 0 0 1 .42.175zm-.27-2.065c.063.469.721.55 1.082.36-.61.31-1.258.088-1.429-.253-.105-.21-.234-.275-.408-.289a.655.655 0 0 1-.47-.252c.11 0 .133-.12.232-.126-.17-.088-.334-.293-.232-.496.095.122.354.02.43.102-.014-.075.02-.183.081-.224.04.156.252.176.279.496.088-.203.19-.816.238-1.081.04-.224.1-.371-.013-.497.102-.205.58-.196.555.253a.906.906 0 0 1-.017.094c-.076.313-.205.79-.273 1.028.442-.688.776-.579 1.006-.816.02.075.022.22-.046.295.22.014.486.077.584-.016-.109.3-.367.51-.646.49a.308.308 0 0 1-.157.462c.062-.198-.088-.368-.279-.272-.122.06-.578.271-.517.741v.001a1.66 1.66 0 0 0 1.646-.49c.055.06.103.114.126.172a1.517 1.517 0 0 1-.629.508.33.33 0 0 0 .075-.204c-.32.122-.958.109-1.218.014zm4.246 1.115c.57.394.993.776 1.116 1.388.123.612.354.775.64.612-.068.353-.423.394-.721.122.027.409-.136.899-.558 1.075-.027-.244.135-.438.088-.64-.02-.088-.027-.292.089-.387-.225.074-.579-.068-.612-.402.258.123.591.143.72-.184.129-.326.075-.884-.762-1.584zm.721-3.184c.177-.463.64-.415.797-.218.455-.259.517.326.904.211-.006.109-.135.211-.279.204.15.136-.06.34.259.462-.272.136-.653-.006-.755-.381-.089.177-.408.177-.538.034.28-.074.259-.333.103-.435-.158-.103-.437-.061-.49.123zm-1.38 1.018c.127.41.39.79.673 1.05.326.3.82.224 1.095-.061.007.57-.583.613-.911.435-.145-.079-.262-.038-.123.088.211.19.673.332 1.218.45.952.203.612.96.333.952.08-.002.146-.085.03-.19-.826-.743-2.506-.45-2.48-2.11-.176.435-.904.265-.564-.252.109.088.3.095.354-.041.043-.106.015-.29-.175-.448.03-.003.099 0 .091-.079.008.046.05.114.157.09.03.05.063.081.107.064.008-.003.034-.016.023-.065.009.092.116.124.172.117z" fill="#349B88"/><path d="M17.543 9.14h1.552v1.837c0 1.565-.87 2.49-1.756 2.98-.885-.49-1.756-1.416-1.756-2.98V9.14h1.089c.002.095.01.238.123.381.257-.025.547-.218.748-.381z" fill="#349B88"/><path d="M19.095 9.14v1.837c0 .472-.08.887-.215 1.247l-1.54-2.826-1.541 2.826a3.54 3.54 0 0 1-.214-1.247V9.14h3.51z" fill="#4279EC"/><path d="M18.927 12.09a3.497 3.497 0 0 1-.115.301L17.34 9.654l-1.473 2.737a3.247 3.247 0 0 1-.115-.302l1.588-2.943 1.587 2.943z" fill="#EDED4A"/><path d="M17.447 11.878v1.446c.136-.04.375-.212.477-.314a1.088 1.088 0 0 0-.137-.087c.082-.136.381-.128.47-.353.027.204.014.435-.068.599a3.392 3.392 0 0 1-.15-.072c-.248.265-.602.442-.7.595-.123-.415-.643-.415-.759-.667a.357.357 0 0 0-.092.075c-.096-.143-.034-.476-.034-.62.054.103.333.13.435.477a.381.381 0 0 0-.164.006c.136.218.43.143.504.361v-1.446c-.158-.01-.403-.033-.506-.033-.035 0-.063-.052-.063-.116 0-.063.028-.115.063-.115.111 0 .386-.026.54-.035v-.289c0-.068.014-.167.075-.167.06 0 .074.1.074.167v.289c.155.009.432.035.543.035.035 0 .063.052.063.115 0 .064-.029.116-.063.116-.104 0-.35.023-.508.033z" fill="#EDED4A"/><path d="M17.995 7.178c.078.021.14.045.18.07 0 .293.116 1.27.245 1.536a.343.343 0 0 1 .068.355h-.943c.23-.18.425-.354.604-.339.084.008.142.033.179.07-.037-.038-.095-.063-.18-.07-.346-.03-.749.64-1.354.72-.177-.21-.168-.613.057-.803-.116-.335-.36-.703-.53-.862a1.661 1.661 0 0 0-.323-.022c.088-.19.34-.39.545-.473.032-.048.068-.095.101-.136.007-.084.14-.129.325-.145a.161.161 0 0 1-.016-.019c-.068-.214-.327-.449-.453-.503l-.006-.115a1.51 1.51 0 0 0 .306-.229c.51.245 1.204-.102 1.524-.462l.123.075-.062.081-.064-.034c-.079.095-.371.37-.46.428.12.03.282.05.327.048.286-.204.51-.388.619-.401l.091.122-.082.058-.064-.037c-.284.233-.603.724-.757 1.087z" fill="#96877D"/></g></g></svg>