<svg width="24" height="16" viewBox="0 0 24 16" xmlns="http://www.w3.org/2000/svg"><title>flag-aq</title><g fill="none" fill-rule="evenodd"><path fill="#00A2EE" d="M0 0h24v16H0z"/><path d="M6.91 7.143c-.067-.048-.115-.023-.2-.09-.083-.066.019-.142-.141-.199.103-.258.103-.207.362-.31-.155-.103-.155-.103-.259-.259-.155-.051-.207-.103-.362-.206C6.103 5.82 6 5.303 6 4.94c.13-.121.31.414.569.569l.362.155c.206.103.258.207.413.31l.466.155c.206.155.31.362.465.414.168 0 .2-.097.254-.103.304-.015.46-.055.52-.146.061-.073.208.042.622-.113l-.052-.207s.11-.09.259-.052c-.004-.094-.014-.346.133-.46-.09-.093-.03-.16-.03-.16s.083-.08.092-.121c-.043-.228.038-.232.056-.299.019-.067-.07-.044-.045-.136.025-.092.175-.114.195-.19.02-.077-.043-.115-.04-.133.033-.073.006-.244 0-.31.279-.075.37-.3.466-.207.052-.31.104-.414.414-.414.043-.095-.113-.176-.052-.206.103-.013.183-.007.304.15.038.05.045-.073.084-.086.039-.013.131-.013.145-.074.015-.063.036-.146.088-.249.043-.084.077.032.116.197.218.008.71.057.918.113.155.04.258-.04.407-.056.11.11.213.027.271.261.082.127.217.012.246.049.173.477.767.155.813.163.075 0 .168.213.228.208.097-.016.07-.083.154-.056-.022.18.167.386.167.52 0 0 .046.023.089-.017.042-.04.081-.142.12-.14.09.013.126.025.23.043.281.096.424.118.533.167.05.092.1.14.202.123.085.057.023.131.073.136.104-.052.138-.108.241-.056a.623.623 0 0 1 .259.258c0 .052-.052.259 0 .569.025.103.038.185.149.363-.03.182.14.488.14.566 0 .103-.083.157-.134.26.206.155 0 .414-.104.569.776.155.414.465 1.034.31-.155.362-.1.333.055.695-.31.207-.006.27-.213.528-.013.016.123.225.313.225-.051.413-.206.258-.155.879-.407-.008-.242.463-.517.413.016.296.157.322.104.62-.207.053-.207.053-.31.208l-.156-.052c-.051.258-.155.31 0 .569 0 0-.2.006-.258 0-.005.089.089.113.103.206-.008.038-.294.2-.517.207-.058.128.155.264.142.328-.242.047-.349.344-.349.344s.125.05.104.104c-.066-.049-.104-.052-.207-.052-.052.013-.178-.003-.299.2-.132.045-.195.029-.295.162-.045-.127-.109.001-.187.05-.079.05-.184.172-.198.167.003-.036.048-.165.048-.165l-.258.052s-.012 0-.032.003c-.02.002-.015-.151-.064-.146-.049.006-.19.193-.237.199-.048.005-.063-.06-.104-.054-.04.005-.121.197-.15.202-.03.005-.145-.116-.244-.1-.509.18-.59-.353-.669-.053-.106-.056-.088-.024-.196.005-.07.018-.076-.092-.137-.09-.123.004-.117.12-.184.085-.055-.242-.386-.199-.418-.302-.026-.108.143-.107.198-.18.042-.106-.044-.146.127-.248.222-.15.094-.206.133-.32.07-.162.07-.202.012-.346 0 0-.173-.465-.207-.465-.103-.03-.103.171-.255.226-.31.103-.858-.262-.953-.262-.088.002-.492.096-.476-.105-.06.195-.283.046-.297.046-.207 0-.127.16-.266.153-.063-.021-.7-.058-.7-.058v.103l-.414-.207-.362-.103c-.31-.103-.155-.362-.672-.207v-.31h-.258c.103-.62 0-.31-.052-.879l-.207.052c-.207-.28.288-.226-.155-.414 0 0 .008-.309-.103-.207-.023.013.051.155.051.155-.413-.051-.517-.155-.517-.568 0 0 .341.048.31 0-.048-.078-.11-.582-.1-.616-.004-.068.317-.24.255-.402.04-.015.156-.016.156-.016" fill="#FFF"/></g></svg>