<svg width="24" height="16" viewBox="0 0 24 16" xmlns="http://www.w3.org/2000/svg"><title>flag-rs</title><g fill="none" fill-rule="evenodd"><path fill="#FFF" d="M0 0h24v16H0z"/><path fill="#006DA0" d="M0 0h24v10.667H0z"/><path fill="#E84550" d="M0 0h24v5.333H0z"/><path d="M5.593 10.178c0 .863.334 1.647.874 2.214.54.568 1.284.92 2.104.92.82 0 1.566-.352 2.105-.92.54-.567.874-1.351.874-2.214V5.354H5.592v4.824z" stroke="#FFF" stroke-width=".25" fill="#E84550"/><path d="M6.92 3.618c0-.267.185-.478.453-.478.284 0 .77.222 1.084.222.338 0 .764-.222 1.047-.222.14 0 .256.057.336.149.075.085.118.2.118.329 0 .162-.027.303-.07.439-.126.028-.237.122-.292.285.02-.215-.093-.699-.225-.724-.222-.043-.465.573-.522.674-.01-.283-.162-.674-.392-.674s-.419.391-.429.674c-.056-.101-.33-.814-.552-.771-.133.025-.214.606-.194.821-.056-.163-.166-.257-.292-.285a1.403 1.403 0 0 1-.07-.44z" fill="#EEB839"/><path d="M8.671 2.363a.087.087 0 0 0-.084-.088.087.087 0 0 0-.087-.087.087.087 0 0 0-.087.087.087.087 0 0 0-.084.088c0 .047.037.086.084.087v.18H8.26a.087.087 0 0 0-.087-.087.087.087 0 0 0-.087.086.087.087 0 0 0-.086.088c0 .048.039.087.086.087.002.048.04.086.087.086a.087.087 0 0 0 .087-.084h.153v.6h.174v-.6h.153c.002.047.04.084.087.084a.087.087 0 0 0 .087-.086.087.087 0 1 0 0-.176.087.087 0 0 0-.087-.085.087.087 0 0 0-.087.087h-.153v-.18a.087.087 0 0 0 .084-.087z" fill="#EDB92E"/><path d="M7.092 5.243s-.267-.738-.475-.913c.234-.19.555-.137.665.184-.02-.215.097-.402.229-.427.222-.043.46.276.517.377.01-.283.18-.394.41-.394.231 0 .401.111.411.394.057-.101.294-.42.517-.377.132.025.25.212.23.427.11-.321.43-.374.664-.184-.203.171-.466.9-.466.9l-2.702.013z" fill="#EEB839"/><g><g fill="#EDB92E"><path d="M6.452 11.235c.042.044.114.033.117-.02.003-.06.21-.138.242-.184-.039.091-.126.176-.17.265-.044.044-.072.055-.025.134-.01.056.013.118.08.175.025.022.036-.001.026-.026-.013-.031-.005-.07.016-.118.093-.01.108-.037.093-.11-.016-.077.048-.216.07-.256.02-.036.024-.074.043-.096.034-.04.192-.119.233-.097.075.04.132.016.141-.057a.022.022 0 0 1-.005-.007c.051-.026.097-.028.125-.008.018.014.036.004.02-.019-.054-.076-.115-.094-.169-.07-.006-.013-.014-.02-.028-.022-.043-.004-.068.01-.107.041-.06.05-.092.077-.113.071-.047-.013.087-.079.21-.24.169-.222.18-.335.172-.41-.049.001-.109.03-.284.182a2.488 2.488 0 0 1-.26.45.407.407 0 0 1-.094.05c-.03.01-.25.002-.256-.007-.043-.04-.1-.037-.128-.013-.052-.026-.106-.006-.141.078-.01.023.007.03.02.016.022-.025.053-.028.105 0 .01.034.05.077.086.048.044-.036.198-.002.25-.02-.02.046-.159.076-.256.083-.06.002-.077.043-.07.09-.021.029-.02.08.015.16.009.027.024.019.022-.004a.08.08 0 0 1 .02-.06zM10.535 11.235c-.042.044-.114.033-.117-.02-.003-.06-.21-.138-.242-.184.038.091.126.176.17.265.044.044.071.055.025.134.01.056-.013.118-.08.175-.025.022-.036-.001-.026-.026.013-.031.005-.07-.017-.118-.092-.01-.107-.037-.092-.11.016-.077-.048-.216-.07-.256-.02-.036-.024-.074-.044-.096-.033-.04-.192-.119-.232-.097-.075.04-.132.016-.142-.057a.022.022 0 0 0 .006-.007c-.052-.026-.098-.028-.125-.008-.018.014-.036.004-.02-.019.054-.076.115-.094.168-.07.006-.013.015-.02.03-.022.041-.004.067.01.105.041.062.05.093.077.113.071.048-.013-.086-.079-.208-.24-.17-.222-.181-.335-.173-.41.048.001.108.03.284.182.076.156.154.313.26.45.036.023.065.04.094.05.03.01.25.002.256-.007.043-.04.1-.037.128-.013.052-.026.106-.006.141.078.01.023-.007.03-.02.016-.022-.025-.053-.028-.105 0-.01.034-.051.077-.086.048-.044-.036-.198-.002-.25-.02.02.046.159.076.256.083.06.002.077.043.07.09.021.029.02.08-.015.16-.009.027-.024.019-.023-.004a.08.08 0 0 0-.019-.06z"/></g><path d="M9.33 7.595c.037.025.163.063.179.051.116-.082.228-.274.327-.386.279-.316.418-.56.369-.758-.07-.212-.32-.45.01-.41.332.042.606.496.694 1.043.033.203.052.373.074.512a1.463 1.463 0 0 1-.043-.016c.014.191.016.384.012.576-.005.016.01.053-.008.057a.02.02 0 0 1 .007 0c-.003.115-.009.23-.038.341.005.045.007.09.008.134.005.33-.055.656-.105.98-.01.018.001.063-.018.065a.02.02 0 0 1 .007.002c-.05.315-.057.641.009.955.01.014.01.083.005.046l-.002.003a1.717 1.717 0 0 0 .001.005.02.02 0 0 1 0 .007.387.387 0 0 1-.113-.033.402.402 0 0 1-.182-.19.955.955 0 0 1-.045.144c-.01.014-.013.053-.029.055a.054.054 0 0 0 .004.004c-.015.009-.027-.011-.04-.017-.11-.088-.153-.23-.178-.365a1.964 1.964 0 0 1-.017.041c-.002.016-.042.063-.025.03v.001a.18.18 0 0 1-.009.012.364.364 0 0 1-.108-.19c-.003.004-.004.002-.002-.006a.172.172 0 0 1-.002.003.018.018 0 0 1-.003.007c-.09-.04-.131-.138-.159-.226a1.493 1.493 0 0 1-.049-.322.461.461 0 0 1-.018.034c-.008.01-.015.035-.026.033l.004.002-.011.002a.355.355 0 0 1-.12-.223c0-.012-.009-.033-.001-.04a.03.03 0 0 1-.003 0l-.006-.143a.517.517 0 0 1-.05.14c-.008.009-.014.035-.025.033l.003.002-.005.001c.02.03.034.064.043.1.003.006.004.011 0 .014h.004a.947.947 0 0 0 .193.416v.007l.001-.002c.01.004.012.016-.005.01h-.025l.035.067a.924.924 0 0 0 .213.263c.013.008.01.012-.005.013l.001-.004s0 .001 0 0v.004a.507.507 0 0 1-.155.007.307.307 0 0 1-.192-.095.517.517 0 0 1 .018.263c.002.001 0 .009-.008.004a.325.325 0 0 1-.141-.078.455.455 0 0 1-.044.147c.002.002-.002.009-.009.002h.003v-.002l-.003.002a.348.348 0 0 1-.163-.21.48.48 0 0 1-.09.116c-.006.007-.01.01-.015.008a13.9 13.9 0 0 0 .003.003c-.01.013-.014.01-.013-.005l.005.002-.005-.002a1.022 1.022 0 0 0-.127-.415.993.993 0 0 0-.194.388c.04.102.081.19.129.266.036.058.063.184.046.22-.011.024-.031.03-.045.036a1.41 1.41 0 0 0 .171.277c.047.058.082.184.06.22-.017.028-.05.032-.068.04.055.15.115.28.19.39.042.062.072.184.044.223-.021.03-.059.035-.079.045l-.045.013c-.022.002-.06.023-.093.01-.045-.018-.052-.15-.084-.217.017.053.062.193.019.242-.024.028-.062.03-.083.037l-.046.009c-.022 0-.058.012-.09-.005-.02-.01-.03-.044-.038-.085.002.04-.004.078-.024.097-.027.025-.065.024-.086.03l-.047.004c-.022-.002-.06.006-.09-.014-.022-.014-.033-.06-.04-.112.002.051-.002.098-.024.115-.029.023-.066.018-.088.022H8.47c-.022-.004-.06 0-.088-.022-.022-.017-.026-.063-.025-.114-.006.05-.017.097-.04.111-.03.02-.067.012-.09.014l-.046-.005c-.022-.005-.06-.004-.086-.029-.02-.02-.026-.057-.024-.098-.007.04-.018.075-.038.086-.032.017-.068.005-.09.005l-.046-.009c-.022-.007-.06-.01-.083-.037-.044-.049.002-.19.018-.242-.032.068-.039.199-.083.217-.034.013-.071-.008-.094-.01l-.044-.013c-.02-.01-.058-.016-.08-.045-.027-.04.003-.161.044-.222.075-.11.136-.24.191-.391-.018-.008-.051-.012-.068-.04-.023-.036.013-.162.06-.22a1.411 1.411 0 0 0 .171-.277c-.014-.006-.034-.012-.045-.035-.017-.037.01-.163.046-.22a1.52 1.52 0 0 0 .129-.267 1 1 0 0 0-.2-.395c-.09.17-.12.291-.129.421a.484.484 0 0 1-.105-.13.35.35 0 0 1-.166.22l-.001-.003v.002h.001c-.006.007-.01 0-.008-.002l-.002-.001a.455.455 0 0 1-.042-.146.325.325 0 0 1-.141.078c-.008.005-.01-.003-.008-.004l-.002-.001a.517.517 0 0 1 .02-.262.307.307 0 0 1-.192.095.507.507 0 0 1-.155-.007v-.003.003c-.014 0-.017-.005-.004-.013l.001.001v-.002a.924.924 0 0 0 .25-.337.635.635 0 0 1-.028.001.969.969 0 0 0 .197-.422.356.356 0 0 1 .051-.12.3.3 0 0 1-.007.005l-.01-.002a.035.035 0 0 0 .003-.002c-.011.002-.017-.024-.025-.034a.517.517 0 0 1-.05-.139c-.002.047-.003.095-.006.142a.03.03 0 0 1-.003 0c.008.008-.002.03-.001.041a.355.355 0 0 1-.12.223l-.01-.002a.035.035 0 0 0 .003-.002c-.012.002-.018-.024-.027-.033a.461.461 0 0 1-.018-.034c-.005.109-.02.217-.049.322-.027.088-.07.185-.158.226a.018.018 0 0 1-.004-.007.172.172 0 0 1-.001-.003c.002.008 0 .01-.003.006a.364.364 0 0 1-.107.19.18.18 0 0 1-.01-.012c.018.032-.023-.015-.024-.031a1.964 1.964 0 0 1-.017-.04c-.026.134-.069.276-.179.364-.013.006-.024.026-.039.017a.054.054 0 0 0 .004-.004c-.016-.002-.018-.041-.029-.055a.955.955 0 0 1-.045-.143.402.402 0 0 1-.182.189.387.387 0 0 1-.112.033.02.02 0 0 1-.001-.007v-.005c0-.001 0-.002-.002-.003-.004.037-.004-.032.006-.046.066-.314.06-.64.009-.955a.02.02 0 0 1 .007-.001v-.001c-.02-.002-.009-.047-.018-.064-.05-.325-.11-.65-.105-.98a1.64 1.64 0 0 1 .008-.135 1.485 1.485 0 0 1-.039-.34.02.02 0 0 1 .007 0c-.017-.005-.002-.042-.008-.058a6.302 6.302 0 0 1 .013-.576l-.043.016c.022-.14.041-.309.074-.512.088-.547.362-1.001.693-1.042.331-.041.081.197.011.41-.049.196.09.44.37.757.098.112.21.304.326.386.018.013.17-.034.187-.058a.579.579 0 0 1-.075-.021c.117-.073.214-.162.329-.338.118-.181-.052-.504-.121-.675a.808.808 0 0 1-.326-.474c-.017-.112.292-.072.505.029.26.122.295.088.387.11.033.158-.036.172-.102.164.143.23.203.458.231.787.029-.329.089-.557.232-.787-.066.008-.135-.006-.102-.165.092-.02.128.013.387-.11.213-.1.522-.14.505-.028a.808.808 0 0 1-.326.474c-.07.171-.239.494-.12.675.11.171.205.26.318.331a.664.664 0 0 0 .006-.002l.003.007-.003-.007a.01.01 0 0 1 .004 0c.01 0 .012.014.003.017a.025.025 0 0 1-.002-.004l.001.004a.6.6 0 0 1-.068.02z" fill="#FFF"/><g fill="#EDB92E"><path d="M7.858 6.94c-.031.066-.134.067-.274.09-.227.018-.358-.147-.387-.5.085.246.186.368.301.299.156-.094.245-.16.28-.144.024.02.059.125.08.255z"/><path d="M7.328 6.103c-.254.028-.242.194-.004.429.045.045.06.044.07-.003.017-.082.108-.13.155-.068.033.042.025.067.133.052.136.114.246.194.069.187-.079-.003-.139.043-.24.039.03.058.035.065.051.07.099.02.203-.042.303-.024.218.04-.35-.59-.343-.615.018-.064-.137-.177-.194-.067zM9.129 6.94c.03.066.134.067.274.09.227.018.358-.147.387-.5-.085.246-.187.368-.302.299-.155-.094-.244-.16-.28-.144-.023.02-.058.125-.08.255z"/><path d="M9.659 6.103c.254.028.241.194.004.429-.045.045-.061.044-.07-.003-.018-.082-.108-.13-.155-.068-.033.042-.026.067-.133.052-.136.114-.247.194-.069.187.078-.003.139.043.24.039-.03.058-.035.065-.051.07-.099.02-.203-.042-.303-.024-.218.04.35-.59.343-.615-.018-.064.137-.177.194-.067z"/></g></g><g><path d="M9.763 7.503v1.93c0 .345-.134.658-.35.885a1.16 1.16 0 0 1-.841.368 1.16 1.16 0 0 1-.842-.368 1.283 1.283 0 0 1-.35-.885v-1.93h2.383z" fill="#C6363C"/><path d="M8.98 8.484v-.7c.153-.04.523-.188.543.136.008.15-.186.249-.238.117-.025-.063.002-.107.038-.122.04-.015.079.017.069.064.157-.082-.141-.257-.276-.03-.04.067.066.136.066.185 0 .05-.103.123-.066.185.136.227.433.053.276-.03.01.048-.03.08-.069.065-.036-.015-.063-.059-.038-.122.052-.132.246-.033.238.117-.02.324-.39.176-.542.135z" fill="#FFF"/><path d="M9.763 8.687v.497H8.82v1.475a1.131 1.131 0 0 1-.497 0V9.184H7.38v-.497h.943V7.503h.497v1.184h.943z" fill="#FFF"/><path d="M8.162 8.484v-.7c-.152-.04-.522-.188-.541.136-.01.15.185.249.238.117.024-.063-.003-.107-.04-.122-.039-.015-.078.017-.067.064-.158-.082.14-.257.275-.03.04.067-.066.136-.066.185 0 .05.103.123.066.185-.136.227-.433.053-.275-.03-.01.048.028.08.068.065.036-.015.063-.059.039-.122-.053-.132-.247-.033-.238.117.019.324.39.176.541.135zM8.162 10.086v-.7c-.152-.04-.522-.188-.541.136-.01.15.185.248.238.116.024-.062-.003-.107-.04-.121-.039-.016-.078.016-.067.064-.158-.082.14-.257.275-.03.04.067-.066.136-.066.185 0 .05.103.123.066.185-.136.227-.433.053-.275-.03-.01.048.028.08.068.064.036-.014.063-.058.039-.121-.053-.132-.247-.033-.238.116.019.324.39.177.541.136zM8.98 10.086v-.7c.153-.04.523-.188.543.136.008.15-.186.248-.238.116-.025-.062.002-.107.038-.121.04-.016.079.016.069.064.157-.082-.141-.257-.276-.03-.04.067.066.136.066.185 0 .05-.103.123-.066.185.136.227.433.053.276-.03.01.048-.03.08-.069.064-.036-.014-.063-.058-.038-.121.052-.132.246-.033.238.116-.02.324-.39.177-.542.136z" fill="#FFF"/></g></g></svg>