<svg width="24" height="16" viewBox="0 0 24 16" xmlns="http://www.w3.org/2000/svg"><title>flag-tn</title><g fill="none" fill-rule="evenodd"><path fill="#E84550" d="M0 0h24v16H0z"/><g transform="translate(7 3)"><circle fill="#FFF" cx="5" cy="5" r="5"/><path d="M5 1.25a3.75 3.75 0 0 0 0 7.5 3.75 3.75 0 0 0 3.026-1.541A3 3 0 0 1 6 8a3 3 0 1 1 0-6 3 3 0 0 1 2.025.792A3.75 3.75 0 0 0 5 1.25z" fill="#E84550"/><path fill="#E84550" d="M5.72 5.603l-1.132-.326 1.078-.628-.071-1.279.849.78 1.23-.501-.502 1.23.78.848-1.279-.07-.628 1.077z"/></g></g></svg>