<svg width="24" height="16" viewBox="0 0 24 16" xmlns="http://www.w3.org/2000/svg" xmlns:xlink="http://www.w3.org/1999/xlink"><title>flag-my</title><defs><path id="a" d="M0 0h24v16H0z"/><mask id="b" x="0" y="0" width="24" height="16" fill="#fff"><use xlink:href="#a"/></mask></defs><g fill="none" fill-rule="evenodd"><path fill="#E84550" d="M0 0h24v16H0z"/><path fill="#FFF" d="M0 1h24v1H0zM0 3h24v1H0zM0 5h24v1H0zM0 7h24v1H0zM0 9h24v1H0zM0 11h24v1H0zM0 13h24v1H0zM0 15h24v1H0z"/><path fill="#006DA0" d="M0 0h8v8H0z"/><g fill="#EDED4A"><path d="M2.8 2.038c-.936 0-1.697.758-1.697 1.691A1.695 1.695 0 0 0 3.72 5.152a1.506 1.506 0 0 1-1.998-1.418A1.503 1.503 0 0 1 3.75 2.327a1.693 1.693 0 0 0-.95-.29z"/><path d="M5.616 4.61L4.9 4.237 5.112 5l-.478-.638-.15.777-.146-.778-.48.638.213-.763-.716.37.532-.596-.81.03.745-.312-.744-.315.81.034-.53-.598.715.373-.211-.764.478.639.15-.777.146.777.48-.637-.214.763.716-.371-.532.597.81-.031-.744.312.744.315-.81-.033z"/></g><use stroke-opacity=".2" stroke="#2B3541" mask="url(#b)" stroke-width=".2" xlink:href="#a"/></g></svg>