<svg width="24" height="16" viewBox="0 0 24 16" xmlns="http://www.w3.org/2000/svg" xmlns:xlink="http://www.w3.org/1999/xlink"><title>flag-sm</title><defs><path id="a" d="M0 0h24v16H0z"/><mask id="b" x="0" y="0" width="24" height="16" fill="#fff"><use xlink:href="#a"/></mask></defs><g fill="none" fill-rule="evenodd"><path fill="#FFF" d="M0 0h24v16H0z"/><use mask="url(#b)" xlink:href="#a" stroke="#E6E6E6"/><path fill="#77DAE0" d="M0 8h24v8H0z"/><g transform="translate(9.96 2.61)"><path d="M.755 2.482c-.128-.132-.21-.273-.141-.4.129-.237.776-.031 1.128-.435a.433.433 0 0 0-.016.095c0 .09.086.214.108.32a.725.725 0 0 1 .013.125.708.708 0 0 0-.08.193c-.106-.197-.293-.256-.293-.256s-.113.114-.142.322c-.156-.154-.308-.161-.308-.161s-.06.095-.064.297a.5.5 0 0 0-.205-.1zm-.361.301C.198 2.5-.051 2.01.376 1.77c.324-.181 1.034.047 1.439-.42.01-.012.03.01.036.049h.378c.007-.04.026-.06.037-.049.404.467 1.114.239 1.438.42.427.24.179.728-.017 1.012l.01.003a.404.404 0 0 1 .145.063.898.898 0 0 0-.445.325c-.1-.207-.643-.435-1.355-.435-.711 0-1.258.228-1.36.435a.819.819 0 0 0-.439-.325.403.403 0 0 1 .151-.065zm2.91-.279c.14-.138.236-.288.163-.422-.13-.236-.776-.031-1.128-.434a.45.45 0 0 1 .015.094c0 .09-.081.214-.103.32a.725.725 0 0 0-.013.125c.032.053.06.117.08.193.106-.197.293-.256.293-.256s.112.11.142.322a.516.516 0 0 1 .308-.161s.059.095.064.297a.365.365 0 0 1 .179-.078zM.852 3.518s-.031-.032-.04-.058c-.009-.02-.01-.055-.01-.055L.69 3.223l.255-.243.486-.14.611-.043h.001l.612.044.486.139.255.243-.114.182s0 .035-.008.055a.216.216 0 0 1-.042.058l-.569-.192-.62-.028-.62.028-.57.192z" fill="#F2BE3C"/><ellipse fill="#D99F31" cx="2.04" cy="3.642" rx="1.104" ry=".282"/><path d="M2.284.266c.053 0 .092.047.092.1 0 .054-.039.106-.092.106-.07 0-.17-.082-.167-.017l.001.033.037.305c.091.02-.316.02-.226 0l.037-.306.002-.032c.003-.065-.1.017-.167.017-.053 0-.092-.052-.092-.106 0-.053.039-.1.092-.1.052 0 .11.048.148.025.058-.036-.012-.117-.012-.171 0-.054.052-.097.105-.097.054 0 .106.043.106.097 0 .054-.07.133-.012.171.035.023.094-.025.148-.025z" fill="#D99F31"/></g><path d="M11.964 6.825c.406-.007 2.154-.3 2.154 2.127 0 2.32-2.117 3.242-2.117 3.242S9.885 11.3 9.885 8.777c0-2.252 2.079-1.952 2.079-1.952z" fill="#A0CFEB"/><path d="M12.65 10.452a.856.856 0 0 1 1.046.162c-.618 1.11-1.694 1.58-1.694 1.58s-1.05-.443-1.67-1.585a.858.858 0 0 1 1.084-.131.858.858 0 0 1 1.234-.026z" fill="#287E6E"/><path d="M11.197 9.997l.102.418a.858.858 0 0 0-.735.02l.117-.421-.003-.822-.114-.137V8.77l.158-.068v.18l.117-.046v-.18l.093-.04.093.027v.181l.116.03v-.18l.158.042v.295l-.102.151v.835zM12.337 10.242a.896.896 0 0 0-.717.061l.116-.45-.003-.83-.002-.005-.111-.137v-.28l.14-.055v.166c0 .008.005.012.012.009l.116-.042c.003 0 .006-.006.006-.008v-.175l.084-.033.083.028v.175c0 .003.004.008.007.01l.116.031c.007.002.012-.002.012-.008v-.165l.14.045v.284l-.1.143-.002.005v.832l.103.4zM13.382 10.39a.893.893 0 0 0-.716.04l.116-.43-.003-.83-.002-.005-.111-.143V8.74l.14-.045v.167c0 .007.005.011.011.009l.117-.035c.003 0 .006-.005.006-.009v-.174l.084-.026.084.028v.175c0 .003.003.008.006.009l.116.04c.007.001.012-.002.012-.01v-.164l.14.047v.28l-.1.142-.002.006v.827l.102.384z" fill="#7FA4BA"/><path d="M12.944 6.424l-.936.407-.935-.407-.327.023c-.808 0-1.215 1.11-1.215 2.136 0 2.435 2.329 3.427 2.329 3.427s-1.864-1.262-1.764-3.425c.052-1.11.407-1.332.505-1.397l.6.167.807-.478.808.478.586-.167c.098.065.453.287.505 1.397.1 2.163-1.764 3.425-1.764 3.425s2.328-.992 2.328-3.427c0-1.025-.407-2.136-1.214-2.136l-.313-.023z" fill="#D99F31"/><path d="M12.7 7.267c.098.13.25.212.42.212.221 0 .39-.138.39-.359-.005-.116-.084-.26-.27-.26-.122 0-.224.116-.224.237 0 .067.012.108.054.158-.166-.053-.276-.142-.276-.33 0-.193.128-.332.338-.35.701-.057 1.13.721 1.213 1.798.117 1.535-.71 2.759-1.97 3.458-.175.097-.313.175-.373.2v.192a4.83 4.83 0 0 0 1.38-.854 3.665 3.665 0 0 0 1.195-2.995c-.06-.867-.33-1.449-.662-1.736-.567-.492-1.34-.295-1.34.287 0 .127.05.247.125.342zm-1.397 0a.523.523 0 0 1-.42.212c-.221 0-.39-.138-.39-.359.005-.116.084-.26.27-.26.121 0 .224.116.224.237a.218.218 0 0 1-.054.158c.166-.053.276-.142.276-.33 0-.193-.128-.332-.338-.35-.701-.057-1.13.721-1.213 1.798-.117 1.535.71 2.759 1.97 3.458.175.097.313.175.373.2v.192a4.83 4.83 0 0 1-1.38-.854 3.665 3.665 0 0 1-1.195-2.995c.06-.867.33-1.449.662-1.736.567-.492 1.34-.295 1.34.287 0 .127-.05.247-.125.342z" fill="#996F27"/><g><path d="M8.675 7.648c-.181.46-.242 1.273-.18 1.643.193 1.136 1.128 2.201 1.985 2.373.745.15 1.199.484 1.495.84.194.232.298.338.576.801.102.17-.072.204-.144.063-.196-.383-.301-.553-.571-.854-.29-.323-.716-.613-1.412-.752-.83-.166-1.801-1.233-1.994-2.369-.062-.37-.007-1.252.182-1.718l.063-.027" stroke="#000" stroke-width=".1" fill="#000"/><path d="M8.661 7.67c-.179.47-.232 1.258-.17 1.622.193 1.14 1.126 2.208 1.987 2.381.743.15 1.187.484 1.492.83.143.161.259.319.353.467.082.128.152.267.22.378.012.018-.081.056-.09.04-.073-.117-.14-.265-.224-.4-.095-.155-.258-.312-.4-.48-.303-.357-.705-.625-1.403-.765-.825-.164-1.785-1.218-1.977-2.351-.062-.368-.017-1.223.147-1.674l.065-.048z" stroke="#000" stroke-width=".1" fill="#A48253"/><path d="M8.736 9.205c.396-.241.602-.583.432-1.05-.06.118-.144.146-.239.235a.994.994 0 0 0-.307.463 1.015 1.015 0 0 1-.057-.26c-.11.103-.191.204-.243.315a.202.202 0 0 1-.03-.04c-.025-.051-.043-.173-.06-.234a1.372 1.372 0 0 0-.138-.356c-.102-.167-.368-.302-.436-.436-.054.222-.056.513.07.71a.779.779 0 0 0 .35.305c.113.047.168.04.23.082a.84.84 0 0 0-.042.468.68.68 0 0 0 .19.375c.06.062.165.146.214.222l.054.031c-.154-.34.067-.406.025-.754a.861.861 0 0 0-.013-.076zm.566 2.041c-.145.04-.293.188-.513.194-.312.01-.508-.137-.721-.347.31-.046.55-.225.869-.125.04.013.08.034.122.06a.8.8 0 0 1-.105-.287.31.31 0 0 0-.06-.015c-.043-.004-.445.092-.692-.019a.818.818 0 0 1-.501-.59c.273.08.515.047.793.205.194.11.361.33.437.368l.017.007a.816.816 0 0 1 .005-.229c.189.168.408.215.58.403.201.222.03.371.41.588l-.04.004c-.152-.129-.398-.123-.6-.217zm1.175.41a.648.648 0 0 0-.09-.081c-.074-.054-.237-.06-.36-.15-.171-.125-.26-.242-.308-.45-.029-.125-.006-.226 0-.33.154.224.422.245.566.514.087.163.076.41.254.51l-.062-.013zM8.46 10.08c-.109-.034-.234-.055-.366-.087a.735.735 0 0 1-.32-.183c-.147-.133-.196-.31-.225-.501a1.462 1.462 0 0 1-.013-.319c.012.021.027.042.046.056.097.069.197.117.294.187.084.06.144.101.214.18.087.098.16.205.222.321.048.092.09.2.153.283l-.005.063zm.06-1.68l.008-.06a.205.205 0 0 0 .105-.108c.08-.191.129-.386.241-.563.146-.23.303-.319.46-.445.008.203.043.417-.118.683-.092.15-.36.3-.526.366-.075.03-.128.053-.17.126zm1.33 3.19c-.076 0-.311-.04-.5.01-.283.074-.4.339-.613.433.324.14.56.105.83-.11.109-.087.178-.253.32-.297l-.038-.037zM8.626 7.666c.05-.144.05-.304.078-.454.06-.315.15-.418.378-.629.072-.067.147-.116.226-.176.012.09.018.167.01.258-.046.446-.236.551-.554.824-.062.053-.078.127-.138.177zm-.165.702l-.024.075c-.013-.098-.054-.141-.124-.205-.305-.276-.436-.601-.308-.981a.76.76 0 0 1 .183-.31c.06.102.088.163.13.274.105.282.146.44.105.763-.015.114-.07.253.006.354a.087.087 0 0 0 .032.03z" fill="#287E6E"/><path d="M15.265 7.648c.181.46.242 1.273.18 1.643-.193 1.136-1.128 2.201-1.985 2.373-.745.15-1.199.484-1.495.84-.194.232-.298.338-.576.801-.102.17.072.204.144.063.196-.383.301-.553.571-.854.29-.323.716-.613 1.412-.752.83-.166 1.801-1.233 1.994-2.369.062-.37.007-1.252-.182-1.718l-.063-.027" stroke="#000" stroke-width=".1" fill="#000"/><path d="M15.279 7.67c.179.47.232 1.258.17 1.622-.193 1.14-1.126 2.208-1.987 2.381-.743.15-1.187.484-1.492.83-.143.161-.259.319-.353.467-.082.128-.152.267-.22.378-.012.018.081.056.09.04.073-.117.14-.265.224-.4.095-.155.258-.312.4-.48.303-.357.705-.625 1.403-.765.825-.164 1.785-1.218 1.977-2.351.062-.368.017-1.223-.147-1.674l-.065-.048z" stroke="#000" stroke-width=".1" fill="#A48253"/><path d="M15.204 9.205c-.396-.241-.602-.583-.432-1.05.06.118.144.146.239.235.173.161.25.287.307.463.028-.083.051-.168.057-.26.11.103.191.204.243.315a.202.202 0 0 0 .03-.04c.025-.051.043-.173.06-.234.032-.12.073-.249.138-.356.102-.167.368-.302.436-.436.054.222.056.513-.07.71a.779.779 0 0 1-.35.305c-.113.047-.168.04-.23.082a.84.84 0 0 1 .042.468.68.68 0 0 1-.19.375c-.06.062-.165.146-.214.222l-.054.031c.154-.34-.067-.406-.025-.754a.861.861 0 0 1 .013-.076zm-.566 2.041c.145.04.293.188.513.194.312.01.508-.137.721-.347-.31-.046-.55-.225-.869-.125a.602.602 0 0 0-.122.06.8.8 0 0 0 .105-.287.31.31 0 0 1 .06-.015c.043-.004.445.092.692-.019a.818.818 0 0 0 .501-.59c-.273.08-.515.047-.793.205-.194.11-.361.33-.437.368a.214.214 0 0 1-.017.007.816.816 0 0 0-.005-.229c-.189.168-.408.215-.58.403-.201.222-.03.371-.41.588l.04.004c.152-.129.398-.123.6-.217zm-1.175.41a.648.648 0 0 1 .09-.081c.074-.054.237-.06.36-.15.171-.125.26-.242.308-.45.029-.125.006-.226 0-.33-.154.224-.422.245-.566.514-.087.163-.076.41-.254.51l.062-.013zm2.018-1.576c.109-.034.234-.055.366-.087a.735.735 0 0 0 .32-.183c.147-.133.196-.31.225-.501.016-.107.02-.21.013-.319a.171.171 0 0 1-.046.056c-.097.069-.197.117-.294.187-.084.06-.144.101-.214.18-.087.098-.16.205-.222.321-.048.092-.09.2-.153.283l.005.063zm-.06-1.68l-.008-.06a.205.205 0 0 1-.105-.108c-.08-.191-.129-.386-.241-.563-.146-.23-.303-.319-.46-.445-.008.203-.043.417.118.683.092.15.36.3.526.366.075.03.128.053.17.126zm-1.33 3.19c.076 0 .311-.04.5.01.283.074.4.339.613.433-.324.14-.56.105-.83-.11-.109-.087-.178-.253-.32-.297l.038-.037zm1.222-3.923c-.05-.144-.05-.304-.078-.454-.06-.315-.15-.418-.378-.629-.072-.067-.147-.116-.226-.176-.012.09-.018.167-.01.258.046.446.236.551.554.824.062.053.078.127.138.177zm.165.702l.024.075c.013-.098.054-.141.124-.205.305-.276.436-.601.308-.981a.76.76 0 0 0-.183-.31c-.06.102-.088.163-.13.274-.105.282-.146.44-.105.763.015.114.07.253-.006.354a.087.087 0 0 1-.032.03z" fill="#287E6E"/></g><g fill="#FFF"><path d="M12.051 12.815c.23-.003.404-.025.602-.064-.047.159-.14.46.232.46.27 0 .558-.163.837-.02.61.312 1.07.09 1.441-.33 0 0-.275.06-.558.047 0 0 .212-.18.233-.418-.186.14-.372.16-.558.16-.186 0-.305-.113-.549-.151l.05-.288c.025-.13-.011-.234-.199-.256-.408-.048-.804.188-1.526.2-.728-.012-1.227-.248-1.635-.2-.188.022-.224.127-.2.256.022.118.037.204.05.288-.243.038-.362.15-.548.15-.186 0-.372-.02-.558-.16.02.239.233.42.233.42a2.521 2.521 0 0 1-.558-.047c.372.418.832.641 1.441.329.28-.143.566.02.837.02.372 0 .279-.301.232-.46.211.042.445.065.701.065v-.001z"/></g></g></svg>