<svg width="24" height="16" viewBox="0 0 24 16" xmlns="http://www.w3.org/2000/svg" xmlns:xlink="http://www.w3.org/1999/xlink"><title>flag-an</title><defs><path id="a" d="M0 0h24v16H0z"/><mask id="c" x="0" y="0" width="24" height="16" fill="#fff"><use xlink:href="#a"/></mask><path id="b" d="M0 0h24v16H0z"/><mask id="d" x="0" y="0" width="24" height="16" fill="#fff"><use xlink:href="#b"/></mask></defs><g fill="none" fill-rule="evenodd"><use stroke-opacity=".2" stroke="#2B3541" mask="url(#c)" stroke-width=".2" fill="#FFF" xlink:href="#a"/><path fill="#E84550" d="M8 0h8v16H8z"/><path fill="#006DA0" d="M0 4h24v8H0z"/><path fill="#FFF" d="M10 10.5l.588.309-.112-.654.475-.464-.657-.096L10 9l-.294.595-.657.096.475.464-.112.654zM14 10.5l.588.309-.112-.654.475-.464-.657-.096L14 9l-.294.595-.657.096.475.464-.112.654zM12 6.5l.588.309-.112-.654.475-.464-.657-.096L12 5l-.294.595-.657.096.475.464-.112.654zM7 8.5l.588.309-.112-.654.475-.464-.657-.096L7 7l-.294.595-.657.096.475.464-.112.654zM17 8.5l.588.309-.112-.654.475-.464-.657-.096L17 7l-.294.595-.657.096.475.464-.112.654z"/><use mask="url(#d)" xlink:href="#b" stroke="#E6E6E6"/></g></svg>