<svg width="24" height="16" viewBox="0 0 24 16" xmlns="http://www.w3.org/2000/svg"><title>flag-hk</title><g fill="none" fill-rule="evenodd"><path fill="#E84550" d="M0 0h24v16H0z"/><path d="M11.999 7.998c-2.807-1.187-1.563-4.842 1.122-4.659-.543.28-.622.8-.312 1.283.348.54-.032 1.409-.501 1.62-.772.347-.926 1.273-.309 1.756z" fill="#FFF"/><path fill="#DE2910" d="M11.847 5.358l-.158.248-.057-.289-.285-.073.257-.144-.018-.293.216.2.273-.108-.123.267.187.226zM12.015 7.967c-.34-.174-.613-.538-.733-.972a1.846 1.846 0 0 1 .216-1.467l-.059-.037a1.917 1.917 0 0 0-.224 1.523c.127.459.406.829.768 1.015l.032-.062z"/><path d="M12.002 7.998c.26-3.036 4.122-2.982 4.777-.372-.433-.43-.953-.344-1.316.1-.406.497-1.35.405-1.696.023-.569-.626-1.497-.487-1.765.25z" fill="#FFF"/><path fill="#DE2910" d="M14.466 7.038l-.285-.073.257-.144-.018-.293.216.2.273-.108-.123.266.187.227-.292-.034-.158.247zM12.036 8.004c.06-.377.322-.75.698-.997a1.846 1.846 0 0 1 1.462-.248l.017-.068a1.917 1.917 0 0 0-1.517.258c-.398.262-.664.642-.729 1.044l.07.011z"/><g><path d="M12.002 8.001c2.968-.69 4.11 3 1.83 4.428.276-.545.034-1.012-.501-1.22-.598-.233-.802-1.16-.547-1.606.42-.734.001-1.574-.782-1.602z" fill="#FFF"/><path fill="#DE2910" d="M13.677 10.048l-.018-.294.215.2.274-.108-.123.267.187.227-.292-.035-.158.248-.057-.288-.285-.074zM12.007 8.036c.377-.059.812.074 1.164.355.403.323.654.802.688 1.314l.07-.005a1.917 1.917 0 0 0-.715-1.363c-.372-.298-.815-.433-1.217-.37l.01.069z"/></g><g><path d="M12 8.002c1.573 2.61-1.582 4.836-3.646 3.11.603.093.973-.282 1.006-.855.036-.64.854-1.12 1.358-1.016.828.173 1.497-.486 1.281-1.239z" fill="#FFF"/><path fill="#DE2910" d="M10.57 10.227l.274-.107-.123.267.187.226-.292-.034-.158.248-.057-.289-.285-.073.256-.144-.017-.293zM11.968 8.018c.173.34.18.795.022 1.217-.182.482-.56.87-1.037 1.06l.026.065c.495-.199.887-.6 1.076-1.101.168-.446.16-.91-.024-1.272l-.063.031z"/></g><g><path d="M11.998 8c-1.996 2.303-5.089-.01-4.084-2.506.097.602.568.838 1.123.692.621-.163 1.33.466 1.386.978.092.841.925 1.274 1.575.836z" fill="#FFF"/><path fill="#DE2910" d="M9.44 7.329l.187.227-.292-.035-.158.248-.057-.289-.285-.073.257-.144-.018-.293.216.2.273-.108zM11.973 7.976c-.27.269-.7.417-1.15.396-.516-.024-1-.264-1.33-.659l-.053.045c.342.41.844.658 1.38.683.475.022.914-.13 1.202-.416l-.049-.05z"/></g></g></svg>