<svg width="24" height="16" viewBox="0 0 24 16" xmlns="http://www.w3.org/2000/svg" xmlns:xlink="http://www.w3.org/1999/xlink"><title>flag-kr</title><defs><path id="b" d="M0 0h24v16H0z"/><path id="a" d="M0 0h24v16H0z"/><mask id="d" x="0" y="0" width="24" height="16" fill="#fff"><use xlink:href="#a"/></mask></defs><g fill="none" fill-rule="evenodd"><mask id="c" fill="#fff"><use xlink:href="#b"/></mask><use fill="#FFF" xlink:href="#b"/><use mask="url(#d)" xlink:href="#a" stroke-opacity=".2" stroke="#2B3541" stroke-width=".2"/><g transform="rotate(-66 11.177 -.678)" mask="url(#c)"><ellipse fill="#E84550" cx="3.6" cy="3.664" rx="3.6" ry="3.664"/><path d="M3.6 0c-.994 0-1.8.82-1.8 1.832s.806 1.832 1.8 1.832 1.8.82 1.8 1.832S4.594 7.33 3.6 7.33C1.612 7.329 0 5.688 0 3.664 0 1.641 1.612 0 3.6 0z" fill="#006DA0"/></g><g stroke="#2F4662" stroke-width=".5" mask="url(#c)" stroke-linecap="square"><path d="M16.533 3.843l.5.866M17.399 3.343l1.5 2.598M18.265 2.843l.5.866M17.533 5.575l.5.866M19.265 4.575l.5.866"/><g><path d="M4.403 10.846l1.5 2.598M5.269 10.346l.5.866M6.269 12.078l.5.866M6.135 9.846l1.5 2.598"/></g><g><path d="M16.866 11.579l-.5.866M17.732 12.079l-.5.866M18.598 12.579l-.5.866M17.866 9.847l-.5.866M18.732 10.347l-.5.866M19.598 10.847l-.5.866"/><g><path d="M5.736 2.844l-1.5 2.598M6.602 3.344l-1.5 2.598M7.468 3.844l-1.5 2.598"/></g></g></g></g></svg>