<svg width="24" height="16" viewBox="0 0 24 16" xmlns="http://www.w3.org/2000/svg"><title>flag-me</title><g fill="none" fill-rule="evenodd"><path fill="#FD9B3F" d="M0 0h24v16H0z"/><path fill="#BB333C" d="M.6.6h22.8v14.8H.6z"/><path d="M15.777 7.495c.1-.028.45-.13.695-.33.246-.2.294-.359.314-.445.02-.087.028-.155-.035-.105-.064.05-.255.2-.385.272-.13.072-.25.106-.32.126-.071.02-.128.032-.06.005s.29-.104.46-.276c.172-.17.307-.428.31-.585.003-.158-.009-.147-.06-.107-.05.04-.23.262-.331.346a3.215 3.215 0 0 1-.347.245c-.081.048-.197.101-.036-.009.16-.11.464-.368.588-.703.124-.335.101-.532.099-.566-.003-.033-.031-.101-.06-.039-.028.062-.23.467-.394.641-.163.175-.123.141-.16.17-.037.027-.099.078-.02-.02.08-.099.242-.327.327-.552.084-.225.107-.45.11-.58a1.04 1.04 0 0 0-.08-.363c-.025-.053-.05-.092-.058-.03a8.055 8.055 0 0 1-.209.655c-.07.194-.21.414-.239.456-.028.042-.101.13-.022-.017.078-.146.23-.577.25-.985.02-.408-.036-.633-.093-.745-.056-.113-.105-.153-.105-.153s.01.279-.073.679c-.083.4-.205.611-.205.611s-.05.058-.016-.038c.024-.065.073-.207.095-.448.023-.253.026-.54-.048-.785-.08-.267-.22-.403-.22-.403-.038.382-.03.875-.17 1.275-.027-.024-.062-.067-.076.021a2.255 2.255 0 0 1-.249.692c-.173.314-.243.355-.243.355s-.032-.076-.054-.118c-.023-.042-.035-.064-.064-.006-.029.057-.125.278-.336.521-.21.244-.33.362-.323.545.007.182.103.275.23.358.128.084.15.128.132.228-.02.099-.135.134-.234.137-.099.003-.224-.006-.268.02-.045.025-.048.09-.093.134-.045.045-.064.07-.106.077a.805.805 0 0 1-.035.004c-.01-.481.177-.696.177-.696l-.521-.612a1.843 1.843 0 0 1-.081.037.146.146 0 0 0-.015-.023.4.4 0 0 1-.093-.277c.026.002.078.021.126.012.047-.01.011-.057-.003-.102a.93.93 0 0 1-.019-.26l.014-.084s.076.083.123.083c.048 0 .043-.047.05-.1a.403.403 0 0 1 .109-.232s.082.057.177.057a.466.466 0 0 0 .324-.123c.101-.097.099-.12.099-.12s.189.066.333.073c.144.007.298-.017.37-.169.074-.151-.02-.291-.037-.315-.017-.023-.064-.042-.064 0 0 .043.003.157-.085.214-.087.056-.156.054-.238.028a.733.733 0 0 0-.468-.012.638.638 0 0 1 .22-.15c.108-.032.172.013.207.055.036.043.067.112.095.012a.37.37 0 0 0-.035-.287.27.27 0 0 0-.256-.109c-.106.012-.144.029-.144.029s-.054-.154-.191-.183c-.167-.034-.352.029-.496.11 0 0-.114.026-.23-.008a.748.748 0 0 1-.194-.097l.039-.126s.033-.01.068-.023c.034-.013.027-.024.031-.053.005-.029-.065-.08-.065-.08s-.01-.086.104-.145c.114-.06.102-.05.102-.05s.067.013.094-.007c.027-.02.027-.032.027-.032s.05-.017.069-.047a.131.131 0 0 0 .008-.11c-.013-.036-.03-.042-.011-.06a.15.15 0 0 0 .037-.086l.001-.035s.04-.014.037-.073c-.001-.059-.033-.083-.052-.088-.018-.005-.03-.005-.03-.005s-.004-.035-.034-.082a.447.447 0 0 0-.05-.068s.021-.017.01-.056a.104.104 0 0 0-.066-.07c-.027-.01-.056 0-.056 0s-.089-.055-.131-.077a4.265 4.265 0 0 0-.052-.027s-.002-.037-.017-.057c-.015-.02-.05-.03-.07-.03-.018 0-.038.011-.038.011s-.152-.039-.214-.049c-.062-.01-.066-.015-.066-.015s-.135-.064-.187-.075c-.052-.01-.067-.015-.067-.015s.054-.066.058-.142a.212.212 0 0 0-.101-.18c-.03-.018-.047-.02-.057-.027l-.001-.052.101.01.009-.163-.099.012.015-.098-.206-.002.015.098-.1-.007.009.16.104-.013-.01.061s-.038.007-.07.03a.192.192 0 0 0-.097.171.318.318 0 0 0 .05.144l-.067.013c-.052.01-.187.075-.187.075s-.003.005-.065.015c-.063.01-.214.05-.214.05s-.02-.011-.04-.011c-.018 0-.053.008-.068.029-.015.02-.017.057-.017.057l-.052.027c-.042.022-.132.076-.132.076s-.028-.008-.055 0a.104.104 0 0 0-.066.071c-.012.04.01.056.01.056s-.02.02-.05.068a.207.207 0 0 0-.034.082s-.012 0-.03.005c-.019.005-.051.03-.053.088-.001.06.037.073.037.073l.002.035a.15.15 0 0 0 .037.087c.019.017.002.023-.012.059a.131.131 0 0 0 .009.11c.018.03.069.047.069.047s0 .012.027.032.094.007.094.007-.012-.01.101.05c.114.06.104.146.104.146s-.069.05-.065.079c.005.029-.003.04.032.053.035.013.068.023.068.023l.039.126a.748.748 0 0 1-.195.097c-.116.034-.23.007-.23.007-.144-.08-.328-.143-.495-.109-.137.029-.192.183-.192.183s-.037-.017-.144-.029a.27.27 0 0 0-.255.11.37.37 0 0 0-.035.286c.028.1.059.03.094-.012.036-.042.1-.087.208-.054a.638.638 0 0 1 .22.149.733.733 0 0 0-.467.012.25.25 0 0 1-.24-.028c-.087-.057-.085-.171-.085-.214 0-.042-.047-.023-.063 0-.017.024-.111.164-.038.315.073.152.227.176.37.169.145-.007.334-.074.334-.074s-.003.024.1.121c.1.097.228.123.323.123.094 0 .177-.057.177-.057a.403.403 0 0 1 .109.233c.007.052.002.1.05.1.046 0 .122-.084.122-.084l.014.083a.93.93 0 0 1-.019.26c-.014.046-.05.093-.002.103.047.01.1-.01.125-.012a.4.4 0 0 1-.092.277.157.157 0 0 0-.014.022 1.924 1.924 0 0 1-.078-.036l-.521.612s.187.216.177.7v-.003a.694.694 0 0 1-.038-.005c-.042-.007-.06-.032-.105-.077s-.048-.109-.093-.135c-.045-.025-.17-.016-.269-.019-.099-.003-.214-.038-.233-.137-.02-.1.003-.144.131-.228.128-.083.224-.176.23-.358.007-.183-.112-.301-.323-.545-.21-.243-.307-.464-.335-.521-.03-.058-.042-.036-.064.006a1.734 1.734 0 0 0-.055.118s-.07-.041-.243-.355a2.25 2.25 0 0 1-.249-.692c-.014-.088-.049-.044-.075-.021-.14-.4-.132-.893-.171-1.275 0 0-.14.136-.22.403-.074.245-.071.532-.048.785.023.241.072.383.095.448.035.096-.016.038-.016.038s-.121-.211-.204-.611c-.083-.4-.074-.679-.074-.679s-.049.04-.105.153c-.056.112-.112.337-.093.745.02.408.172.839.25.985.08.146.006.06-.022.017a2.534 2.534 0 0 1-.239-.456 8.12 8.12 0 0 1-.208-.656c-.009-.061-.034-.022-.06.031a1.043 1.043 0 0 0-.078.363c.003.13.025.355.11.58.084.225.247.453.326.552.079.098.017.047-.02.02-.036-.029.003.005-.16-.17-.163-.174-.366-.58-.394-.641-.028-.062-.056.006-.06.04-.002.033-.024.23.1.565.123.335.427.594.588.703.16.11.045.057-.037.009a3.215 3.215 0 0 1-.346-.245c-.101-.084-.282-.307-.332-.346-.05-.04-.062-.05-.06.107.003.157.139.414.31.585.17.172.393.25.46.276.068.027.012.014-.059-.005-.07-.02-.19-.054-.32-.126-.13-.073-.322-.223-.385-.272-.064-.05-.055.018-.036.105.02.086.068.246.314.446s.595.301.696.33c.1.028.03.028.03.028s-.04-.006-.244-.051c-.203-.046-.512-.207-.595-.26-.083-.052-.096-.072-.085.039.012.11.129.347.317.457.188.11.527.167.615.171.087.005.065.017.025.02-.04.003-.137.003-.297-.015a2.3 2.3 0 0 1-.39-.102 1.19 1.19 0 0 1-.018-.072c-.008-.042-.03-.036-.044-.026-.014.009-.022.017-.068.04-.047.024-.048-.004-.05-.018-.002-.015-.01-.075-.012-.106-.002-.032-.02-.033-.04-.024l-.166.07c-.039.017-.003.049.017.086.02.038.052.092.052.092s-.098.027-.13.034c-.03.008-.021.03-.013.052.008.022.056.131.068.162.013.031.04.013.04.013l.098-.058.035.13c-.002.003-.046.011-.095.046-.05.035-.037.08.022.097.06.017.129.047.206.186.076.14.096.39.143.785.047.394.3.596.334.62.035.025.015.045.015.045s-.035.05-.02.127a.19.19 0 0 0 .117.134c.034.012.024.047.024.047s-.017.084 0 .238a.737.737 0 0 0 .179.358c.034.03.037.045.032.057-.005.012-.027.003-.07.035a.437.437 0 0 0-.118.131c-.03.055-.02.087-.01.162.01.074.119.141.119.141s-.02.005-.025.06c-.005.055.035.117.084.156.05.04.144.06.144.06l.012.08c.005.032.067.064.106.086.04.023.117.01.149-.005.032-.015.054.003.074.035.02.032.013.156.013.206 0 .05-.03.102-.013.127.018.024.065.007.112-.02.047-.028.059-.008.101.02a.321.321 0 0 0 .126.05c.018-.003.01-.048.01-.085 0-.037.007-.122.024-.134.009-.006.081-.011.137-.035.026-.01.06-.022.062-.047.003-.025-.035-.025-.116-.067-.082-.042-.097-.067-.149-.102-.052-.035-.027-.047-.027-.062s.025-.032.035-.052c.01-.02.005-.065.005-.065s.042-.042.061-.064c.02-.022.045-.057.072-.08.027-.022.07-.129.097-.164.027-.034.089-.072.126-.119.037-.047.136-.124.193-.161.057-.037.21-.11.21-.11s-.002.092.038.137c.04.045.091-.035.267-.159.176-.124.31-.169.31-.169s.036.057.083.117c.048.06.09-.002.305-.3.17-.235.394-.45.48-.53l.048.021a1.177 1.177 0 0 0-.013.039c-.02.061-.052.1-.094.187-.042.086-.106.106-.18.222a.56.56 0 0 0-.091.313c-.007.119.06.144.06.144s-.11.106-.141.185c-.032.078-.05.239-.05.239s-.017.007-.056.089c-.04.081-.112.093-.215.197-.104.104-.22.148-.274.18-.054.032-.04.064-.025.106.015.042.09.084.176.116s.116.02.175.017c.059-.002.012.045-.013.07-.024.024-.056.11-.051.206.005.097.076.074.165.06.089-.015.192-.06.192-.06l-.01.028a.304.304 0 0 0-.014.123c0 .076.012.113.034.133.022.02.067-.022.099-.032.032-.01.086-.042.165-.06.08-.016.109-.05.109-.05s-.02.024-.025.078a.631.631 0 0 0 .01.183.336.336 0 0 0 .101.152c.054.05.067.028.106-.034.04-.062.12-.14.12-.14l.06.194c.054.175.232.32.232.32s.178-.145.232-.32c.054-.175.059-.195.059-.195s.081.08.12.141c.04.062.053.084.107.034a.337.337 0 0 0 .101-.152.639.639 0 0 0 .01-.183.156.156 0 0 0-.025-.079s.03.035.109.052c.079.017.133.05.165.06.032.009.077.05.099.031.022-.02.034-.057.034-.133a.304.304 0 0 0-.014-.123l-.01-.028s.103.045.192.06c.089.014.16.037.165-.06.005-.096-.027-.182-.051-.207-.025-.024-.072-.071-.013-.069.06.003.089.015.175-.017.087-.032.16-.074.176-.116.014-.042.03-.074-.025-.106-.054-.032-.17-.077-.274-.18-.103-.104-.175-.116-.215-.197-.039-.082-.056-.09-.056-.09s-.018-.16-.05-.238c-.032-.08-.14-.185-.14-.185s.066-.025.059-.144a.56.56 0 0 0-.091-.313c-.074-.116-.138-.135-.18-.222-.042-.086-.074-.126-.094-.187a1.13 1.13 0 0 0-.013-.038l.064-.028c.086.08.311.296.481.531.216.298.258.36.305.3.047-.059.084-.116.084-.116s.134.045.31.169c.175.124.227.204.267.159.02-.024.025-.063.028-.093a3.734 3.734 0 0 1 .42.15c.152.064.169.097.29.193.121.095.294.086.457.037.163-.05.598-.194.772-.269.175-.076.3-.142.318-.177a.554.554 0 0 0 .038-.167c0-.035-.038-.087-.051-.096-.013-.01-.007-.037-.004-.059a.185.185 0 0 0-.034-.118c-.028-.03-.024-.04-.02-.125a.53.53 0 0 0-.303-.478s-.004-.02-.02-.033c-.014-.012-.038-.023-.038-.023s.003-.104.002-.126c-.001-.022.009-.02.021-.013.012.006.032.03.061.038.03.007.048-.014.054-.047.006-.033.03-.1.042-.133.011-.033-.003-.038-.016-.041-.014-.004-.058-.009-.079-.014-.02-.005-.02-.006-.015-.017.005-.011.012-.028.039-.07.027-.042.002-.043-.024-.052a2.1 2.1 0 0 0-.173-.049c-.032-.005-.04.022-.04.036l.003.094c.001.023-.02.016-.032.01a.453.453 0 0 1-.063-.04c-.022-.017-.038-.002-.046.023-.009.025-.036.125-.044.155-.009.03-.006.053.006.058.012.005.07 0 .104 0 .034 0 .015.02.015.02l-.05.083c-.012.023-.032.027-.06.027h-.076s-.188.007-.327.11a.542.542 0 0 0-.199.238c-.021.05-.046.039-.067.057-.022.017-.082.081-.082.12 0 .04.014.06-.046.1-.06.039-.11.21-.029.298.082.089.114.178.14.22.024.043 0 .06-.022.06s-.066-.035-.103-.063l-.306-.235c-.08-.06-.021-.053-.021-.053s.02.002.068-.018c.047-.02.054-.044.007-.06a.597.597 0 0 1-.163-.091c-.025-.025-.038-.052.01-.077.047-.025.15-.092.069-.114-.082-.023-.178-.04-.258-.063-.079-.022-.086-.044-.086-.044l.052-.075s.042-.06-.008-.067c-.05-.007-.168-.022-.277-.07a.67.67 0 0 1-.404-.448l.003-.005c.04.08.136.23.278.235.195.007.218-.054.173-.118-.045-.064-.096-.122-.109-.141-.013-.02-.016-.045.035.003.051.048.149.211.443.192.294-.019.293-.077.293-.093 0-.056-.06-.065-.096-.1-.018-.019-.03-.046.03-.023s.205.05.403.007c.078-.017.285-.107.305-.212 0 0-.131-.008-.223-.047-.092-.04-.147-.072-.05-.052.098.02.287.059.454.002.098-.033.224-.112.224-.256 0 0-.181-.038-.248-.062a.309.309 0 0 1-.087-.043s.258.082.493-.036c.234-.12.244-.282.244-.32a.132.132 0 0 0-.005-.05s-.214.052-.373.051c-.16-.001-.21-.016-.21-.016s.447-.012.672-.15c.224-.137.237-.407.237-.407s-.254.09-.414.109c-.16.018-.257.018-.297.015-.04-.003-.062-.015.026-.02.087-.004.427-.06.615-.17a.725.725 0 0 0 .316-.458c.012-.11-.001-.09-.085-.038-.083.052-.391.213-.595.259-.203.045-.243.05-.243.05s-.078-.003.023-.03l.007.002zm-8.041.514l-.09.052-.046-.096c-.009-.022-.004-.031.008-.031.013 0 .05-.011.08-.014a.1.1 0 0 0 .01-.002c.01.028.024.059.04.09a.011.011 0 0 1-.002.002zm2.741 1.605c-.054.102-.203.209-.311.256-.11.047-.228.062-.278.07-.05.007-.007.067-.007.067l.052.074s-.008.022-.087.045c-.079.022-.176.04-.257.062-.082.022.022.09.069.114.047.025.035.052.01.077a.599.599 0 0 1-.163.092c-.047.015-.04.04.007.06.047.02.176.044.176.044s-.003.005-.082.065c-.08.06-.218.1-.31.104a4.11 4.11 0 0 1-.42.002c-.183-.008-.204-.012-.204-.012s-.006-.061-.02-.152a.77.77 0 0 0-.109-.279c-.042-.059-.13-.177-.13-.177s.001-.025.008-.055c.006-.03.002-.061-.02-.117-.021-.056-.128-.137-.128-.137s-.005-.06-.005-.116a1.97 1.97 0 0 0-.073-.378c-.034-.103-.201-.373-.278-.502a1.409 1.409 0 0 1-.147-.467.582.582 0 0 1-.006-.236.19.19 0 0 1 .017-.046.46.46 0 0 0 .125.111c.224.138.671.15.671.15s-.05.015-.21.016c-.159.001-.372-.051-.372-.051s-.006.011-.006.05c0 .038.01.2.245.32.234.118.493.036.493.036s-.021.019-.088.043c-.066.024-.247.062-.247.062 0 .144.126.223.223.256.167.057.356.017.454-.003.097-.02.042.013-.05.053-.091.04-.223.047-.223.047.02.105.227.195.305.212a.763.763 0 0 0 .403-.007c.06-.023.048.004.03.022-.035.036-.095.045-.095.101 0 .016-.002.074.292.093.295.02.392-.144.443-.192.051-.048.048-.022.035-.003-.013.019-.064.077-.108.14-.045.065-.023.126.172.12.144-.006.239-.158.279-.238l.003.004a.67.67 0 0 0 .008.01c-.019.047-.05.125-.085.19zm2.373-6.362a1.9 1.9 0 0 0-.041-.074s.11.052.177.126c.066.075.064.114.074.15.01.037 0 .105-.01.168-.01.063-.01.101.003.124a.166.166 0 0 0 .024.034s-.05.012-.096.03c-.046.019-.106.036-.14.008-.033-.029-.042-.048-.02-.067.02-.018.099-.04.109-.175a.66.66 0 0 0-.08-.324zm-.605.367c.026-.064.036-.125.017-.256-.017-.11-.038-.205-.044-.324 0 0 .082.018.2.125.117.108.144.218.144.272 0 .054-.028.12-.032.172a.235.235 0 0 0 .014.098s-.043.018-.081.045c-.04.027-.066.043-.125.04-.06-.003-.096-.03-.13-.048-.034-.018-.056-.02-.056-.02s.068-.04.093-.104zm-.573-.455a.5.5 0 0 1 .2-.125c-.006.119-.027.213-.044.324-.019.131-.009.192.017.256a.238.238 0 0 0 .093.103s-.022.003-.056.021c-.034.018-.07.045-.13.048-.06.003-.086-.013-.125-.04-.038-.027-.081-.045-.081-.045s.019-.046.014-.098c-.004-.053-.032-.118-.032-.172 0-.054.027-.164.144-.272zm-.424.654c-.033.028-.094.01-.14-.007-.046-.019-.095-.031-.095-.031s.01-.012.023-.034c.013-.023.013-.06.003-.124-.01-.063-.02-.13-.01-.167.01-.037.009-.076.075-.15a.634.634 0 0 1 .177-.127s-.015.023-.041.074a.658.658 0 0 0-.08.324c.01.135.088.157.11.175.02.019.012.038-.022.067zm1.567 1.129c-.116.064-.182.05-.177.097.004.047.108.083.108.083s-.106.114-.189.166c-.082.052-.18.085-.18.085s-.033.005-.014.057a.193.193 0 0 0 .078.102c.026.014.04.019.04.019s-.144.154-.207.204a.545.545 0 0 1-.152.087c-.052.022-.025.107-.014.145.012.038.057.09.083.097.026.007.035.026.002.078-.024.04-.107.143-.146.2h-.003c-.039-.056-.122-.16-.147-.2-.033-.052-.024-.07.002-.078.026-.007.071-.06.083-.097.012-.038.038-.123-.014-.145a.544.544 0 0 1-.151-.087c-.064-.05-.208-.204-.208-.204s.014-.005.04-.02a.193.193 0 0 0 .078-.101c.019-.052-.014-.057-.014-.057s-.097-.033-.18-.085c-.083-.052-.189-.166-.189-.166s.104-.036.109-.083c.004-.048-.062-.033-.177-.097a.368.368 0 0 1-.154-.145s.135-.045.2-.18a.25.25 0 0 0 .027-.128l.005.002c.215.07.467.098.692.098.224 0 .475-.028.69-.098l.005-.002a.249.249 0 0 0 .026.128c.066.135.201.18.201.18s-.037.081-.153.145z" fill="#FD9B3F"/><path d="M13.518 7.051l-.39-.455c-.3.169-.718.146-1.08-.021-.364.167-.781.19-1.081.021l-.39.455s.2.306.143.653c-.057.348-.18.897-.15 1.121a1.1 1.1 0 0 0 .352.62c.163.136.405.25.576.312a1.66 1.66 0 0 1 .55.356s.052-.053.131-.115c.08-.061.246-.18.418-.241.171-.062.413-.176.575-.312a1.1 1.1 0 0 0 .352-.62c.03-.225-.093-.774-.15-1.121-.056-.347.144-.653.144-.653z" fill="#D5AE42"/><path d="M13.337 7.746c-.056-.375.113-.677.113-.677l-.352-.392c-.297.153-.658.113-1.052-.023-.393.136-.754.176-1.051.023l-.352.392s.17.302.113.677c-.057.375-.143.8-.126 1.048a.713.713 0 0 0 .005.052h.32s.019-.022.055-.037c.035-.015.045-.025.045-.025s.007-.065.046-.079c.04-.013.056-.013.071-.013.016 0 .028-.004.046-.022.019-.02.07-.065.092-.13.022-.064.035-.09.035-.132 0-.043.016-.11.016-.11s-.009-.021-.041-.01c-.032.013-.037-.02-.04-.052-.004-.033-.002-.099.016-.13l.026-.04-.014-.051s-.203.04-.239-.118c-.036-.158-.042-.235-.048-.251-.005-.017-.01-.026-.037-.024-.027.001-.085-.017-.125-.099-.041-.082-.045-.116-.033-.148.012-.032.034-.02.041-.01.007.01.061.088.083.066.022-.022.01-.022-.02-.083-.03-.061-.02-.082-.017-.113.003-.03-.01-.071-.01-.088s.018-.03.037-.022a.134.134 0 0 1 .044.032c.009.01.012.026.029.016.017-.01.007-.067.007-.085 0-.02.022-.033.049-.017a.08.08 0 0 1 .04.064c0 .02.002.04.013.04.01 0 .022-.031.023-.052.002-.02.014-.05.032-.025a.135.135 0 0 1 .02.102c-.008.039.006.019-.008.087-.013.068-.02.098-.018.15a.34.34 0 0 0 .029.142c.025.063.045.136.093.138l.06.002s.053-.102.094-.126c.04-.024.099-.028.14-.033.04-.005.057-.017.057-.027 0-.01-.014-.013-.063-.02-.049-.007-.09-.02-.091-.056-.002-.038.008-.07-.024-.072-.032-.002-.112-.027-.14-.08-.03-.053-.023-.065-.02-.093.004-.03.041-.087.065-.033.024.055.039.061.06.073.02.012.047.016.033-.022-.013-.037-.022-.06-.018-.088.003-.027.022-.04.044-.044.022-.005.088-.026.122-.033.034-.006.035-.01.035-.01s.004-.024.048-.037a.32.32 0 0 1 .105-.016c.032 0 .056.006.098-.015a.203.203 0 0 1 .104-.022.133.133 0 0 1 .068.026c.02.013.013.032.013.05 0 .02.004.03.033.03a.22.22 0 0 1 .081.01c.027.01.065.025.04.054-.023.03-.025.061-.04.06-.015-.002-.013.015-.02.025-.007.01-.012.019.005.03.017.01.018.02.042.042.024.022.06.046.024.081-.036.036-.098.065-.098.065s-.036.017.005.04c.04.025.059.074.074.082.016.009.03.023.041.028.01.005.008.039.008.039s-.022.015-.052.027-.063.026-.092.026c-.028 0-.044 0-.032.027.012.027.032.056.037.071a.772.772 0 0 1 .012.043s.048.01.09.01c.043 0 .061.002.155-.009.093-.01.12-.013.21-.003.09.01.103.007.127.015l.048.02s.127 0 .196-.016c.07-.015.087-.06.077-.083-.01-.024-.009-.06-.13-.077-.123-.017-.172-.01-.269-.03-.097-.018-.248-.067-.275-.188-.027-.12.072-.172.12-.195.05-.024.157-.062.206-.082.05-.02.14-.04.234-.027.095.013.15.039.187.017.037-.022.068-.005.06.029-.006.034-.043.103-.15.136a.64.64 0 0 1-.306.017c-.07-.02-.122-.046-.164-.031-.042.015-.09.068-.044.131s.28.082.342.088c.063.007.296-.01.362.106.066.116.013.245-.065.274a1.005 1.005 0 0 1-.203.056l-.06.008s.028.062.028.087c0 .026-.004.073.025.092.029.019.07.032.119.027.049-.005.108.03.112.074.003.044.017.105.022.193.005.089 0 .162 0 .162s-.004.034-.015.066a3.518 3.518 0 0 1-.073.158h.341a.74.74 0 0 0 .006-.052c.013-.252-.073-.677-.129-1.052l.002.004z" fill="#1D5E91"/><path d="M10.676 9.013a.979.979 0 0 0 .415.511c.292.176.418.153.693.332.276.179.259.209.262.209.004 0-.013-.03.262-.21.276-.178.402-.155.694-.33a.978.978 0 0 0 .415-.512h-2.741z" fill="#6D8C3E"/></g></svg>