<svg width="24" height="16" viewBox="0 0 24 16" xmlns="http://www.w3.org/2000/svg" xmlns:xlink="http://www.w3.org/1999/xlink"><title>flag-pf</title><defs><ellipse id="a" cx="3.44" cy="3.56" rx="3.434" ry="3.528"/></defs><g fill="none" fill-rule="evenodd"><path fill="#E84550" d="M0 0h24v16H0z"/><path fill="#FFF" d="M0 4h24v8H0z"/><g transform="translate(8.56 4.48)"><mask id="b" fill="#fff"><use xlink:href="#a"/></mask><g mask="url(#b)"><g fill="#FD9B3F"><path d="M2.532 3.16l-.583-.016v-.23l.583.247zM2.53 3.094l-.581-.296v-.384s-.068.01-.059-.067c.003-.16.427.292.644.44l-.005.307zM.015 4.095l1.224.01v-.76l-1.4-.066.176.816zM-.044 3.048l1.302.125-.01-.538-1.272-.5-.02.913zM.219 1.973l1 .48.144-.148s-.092-.062-.088-.12c.002-.058.093-.067.094-.13.002-.059-.103-.066-.104-.124-.006-.063.081-.131.081-.131l-.904-.778-.223.95zM6.787 4.104H5.495l-.01-.739 1.419-.106-.117.845zM6.819 3.036a3.741 3.741 0 0 0-.061-.357 3.663 3.663 0 0 0-.143-.464c-.004-.011-.01-.021-.015-.032l-1.105.462.01.548 1.314-.157zM6.064 1.259l-.662.5c.001.048.05.084.062.13.03.064-.03.121-.067.167-.03.042.035.063.057.088.048.049.006.126-.045.155.061.037.092.106.106.174l.99-.515a3.4 3.4 0 0 0-.441-.7zM4.222 3.178l.554-.024.01-.221-.564.245zM4.222 3.058l-.002-.25s.524-.468.636-.555c0 .096-.06.17-.06.17v.366l-.574.269zM.822.955l.588.645c.017-.06.15-.069.286-.06.136.01.245-.008.245.088s-.07.082-.07.15c0 .066.104.06.104.147s-.075.069-.075.136c0 .055.078.058.078.058l.551.528.003-.564L1.395.321.822.955zM1.731.288c.009.025.77 1.556.77 1.556S2.51.407 2.64.33l-.217-.393-.692.35zM4.216.122l-.287.994c.09.01.18.014.27.009.081.007.018.083.022.128v.61c.27-.478.54-.956.812-1.434a3.936 3.936 0 0 0-.585-.237 2.687 2.687 0 0 0-.232-.07zM5.228.538L4.223 2.083l-.002.595c.224-.213.449-.425.672-.639.042-.06-.134-.089-.046-.162.08-.025.094-.155.01-.18-.07-.101.062-.155.146-.144.116.005.235-.025.349.007.062.06.12-.09.18-.124.122-.122.243-.244.363-.367a3.222 3.222 0 0 0-.667-.531z"/></g><g stroke="#083D9C" stroke-width=".5" fill="#083D9C"><path d="M2.635 6.536c-.247.014-.493.181-.609.27.208.091.429.162.664.21.375.063.75.063 1.125.063l.181-.026.79-.267s-.38-.25-.68-.24c-.302.011-.505.306-.748.284-.243-.022-.34-.294-.69-.294h-.033zM1.2 6.332l4.49.02s-.389-.413-.846-.423c-.456-.01-.33.192-.68.22-.35.03-.437-.21-.758-.2-.32.009-.505.2-.748.21-.243.01-.554-.24-.738-.23-.185.01-.846.288-.846.288l.127.115zM.627 5.804l5.539.02c.087-.126-.272-.423-.603-.452-.272.01-.466.278-.69.288-.223.01-.476-.279-.728-.269-.253.01-.515.269-.768.269s-.437-.279-.758-.279c-.32 0-.466.308-.71.289-.242-.02-.456-.308-.69-.308-.232 0-.62.346-.699.327-.077-.02.097.144.107.115zM2.768 5.274h1.237c.01-.01-.277-.422-.618-.393-.38.01-.638.393-.619.393zM6.71 5.245H5.02s.219-.128.279-.246c.11.059.08.118.298.128.22.01.428-.246.637-.236.21.01.478.364.478.354zM.044 5.245h1.692s-.22-.128-.279-.246c-.11.059-.08.118-.298.128-.22.01-.428-.246-.637-.236-.21.01-.478.364-.478.354zM.17 4.72l1.205.009s-.077-.163-.087-.365c-.311-.106-.564.23-.787.24-.224.01-.457-.24-.457-.24l.126.355zM6.603 4.72l-1.205.009s.078-.163.087-.365c.311-.106.564.23.787.24.224.01.457-.24.457-.24l-.126.355zM3.076 4.729l.612-.02s.01-.182-.311-.182c-.32 0-.292.211-.301.202z"/></g><g stroke="#630810" stroke-width=".2" fill="#CE1126"><path d="M2.755 2.76l1.273.336V1.3c-.583.03-1.07-1.094-.04-1.171-1.01-.144-1.126.115-1.243.394l.01 2.237zM3.038 4.383c-.277.453-1.017.319-1.19.003-.052-.015-.022-1.952-.022-1.952s-.082-.038-.086-.097c-.004-.06.112-.066.112-.143 0-.077-.118-.047-.12-.124 0-.074.126-.064.12-.132-.006-.077-.141-.066-.147-.137-.004-.057.097-.106.125-.131l-.095-.002-.212.005c-.15 0 .003.032 0 .118 0 .056-.075.093-.082.142-.003.05.107.085.108.146.002.053-.107.057-.103.107.006.084.096.103.095.154-.002.05-.121.07-.121.11.004.08.017 1.993.017 1.993.19.975 1.29 1.223 1.6-.06zM3.762 4.383c.277.453 1.017.319 1.19.003.052-.015.021-1.952.021-1.952s.083-.038.087-.097c.004-.06-.105-.066-.105-.143 0-.077.111-.047.113-.124 0-.074-.117-.069-.111-.137.007-.077.098-.068.103-.14.005-.06-.057-.098-.085-.123l.09-.002.211.005c.15 0-.003.032 0 .118.001.056.076.093.083.142.002.05-.108.085-.109.146-.001.053.108.057.104.107-.007.084-.097.103-.095.154.001.05.12.07.12.11-.003.08-.016 1.993-.016 1.993-.19.975-1.29 1.223-1.601-.06z"/></g><g stroke="#630810" stroke-width=".5" fill="#630810"><path d="M2.706 4.47c.107-.058.204-.116.272-.25l-.417.01s-.195.114-.292.24h.437zM4.057 4.47c-.107-.058-.204-.116-.272-.25l.418.01s.194.114.291.24h-.437z"/></g></g></g></g></svg>