<svg width="24" height="16" viewBox="0 0 24 16" xmlns="http://www.w3.org/2000/svg"><title>flag-cn</title><g fill="none" fill-rule="evenodd"><path fill="#E84550" d="M0 0h24v16H0z"/><g fill="#EDED4A"><path d="M3.745 6.36L2.509 7l.236-1.357-1-.96 1.382-.199.618-1.234.618 1.234 1.382.198-1 .961L4.98 7zM6.5 3l-.588.309.112-.654-.475-.464.657-.096L6.5 1.5l.294.595.657.096-.475.464.112.654zM8.499 4.623l-.587.309.112-.654-.475-.463.656-.095.294-.595.294.595.656.095-.475.463.112.654zM8.499 7.373l-.587.309.112-.654-.475-.463.656-.095.294-.595.294.595.656.095-.475.463.112.654zM6.5 9l-.588.309.112-.654-.475-.464.657-.096L6.5 7.5l.294.595.657.096-.475.464.112.654z"/></g></g></svg>