<svg width="24" height="16" viewBox="0 0 24 16" xmlns="http://www.w3.org/2000/svg" xmlns:xlink="http://www.w3.org/1999/xlink"><title>flag-um</title><defs><path id="a" d="M0 0h24v16H0z"/></defs><g fill="none" fill-rule="evenodd"><mask id="b" fill="#fff"><use xlink:href="#a"/></mask><use fill="#FFF" xlink:href="#a"/><path fill="#E84550" mask="url(#b)" d="M0 7.385h24v1.23H0zM0 4.923h24v1.23H0zM0 2.462h24v1.23H0zM0 0h24v1.23H0zM0 9.847h24v1.23H0zM0 12.308h24v1.23H0zM0 14.77h24V16H0z"/><path fill="#006DA0" mask="url(#b)" d="M0 0h11v8.62H0z"/><path d="M9.659 7.064l-.335.186.103-.395-.31-.28.375-.015.167-.4.167.4.374.016-.31.28.103.394-.334-.186zm-1.624 0l-.334.186.103-.395-.31-.28.374-.015.167-.4.168.4.373.016-.31.28.104.394-.335-.186zm-1.623 0l-.335.186.103-.395-.31-.28.375-.015.167-.4.167.4.374.016-.31.28.103.394-.334-.186zm-1.624 0l-.334.186.103-.395-.31-.28.374-.015.167-.4.167.4.374.016-.31.28.104.394-.335-.186zm-1.623 0l-.335.186.103-.395-.31-.28.374-.015.168-.4.167.4.374.016-.31.28.103.394-.334-.186zm-1.624 0l-.334.186.103-.395-.31-.28.374-.015.167-.4.167.4.374.016-.31.28.104.394-.335-.186zm.541-1.637l-.334.187.103-.395-.31-.28.374-.016.167-.4.168.4.374.016-.31.28.103.395-.335-.187zm6.765 0l-.334.187.103-.395-.31-.28.374-.016.167-.4.167.4.374.016-.31.28.104.395-.335-.187zm-1.623 0l-.335.187.103-.395-.31-.28.374-.016.168-.4.167.4.374.016-.31.28.103.395-.334-.187zm-1.624 0l-.334.187.103-.395-.31-.28.374-.016.167-.4.167.4.374.016-.31.28.103.395-.334-.187zm-1.624 0l-.334.187.103-.395-.31-.28.374-.016.167-.4.168.4.374.016-.31.28.103.395-.335-.187zM9.66 3.791l-.335.186.103-.394-.31-.28.375-.016.167-.4.167.4.374.016-.31.28.103.394-.334-.186zm-1.624 0l-.334.186.103-.394-.31-.28.374-.016.167-.4.168.4.373.016-.31.28.104.394-.335-.186zm-1.623 0l-.335.186.103-.394-.31-.28.375-.016.167-.4.167.4.374.016-.31.28.103.394-.334-.186zm-1.624 0l-.334.186.103-.394-.31-.28.374-.016.167-.4.167.4.374.016-.31.28.104.394-.335-.186zm-1.623 0l-.335.186.103-.394-.31-.28.374-.016.168-.4.167.4.374.016-.31.28.103.394-.334-.186zm-1.624 0l-.334.186.103-.394-.31-.28.374-.016.167-.4.167.4.374.016-.31.28.104.394-.335-.186zm.812-1.636l-.335.186.104-.395-.31-.28.374-.015.167-.401.167.4.374.017-.31.28.103.394-.334-.186zm6.494 0l-.334.186.103-.395-.31-.28.374-.015.167-.401.167.4.374.017-.31.28.104.394-.335-.186zm-1.623 0l-.335.186.103-.395-.31-.28.374-.015.168-.401.167.4.374.017-.31.28.103.394-.334-.186zm-1.624 0l-.334.186.103-.395-.31-.28.374-.015.167-.401.167.4.374.017-.31.28.103.394-.334-.186zm-1.624 0l-.334.186.103-.395-.31-.28.374-.015.167-.401.168.4.374.017-.31.28.103.394-.335-.186z" fill="#FFF" mask="url(#b)"/></g></svg>