<svg width="24" height="16" viewBox="0 0 24 16" xmlns="http://www.w3.org/2000/svg"><title>flag-cv</title><g fill="none" fill-rule="evenodd"><path fill="#006DA0" d="M0 0h24v16H0z"/><path fill="#FFF" d="M0 7h24v5H0z"/><path fill="#E84550" d="M0 8h24v3H0z"/><path d="M6.155 12.228l.187.576h.605l-.49.356.188.576-.49-.356-.49.356.187-.576-.49-.356h.606m5.419-4.758l.187.576h.605l-.49.356.187.576-.49-.356-.49.356.188-.576-.49-.356h.606m-6.245 1.814l.187.576h.606l-.49.356.187.575-.49-.355-.49.355.187-.575-.49-.356h.606m6.619-.744l.187.575h.605l-.49.356.187.576-.49-.356-.49.356.188-.576-.49-.356h.606m-1.138-4.55l.187.576h.605l-.49.356.188.576-.49-.356-.49.356.187-.576-.49-.356h.606M8.063 5.597l.187.576h.605l-.49.356.187.576-.49-.356-.49.356.188-.576-.49-.356h.605m-1.812.081l.187.576h.605l-.49.356.188.576-.49-.356-.49.356.187-.576-.49-.356h.606m-.98 1.216l.187.576h.606l-.49.356.187.576-.49-.356-.49.356.188-.576-.49-.356h.605m3.354 4.204l.187.576h.605l-.49.356.187.575-.49-.355-.49.355.188-.575-.49-.356h.605m2.312-1.174l.187.576h.605l-.49.356.188.576-.49-.356-.49.356.187-.576-.49-.356H10" fill="#EDED4A"/></g></svg>