<svg width="24" height="16" viewBox="0 0 24 16" xmlns="http://www.w3.org/2000/svg" xmlns:xlink="http://www.w3.org/1999/xlink"><title>flag-sb</title><defs><path id="a" d="M0 0h24v16H0z"/></defs><g fill="none" fill-rule="evenodd"><mask id="b" fill="#fff"><use xlink:href="#a"/></mask><use fill="#287E6E" xlink:href="#a"/><path fill="#006DA0" mask="url(#b)" d="M0 12V0h24z"/><path fill="#287E6E" mask="url(#b)" d="M0 16h24V4z"/><path d="M-5 16L27.942-.47" stroke="#EDED4A" stroke-width="3.08" fill="#000" mask="url(#b)"/><g mask="url(#b)"><g fill="#FFF"><path d="M4.2 2.4l-.37 1.141.57.186z"/><path d="M4.2 2.4l.37 1.141-.57.186z"/><path d="M5.341 3.23h-1.2v.6z"/><path d="M5.341 3.23l-.97.705-.353-.486z"/><g><path d="M3.059 3.23l.97.705.353-.486z"/><path d="M3.059 3.23h1.2v.6z"/></g><g><path d="M4.905 4.57l-.37-1.14-.571.185z"/><path d="M4.905 4.57l-.97-.705.352-.485z"/><g><path d="M3.495 4.57l.97-.705-.352-.485z"/><path d="M3.495 4.57l.37-1.14.571.185z"/></g></g></g><g fill="#FFF"><path d="M1.831.37l-.37 1.14.57.186z"/><path d="M1.831.37l.37 1.14-.57.186z"/><path d="M2.972 1.199h-1.2v.6z"/><path d="M2.972 1.199l-.97.705-.353-.485z"/><g><path d="M.69 1.199l.97.705.353-.485z"/><path d="M.69 1.199h1.2v.6z"/></g><g><path d="M2.536 2.54l-.37-1.14-.571.185z"/><path d="M2.536 2.54l-.97-.705.352-.485z"/><g><path d="M1.126 2.54l.97-.705-.352-.485z"/><path d="M1.126 2.54l.37-1.14.571.185z"/></g></g><g><path d="M6.569 4.43l-.37 1.142.57.185z"/><path d="M6.569 4.43l.37 1.142-.57.185z"/><path d="M7.71 5.26h-1.2v.6z"/><path d="M7.71 5.26l-.97.705-.353-.485z"/><g><path d="M5.428 5.26l.97.705.353-.485z"/><path d="M5.428 5.26h1.2v.6z"/></g><g><path d="M7.274 6.601l-.37-1.141-.571.185z"/><path d="M7.274 6.601l-.97-.705.352-.486z"/><g><path d="M5.864 6.601l.97-.705-.352-.486z"/><path d="M5.864 6.601l.37-1.141.571.185z"/></g></g></g></g><g fill="#FFF"><path d="M6.569.37l.37 1.14-.57.186z"/><path d="M6.569.37l-.37 1.14.57.186z"/><path d="M5.428 1.199h1.2v.6z"/><path d="M5.428 1.199l.97.705.353-.485z"/><g><path d="M7.71 1.199l-.97.705-.353-.485z"/><path d="M7.71 1.199h-1.2v.6z"/></g><g><path d="M5.864 2.54l.37-1.14.571.185z"/><path d="M5.864 2.54l.97-.705-.352-.485z"/><g><path d="M7.274 2.54l-.97-.705.352-.485z"/><path d="M7.274 2.54l-.37-1.14-.571.185z"/></g></g><g><path d="M1.831 4.43l.37 1.142-.57.185z"/><path d="M1.831 4.43l-.37 1.142.57.185z"/><path d="M.69 5.26h1.2v.6z"/><path d="M.69 5.26l.97.705.353-.485z"/><g><path d="M2.972 5.26l-.97.705-.353-.485z"/><path d="M2.972 5.26h-1.2v.6z"/></g><g><path d="M1.126 6.601l.37-1.141.571.185z"/><path d="M1.126 6.601l.97-.705-.352-.486z"/><g><path d="M2.536 6.601l-.97-.705.352-.486z"/><path d="M2.536 6.601l-.37-1.141-.571.185z"/></g></g></g></g></g></g></svg>