<svg width="24" height="16" viewBox="0 0 24 16" xmlns="http://www.w3.org/2000/svg"><title>flag-cx</title><g fill="none" fill-rule="evenodd"><path fill="#006DA0" d="M0 0h24v16H0z"/><path fill="#287E6E" d="M0 0h24v16z"/><ellipse fill="#EDED4A" cx="12" cy="8" rx="2.168" ry="2.168"/><path d="M10.676 7.026c.148.204.373.545.554.456.14 0 .214.01.233.104.332.057.892-.084 1.24-.537 0 0 .029.004.018-.168.002-.075.103-.06.105-.036.014.038.012.065.03.066.044-.014.102-.11.151-.17.014-.028.006-.056.01-.09.025-.064.09-.05.104-.016.012.021.012.038.024.06.066.043.184.002.193.002.012-.053.046-.048.046-.048.044-.01.027-.006.056.009-.026.288.056.3.05.449.002.165-.05.212-.05.274.016.077.26.08.174.145-.075.04 0 .115-.113.145-.33.167-.392.31-.392.31s-.083.157-.092.157c-.056.104-.125.047-.164.098-.02.064-.042.205-.003.279.02.1-.002.156-.026.257-.022.211-.106.243-.116.317-.038.08.009.45-.028.45-.245.006-.433-.046-.53-.066.094-.407.057-.765.057-.802-.024-.291-.436-.22-.5-.26-.052-.01-.085-.053-.103-.071-.058-.007-.08-.02-.138-.026-.03.014-.012.03-.077.05-.164.02-.237-.144-.237-.144.008-.055-.37.011-.575-.036-.084.047-.121.185-.19.202-.002.043-.113-.035-.136-.078-.004-.123.108-.177.108-.177.089-.063.141-.073.184-.116.022-.108.01-.187.056-.268.04-.061.096-.032.135-.06.042-.027.06-.208.02-.257 0 0-.166-.15-.175-.16-.054-.155.064-.255.097-.244z" fill="#1C8A42"/><path d="M21.07 4.341c-.098-.388-.977-1.225-1.638-1.758-.157-.107-.26-.043-.24.11.083.137.144.288.227.425.023.091.066.155.089.247 0 0 .007.158.02.171.206.227.234.419.234.419.118.228.224.395.432.583.233.146.061.6.068.843 0 .153-.11.135-.205.117-.757-.695-1.507-.698-2.168-.899-.258-.027-.263.096-.178.165.462.494.896.83 1.468 1.11l.288.18c.11.09.22.182.329.274.253.164.274.315.274.329.007.308-.158.548-.206.644-.086.328-.26.384-.26.384-1.413.954-2.154 1.2-4.444.906-.035-.019-.254.018 0 .11.583.194 2.015.505 3.4-.15.333-.234.555-.158.796-.297.396-.244.961-.548 1.064-.582.309-.165 1.173-.35 1.372-.515.228-.018.465-.048.481-.244.075-.05.185-.014.266-.174.182-.031.151-.096.151-.096-.046-.128-.215-.18-.336-.274-.178-.06-.302-.078-.432-.014l-.123.055s-.193-.028-.193-.041c-.426-.024-.385-1.438-.536-2.028z" fill="#EDED4A"/><path d="M22.361 6.918c-.03.123-.163.172-.298.11-.135-.063-.22-.213-.19-.337.03-.123.163-.172.298-.109.135.063.22.213.19.336z" fill="#1C8A42"/><g fill="#FFF"><path d="M5.516 6.583l-.306-.287-.31.283.033-.418-.414-.066.348-.235-.207-.365.4.126.157-.39.151.392.402-.12-.212.362.345.239-.415.06.028.419zM6.601 10.053l-.33-.22-.321.232.113-.374-.326-.226.4-.01.12-.373.134.368.4-.004-.317.238.127.369zM5.576 13.04l-.306-.286-.31.282.034-.418-.414-.066.347-.234-.206-.365.4.125.156-.389.152.391.401-.12-.211.362.344.24-.414.06.027.418zM2.826 9.54l-.306-.287-.31.283.034-.418-.414-.066.347-.234-.206-.365.4.125.156-.389.152.391.401-.12-.211.362.344.239-.415.06.028.419zM8.118 8.623l-.306-.286-.31.282.034-.418-.414-.066.347-.234-.207-.365.4.125.157-.389.151.391.402-.12-.211.362.344.24-.415.06.028.418z"/></g></g></svg>