<svg width="24" height="16" viewBox="0 0 24 16" xmlns="http://www.w3.org/2000/svg" xmlns:xlink="http://www.w3.org/1999/xlink"><title>flag-sk</title><defs><path id="b" d="M0 0h24v16H0z"/><path id="a" d="M0 0h24v16H0z"/><mask id="d" x="0" y="0" width="24" height="16" fill="#fff"><use xlink:href="#a"/></mask></defs><g fill="none" fill-rule="evenodd"><mask id="c" fill="#fff"><use xlink:href="#b"/></mask><use fill="#006DA0" xlink:href="#b"/><path fill="#E84550" mask="url(#c)" d="M0 11h24v5H0z"/><path fill="#FFF" mask="url(#c)" d="M0 0h24v5H0z"/><g mask="url(#c)"><path d="M3.115 6.204c0-2.11.1-3.07.1-3.07h5.221s.101.96.101 3.07S6.942 9.38 5.826 9.917C4.711 9.38 3.115 8.313 3.115 6.204z" fill="#FFF"/><path d="M3.339 6.23c0-1.935.092-2.815.092-2.815h4.882V6.23c0 1.936-1.464 2.914-2.487 3.407-1.023-.493-2.487-1.471-2.487-3.407z" fill="#E84550"/><path d="M6.045 5.723c.277.004.818.015 1.299-.146 0 0-.013.172-.013.373 0 .2.013.373.013.373-.442-.148-.987-.15-1.3-.147v1.07h-.437v-1.07c-.312-.004-.857 0-1.299.147 0 0 .013-.172.013-.373 0-.2-.013-.373-.013-.373.482.161 1.022.15 1.3.146v-.671a3.072 3.072 0 0 0-1.029.147s.013-.172.013-.373c0-.2-.013-.373-.013-.373.411.138.775.15 1.027.148a5.97 5.97 0 0 0-.137-.961s.255.02.357.02c.102 0 .357-.02.357-.02s-.124.536-.137.96c.253.003.616-.01 1.027-.147 0 0-.013.172-.013.373 0 .2.013.373.013.373a3.072 3.072 0 0 0-1.028-.147v.67z" fill="#FFF"/><path d="M5.826 7.13c-.515 0-.791.714-.791.714s-.154-.339-.574-.339c-.285 0-.494.253-.627.488.517.823 1.343 1.331 1.992 1.644.65-.313 1.475-.82 1.993-1.644-.133-.235-.343-.488-.627-.488-.42 0-.575.34-.575.34s-.276-.716-.791-.716z" fill="#006DA0"/></g><use mask="url(#d)" xlink:href="#a" stroke="#E6E6E6"/></g></svg>