<svg width="24" height="16" viewBox="0 0 24 16" xmlns="http://www.w3.org/2000/svg"><title>flag-tf</title><g fill="none" fill-rule="evenodd"><path fill="#006DA0" d="M0 0h24v16H0z"/><path fill="#FFF" d="M0 0h9.76v6.56H0z"/><path fill="#006DA0" d="M0 0h3.2v6.4H0z"/><path fill="#E84550" d="M6.4 0h3.2v6.4H6.4z"/><path d="M14.2 7.32l.515.82h1.465V11l-1.1-1.72-1.48 2.36h.72l.76-1.36 1.56 2.8 1.56-2.8.76 1.36h.72L18.2 9.28 17.1 11V9.42h.66l.49-.78H17.1v-.5h1.465l.515-.82H14.2zm1.72 3.5h-1.6v.56h1.6v-.56zm3.04 0h-1.6v.56h1.6v-.56zM16.64 13.64l.494 1.52-1.293-.94h1.598l-1.293.94zM14.84 12.28l.494 1.52-1.293-.94h1.598l-1.293.94zM18.44 12.28l.494 1.52-1.293-.94h1.598l-1.293.94z" fill="#FFF"/><path d="M13.32 8.24l.494 1.52-1.293-.94h1.598l-1.293.94zM19.96 8.24l.494 1.52-1.293-.94h1.598l-1.293.94z" fill="#FFF"/></g></svg>