<svg width="25" height="17" viewBox="0 0 25 17" xmlns="http://www.w3.org/2000/svg" xmlns:xlink="http://www.w3.org/1999/xlink"><title>flag-nu</title><defs><path d="M0 0v3h14v3h-2L0 0zm0 6v2h6V0h6L0 6z" id="d"/><path id="f" d="M0 0h12v8H0z"/><path id="a" d="M0 .5L11.5 8h.5v-.5L.5 0H0z"/><mask id="h" x="-.5" y="-.5" width="13" height="9"><path fill="#fff" d="M-.5-.5h13v9h-13z"/><use xlink:href="#a"/></mask><path id="b" d="M0 .5L11.5 8h.5v-.5L.5 0H0z"/><mask id="i" x="-.5" y="-.5" width="13" height="9"><path fill="#fff" d="M-.5-.5h13v9h-13z"/><use xlink:href="#b"/></mask><path d="M6.857 3.265V0h-1.47v3.265H-.124v1.47h5.513V8h1.47V4.735h5.267v-1.47H6.857z" id="c"/><mask id="j" x="-.5" y="-.5" width="13.25" height="9"><path fill="#fff" d="M-.625-.5h13.25v9H-.625z"/><use xlink:href="#c"/></mask></defs><g fill="none" fill-rule="evenodd"><path fill="#006DA0" d="M1 1h24v16H1z"/><path d="M1 1l12 6m0-6L1 7" stroke="#FFF" stroke-width="1.2" fill="#000"/><g transform="translate(1 1)"><mask id="e" fill="#fff"><use xlink:href="#d"/></mask><path d="M0 0l12 6m0-6L0 6" stroke="#CF142B" stroke-width=".8" fill="#000" mask="url(#e)"/></g><path d="M7 1v8M1 4h14" stroke="#FFF" stroke-width="2" fill="#000"/><path d="M7 1v8M1 4h14" stroke="#CF142B" stroke-width="1.2" fill="#000"/><path fill="#EDED4A" d="M13 1h12v16H1V7h12z"/><g><g transform="translate(5.98 2.98)"><circle fill="#002868" cx="1.021" cy="1.021" r="1.021"/><path fill="#FCD116" d="M1.02 0l.6 1.847L.05.705h1.942L.42 1.847"/></g><path d="M3.5 3.458l.353 1.085-.924-.67h1.142l-.924.67M10.5 3.458l.353 1.085-.924-.67h1.142l-.924.67M7 5.458l.353 1.085-.924-.67h1.142l-.924.67M7 1.458l.353 1.085-.924-.67h1.142l-.924.67" fill="#FCD116"/></g><g transform="translate(1 1)"><mask id="g" fill="#fff"><use xlink:href="#f"/></mask><use fill="#006DA0" xlink:href="#f"/><g mask="url(#g)"><g transform="matrix(1 0 0 -1 0 8)"><use fill="#E8525D" xlink:href="#a"/><use stroke="#FFF" mask="url(#h)" stroke-linecap="round" stroke-linejoin="round" xlink:href="#a"/></g><use fill="#E8525D" xlink:href="#b"/><use stroke="#FFF" mask="url(#i)" stroke-linecap="round" stroke-linejoin="round" xlink:href="#b"/></g><g mask="url(#g)"><use fill="#C7152A" xlink:href="#c"/><use stroke="#FFF" mask="url(#j)" xlink:href="#c"/></g><path d="M6.857 3.265V0h-1.47v3.265H-.124v1.47h5.513V8h1.47V4.735h5.267v-1.47H6.857z" fill="#E84550" mask="url(#g)"/><circle fill="#006DA0" mask="url(#g)" cx="6" cy="4" r="2"/><path fill="#EDED4A" mask="url(#g)" d="M6.077 4.658L5.41 5l.206-.724L5 3.764l.744-.03L6.077 3l.333.735.744.029-.617.512.205.724zM9.538 4.33l-.332.17.102-.362L9 3.882l.372-.015.166-.367.167.367.372.015-.308.256.102.362zM2.538 4.33l-.332.17.102-.362L2 3.882l.372-.015.166-.367.167.367.372.015-.308.256.102.362zM6.038 1.33l-.332.17.102-.362L5.5.882l.372-.015L6.038.5l.167.367.372.015-.308.256.102.362zM6.038 7.33l-.332.17.102-.362-.308-.256.372-.015.166-.367.167.367.372.015-.308.256.102.362z"/></g></g></svg>