<svg width="24" height="17" viewBox="0 0 24 17" xmlns="http://www.w3.org/2000/svg" xmlns:xlink="http://www.w3.org/1999/xlink"><title>flag-vi</title><defs><path d="M3 4.773S5.777 3.526 5.784.64H.216C.223 3.526 3 4.773 3 4.773z" id="a"/></defs><g fill="none" fill-rule="evenodd"><path fill="#FFF" d="M.004.002h23.992v16.205H.004z"/><path d="M7.485 10.969s-.02-.133.23-.231.269-.462.22-.705c0 0-.131.231-.29.308 0 0-.257.136-.27.397 0 0-.001.095-.02.169-.011.04-.126-.326.09-.598.224-.281.287-.51.109-.953 0 0-.017.269-.191.423-.175.154-.197.166-.195.533 0 0 .003.127-.063.168 0 0-.136-.2-.172-.334-.036-.133-.053-.19.102-.343 0 0 .498-.326.139-1.04 0 0-.011.246-.183.391-.172.145-.158.243-.167.495-.008.251-.025.233-.044.269 0 0-.316-.589-.072-.903.244-.314.38-.379.11-.962 0 0 .013.3-.203.447-.215.148-.165.494-.165.494s.014.13-.03.225c0 0-.305-.602-.014-.926.246-.275.263-.468.13-.858 0 0-.017.18-.153.278-.136.097-.244.195-.219.571 0 0 .011.264-.022.338 0 0-.128-.24-.164-.397-.036-.157-.05-.249.045-.406.094-.157.469-.606.022-1.255 0 0-.014.21-.128.4-.113.19-.06.414-.036.586.025.172-.058.337-.058.337s-.194-.36-.153-.775c.042-.414-.124-.755-.502-1 0 0-.274.645.1.973 0 0 .32.32.4.708 0 0-.242-.024-.46-.456-.22-.432-.675-.364-.706-.367 0 0 .075.669.774.858 0 0 .447.077.53.409 0 0 .075.228.106.349 0 0-.142-.056-.272-.252-.13-.195-.114-.219-.555-.263 0 0-.178-.02-.272-.148 0 0 .186.707.663.701 0 0 .436-.047.68.533 0 0-.047-.03-.111-.074s-.225-.127-.544-.089c-.319.039-.408-.014-.488-.041 0 0 .322.598.777.42.455-.177.674.47.68.483 0 0-.062-.048-.142-.128-.08-.08-.248-.178-.563-.076 0 0-.228.088-.458.017 0 0 .222.435.74.361.52-.074.65.388.65.388s-.07-.041-.117-.08c-.047-.038-.222-.139-.596-.026-.375.112-.51-.018-.51-.018s.207.385.607.429c0 0 .222-.003.316-.038.094-.036.344-.092.516.16 0 0-.047.008-.12-.024 0 0-.265-.098-.468.074 0 0-.18.186-.436.15 0 0 .33.326.855.051 0 0 .177-.13.308-.03.13.101.433-.097.433-.097z" fill="#287E6E"/><path d="M11.016 2.327c-.071 0-.15.006-.24.016-.434.053-.373.604-.373.604.034-.025.116-.195.268-.17.152.024.208-.014.304-.012.304.007.333.278.333.384-.016.008-.035.026-.062.065a.713.713 0 0 0-.122.26c-.1.48-.377.515-.377.515.161.089.228.048.228.048-.145.07-.35.337-.35.337-.139.213-.244.178-.244.178.141.142.283.088.283.088-.094.19-.233.29-.233.29s3.201.294 3.087-.002c-.115-.296-.381-.503-.381-.503s.259-.03.323-.114c-.412-.201-.647-.624-.647-.624.117.036.298-.004.298-.004-.453-.643-.243-.803-.409-1.229-.166-.426-.451-.511-.522-.55-.07-.04-.541-.08-.719.011-.178.091-.189.223-.209.223-.02 0-.165-.023-.22.128a.316.316 0 0 0-.016.06zM18.55 2.8c.865-.178 2.308-.639 2.308-.639.618-.173 1.14-.545 1.31-.228.177.332-.23.54-.23.54.156.45-.336.612-.336.612.244.47-.809.762-.809.762.093.217-.087.379-.087.379-.31.284-.94.419-.94.419a.257.257 0 0 1 .027.062.264.264 0 0 1-.048.25c-.2.23-.892.339-.892.339.067.003.07.07.07.07.023.119-.044.186-.044.186-.151.245-.758.343-.758.343.137.154-.093.3-.093.3-.276.214-.95.217-.95.217s.166.123.092.36c-.087.278-.407.193-.407.193.082.024.174.225.023.428-.152.203-.448.144-.448.144s0 .142-.17.236-.372-.025-.372-.025c-.022.071-.06.196-.294.237-.233.042-.35-.1-.35-.1-.288.284-.632 0-.632 0l.081-.577c-.458-.249-.098-2.022-.098-2.022s.22-.167.61.03c0 0 .132.091.236-.01a.215.215 0 0 0-.024-.328c-.292-.22-.4-.876.044-1.149 0 0 .644-.386 3.004-.995 0 0 .087-.024.177-.033zM8.327 10.444c-.103.144-.313.387-.552.393 0 0-.586-.073-.751.082-.116.109-.233.198-.281.474-.049.276.092.336.125.347 0 0 .026.198.219.146 0 0 .01.206.35.107.341-.099.482-.067.548-.41.067-.344.128-.338.189-.38.081-.055.234-.107.348-.173.09-.053.407-.217.57-.264a.636.636 0 0 0 .025.114s.026-.099.163-.142c0 0 .248-.051.344-.415 0 0 .063-.24.451-.453 0 0 .44-.169.43-.388-.012-.22-.98-1.399-.98-1.399s-.071.386-.633.87c0 0-.433.388-.422.834.011.454-.078.505-.248.659 0 0 .043.003.105-.002z" fill="#F4C53D"/><path d="M16.942 10.267l.351-1.538.323.19-.058-1.85-.865 1.604.365-.007-.523 2.249.222.16.024-.104.066.039 1.442-2.809.265.272.393-1.802-1.224 1.31.353.095-1.134 2.191zm2.701-2.376l-.763 1.662-.2-.329-1.612 1.928-.174-.197 1.605-1.904-.325-.177 1.47-.983z" fill="#006DA0"/><path d="M5.45 2.8c-.865-.178-2.309-.639-2.309-.639-.618-.173-1.14-.545-1.31-.228-.177.332.23.54.23.54-.155.45.337.612.337.612-.244.47.808.762.808.762-.092.217.087.379.087.379.31.284.94.419.94.419a.257.257 0 0 0-.026.062.264.264 0 0 0 .048.25c.2.23.891.339.891.339-.067.003-.07.07-.07.07-.022.119.044.186.044.186.152.245.758.343.758.343-.136.154.093.3.093.3.276.214.95.217.95.217s-.166.123-.092.36c.087.278.407.193.407.193-.081.024-.174.225-.022.428.151.203.447.144.447.144s0 .142.17.236.372-.025.372-.025c.022.071.061.196.294.237.233.042.35-.1.35-.1.288.284.632 0 .632 0l-.08-.577c.458-.249.097-2.022.097-2.022s-.22-.167-.61.03c0 0-.132.091-.236-.01a.215.215 0 0 1 .025-.328c.291-.22.4-.876-.045-1.149 0 0-.643-.386-3.003-.995 0 0-.088-.024-.177-.033zM15.673 10.444c.104.144.313.387.553.393 0 0 .585-.073.75.082.116.109.233.198.282.474.048.276-.093.335-.126.347 0 0-.026.198-.218.146 0 0-.012.206-.352.107-.34-.099-.48-.067-.547-.41-.067-.344-.128-.338-.189-.38-.081-.055-.234-.107-.348-.173a3.709 3.709 0 0 0-.57-.264.636.636 0 0 1-.025.114s-.026-.099-.163-.142c0 0-.248-.051-.344-.415 0 0-.063-.24-.451-.453 0 0-.44-.169-.43-.388.012-.22.98-1.399.98-1.399s.071.386.633.87c0 0 .433.388.422.834-.011.454.078.505.248.659 0 0-.043.003-.105-.002zM11.788 10.506c-.185-.305-.83-1.288-1.237-.823-.167.192-.217.321-.211.408-1.597 1.487-.82 1.618-.82 1.618 0 .383.336.292.336.292-.037.406.274.351.274.351-.004.458.329.379.329.379.06.49.425.292.425.292-.018.418.23.442.23.442.289.03.408-.272.44-.378.002.07.006.14.01.205.026.328.2.595.436.595.237 0 .41-.267.435-.595a3.82 3.82 0 0 0 .01-.205c.033.106.152.408.441.378 0 0 .248-.024.23-.442 0 0 .366.197.425-.292 0 0 .333.079.33-.379 0 0 .31.055.273-.351 0 0 .337.09.337-.292 0 0 .777-.13-.82-1.618.005-.087-.045-.216-.212-.408-.406-.465-1.052.518-1.237.823-.057-.073-.131-.117-.212-.117-.08 0-.155.044-.212.117z" fill="#F4C53D"/><g transform="translate(9 6)"><mask id="b" fill="#fff"><use xlink:href="#a"/></mask><use fill="#FFF" xlink:href="#a"/><path fill="#E84550" mask="url(#b)" d="M.75 4.5v.25h.5V.25h-.5V.5zM1.55 4.5v.25h.5V.25h-.5V.5zM2.35 4.5v.25h.5V.25h-.5V.5zM3.15 4.5v.25h.5V.25h-.5V.5zM3.95 4.5v.25h.5V.25h-.5V.5zM4.75 4.5v.25h.5V.25h-.5V.5z"/></g><path d="M14.356 13.526l.71.666"/><path d="M16.488 11.865l.002.001-.052.215.151.263-.06.117.149.151-.418 1.788-.372-.506-.55.26.102-.439-.407.483-.106-.633-.6-.046 1.155-1.37.107.028.17-.325.4.001.205-.403s.15 0 .225.121v.001c.023.032.04.071.036.116l-.137.177z" fill="#006DA0"/><path d="M7.427 11.786s-.008-.24.291-.257l.883 1.243s-.034.08-.433.07c0 0-.042 0-.065.048-.034.072-.676-1.104-.676-1.104z" fill="#287E6E"/><path d="M14.784 4.546s-1.363.722-2.784-.06c-1.421.782-2.784.06-2.784.06V6.64h5.568V4.546zM2.282 9.98c.135-.056.232-.11.231-.255 0-.035-.019-.112-.057-.231L1.55 6.688a2.423 2.423 0 0 0-.113-.302c-.041-.08-.121-.111-.229-.157H2.36c-.125.06-.24.108-.238.242a.8.8 0 0 0 .044.217L2.86 8.89l.694-2.202a.767.767 0 0 0 .044-.217c-.002-.138-.12-.188-.237-.242h1.116c-.102.042-.185.074-.228.157-.019.036-.06.135-.113.302L3.23 9.494c-.038.119-.052.197-.058.233 0 0-.041.178.232.253H2.282zM21.592 9.692V6.515a.245.245 0 0 0-.027-.126.497.497 0 0 0-.206-.16h1.037a.43.43 0 0 0-.206.158.252.252 0 0 0-.027.128v3.177c0 .057.009.1.028.13.018.03.094.104.205.158H21.36a.547.547 0 0 0 .206-.16.251.251 0 0 0 .027-.128z" fill="#006DA0"/></g></svg>