<svg width="24" height="16" viewBox="0 0 24 16" xmlns="http://www.w3.org/2000/svg"><title>flag-ar</title><g fill="none" fill-rule="evenodd"><path fill="#77DAE0" d="M0 .033h23.963v5.336H0z"/><path fill="#FFF" d="M0 5.348h23.963v5.336H0z"/><path fill="#77DAE0" d="M0 10.662h23.963V16H0z"/><g fill="#F6B40E"><path d="M12 10.017L11.473 12l.005-2.051-1.022 1.778.535-1.98-1.447 1.454 1.03-1.775-1.775 1.03 1.454-1.447-1.98.535 1.778-1.022L8 8.527 9.983 8 8 7.473l2.051.005-1.778-1.022 1.98.535-1.454-1.447 1.775 1.03-1.03-1.775 1.447 1.454-.535-1.98 1.022 1.778L11.473 4 12 5.983 12.527 4l-.005 2.051 1.022-1.778-.535 1.98 1.447-1.454-1.03 1.775 1.775-1.03-1.454 1.447 1.98-.535-1.778 1.022L16 7.473 14.017 8 16 8.527l-2.051-.005 1.778 1.022-1.98-.535 1.454 1.447-1.775-1.03 1.03 1.775-1.447-1.454.535 1.98-1.022-1.778.005 2.051z"/><ellipse cx="2.333" cy="2.333" rx="2.315" ry="2.315" transform="translate(9.667 5.667)" stroke="#85340A" stroke-width=".5"/></g></g></svg>