<svg width="24" height="16" viewBox="0 0 24 16" xmlns="http://www.w3.org/2000/svg"><title>flag-ad</title><g fill="none" fill-rule="evenodd"><path fill="#E84550" d="M0 0h24v16H0z"/><path fill="#EDED4A" d="M0 0h16.32v16H0z"/><path fill="#006DA0" d="M0 0h7.68v16H0z"/><path d="M11.265 4.308c.29 0 .407.236.697.236.178 0 .282-.055.438-.139a.558.558 0 0 1 .302-.09c.128 0 .206.037.272.141a.387.387 0 0 1 .05.241 1.36 1.36 0 0 1-.101.296c-.025.056-.05.09-.05.15 0 .146.21.197.352.199.03 0 .291.004.451-.15-.087-.004-.184-.068-.184-.15 0-.094.07-.158.163-.185.018-.005.048.01.064.002.023-.011.013-.036.033-.051.047-.036.077-.058.137-.058a.14.14 0 0 1 .093.027c.016.011.022.025.043.025.043 0 .064-.026.107-.026a.17.17 0 0 1 .086.02c.026.012.025.053.054.053.014 0 .09-.03.13-.03.083 0 .127.03.18.089.015.016.024.049.04.049a.24.24 0 0 1 .18.105c.01.015.024.051.041.058.02.007.037.006.064.022.06.037.107.106.105.174 0 .022-.011.054-.018.075-.07.236-.238.31-.408.512-.072.086-.13.155-.13.265 0 .027.035.075.05.098-.009-.052.016-.116.074-.119a.144.144 0 0 1 .15.128.154.154 0 0 1-.013.065.37.37 0 0 1 .15-.05.487.487 0 0 1 .071-.004c.126.003.265.07.35.139a.735.735 0 0 1 .274.599c-.031.188-.011.53-.517.665.093.038.157.105.157.187 0 .09-.072.167-.166.167a.168.168 0 0 1-.13-.049c-.104.1-.125.203-.125.344a.42.42 0 0 0 .055.212c.04.081.068.129.139.187.038-.054.077-.093.146-.093.066 0 .122.02.149.077.008.018 0 .032.01.049.012.022.032.026.044.048.02.034 0 .062.017.097.01.023.034.026.044.049a.2.2 0 0 1 .02.097c0 .107-.102.184-.215.184-.034 0-.052-.013-.086-.01.064.061.113.088.163.162a.62.62 0 0 1 .105.307.75.75 0 0 1-.098.462.726.726 0 0 1-.265.303c-.205.14-.354.18-.6.226-.16.03-.25.042-.411.052-.206.013-.324.013-.53.026-.27.017-.456.054-.648.236.09.063.153.125.153.23 0 .11-.07.188-.18.222-.025.008-.044.001-.068.013-.028.014-.027.045-.054.062a.242.242 0 0 1-.142.035.315.315 0 0 1-.241-.09c-.083.065-.11.124-.204.174-.03.016-.046.039-.081.039-.056 0-.081-.034-.126-.065a.847.847 0 0 1-.166-.145c-.084.048-.136.087-.234.087a.253.253 0 0 1-.15-.039c-.026-.015-.03-.039-.057-.055-.028-.016-.051-.01-.081-.022-.114-.047-.187-.127-.187-.244 0-.103.068-.169.166-.212-.188-.179-.372-.21-.638-.226-.204-.013-.321-.013-.525-.026-.163-.01-.253-.026-.414-.052-.122-.019-.194-.025-.306-.074-.383-.17-.628-.404-.678-.804-.004-.035-.004-.055-.004-.09 0-.208.087-.335.241-.482-.04-.01-.066.003-.105-.01-.097-.033-.166-.097-.166-.195 0-.037.002-.061.02-.093.013-.022.038-.026.044-.051.008-.033-.002-.057.014-.087.01-.021.03-.025.04-.046.034-.066.076-.12.153-.12.066 0 .109.034.143.088.064-.028.082-.074.119-.132a.46.46 0 0 0 .088-.277.522.522 0 0 0-.034-.198c-.019-.054-.026-.09-.068-.13a.168.168 0 0 1-.129.049.19.19 0 0 1-.19-.19c0-.077.04-.134.112-.166-.058-.047-.109-.051-.173-.09-.098-.06-.132-.121-.197-.213-.042-.06-.053-.103-.074-.172a.643.643 0 0 1-.038-.277.727.727 0 0 1 .173-.424.508.508 0 0 1 .217-.174c.087-.036.139-.062.233-.062.028 0 .045 0 .073.004.043.005.07.009.108.029.015.007.041.03.041.014 0-.018-.01-.028-.01-.047 0-.074.056-.142.134-.142.056 0 .08.048.107.094a.135.135 0 0 0 .027-.08c0-.124-.07-.186-.15-.282-.174-.208-.393-.305-.393-.572 0-.08.04-.133.112-.174.02-.012.049 0 .07-.013.016-.01.014-.032.025-.049.018-.026.033-.037.057-.057.04-.033.075-.023.12-.053.021-.014.027-.033.044-.052.049-.057.093-.084.17-.084.04 0 .061 0 .098.014.012.004.035.022.038.018a.176.176 0 0 1 .054-.041.159.159 0 0 1 .082-.02c.042 0 .069.021.11.021.016 0 .02-.014.031-.022.037-.024.059-.037.104-.037.043 0 .067.014.103.036.034.02.04.048.075.067.02.011.036.006.057.013.097.03.17.092.17.19 0 .052-.013.09-.054.124-.033.027-.064.022-.106.035.135.103.253.128.425.128.158 0 .35-.061.35-.211 0-.07-.04-.108-.069-.172a.643.643 0 0 1-.08-.306.34.34 0 0 1 .072-.238c.062-.083.137-.102.244-.102z" fill="#C7B37F"/><path d="M9.904 5.697h1.972v1.875H9.904zm2.182 0h1.973v1.875h-1.973zM9.911 9.198a.458.458 0 0 0 .052.151c.036.053.023.052.103.137a.668.668 0 0 0 .314.16c.156.039.266.041.397.036.103-.003.181-.015.246-.024a2.73 2.73 0 0 1 .414-.023c.058.003.115.012.176.023.13.025.263.073.263.073V7.773H9.904V9.11s.004.065.007.087z" fill="#E84550"/><path d="M14 9.349c-.036.053-.023.051-.103.137a.668.668 0 0 1-.314.16 1.279 1.279 0 0 1-.397.036c-.103-.004-.181-.016-.246-.024a2.732 2.732 0 0 0-.415-.023 1.294 1.294 0 0 0-.175.023c-.13.025-.265.073-.265.073l.002-1.958h1.972V9.11s-.004.066-.007.087A.458.458 0 0 1 14 9.35z" fill="#EDED4A"/></g></svg>