<svg width="24" height="16" viewBox="0 0 24 16" xmlns="http://www.w3.org/2000/svg" xmlns:xlink="http://www.w3.org/1999/xlink"><title>flag-ms</title><defs><path id="d" d="M0 0h24v16H0z"/><path id="f" d="M0 0h12v8H0z"/><path id="a" d="M0 .5L11.5 8h.5v-.5L.5 0H0z"/><mask id="h" x="-.5" y="-.5" width="13" height="9"><path fill="#fff" d="M-.5-.5h13v9h-13z"/><use xlink:href="#a"/></mask><path id="b" d="M0 .5L11.5 8h.5v-.5L.5 0H0z"/><mask id="i" x="-.5" y="-.5" width="13" height="9"><path fill="#fff" d="M-.5-.5h13v9h-13z"/><use xlink:href="#b"/></mask><path d="M6.857 3.265V0h-1.47v3.265H-.124v1.47h5.513V8h1.47V4.735h5.267v-1.47H6.857z" id="c"/><mask id="j" x="-.5" y="-.5" width="13.25" height="9"><path fill="#fff" d="M-.625-.5h13.25v9H-.625z"/><use xlink:href="#c"/></mask></defs><g fill="none" fill-rule="evenodd"><mask id="e" fill="#fff"><use xlink:href="#d"/></mask><use fill="#006DA0" xlink:href="#d"/><g mask="url(#e)"><mask id="g" fill="#fff"><use xlink:href="#f"/></mask><use fill="#006DA0" xlink:href="#f"/><g mask="url(#g)"><g transform="matrix(1 0 0 -1 0 8)"><use fill="#E8525D" xlink:href="#a"/><use stroke="#FFF" mask="url(#h)" stroke-linecap="round" stroke-linejoin="round" xlink:href="#a"/></g><use fill="#E8525D" xlink:href="#b"/><use stroke="#FFF" mask="url(#i)" stroke-linecap="round" stroke-linejoin="round" xlink:href="#b"/></g><g mask="url(#g)"><use fill="#C7152A" xlink:href="#c"/><use stroke="#FFF" mask="url(#j)" xlink:href="#c"/></g><path d="M6.857 3.265V0h-1.47v3.265H-.124v1.47h5.513V8h1.47V4.735h5.267v-1.47H6.857z" fill="#E84550" mask="url(#g)"/></g><g mask="url(#e)"><path d="M14.011 6.013h6.167l-.007 4.388c.051 1.764-1.048 2.859-3.071 3.352-1.437-.357-3.093-1.095-3.096-3.302l.007-4.438z"/><path d="M14.148 6.145h5.893l-.007 4.205c.05 1.69-1.001 2.74-2.935 3.212-1.373-.342-2.956-1.049-2.958-3.164l.007-4.253z" stroke="#000" stroke-width=".2" fill="#00A2BD"/><path d="M19.917 10.93c-.209 1.515-1.418 2.178-2.818 2.53-1.24-.322-2.574-.834-2.832-2.523l5.65-.008z" fill="#A53D08"/><path fill="#000" d="M16.866 6.928l-.009-.53.42.004.004.526h1.146l.004.411-1.15.004-.01 4.845-.408.003-.006-4.852-1.142.004v-.419z"/><path d="M15.938 11.048l1.049 1.088c.363-.398.111-1.889-.366-2.163-.057.176-.155.388-.258.456-.227.155-.785.336-.599.452.043-.059.154-.114.206.017.063.206-.232.219-.232.219s-.186-.023-.219-.213c-.032-.19.278-.363.304-.376.026-.01.432-.117.5-.477.085-.353.174-.3.19-.307.53.052.876 1 .896 1.667.02.667-.272 1.108-.324 1.137-.052.03-1.262-1.435-1.262-1.435l.115-.065z" fill="#FF9A08"/><path d="M17.284 7.946c.072-.063.11-.1.155-.094a.374.374 0 0 0 .151-.01c.045-.014.269-.042.36-.01.031.003.073.02.137.074.064.053.157.147.126.407-.03.26-.02.37-.034.515-.024.256-.081.467-.184.45.139.243.153.45.242.616.09.167.146.506.111.873-.034.367-.131 1.19.16 1.744-.049.035-.167 0-.27-.11-.104-.111-.15-.108-.236-.042-.263.2-.51.443-.872.2-.083-.055-.11-.121-.049-.29.153-.422.227-1.002.203-1.274v-3.05z" fill="#008021"/><path d="M17.533 7.686a.287.287 0 0 1-.002.204.276.276 0 0 0 .014.253c.083-.118.201-.094.27-.163.07-.069.083-.135.135-.149-.052-.045-.131-.093-.114-.225.017-.131.2-.238.035-.44a.243.243 0 0 0-.331-.042.24.24 0 0 0-.07.08c-.01.022.003.073-.022.103a.34.34 0 0 1-.062.059c-.016.011-.025.027-.009.047.007.007.02.009.033.013a.27.27 0 0 1-.026.043c-.008.01-.004.02.005.03-.013.04.013.045-.005.076-.015.027-.035.06.021.09.016.009.09.026.128.021zM16.86 8.375c-.097.024-.253-.017-.37-.004-.053.007-.094-.02-.087-.072a.786.786 0 0 0 .003-.204c-.016-.114.038-.27.115-.444.076-.173.114-.27.114-.35 0-.055.005-.115.054-.146.035-.023.042-.046.055-.064.03-.044.057-.054.06-.028.003.015-.003.03-.017.05.031-.026.084-.056.096-.065.012-.008.074-.052.077-.011.024-.012.04-.011.047.002.007.014.003.02-.01.03.018-.003.038.027.003.054.018-.006.036.024.004.052-.033.028-.07.048-.083.07a.447.447 0 0 1-.127.1c-.033.014-.035.033-.035.081 0 .533-.064.49-.064.618 0 .035-.006.066.028.056.035-.01.085-.026.137-.026v.3zM16.88 9.524c.157-.078.336-.107.43-.131.093-.025.242-.097.315-.135.073-.039.131-.09.173-.104a.195.195 0 0 0 .114-.094c.135-.263.208-.474.208-.657 0-.122-.031-.257-.149-.16a.889.889 0 0 0-.263.395c-.049.194-.09.235-.1.273-.01.038-.05.038-.097.049a.803.803 0 0 0-.405.19 4.08 4.08 0 0 1-.43.277c-.11.062-.131.07-.155.12a.478.478 0 0 1-.068.11.087.087 0 0 0-.022.077c.003.022-.007.126-.009.16-.002.035.007.044.02.045.015.002.034-.005.04-.046-.006.041.05.027.054-.004-.002.045.06.02.063-.022 0 .03.045.009.05-.005.01-.035.019-.073.033-.1.02-.041.041-.093.081-.122.045-.033.024-.07.118-.116zM18.028 12.36c.013.037.037.08.045.106.01.026-.006.034-.015.049a.848.848 0 0 0-.101.263c-.004.038-.037.074-.052.097-.016.025-.01.044.028.067.019.012.078-.003.084-.027.022.017.06.01.078-.016.02.016.052.005.074-.02.019.01.047-.011.058-.025.03.012.062-.003.063-.05 0-.01.008-.026.017-.037.008-.012.011-.033.01-.052a.162.162 0 0 1 .035-.084c.02-.027.056-.075.04-.12-.013-.042-.036-.038-.055-.098-.048-.04-.112-.095-.18-.099-.066-.003-.105.033-.129.045zM17.017 12.93c.104.191.337.198.5-.122a1.395 1.395 0 0 1-.248-.245c-.081.15-.174.32-.252.368z" fill="#FFE1CF"/><path d="M17.507 7.153c.02-.123.106-.12.161-.107.023.005.078.01.13-.004.103-.027.18.009.17.108.027.02.057.069.051.11-.005.042.004.06.042.064.038.006.12.052.066.118.052.031.091.11.064.164-.028.054-.11.063-.146.014-.038.018-.1.021-.138-.019-.026.031-.092.028-.104 0a.087.087 0 0 0-.057-.05c-.028-.009-.03-.085.012-.093-.005-.023-.003-.049.007-.061.01-.012.002-.035-.022-.054-.025-.019-.045-.091-.021-.131-.042.014-.133-.026-.152-.054-.02-.028-.045-.03-.063-.005z" fill="#870F00"/></g></g></svg>