<svg width="24" height="16" viewBox="0 0 24 16" xmlns="http://www.w3.org/2000/svg"><title>flag-ve</title><g fill="none" fill-rule="evenodd"><path fill="#006DA0" d="M0 0h24v16H0z"/><path fill="#EDED4A" d="M0 0h24v5H0z"/><path fill="#E84550" d="M0 11h24v5H0z"/><path d="M12 7.474l-.55.304.17-.643-.509-.456.614-.026L12 6l.275.653.614.026-.509.456.17.643-.55-.304zm2 .445l-.55.303.17-.643-.509-.456.614-.026.275-.653.275.653.614.026-.509.456.17.643L14 7.92zm-4 0l-.55.303.17-.643-.509-.456.614-.026.275-.653.275.653.614.026-.509.456.17.643L10 7.92zM8.889 9.696l-.55.304.17-.643L8 8.9l.614-.026.275-.653.275.653.614.026-.51.456.17.643-.55-.304zm6.222 0l-.55.304.17-.643-.509-.456.614-.026.275-.653.275.653.614.026-.509.456.17.643-.55-.304z" fill="#FFF"/></g></svg>