<svg width="24" height="16" viewBox="0 0 24 16" xmlns="http://www.w3.org/2000/svg" xmlns:xlink="http://www.w3.org/1999/xlink"><title>flag-ke</title><defs><path id="a" d="M0 0h24v16H0z"/></defs><g fill="none" fill-rule="evenodd"><mask id="b" fill="#fff"><use xlink:href="#a"/></mask><use fill="#299D56" xlink:href="#a"/><path fill="#FFF" mask="url(#b)" d="M0 0h24v16H0z"/><path fill="#287E6E" mask="url(#b)" d="M0 12h24v4H0z"/><path fill="#2B3541" mask="url(#b)" d="M0 0h24v4H0z"/><g mask="url(#b)"><path d="M9.082 13.331l.272.157 4.894-8.476c.376-.024.534-.297.69-.569.106-.181.525-.907.57-1.929-.862.55-1.281 1.276-1.386 1.458-.157.272-.314.544-.147.883L9.082 13.33z" stroke="#313D49"/><path d="M9.082 13.331l.272.157 4.894-8.476c.376-.024.534-.297.69-.569.106-.181.525-.907.57-1.929-.862.55-1.281 1.276-1.386 1.458-.157.272-.314.544-.147.883L9.082 13.33z" fill="#FFF"/></g><g mask="url(#b)"><path d="M14.918 13.331l-.272.157-4.894-8.476c-.376-.024-.534-.297-.69-.569a4.245 4.245 0 0 1-.57-1.929c.862.55 1.281 1.276 1.386 1.458.157.272.314.544.147.883l4.893 8.476z" stroke="#313D49"/><path d="M14.918 13.331l-.272.157-4.894-8.476c-.376-.024-.534-.297-.69-.569a4.245 4.245 0 0 1-.57-1.929c.862.55 1.281 1.276 1.386 1.458.157.272.314.544.147.883l4.893 8.476z" fill="#FFF"/></g><path d="M0 5.5v5h10.1c.3.833 1.3 2.5 1.9 2.5.6 0 1.6-1.667 1.9-2.5H24v-5H13.9C13.6 4.667 12.6 3 12 3c-.6 0-1.6 1.667-1.9 2.5H0z" fill="#E84550" mask="url(#b)"/><path d="M14.986 10.895c.471-.838.785-1.676.785-2.514 0-.838-.314-1.676-.785-2.514-.472.838-.786 1.676-.786 2.514 0 .838.314 1.676.786 2.514" fill="#313D49" mask="url(#b)"/><path d="M.786 5.029c.471-.839.785-1.677.785-2.515C1.571 1.676 1.257.838.786 0 .314.838 0 1.676 0 2.514 0 3.352.314 4.19.786 5.03" transform="matrix(-1 0 0 1 9.8 5.867)" mask="url(#b)" fill="#313D49"/><g transform="translate(10.786 2.067)" mask="url(#b)"><ellipse fill="#FFF" cx="1.214" cy="6.314" rx=".629" ry=".629"/><path d="M1.371 6.927S2 7.765 2 9.127s-.629 2.2-.629 2.2v-4.4zM1.057 5.701S.43 4.863.43 3.501c0-1.361.628-2.2.628-2.2v4.4zM1.057 6.927s-.628.838-.628 2.2.628 2.2.628 2.2v-4.4zM1.371 5.701S2 4.863 2 3.501c0-1.361-.629-2.2-.629-2.2v4.4z" fill="#FFF"/></g></g></svg>