<svg width="24" height="16" viewBox="0 0 24 16" xmlns="http://www.w3.org/2000/svg"><title>flag-cw</title><g fill="none" fill-rule="evenodd"><path fill="#006DA0" d="M0 0h24v16H0z"/><path fill="#EDED4A" d="M0 10h24v2H0z"/><g fill="#FFF"><path d="M5.333 3.556l-.549 1.69.845.275z"/><path d="M5.333 3.556l.55 1.69-.846.275z"/><path d="M7.024 4.784H5.246v.889z"/><path d="M7.024 4.784L5.586 5.829l-.523-.72z"/><g><path d="M3.643 4.784L5.08 5.829l.522-.72z"/><path d="M3.643 4.784H5.42v.889z"/></g><g><path d="M6.378 6.772l-.55-1.691-.844.275z"/><path d="M6.378 6.772L4.94 5.727l.523-.72z"/><g><path d="M4.288 6.772l1.439-1.045-.523-.72z"/><path d="M4.288 6.772l.55-1.691.845.275z"/></g></g></g><g fill="#FFF"><path d="M2.667 1.333l-.412 1.268.634.206z"/><path d="M2.667 1.333l.412 1.268-.634.206z"/><path d="M3.935 2.255H2.6v.666z"/><path d="M3.935 2.255l-1.079.783-.392-.539z"/><g><path d="M1.399 2.255l1.078.783.392-.539z"/><path d="M1.399 2.255h1.333v.666z"/></g><g><path d="M3.45 3.745l-.412-1.268-.634.206z"/><path d="M3.45 3.745l-1.078-.783.392-.54z"/><g><path d="M1.883 3.745l1.079-.783-.392-.54z"/><path d="M1.883 3.745l.412-1.268.634.206z"/></g></g></g></g></svg>